<?xml version="1.0" encoding="utf-8"?>
<svg width="53px" height="53px" viewBox="0 0 53 53" version="1.1" xmlns:xlink="http://www.w3.org/1999/xlink" xmlns="http://www.w3.org/2000/svg">
  <defs>
    <path d="M0 0L253 0L253 50L0 50L0 0Z" id="path_1" />
    <clipPath id="mask_1">
      <use xlink:href="#path_1" />
    </clipPath>
  </defs>
  <g id="logo-large_white" transform="translate(1 1.5)">
    <path d="M0 0L253 0L253 50L0 50L0 0Z" id="Background" fill="none" fill-rule="evenodd" stroke="none" />
    <g clip-path="url(#mask_1)">
      <g id="Group" transform="translate(3.1552124 2.2000008)">
        <path d="M0 19.8C0 20.05 0 20.3 0.400002 20.3C0.800003 20.3 1 20.05 1 19.8C1 19.55 0.799999 19.3 0.599998 19.3C0.599998 19.3 0.599998 19.3 0.599998 19.3C0.199997 19.3 0 19.55 0 19.8L0 19.8ZM11.3 14.2C11.4 13.3 11.5 11.8 11.4 11.8L11.5 11.7C11.5 11.7 11.5 12.7 11.4 14.1C11.3 15.2 11.4 16.1 11.4 16.4C11.4 16.7 11.5 17.6 11.7 17.6C11.9 17.6 12.1 16.9 12.1 16.9C12.1 16.9 12 16.6 12 16.2C12 15.9 12.3 15.4 12.6 15.4C12.9 15.4 12.8 15.9 12.6 15.9C12.4 15.9 12.4 15.6 12.4 15.6C12 15.8 12.4 16.8 12.6 16.7C13 16.5 13.1 15.6 13.1 15.6C13.1 15.6 13.1 15.3 13 15.2C13 15.1 13 15 13 14.9C13.3 15 13.3 14.8 13.3 14.8C13.3 15.6 13.5 16.3 13.6 16.3C13.8 16.3 13.9 15.6 13.9 15.6C13.8 15.3 13.7 15.1 13.8 14.8C13.8 14.5 14 14.2 14.3 14.2C14.6 14.2 14.6 14.7 14.4 14.8C14.1 14.8 14.2 14.5 14.2 14.5C13.9 14.7 14.1 15.7 14.5 15.6C14.9 15.5 15 14.8 15 14.8C14.9 14.6 14.8 14.4 14.8 14C14.8 13.6 15.1 13.2 15.4 13.3C15.6 13.3 15.6 13.7 15.4 13.8C15.3 13.7 15.3 13.4 15.3 13.4C15.1 13.6 15.1 13.9 15.2 14.2C15.4 14.5 15.6 14.5 15.8 14.3C16 14.1 16 13.4 16 13.4C16 13.4 15.5 12 15.1 10.6C14.7 8.8 14.3 7 14.3 7L14.3 6.9C14.3 6.9 14.7 8.40001 15.3 10.5C15.7 11.8 16.1 12.8 16.1 13C16.1 13.1 16.4 13.7 16.5 13.6C16.7 13.5 16.7 12.8 16.7 12.8C16.7 12.8 16 10.9 15.5 8.8C15 6.8 14.6 5.4 14.6 5.4L14.6 5.3C14.6 5.3 15 6.5 15.5 8.6C16 10.4 16.6 11.9 16.6 11.9C16.6 11.9 16.6 11.4 16.8 11.2C17 11 17.3 11.2 17.3 11.2C17.3 11.2 17.2 10.1 17.8 10.1C18.4 10.1 18.4 11.3 18.4 11.3C18.8 10.7 18.8 10.3 18.8 10.3C18.6 10 18.5 9.4 18.5 9.4C18.5 9.4 18.4 9.8 18.2 9.9C18 10 17.3 9.5 17.1 8.7C16.8 7.6 16.7 5.8 16.7 5.8L16.7 5.7C16.7 5.7 16.9 7.3 17.2 8.5C17.4 9 18 9.6 18.2 9.4C18.5 9.2 18.4 8.8 18.4 8.8L18.5 8.6C18.6 9.3 18.9 9.9 19.1 9.9C19.4 9.9 19.4 9 19.4 9C19.3 8.9 19.1 8.8 19 8.4C18.8 8 18.9 7.6 19.1 7.5C19.4 7.4 19.7 7.8 19.5 8C19.3 8.1 19.1 7.8 19.1 7.8C18.7 8.2 19.6 8.8 19.8 8.7C20 8.5 19.9 7.8 19.9 7.8C19.4 7.4 19.3 6.8 19.3 6.5C19.3 6.2 19.6 6.2 19.7 6.3C19.8 6.4 19.9 6.6 19.8 6.7C19.7 6.8 19.5 6.6 19.5 6.6C19.2 7 19.9 7.7 20.2 7.5C20.5 7.3 20.2 6.7 20 6.4C19.8 6.2 19.7 5.9 19.7 5.7C19.6 5.4 19.7 5.4 19.7 5.4C19.8 5.7 20.6 6.8 20.6 6.7C20.7 6.5 20.6 5.9 20.6 5.9C20.6 5.9 19.8 4.9 18.9 3.8C18.5 3.3 18.1 2.7 17.7 2.2C17.4 1.7 17.1 1.3 16.7 0.9C16.6 0.799999 16.1 0.1 16.1 0.1L16.1 0C16.1 0 17.2 1.3 18.2 2.7C18.9 3.6 20.2 5 20.1 5C20.1 5 19.7 4.2 20.1 3.9C20.5 3.6 21.2 4 21.3 4.7C21.4 5 21.3 5.5 21 5.5C20.9 5.5 20.7 5.3 20.8 5.1C20.9 4.9 21.1 5.1 21.1 5.1C21.3 4.6 20.9 4.2 20.5 4.2C20.1 4.2 20.1 4.4 20.2 4.7C20.3 5 20.4 5.3 20.4 5.3C20.4 5.3 20.7 5.6 21.1 6.2C21.3 6.5 21.6 7 21.8 7.5C22.4 9 21.9 9.5 21.9 9.5L21.8 9.4C22.1 9 21.9 8.3 21.6 7.6C21.3 6.9 20.6 5.9 20.6 5.9C20.8 6.3 20.7 6.9 20.6 7C20.5 7.1 20.3 6.8 20.3 6.8C20.3 6.9 20.4 7.6 20.3 7.8C20.1 8 19.9 7.8 19.9 7.8C19.9 7.8 20.1 8.5 19.8 8.9C19.5 9.2 19.3 9 19.3 9C19.3 9 19.3 10 19.1 10.2C18.9 10.4 18.7 10.3 18.7 10.3C18.6 10.9 18.5 11.3 18.1 11.9C17.7 12.5 17.3 12.8 17.1 13.1C16.8 13.4 16.7 13.8 16.7 13.8C16.7 13.8 16.7 13.7 16.7 13.5C16.7 13.3 16.6 13 16.6 13C16.6 13 16.6 14 16.3 14C16.1 14.1 16 13.7 16 13.7C16 13.7 16 14.6 15.6 14.8C15.5 15 15.3 14.8 15.3 14.8C15.2 15.2 15 15.7 14.7 15.9C14.4 16 14.2 15.7 14.2 15.7C14 16.2 13.9 16.5 13.9 16.5C13.9 16.5 14 17.3 13.7 18.2C13.4 19.2 13 19.5 12.8 19.6C12.6 19.7 12.3 19.8 12.1 19.4C11.9 19 12.1 18.6 12.4 18.4C12.7 18.2 13 18.2 13.1 18.4C13.2 18.6 13.2 18.9 12.9 19C12.7 19.1 12.5 19 12.6 18.9C12.6 18.7 12.9 18.6 12.9 18.6C12.9 18.5 12.7 18.4 12.4 18.6C12.2 18.8 12.3 19.2 12.5 19.2C12.8 19.3 13.3 19 13.6 18.1C13.9 17.2 13.8 16.5 13.8 16.5C13.3 16.9 13.3 16.2 13.3 16.2C13.2 16.7 13 17.2 12.7 17.4C12.4 17.6 12.2 17.2 12.2 17.2C12.2 17.2 11.7 18.2 11.5 18.1C11.3 18 11.3 17.4 11.3 17.4C11.2 17.8 10.9 18.4 10.6 18.6C10.3 18.8 10.2 18.5 10.2 18.5C10.2 18.5 9.7 19.3 9.3 19.1C8.8 18.8 9.39999 17.8 9.39999 17.8C8.89999 18 8.8 18.3 8.69999 18.3C8.79999 17.8 9.69999 17.2 10.4 17C11 16.8 11.3 16.3 11.3 16.3C11.2 16.2 11.2 15.6 11.3 14.2L11.3 14.2L11.3 14.2ZM17.7608 12.2C17.9998 11.9 18.3584 11.5 18.3584 11.5C18.478 11.1 18.2389 10.6 17.7608 10.5C17.2826 10.5 17.4022 11.3 17.4022 11.3C17.7608 11.6 17.7608 12.2 17.7608 12.2L17.7608 12.2L17.7608 12.2ZM17.075 13.1C17.075 13 17.2 12.9 17.45 12.7C17.575 12.6 17.7 12.5 17.7 12.4C17.7 12.4 17.7 12.1 17.45 11.9C17.325 11.7 17.075 11.5 16.95 11.6C16.825 11.7 16.7 11.9 16.7 12.2C16.7 12.4 16.825 12.7 16.95 12.8C17.075 13 17.075 13.1 17.075 13.1L17.075 13.1L17.075 13.1ZM10.3 17.4C10.3 17.4 9.9 17.5 9.5 17.7C9.5 17.7 9 18.5 9.5 18.7C9.8 18.9 10.1 18.2 10.1 18.2C10.1 18.3 10 18 10.3 17.4L10.3 17.4ZM11.2 17.5C11.3 17.1 11.3 16.7 11.3 16.6C11.3 16.6 10.9 17.1 10.5 17.3C10.5 17.3 10 18.1 10.5 18.3C10.7 18.3 11 17.9 11.2 17.5L11.2 17.5L11.2 17.5Z" transform="translate(21.544792 22.799995)" id="Shape" fill="#FFFFFF" fill-rule="evenodd" stroke="none" />
        <path d="M20.7 15.5C20.7 15.5 21.2 14.7 21.8 13.6C22.4 12.5 23.3 11 24.3 9.5L24.4 9.5C24.4 9.5 24.2 9.8 23.9 10.3C23.6 10.7 23.3 11.2 22.9 12C22.1 13.4 21.4 14.8 21.4 14.8C21.4 14.8 21.9 14.3 22.5 14.3C23 14.3 22.9 14.8 22.9 14.8C22.9 14.8 23.3 14.3 23.9 14C23.9 14 23.7 13.6 24.3 13C24.7 12.6 25.5 12.4 26 12.7C26.5 13 26.9 13.9 25.2 15.2C25.2 15.2 25.9 15.3 26.6 14.5C26.6 14.5 26.6 14 26.9 13.6C27.2 13.2 27.4 13.1 27.6 13.3C27.7 13.4 27.7 13.6 27.6 13.7C27.5 13.8 27.3 13.9 27.2 13.6C27.2 13.6 27 13.7 26.9 14.1C26.8 14.6 27 14.8 27.3 14.7C27.6 14.6 28 14.2 28.2 13.4C28.2 13.4 28.2 13.3 28.3 13.1C28.4 12.7 28.5 12.1 28.6 11.5C28.8 10.5 29.3 9 29.7 6.90001L29.8 6.80001C29.8 6.80001 29.6 7.90001 29.2 10C28.7 12.1 28.6 12.9 28.5 13.4C28.4 13.8 28.4 14.3 28.5 14.3C28.6 14.3 28.8 14.1 28.9 13.9C28.9 13.8 29 13.8 29 13.8C29 13.8 29 13.9 29 13.9C28.9 14 28.7 14.3 28.5 14.5C28.3 14.7 28.1 14.6 28.2 14C28.2 14 27.8 14.9 27.1 15C26.7 15.1 26.7 14.7 26.7 14.7C26.7 14.7 26.2 15.1 25.7 15.4C25.7 15.4 25.2 16.4 24.5 17.1C23.8 17.8 23.1 17.9 22.8 17.7C22.5 17.5 22.6 17.1 22.9 16.9C23.1 16.7 23.5 16.6 23.7 16.7C24 16.8 23.9 17.1 23.8 17.2C23.7 17.3 23.6 17.5 23.3 17.4C23.1 17.3 23.3 17 23.6 17C23.6 17 23.3 16.8 23 17C22.7 17.2 22.9 17.5 23.2 17.6C23.5 17.7 23.9 17.5 24.2 17.2C24.5 16.9 25.1 16.3 25.4 15.6C25.4 15.6 25 15.7 24.5 15.7C24 15.7 23.6 15.7 23.3 15.8C23 15.9 22.7 16.1 22 16C22 16 21.5 16.8 20.9 17.3C20.4 17.8 19.9 17.8 19.6 17.5C19.6 17.5 18.6 18 18.2 17.6C17.9 17.3 18.1 16.9 18.3 16.7C18.6 16.5 18.9 16.4 19.2 16.6C19.8 17 19 17.6 18.7 17.3C18.6 17.2 18.7 17.1 18.7 17C18.8 16.9 19 16.9 19.1 17C19.1 17 19.2 16.9 19 16.7C18.8 16.6 18.6 16.7 18.4 16.8C18.3 16.9 18.2 17.1 18.5 17.3C18.8 17.5 19.2 17.5 19.7 17.2C20.2 17 20.8 16.3 21.2 15.8C21.2 15.8 19.9 15.6 19.5 16L19.2 16C19.2 16 19.7 15.4 20.7 15.5L20.7 15.5L20.7 15.5ZM21.8 15.9L21.3 15.9C21.3 15.9 20.5 16.9 19.9 17.2C19.9 17.2 20.1 17.4 20.3 17.3C20.5 17.3 20.9 17.1 21.3 16.6C21.6 16.1 21.7 15.9 21.8 15.9L21.8 15.9ZM22.3 15.6C22.3 15.6 22.9 15.7 23.2 15.5C23.5 15.3 23.7 15.2 24 15.2C24.3 15.2 24.5 15.2 24.7 15.2C24.9 15.2 25.4 14.9 25.8 14.4C26.2 13.9 26.2 13.3 25.6 13C25.1 12.8 24.6 12.9 24.3 13.2C24.1 13.4 24 13.6 24 13.8C24 13.8 24.3 13.7 24.5 13.8C24.7 13.9 24.8 14.2 24.7 14.3C24.6 14.5 24.4 14.6 24.1 14.4C23.9 14.3 23.8 14 23.8 14C23.8 14 23.4 14.2 23.1 14.5C23 14.9 22.5 15.4 22.3 15.6L22.3 15.6L22.3 15.6ZM24.5844 14.7901C24.7615 15.0431 24.9386 15.0431 25.1156 14.7901C25.2927 14.537 24.9386 13.7777 24.2302 14.0308C24.0532 14.0308 24.2302 14.2839 24.5844 14.7901L24.5844 14.7901L24.5844 14.7901ZM21.2 15.1L21 15.5C21.5 15.5 22.1 15.6 22.1 15.6C22.1 15.6 22.8 15 22.5 14.6C22.1 14.2 21.2 15.1 21.2 15.1L21.2 15.1ZM28.1609 15.3C28.1609 15.3 27.8874 15.4111 27.6139 15.6333C27.3405 15.8556 27.3405 16.3 27.8874 16.3C28.1608 16.3 28.4343 16.0778 28.4343 16.0778C28.4343 15.9667 27.8874 15.9667 28.1609 15.6333C27.8874 15.4111 28.1609 15.3 28.1609 15.3L28.1609 15.3L28.1609 15.3ZM27.7693 15.6C27.5705 15.6 27.5705 15.8 27.3717 15.9C27.3717 16 27.1729 16.2 26.9741 16.4C26.7753 16.5 26.7753 16.7 26.9741 16.7C27.1729 16.7 27.1729 16.6 27.3717 16.5C27.5705 16.4 27.5705 16.2 27.5705 15.9C27.5705 15.8 27.9681 15.6 27.7693 15.6L27.7693 15.6L27.7693 15.6ZM27.3437 15.9567C27.3437 15.7257 27.5144 15.7257 27.5144 15.6102C27.5144 15.4947 27.3437 15.4947 27.1729 15.7257C27.1729 15.8412 27.0021 16.0723 26.8313 16.1878C26.6606 16.3033 26.319 16.5343 26.6606 16.5343C26.8313 16.5343 27.1729 16.1878 27.3437 15.9567L27.3437 15.9567L27.3437 15.9567ZM40.0273 5.10922C40.0273 5.10922 39.8659 5.24307 40.0273 5.51077C40.1887 5.77846 40.673 6.18001 40.8345 6.04616C40.9959 5.91231 40.9959 5.64462 40.8345 5.64462C40.673 5.51077 40.5116 5.77846 40.1887 5.37692C40.0273 5.24307 40.0273 4.97538 40.0273 5.10922L40.0273 5.10922L40.0273 5.10922ZM39.9293 5.6C39.7586 5.7 39.9293 5.9 40.1 6C40.2706 6.1 40.2706 6.3 40.4413 6.5C40.4413 6.6 40.7827 6.8 40.7827 6.7C40.9534 6.7 40.7827 6.6 40.7827 6.4C40.7827 6.2 40.4413 6.1 40.2707 5.9C40.1 5.7 40.1 5.5 39.9293 5.6L39.9293 5.6L39.9293 5.6ZM40.3058 6.01365C40.087 5.80566 40.087 5.80566 39.8681 5.70166C39.6492 5.59766 39.4304 5.70166 39.6492 5.80566C39.8681 5.90965 39.8681 6.11765 39.8681 6.32565C39.8681 6.42965 39.8681 6.74165 40.3058 6.63765C40.7436 6.53365 40.5247 6.22165 40.3058 6.01365L40.3058 6.01365L40.3058 6.01365ZM41.9 0C41.9 0 41.9 0.319186 42.0349 0.478776C42.1697 0.797962 42.7093 1.11714 42.8441 0.957552C42.979 0.797959 42.8441 0.478776 42.7093 0.478776C42.5744 0.478776 42.4395 0.638369 42.1697 0.319183C42.0349 0.159593 42.0349 0 41.9 0L41.9 0ZM42.0057 0.5C41.8848 0.611112 42.1266 0.722223 42.2475 0.833333C42.3683 0.944444 42.4892 1.16667 42.6101 1.27778C42.731 1.38889 42.8519 1.5 42.9727 1.5C42.9727 1.38889 42.9727 1.38889 42.8519 1.16667C42.731 1.05556 42.4892 0.944444 42.3683 0.722223C42.1266 0.722223 42.0057 0.5 42.0057 0.5L42.0057 0.5L42.0057 0.5ZM42.3259 1.02679C42.1543 0.915003 42.1543 0.915003 41.9827 0.803213C41.8111 0.691422 41.6395 0.915003 41.9827 1.02679C42.1543 1.13859 42.3259 1.36216 42.3259 1.47396C42.3259 1.58575 42.4975 1.92112 42.6691 1.69754C43.0123 1.47396 42.4975 1.13859 42.3259 1.02679L42.3259 1.02679ZM15.8145 15.5C15.8145 15.5 15.5141 15.5 15.3639 15.6349C15.0635 15.7697 14.7632 16.3093 14.9134 16.4441C15.0635 16.579 15.3639 16.4441 15.3639 16.3093C15.5141 16.1744 15.2137 16.0395 15.5141 15.7697C15.8145 15.6349 15.9647 15.6349 15.8145 15.5L15.8145 15.5L15.8145 15.5ZM15.0706 15.6057C14.9628 15.4848 14.8549 15.7266 14.7471 15.8475C14.6392 15.9683 14.4235 16.0892 14.3157 16.2101C14.2078 16.331 14.1 16.4519 14.1 16.5727C14.2078 16.5727 14.2078 16.5727 14.4235 16.4519C14.5314 16.331 14.6392 16.0892 14.8549 15.9683C14.9628 15.7266 15.1785 15.6057 15.0706 15.6057L15.0706 15.6057L15.0706 15.6057ZM14.64 15.9658C14.7456 15.7816 14.7456 15.7816 14.8511 15.5973C14.9567 15.413 14.7456 15.2288 14.64 15.5973C14.5344 15.7815 14.3233 15.9658 14.2178 15.9658C14.1122 15.9658 13.7956 16.1501 13.9011 16.3343C14.1122 16.5186 14.5344 16.1501 14.64 15.9658L14.64 15.9658ZM10.8801 13.5273C10.8801 13.5273 10.7412 13.3659 10.4634 13.5273C10.1856 13.6887 9.76881 14.173 9.90773 14.3345C10.0466 14.4959 10.3245 14.4959 10.3245 14.3345C10.4634 14.173 10.1856 14.0116 10.6023 13.6887C10.7412 13.6887 10.8801 13.6887 10.8801 13.5273L10.8801 13.5273ZM10.1 13.4293C10 13.2586 9.8 13.4293 9.7 13.6C9.6 13.7707 9.4 13.7707 9.2 13.9413C9.1 13.9413 8.9 14.112 9 14.2827C9 14.4534 9.1 14.2827 9.3 14.2827C9.5 14.2827 9.6 13.9413 9.8 13.7707C10 13.6 10.2 13.6 10.1 13.4293L10.1 13.4293L10.1 13.4293ZM9.7248 14.0434C9.9328 13.7842 9.9328 13.7842 10.0368 13.5251C10.1408 13.2659 10.0368 13.0068 9.9328 13.2659C9.8288 13.5251 9.6208 13.5251 9.4128 13.5251C9.3088 13.5251 8.99681 13.5251 9.1008 14.0434C9.10081 14.3025 9.5168 14.0434 9.7248 14.0434L9.7248 14.0434L9.7248 14.0434ZM1.7 3.9C1.7 3.9 1.58889 3.65 1.36667 3.4C1.14444 3.4 0.7 3.4 0.7 3.9C0.7 4.14999 0.922222 4.4 0.922222 4.4C1.03333 4.4 1.03333 3.9 1.36667 3.9C1.58889 3.9 1.7 4.15 1.7 3.9L1.7 3.9ZM1.2 3.91817C1.2 3.50908 1 3.50908 0.8 3.50908C0.7 3.50908 0.4 3.1 0.3 3.1C0.2 3.1 0 3.1 0 3.1C0 3.50908 0.0999999 3.50908 0.2 3.91818C0.3 4.32727 0.5 3.91818 0.8 3.91818C1.1 3.91817 1.2 4.32727 1.2 3.91817L1.2 3.91817L1.2 3.91817ZM0.969356 3.58453C1.19625 3.58453 1.19625 3.58453 1.3097 3.58453C1.42314 3.58453 1.42314 3.34384 1.19625 3.34384C1.0828 3.34384 0.85591 3.10315 0.742463 2.86246C0.629017 2.62177 0.402123 2.38107 0.402123 2.86246C0.288676 3.34384 0.742463 3.58453 0.969356 3.58453L0.969356 3.58453Z" transform="translate(1.5447905 27.8)" id="Shape" fill="#FFFFFF" fill-rule="evenodd" stroke="none" />
        <path d="M1.64479 0C1.64479 0 2.24479 0.299999 2.54479 1.2C2.74479 1.7 2.74479 2.6 2.74479 2.6C2.74479 2.6 2.94479 3.5 3.84479 3.9C4.74479 4.3 5.14479 3.9 5.24479 3.4C5.24479 2.9 5.04479 2.2 4.54479 1.9C3.94479 1.7 3.64479 2.2 3.84479 2.5C3.84479 2.5 4.14479 2.3 4.24479 2.6C4.34479 2.9 3.84479 3 3.64479 2.6C3.44479 2.2 3.54479 1.8 3.84479 1.7C4.14479 1.6 4.74479 1.8 5.24479 2.4C5.64479 3 5.74479 3.8 5.34479 4.1C4.94479 4.4 3.84479 4.6 2.84479 3.1C2.84479 3.1 2.84479 4 3.64479 4.8C3.64479 4.8 4.04479 4.7 4.54479 5C4.94479 5.2 5.34479 5.5 5.24479 5.8C5.14479 6.1 4.64479 5.9 4.74479 5.70001C4.74479 5.6 4.84479 5.6 4.84479 5.6C4.84479 5.6 4.94479 5.4 4.44479 5.2C3.94479 5 3.74479 5.3 3.74479 5.4C3.74479 5.5 3.84479 6 4.64479 6.3C4.64479 6.3 5.94479 6.4 7.44479 6.5C9.24479 6.7 11.4448 6.90001 11.4448 6.90001L11.5448 7C11.5448 7 10.5448 7 8.64479 6.8C7.24479 6.7 5.74479 6.6 5.24479 6.6C4.84479 6.6 4.24479 6.6 4.24479 6.7C4.24479 6.8 4.44479 7 4.84479 7.2C4.84479 7.2 5.34479 7.2 6.04479 7.6C6.04479 7.6 5.94479 7.3 5.34479 6.9C5.34479 6.9 5.74479 6.9 6.44479 7.7C6.84479 8.2 6.94479 8.7 7.24479 9.1C7.44479 9.4 7.74479 9.5 7.74479 9.5C7.74479 9.5 8.64479 9.40001 10.3448 9.3C12.0448 9.2 13.2448 9 13.2448 9L13.3448 9.1C13.3448 9.1 12.0448 9.3 10.2448 9.5C8.44479 9.7 7.34479 9.8 7.04479 9.8C6.74479 9.8 6.44479 9.9 6.44479 10C6.44479 10.1 6.84479 10.3 7.24479 10.4C7.24479 10.4 8.74479 10.2 10.5448 10C12.5448 9.90001 14.6448 9.6 14.6448 9.6L14.7448 9.7C14.7448 9.7 12.9448 10 10.8448 10.2C9.64479 10.3 8.24479 10.5 8.24479 10.5C8.24479 10.5 9.14479 10.7 8.84479 11.2C8.84479 11.2 9.84479 11.4 9.74479 11.9C9.64479 12.4 8.44479 12.2 8.44479 12.2C8.44479 12.2 8.84479 12.5 9.34479 12.6C9.34479 12.6 11.0448 12 12.7448 11.5C14.3448 11 15.5448 10.7 16.1448 10.5L16.2448 10.5C16.2448 10.5 14.6448 10.9 12.9448 11.5C11.5448 12 10.2448 12.5 10.2448 12.5C10.2448 12.5 11.4448 12.6 11.2448 13.2C11.2448 13.2 12.3448 13.3 12.1448 13.8C12.0448 14.2 10.8448 14.2 10.8448 14.1C10.8448 14.1 11.2448 14.4 12.1448 14.5C12.1448 14.5 12.5448 14.3 13.1448 14.2C13.1448 14.2 12.2448 14.1 12.6448 13.5C13.0448 12.7 14.5448 12.5 16.8448 11.7L16.9448 11.7C16.9448 11.7 15.8448 12.1 14.1448 12.7C12.7448 13.2 12.9448 13.8 13.0448 13.9C13.1448 14 13.3448 14.1 13.5448 14L13.7448 14.1C13.7448 14.1 12.5448 14.3 12.4448 14.7C12.3448 15 13.5448 15 13.5448 15C13.5448 15 13.7448 14.8 14.2448 14.7C14.7448 14.6 14.8448 14.7 14.9448 14.9C15.0448 15.1 14.6448 15.4 14.5448 15.1C14.4448 14.9 14.5448 14.9 14.5448 14.9C14.5448 14.9 14.2448 14.8 14.0448 15.2C13.7448 15.6 13.8448 15.9 14.6448 15.8C14.6448 15.8 14.8448 15.5 15.3448 15.3C15.7448 15.1 16.0448 15.2 16.2448 15.4C16.3448 15.6 15.9448 16 15.7448 15.7C15.6448 15.5 15.9448 15.4 15.9448 15.4C15.9448 15.4 15.8448 15.2 15.4448 15.5C15.1448 15.7 15.0448 16 15.1448 16.1C15.2448 16.2 15.8448 16.4 16.5448 15.8C16.8448 15.5 17.2448 15.5 17.2448 15.5C17.2448 15.5 16.9448 15.7 16.6448 15.9C16.3448 16.2 16.1448 16.4 16.1448 16.4C16.1448 16.5 16.4448 16.4 16.6448 16.3C16.7448 16.2 17.4448 15.7 18.1448 15.1C18.7448 14.6 19.4448 14 20.2448 13.4C21.1448 12.7 21.8448 12 22.2448 11.7L22.3448 11.7C22.3448 11.7 21.6448 12.3 20.3448 13.4C18.9448 14.6 17.9448 15.6 17.3448 16.1C17.3448 16.1 18.5448 15.6 18.8448 16C19.0448 16.2 18.9448 16.6 18.6448 16.9C18.3448 17.2 17.6448 17.4 17.3448 17.1C17.2448 16.9 17.2448 16.8 17.4448 16.7C17.5448 16.6 17.7448 16.7 17.7448 16.7C17.8448 16.8 17.6448 17 17.6448 17C17.6448 17 17.9448 17.2 18.2448 17C18.5448 16.8 18.5448 16.3 18.4448 16.2C18.2448 16.1 17.9448 16 17.0448 16.4C17.0448 16.4 16.2448 17.1 15.1448 17.7C14.5448 18 13.7448 18.2 13.1448 17.9L13.2448 17.8C13.2448 17.8 13.5448 18 14.1448 17.9C14.7448 17.7 14.9448 17.6 16.2448 16.7C16.2448 16.7 15.7448 16.8 15.6448 16.7C15.5448 16.6 15.8448 16.3 15.8448 16.3C15.8448 16.3 15.0448 16.6 14.7448 16.3C14.5448 16.1 14.6448 15.9 14.6448 15.9C14.6448 15.9 13.8448 16.1 13.5448 15.8C13.3448 15.6 13.6448 15.3 13.6448 15.3C13.6448 15.3 12.6448 15.3 12.3448 15.2C12.0448 15.1 12.3448 14.8 12.3448 14.7C12.3448 14.7 11.4448 14.7 10.7448 14.2C10.0448 13.8 9.5448 13.2 9.2448 13C8.8448 12.7 8.8448 12.9 8.6448 12.7C8.6448 12.7 9.1448 12.7 9.3448 12.6C9.3448 12.6 7.7448 12.3 6.6448 10.4C6.6448 10.4 6.8448 10.4 7.1448 10.3C7.1448 10.3 6.2448 10 6.1448 9.7C6.0448 9.60001 6.4448 9.5 6.5448 9.5C6.5448 9.5 5.6448 9.2 5.4448 8.90001C5.2448 8.60001 5.4448 8.40001 5.4448 8.40001C5.4448 8.40001 4.9448 8.2 4.7448 7.80001C4.5448 7.40001 4.9448 7.30001 4.9448 7.20001C4.9448 7.20001 4.1448 6.70001 4.0448 6.50001C3.74479 6.3 4.14479 6.2 4.34479 6.2C4.34479 6.2 3.54479 5.9 3.34479 5.3C3.14479 5 3.54479 4.8 3.54479 4.8C3.54479 4.8 3.04479 4.3 2.64479 3.5C2.64479 3.5 1.54479 3 0.94479 2.5C0.34479 2 -0.15521 1.3 0.04479 0.799999C0.24479 0.299999 0.74479 0.599998 0.94479 0.699999C1.14479 0.799999 1.44479 1.1 1.24479 1.6C1.14479 2 0.74479 1.8 0.64479 1.7C0.544791 1.6 0.44479 1.5 0.544791 1.3C0.64479 1.1 0.944791 1.1 0.944791 1.5C0.944791 1.5 1.14479 1.6 1.14479 1.3C1.14479 1.1 1.04479 0.9 0.84479 0.799999C0.64479 0.699999 0.44479 0.9 0.44479 1.1C0.34479 1.3 0.34479 1.5 0.74479 2C1.14479 2.5 1.74479 2.9 2.64479 3.3C2.64479 3.3 2.44479 2.7 2.44479 2C2.34479 1.3 2.44479 0.399998 1.84479 0.299997L1.64479 0L1.64479 0L1.64479 0ZM9.94479 13.464C10.1448 13.7066 10.2448 13.8279 10.4448 13.9492C11.0448 14.3132 11.6448 13.9492 11.6448 13.5853C11.6448 13.2213 11.0448 13.1 11.0448 13.1C10.7448 13.5853 9.94479 13.464 9.94479 13.464L9.94479 13.464L9.94479 13.464ZM8.94479 12.8753C9.34479 13.1505 9.74479 13.5634 9.74479 13.5634C10.0448 13.701 10.7448 13.4258 10.7448 13.1505C10.7448 12.7376 9.94479 12.6 9.94479 12.6C9.34479 12.7376 8.94479 12.8753 8.94479 12.8753L8.94479 12.8753ZM7.44479 11.2281C7.64479 11.6125 8.04479 11.9969 8.04479 11.9969C8.54479 12.2531 9.14479 11.9969 9.14479 11.6125C9.14479 11.2281 8.54479 11.1 8.54479 11.1C8.34479 11.6125 7.44479 11.2281 7.44479 11.2281L7.44479 11.2281ZM6.84479 10.5353C7.04479 10.9411 7.24479 11.3469 7.24479 11.3469C7.64479 11.4822 8.34479 11.3469 8.34479 11.0764C8.34479 10.6706 7.84479 10.5353 7.84479 10.4L6.84479 10.5353L6.84479 10.5353L6.84479 10.5353ZM6.04479 8.4C5.84479 8.4 5.64479 8.5 5.54479 8.6C5.44479 8.8 5.74479 9.1 6.04479 9.2C6.34479 9.3 6.74479 9.4 6.74479 9.4L7.44479 9.3C6.94479 9.1 6.64479 8.5 6.64479 8.5C6.64479 8.5 6.34479 8.4 6.04479 8.4L6.04479 8.4L6.04479 8.4ZM6.14479 7.61545C5.74479 7.29609 5.04479 7.29609 4.84479 7.509C4.64479 7.93481 5.34479 8.25416 5.34479 8.25416C5.74479 8.04126 6.44479 8.36061 6.44479 8.36061C6.34479 8.04126 6.14479 7.61545 6.14479 7.61545L6.14479 7.61545Z" transform="translate(0 25.599998)" id="Shape" fill="#FFFFFF" fill-rule="evenodd" stroke="none" />
        <path d="M4.5 30.3C4.2 29.7 3.9 29.3 3.7 29.2C3.5 29.1 3 28.9 3.1 29.2C3.2 29.4 3.5 29.3 3.5 29.3C3.9 29.6 3.8 29.9 4.2 30.7C4.4 31.1 4.7 31.4 5 31.5C5.4 31.8 5.7 31.7 5.7 31.7C5.2 31.4 4.8 30.9 4.5 30.3L4.5 30.3L4.5 30.3ZM4.1 30.8035C4.1 30.6186 3.9 30.4336 3.7 30.4336C3.6 30.4336 3.3 30.2487 3.2 30.0637C3.1 29.8788 3 29.8788 3 30.0637C3.1 30.2487 3.2 30.6186 3.4 30.6186C3.5 30.6186 3.8 30.6186 3.9 30.6186C4.1 30.9885 4.1 30.9885 4.1 30.8035L4.1 30.8035ZM10.132 1.7C10.3586 1.7 10.3586 1.58889 10.3586 1.36667C10.3586 1.14444 10.132 0.7 9.67896 0.7C9.45241 0.7 9.22588 0.922222 9.45241 1.03333C9.67896 1.14444 9.9055 1.03333 10.132 1.36667C10.132 1.58889 9.9055 1.7 10.132 1.7L10.132 1.7ZM10.5273 1.2C10.8909 1.2 10.8909 1 10.5273 0.8C10.5273 0.7 10.5273 0.4 10.5273 0.3C10.5273 0.2 10.5273 0 10.1636 0C9.8 0 9.8 0.0999999 9.8 0.3C9.8 0.5 9.8 0.6 10.1636 0.9C10.1636 1 10.1636 1.2 10.5273 1.2L10.5273 1.2ZM10.1 0.808926C10.1 1.0118 10.1 1.0118 10.1 1.11324C10.1 1.21468 10.734 1.21468 10.417 1.0118C10.417 0.910365 10.417 0.606048 10.734 0.504608C11.051 0.403169 11.3679 0.0988513 10.734 0.20029C10.417 0.20029 10.1 0.606047 10.1 0.808926L10.1 0.808926ZM8.1 3.48421C8.3 3.48421 8.3 3.36163 8.3 3.11647C8.3 2.87131 7.9 2.38098 7.5 2.50357C7.3 2.50357 7.3 2.74873 7.3 2.87131C7.5 2.99389 7.7 2.87131 7.9 3.23905C8.1 3.36163 7.9 3.48421 8.1 3.48421L8.1 3.48421L8.1 3.48421ZM8.51818 2.8C8.92727 2.8 8.51818 2.6 8.51818 2.4C8.51818 2.3 8.51818 2 8.51818 1.9C8.51818 1.8 8.10909 1.6 8.10909 1.6C7.7 1.6 7.7 1.7 7.7 1.9C7.7 2.1 8.10909 2.2 8.51818 2.5C8.51818 2.7 8.10909 2.9 8.51818 2.8L8.51818 2.8L8.51818 2.8ZM8 2.4248C8 2.6328 8 2.6328 8.37638 2.7368C8.37638 2.8408 9.12915 2.7368 8.75277 2.6328C8.75277 2.5288 8.75277 2.2168 8.75277 2.1128C9.12916 2.0088 9.12916 1.69681 8.37638 1.8008C8 1.80081 8 2.2168 8 2.4248L8 2.4248ZM2.35556 12.4734C2.35556 12.4734 2.35556 12.1542 2.22123 11.9946C2.0869 11.6754 1.54959 11.3563 1.41526 11.5159C1.28093 11.6754 1.41526 11.9946 1.41526 11.9946C1.68391 11.9946 1.68391 11.835 2.0869 12.1542C2.22123 12.3138 2.22123 12.4734 2.35556 12.4734L2.35556 12.4734L2.35556 12.4734ZM2.36252 11.6706C2.50003 11.5628 2.22502 11.4549 2.08752 11.3471C1.95001 11.2392 1.81251 11.0235 1.67501 10.9157C1.5375 10.8078 1.4 10.7 1.4 10.7C1.4 10.8078 1.4 10.8078 1.4 11.0235C1.5375 11.2392 1.67501 11.3471 1.95001 11.4549C2.08752 11.5628 2.22502 11.7785 2.36252 11.6706L2.36252 11.6706ZM2.19147 11.2257C2.37573 11.3292 2.37573 11.4328 2.55999 11.4328C2.74424 11.5363 2.9285 11.4328 2.55999 11.2257C2.37573 11.1222 2.19147 10.9151 2.19147 10.8116C2.19147 10.6045 2.00722 10.3974 1.82296 10.5009C1.63871 10.708 2.00722 11.0186 2.19147 11.2257L2.19147 11.2257ZM1.25858 17.6236C1.25858 17.6236 1.25858 17.2629 1.02089 17.0826C0.783193 16.9022 0.426653 16.5416 0.307807 16.7219C0.18896 16.9022 0.307806 17.2629 0.426653 17.2629C0.545499 17.2629 0.545499 17.0826 0.902039 17.2629C1.13973 17.4433 1.13973 17.8039 1.25858 17.6236L1.25858 17.6236ZM1 16.9222C1 16.7922 0.888889 16.6623 0.666667 16.5323C0.555556 16.4023 0.333333 16.2724 0.333333 16.1424C0.222222 16.0124 0.111111 15.8824 0 16.0124C0 16.1424 0 16.1424 0.111111 16.4023C0.222222 16.5323 0.444444 16.6623 0.666667 16.7922C0.888889 16.7922 1 17.0522 1 16.9222L1 16.9222L1 16.9222ZM0.815066 16.4021C0.95101 16.5174 1.08695 16.5174 1.2229 16.6327C1.35884 16.6327 1.49479 16.5174 1.2229 16.4021C1.08695 16.4021 0.815066 16.1715 0.815066 15.9409C0.815066 15.8256 0.543178 15.4797 0.407234 15.7103C0.27129 15.9409 0.679122 16.2868 0.815066 16.4021L0.815066 16.4021L0.815066 16.4021Z" transform="translate(0.24479079 3.7999995)" id="Shape" fill="#FFFFFF" fill-rule="evenodd" stroke="none" />
        <path d="M4.40331 12.0235C4.40331 12.2235 5.10331 13.6235 6.0033 15.9235C6.9033 18.1235 7.7033 19.5235 7.60331 19.5235L7.60331 19.6235C7.60331 19.6235 7.0033 18.4235 6.20331 16.7235C5.20331 14.3235 4.70331 13.4235 4.70331 13.5235C4.70331 14.5235 4.1033 14.3235 4.1033 14.3235C4.1033 14.3235 4.40331 15.3235 3.8033 15.4235C3.20331 15.5235 3.0033 14.3235 3.10331 14.3235C2.8033 15.2235 2.90331 15.7235 2.90331 15.7235C3.20331 15.9235 3.30331 16.3235 3.30331 16.3235C3.40331 15.3235 4.20331 15.7235 4.90331 16.7235C5.60331 17.8235 6.40331 19.8235 6.50331 19.7235L6.50331 19.8235C6.1033 19.2235 5.90331 18.8235 5.30331 17.6235C4.7033 16.4235 4.0033 15.8235 3.60331 15.9235C3.20331 16.1235 3.50331 16.7235 3.50331 16.7235L3.50331 16.8235C3.30331 16.3235 2.90331 15.8235 2.60331 15.7235C2.40331 15.7235 2.30331 15.9235 2.40331 16.1235C2.40331 16.4235 2.50331 16.7235 2.50331 16.7235C2.80331 16.8235 3.40331 17.5235 3.20331 17.9235C3.00331 18.3235 2.60331 17.9235 2.8033 17.7235C2.9033 17.5235 3.10331 17.7235 3.10331 17.7235C3.30331 17.3235 2.40331 16.9235 2.20331 17.1235C2.00331 17.4235 2.30331 17.8235 2.30331 17.8235C2.9033 18.1235 3.20331 18.8235 3.0033 19.2235C2.9033 19.5235 2.40331 19.3235 2.5033 19.0235C2.6033 18.7235 2.8033 19.0235 2.8033 19.0235C2.9033 18.6235 2.70331 18.5235 2.40331 18.3235C2.20331 18.2235 1.9033 18.1235 1.9033 18.3235C1.70331 18.9235 2.70331 19.6235 2.70331 19.6235C3.00331 20.0235 2.9033 20.2235 2.9033 20.2235C2.8033 20.0235 2.5033 19.8235 2.30331 19.6235C2.10331 19.4235 1.80331 19.1235 1.70331 19.2235C1.60331 19.4235 2.00331 20.0235 2.00331 20.0235C2.80331 20.7235 3.8033 21.4235 4.90331 22.4235C6.00331 23.4235 7.1033 24.5235 7.1033 24.4235L7.1033 24.5235C7.1033 24.5235 6.0033 23.5235 4.90331 22.5235C3.70331 21.6235 2.50331 20.6235 2.50331 20.6235C2.80331 21.1235 2.80331 21.4235 2.80331 21.6235C2.70331 21.7235 2.40331 22.0235 1.80331 21.6235C1.20331 21.1235 1.30331 20.6235 1.50331 20.4235C1.70331 20.2234 1.90331 20.6235 1.80331 20.7235C1.70331 20.8235 1.60331 20.7235 1.60331 20.7235C1.40331 21.2235 2.30331 21.6235 2.60331 21.3235C2.90331 21.1235 2.30331 20.3235 2.30331 20.3235C1.50331 19.8235 0.803306 18.9235 0.803306 18.9235C-0.396694 17.3235 0.103306 16.6235 0.103306 16.6235L0.203306 16.7235C0.00330567 17.4235 0.503306 18.2235 1.00331 18.8235C1.50331 19.3235 2.00331 19.7235 2.00331 19.7235C1.80331 19.4235 1.60331 18.8235 1.70331 18.7235C1.80331 18.6235 2.10331 18.8235 2.10331 18.8235C2.00331 18.6235 1.80331 18.0235 1.90331 17.8235C2.00331 17.6235 2.30331 17.7235 2.30331 17.7235C2.20331 17.6235 2.00331 16.9235 2.20331 16.7235C2.40331 16.5235 2.70331 16.6235 2.70331 16.6235C2.70331 16.6235 2.60331 16.3235 2.60331 16.0235C2.60331 15.8235 2.50331 15.5235 2.60331 15.4235C2.80331 15.0235 3.10331 15.3235 3.10331 15.3235C2.70331 13.9235 4.00331 12.3235 4.40331 11.7235C4.70331 11.2235 4.60331 11.1235 4.60331 11.1235C4.3033 11.5235 4.3033 11.8235 4.40331 12.0235L4.40331 12.0235L4.40331 12.0235ZM3.62962 13.0235C3.62962 13.0235 3.20857 13.6235 3.10331 13.9235C3.10331 13.9235 3.20857 15.0235 3.84015 14.9235C4.2612 14.9235 4.05067 14.1235 4.05067 14.1235C4.05067 14.1235 3.62962 13.9235 3.62962 13.0235L3.62962 13.0235ZM4.64448 12.8235C4.64448 12.8235 4.40919 12.4235 4.29154 12.0235C4.29154 12.0235 4.17389 12.3235 3.7033 12.7235C3.7033 12.7235 3.82095 13.8235 4.40919 13.7235C4.87978 13.7235 4.64448 12.8235 4.64448 12.8235L4.64448 12.8235ZM18.3033 0.123457C18.9033 0.423457 18.2033 1.42346 17.6033 1.22346C16.9033 1.02346 17.4033 0.423457 17.8033 0.523457C18.1033 0.623456 17.8033 1.02346 17.5033 0.923457C17.5033 0.923457 17.6033 1.02346 17.7033 1.02346C17.9033 1.02346 18.1033 1.02346 18.2033 0.823456C18.4033 0.523457 17.9033 0.123456 17.3033 0.423456C16.7033 0.823456 16.3033 1.12346 15.7033 2.62346C15.7033 2.62346 17.0033 2.42346 17.0033 1.92346L17.1033 1.82346C17.1033 1.82346 17.1033 2.12346 16.6033 2.52346C16.1033 2.92346 15.7033 3.02346 15.7033 3.02346C15.7033 3.02346 15.4033 3.42346 15.1033 4.72346C14.9033 5.52346 14.5033 6.62346 14.2033 7.72346C13.9033 8.82346 13.4033 10.3235 13.4033 10.3235L13.3033 10.4235C13.3033 10.4235 13.6033 9.32345 14.0033 7.82346C14.4033 6.32346 14.7033 5.32346 15.0033 4.22346C15.0033 4.22346 14.7033 4.62346 14.4033 4.72346C14.1033 4.82346 14.0033 4.42346 14.0033 4.42346C14.0033 4.42346 13.8033 5.12345 13.3033 5.32346C13.3033 5.32346 13.4033 5.72346 13.1033 6.32346C12.8033 6.82346 11.9033 7.62346 11.3033 7.32346C10.6033 6.92346 10.7033 5.62346 11.5033 4.62346C11.5033 4.62346 10.4033 5.02346 10.3033 5.82346C10.3033 5.82346 10.5033 6.12346 10.4033 6.52346C10.4033 6.92346 10.2033 7.22346 9.90331 7.32346C9.60331 7.42346 9.50331 6.82346 9.8033 6.82346C10.0033 6.82346 9.90331 7.12346 9.90331 7.12346C9.90331 7.12346 10.3033 6.92346 10.2033 6.52346C10.1033 6.12346 9.80331 5.92346 9.70331 5.92346C9.50331 5.92346 9.30331 6.42346 9.20331 6.82346C9.10331 7.32346 9.30331 7.82346 9.30331 8.22346C9.40331 8.62346 9.40331 9.12346 9.50331 10.9235C9.60331 12.7235 9.70331 14.1235 9.80331 14.6235L9.70331 14.7235C9.70331 14.7235 9.60331 14.1235 9.40331 11.6235C9.3033 9.02345 9.10331 7.62345 9.00331 7.32345C9.00331 6.92346 8.90331 6.62346 8.8033 6.62346C8.7033 6.62346 8.40331 7.12346 8.3033 7.82346C8.3033 7.82346 8.50331 8.82346 8.7033 10.3235C8.90331 11.9235 9.00331 13.6235 9.00331 13.6235L9.00331 13.7235C9.00331 13.7235 8.7033 11.6235 8.60331 10.4235C8.40331 9.22346 8.3033 8.62346 8.3033 8.62346C8.3033 8.62346 8.10331 9.42346 7.60331 9.32346C7.10331 9.32346 7.10331 8.62346 7.30331 8.02346C7.30331 8.02346 6.90331 8.32346 6.80331 8.82346C6.80331 8.82346 7.2033 9.72346 7.50331 11.0235C7.80331 12.3235 8.00331 13.6235 8.10331 14.1235L8.10331 14.2235C8.10331 14.2235 8.00331 13.6235 7.60331 12.1235C7.20331 10.5235 7.10331 10.2235 7.10331 10.2235C7.10331 10.2235 6.90331 10.7235 6.60331 10.4235C6.10331 10.1235 5.70331 9.62346 5.60331 10.1235L5.60331 10.4235C5.60331 10.4235 5.90331 10.5235 6.00331 11.1235C6.10331 11.7235 5.60331 12.4235 5.4033 11.9235C5.3033 11.6235 5.6033 11.4235 5.7033 11.8235C5.7033 11.8235 6.00331 11.5235 5.80331 11.2235C5.60331 10.8235 5.30331 10.7235 5.2033 10.7235C5.0033 10.8235 4.9033 11.2235 5.1033 11.8235C5.2033 12.3235 5.5033 12.5235 5.3033 12.9235C5.3033 12.9235 5.3033 12.7235 4.9033 12.2235C4.6033 11.7235 3.9033 10.5235 3.9033 9.52346C3.8033 8.52346 4.3033 6.92346 4.9033 6.72346L4.9033 6.92346C4.9033 6.92346 4.3033 7.32346 4.2033 8.52346C4.1033 9.32346 4.1033 9.92346 5.1033 11.7235C5.1033 11.7235 4.9033 10.6235 5.3033 10.3235C5.5033 10.2235 5.7033 10.4235 5.7033 10.4235C5.7033 10.4235 5.8033 9.62346 5.9033 9.52346C6.1033 9.32346 6.8033 10.3235 7.0033 10.2235C7.1033 10.2235 7.1033 9.92346 7.1033 9.92346C7.1033 9.92346 6.9033 8.92346 6.6033 9.02346C6.20331 9.02346 6.10331 9.62346 6.10331 9.62346C6.10331 9.42346 6.10331 9.32346 6.10331 9.12346C6.10331 8.92346 6.20331 8.82346 6.40331 8.62346C6.60331 8.42346 6.70331 8.82346 6.70331 8.82346C6.70331 8.82346 6.70331 8.12346 7.30331 7.62346C7.90331 7.12346 8.00331 7.02346 8.10331 6.82346C8.10331 6.82346 8.00331 7.12346 8.10331 7.32346C8.10331 7.52346 8.20331 7.72346 8.20331 7.72346C8.20331 7.72346 8.40331 6.62346 8.90331 6.22346C9.00331 6.12346 9.10331 6.82346 9.10331 6.82346C9.10331 6.82346 9.20331 5.92346 9.80331 5.62346C10.0033 5.52346 10.2033 5.82346 10.2033 5.82346C10.2033 5.82346 10.4033 5.12346 11.3033 4.62346C11.3033 4.62346 11.4033 3.82346 11.9033 2.82346C12.4033 1.92346 13.0033 1.42346 13.5033 1.52346C14.0033 1.62346 13.8033 2.22346 13.7033 2.32346C13.6033 2.52346 13.2033 2.92346 12.9033 2.82346C12.6033 2.82346 12.6033 2.42346 12.7033 2.22346C12.9033 1.92346 13.4033 1.92346 13.3033 2.22346C13.2033 2.42346 12.9033 2.42346 12.9033 2.32346C12.9033 2.32346 12.8033 2.62346 13.2033 2.52346C13.6033 2.42346 13.6033 2.22346 13.7033 2.12346C13.7033 2.02346 13.6033 1.82346 13.4033 1.72346C13.1033 1.72346 12.6033 1.92346 12.2033 2.72346C11.7033 3.52346 11.7033 4.02346 11.6033 4.42346C11.6033 4.42346 12.1033 4.22346 12.6033 4.02346C13.0033 3.92346 13.4033 3.82346 13.4033 3.52346L13.6033 3.22346C13.6033 3.22346 13.7033 3.52346 13.3033 3.92346C12.8033 4.42346 12.1033 4.52346 12.1033 4.52346C12.1033 4.52346 11.3033 5.02346 11.2033 5.92345C11.1033 6.82345 11.7033 7.22346 12.4033 6.82345C13.1033 6.42345 13.4033 5.92345 13.3033 5.42345C13.3033 5.42345 13.0033 5.62345 12.8033 5.52345C12.6033 5.42345 12.5033 5.32345 12.5033 5.12345C12.6033 4.82345 13.3033 4.72345 13.4033 5.22345C13.4033 5.22345 13.7033 5.02345 14.0033 4.52345C14.1033 3.92346 14.1033 3.72346 14.3033 3.42346C14.3033 3.42346 13.6033 3.62346 13.1033 4.42346C13.1033 4.42346 13.1033 3.62346 14.7033 2.82346C14.8033 2.42346 15.0033 2.02346 15.1033 1.62346C15.3033 1.02346 16.2033 0.223457 16.7033 0.423457C16.8033 0.423457 17.6033 -0.276543 18.3033 0.123457L18.3033 0.123457L18.3033 0.123457ZM13.0033 5.02346C12.67 5.02346 12.5033 5.02346 12.5033 5.35679C12.5033 5.69012 12.67 6.02346 13.0033 6.02346C13.3366 6.02346 13.5033 6.02346 13.5033 5.69012C13.5033 6.02346 13.5033 5.35679 13.0033 5.02346L13.0033 5.02346ZM8.089 7.42346C7.86414 7.62346 7.63928 7.72346 7.41442 7.92346C7.30199 8.12346 7.18956 8.82346 7.63928 9.02346C8.089 9.22346 8.31386 8.42346 8.31386 8.42346L8.089 7.42346L8.089 7.42346L8.089 7.42346ZM15.5033 3.02346C15.5033 3.02346 15.2033 3.12346 15.1033 3.12346C14.9033 3.12346 14.6033 3.32346 14.6033 3.22346C14.6033 3.22346 14.1033 3.82346 14.4033 4.12346C14.7033 4.52346 15.1033 3.92346 15.1033 3.92346C15.3033 3.32346 15.5033 3.02346 15.5033 3.02346L15.5033 3.02346L15.5033 3.02346ZM15.4033 2.72346C16.1033 1.22346 16.5033 0.823457 16.5033 0.823457C16.1033 0.723457 15.5033 1.22346 15.3033 1.62346C15.1033 2.12346 14.9033 2.82346 14.9033 2.82346C15.1033 2.72346 15.4033 2.72346 15.4033 2.72346L15.4033 2.72346L15.4033 2.72346Z" transform="translate(0.74148536 0.17654324)" id="Shape" fill="#FFFFFF" fill-rule="evenodd" stroke="none" />
        <path d="M0.453083 3.7C0.226542 3.7 0 4.15308 0 4.37962C0 4.60616 0.226542 4.8327 0.679621 4.60616C0.906163 4.60616 1.1327 4.15308 0.906163 3.92654C0.906163 3.92654 0.906163 3.7 0.453083 3.7L0.453083 3.7L0.453083 3.7ZM5.84436 1.372C5.84436 1.372 6.25858 1.372 6.46568 1.13045C6.67279 0.888908 6.8799 0.405816 6.67279 0.405816C6.46568 0.285043 6.05147 0.526589 6.05147 0.526589C6.05147 0.647362 6.25858 0.647362 6.05147 1.00968C5.84436 1.25123 5.63726 1.372 5.84436 1.372L5.84436 1.372L5.84436 1.372ZM6.2 1C6.33488 1 6.46975 0.8 6.60463 0.7C6.7395 0.6 6.87438 0.4 7.00926 0.3C7.14413 0.2 7.27901 0 7.14413 0C7.00926 0 7.00926 0 6.7395 0.0999999C6.60463 0.2 6.46975 0.4 6.33488 0.6C6.33488 0.9 6.2 1 6.2 1L6.2 1L6.2 1ZM6.6375 0.940403C6.5 1.22812 6.5 1.22812 6.5 1.37198C6.5 1.51584 6.6375 1.51584 6.77501 1.37198C6.77501 1.22812 7.05001 0.940403 7.18752 0.940403C7.32502 0.940403 7.60003 0.652686 7.46252 0.508827C7.18752 0.364968 6.77501 0.796545 6.6375 0.940403L6.6375 0.940403L6.6375 0.940403ZM26.3 16.5735C26.3 16.5735 26.4111 16.8469 26.6333 17.1204C26.8556 17.3938 27.3 17.3938 27.3 16.8469C27.3 16.5735 27.0778 16.3 27.0778 16.3C26.9667 16.3 26.9667 16.8469 26.6333 16.5735C26.5222 16.8469 26.4111 16.5735 26.3 16.5735L26.3 16.5735ZM26.7 16.8277C26.7 17.0265 26.9 17.0265 27 17.2253C27.1 17.2253 27.3 17.4241 27.5 17.6229C27.6 17.8217 27.8 17.8217 27.8 17.6229C27.8 17.4241 27.7 17.4241 27.6 17.2253C27.5 17.0265 27.3 17.0265 27 17.0265C26.8 17.0265 26.7 16.6289 26.7 16.8277L26.7 16.8277L26.7 16.8277ZM27.0567 17.1708C26.8257 17.1708 26.8257 17 26.7102 17C26.5947 17 26.5947 17.1708 26.8257 17.3415C26.9412 17.3415 27.1723 17.5123 27.2878 17.6831C27.4033 17.8539 27.6343 18.1954 27.6343 17.8539C27.6343 17.6831 27.2878 17.3415 27.0567 17.1708L27.0567 17.1708L27.0567 17.1708ZM12.5 4.5C11.9 4.5 12 4.1 12.1 4C12.2 3.9 12.3 3.9 12.4 4C12.5 4.1 12.5 4.3 12.3 4.3C12.3 4.3 12.6 4.5 13 4.1C13.2 3.9 13.4 3.5 13.2 3.4C13 3.3 12.6 3.4 12.1 3.6C12.1 3.6 11.5 4.2 11.1 4.1C11.1 4.1 11.4 3.9 11.7 3.6C12 3.3 12.1 3.1 12.1 3C12.1 2.9 11.5 3 11 3.1C11 3.1 10.7 3.3 10.4 3.5C10.4 3.5 10.9 3.7 11.3 3.6C11.3 3.6 10.7 4 9.5 3.7C8.3 3.4 8 3.5 7.8 3.6C7.8 3.6 6.8 4.7 5.8 5.8C4.8 6.9 3.4 8.2 3.4 8.2L3.3 8.2C3.3 8.2 4.3 7.2 5.6 5.8C6.8 4.4 8.1 2.9 8.2 2.8C8.3 2.7 8.5 2.4 8.5 2.3C8.4 2.3 8.1 2.4 7.7 2.6C7.7 2.6 6.6 3.8 5.8 4.7C4.9 5.6 3.5 6.7 3.5 6.7L3.4 6.7C3.4 6.7 4.7 5.6 5.6 4.6C6.3 3.8 6.7 3.2 6.7 3.2C6.7 3.2 5.8 3.7 5.7 3C5.7 3 4.7 3.8 4.4 3.3C4.1 2.8 5.1 2.1 5.1 2.1C5.1 2.1 4.6 1.9 3.2 2.7C3.2 2.7 4 1.8 5.7 1.8C7.1 1.8 7 2.1 7.8 2C7.8 2 8.40001 1.2 9.40001 0.7C10.4 0.2 10.9 0.2 11.1 0.4L10.9 0.5C10.9 0.5 10.6 0.2 9.60001 0.8C9 1.2 8 2.3 8 2.3C8 2.3 8.8 1.9 9.1 2.1C9.2 2.2 8.9 2.5 8.9 2.5C8.9 2.5 9.7 2.1 10.1 2.2C10.4 2.3 10.3 2.5 10.3 2.5C10.3 2.5 11.1 2.3 11.4 2.5C11.7 2.7 11.4 3 11.4 3L12 2.9C12 2.9 13.2 1.9 13.9 1.8C14.6 1.6 15.5 1.6 15.6 2.3C15.6 3 14.6 3.1 14.3 2.6C14.1 2 15 1.8 15.1 2.2C15.2 2.5 14.7 2.5 14.6 2.3C14.6 2.3 14.5 2.4 14.6 2.6C14.7 2.8 14.9 2.8 15.1 2.7C15.3 2.7 15.4 2.4 15.3 2.2C15.1 1.7 14.2 1.8 14 1.9C13.7 2 12.9 2.3 12.3 2.8C12.3 2.8 12.6 2.8 12.7 2.9C12.8 3 12.4 3.3 12.4 3.3C12.4 3.3 13.4 2.9 13.7 3.3C14 3.7 13.1 4.5 12.5 4.5L12.5 4.5L12.5 4.5ZM6.4 2.1C6.1 2.1 5.5 2 5.5 2C5.5 2 4.6 2.5 4.9 2.9C5.1 3.3 5.8 2.8 5.8 2.8C5.9 2.4 6.4 2.1 6.4 2.1L6.4 2.1L6.4 2.1ZM7.7 2.1C7.3 2.20843 6.6 2.1 6.6 2.1C6.6 2.1 5.9 2.53374 6.1 2.85904C6.4 3.40121 7.1 2.85904 7.1 2.85904C7.3 2.64217 7.5 2.31687 7.7 2.1L7.7 2.1ZM9.8 2.5C9.5 2.1 8.6 2.8 8.6 2.8L8 3.4C8.4 3.2 9.2 3.3 9.2 3.3C9.2 3.3 10 2.8 9.8 2.5L9.8 2.5L9.8 2.5ZM10.3 3.56667C10.6 3.45952 11.1 2.92381 11 2.70952C10.8 2.38809 10.2 2.70952 10.2 2.70952C10.1 3.03095 9.4 3.35238 9.4 3.35238C9.6 3.45952 10.3 3.56667 10.3 3.56667L10.3 3.56667L10.3 3.56667Z" transform="translate(16.844791 0)" id="Shape" fill="#FFFFFF" fill-rule="evenodd" stroke="none" />
        <path d="M1.76423 2.79657C1.46423 2.19657 0.764229 2.69657 0.864227 2.89657C0.964226 3.19657 1.26423 2.99657 1.26423 2.79657C1.26423 2.69657 1.06423 2.69657 1.06423 2.69657C1.36423 2.39657 1.76423 3.09657 1.26423 3.29657C0.764229 3.49657 0.0642281 2.89657 0.364227 2.29657C0.764229 1.79657 2.26423 1.79657 2.26423 1.79657L2.36423 1.69657C2.16423 1.69657 1.46423 1.79657 1.36423 1.49657C1.26423 1.29657 1.86423 0.696574 2.66423 0.396574C4.46423 -0.203426 5.16423 0.0965743 5.16423 0.0965743L5.36423 0.0965743C5.16423 -0.103426 3.16423 -0.0034256 2.16423 0.496574C1.66423 0.696574 1.46423 0.996574 1.26423 1.19657C0.764229 1.69657 1.26423 1.79657 1.26423 1.79657C0.764229 1.89657 -0.435772 2.39657 0.16423 3.09657C0.46423 3.49657 0.96423 3.59657 1.36423 3.49657C1.66423 3.29657 1.96423 2.99657 1.76423 2.79657L1.76423 2.79657L1.76423 2.79657Z" transform="translate(29.380562 3.0034258)" id="Shape" fill="#FFFFFF" fill-rule="evenodd" stroke="none" />
        <path d="M6.8 8.9C5.7 8.8 5 8.8 4.3 8.6L4.2 8.5C4.2 8.5 5 8.7 6.6 8.7C8.2 8.7 9.2 8.6 9.4 8.6C9.6 8.6 9.9 8.5 9.9 8.4C9.9 8.3 9.4 8 9 7.9C9 7.9 7.8 8 6.7 7.8C5.5 7.6 4.8 7.5 4.2 7.3L4.2 7.4C4.2 7.4 5.2 7.7 6.6 7.8C7.4 7.9 8.1 7.8 8.1 7.8C8.1 7.8 7.6 7.4 8 7.1C8.4 6.8 8.9 6.6 8.5 6.4C8.2 6.2 7.9 6.1 7.9 6.1C7.9 6.1 6.5 6.3 5 6.4C3.4 6.5 1.6 6.6 0.700001 6.6L0.499996 6.4C0.499996 6.4 1.7 6.4 3.59999 6.2C5.39999 6.1 7 5.9 7 5.9C7 5.9 6 5.5 6.2 5C6.4 4.5 7.5 4.8 7.5 4.8C7.5 4.8 7.09999 4.3 6.5 4.2C6.5 4.2 6 4.4 5.7 4.4C5.4 4.4 5.1 4.3 4.9 4.1C4.9 4.1 5.4 4.2 5.8 4.1C6.1 4 6.6 3.9 6.6 3.8C6.6 3.6 5.8 3.5 5.8 3.5C5.8 3.5 4.6 3.9 3.8 4.1C3 4.3 2.1 4.6 1.5 4.7C0.900002 4.8 0.0999985 5 0.0999985 5L0 4.9C0 4.9 1 4.7 1.8 4.4C2.6 4.1 4.2 3.6 4.9 3.4C4.9 3.4 3.7 3.3 3.8 2.7C3.8 2.7 3.1 2.6 2.4 2.1C1.7 1.5 0.899998 1.1 0.199997 1C0.199997 1 0.499996 1 0.799995 0.8C1.3 0.6 1.7 0.4 1.8 0.3C1.89999 0.0999999 1.09999 0.0999999 1.09999 0.0999999L1.19999 0C1.19999 0 2.09999 0 2.19999 0.2C2.29999 0.3 1.79999 0.5 1.79999 0.5C1.79999 0.5 2.19999 0.4 2.49999 0.5C2.49999 0.5 4.29999 0 5.09999 0.0999999C5.89999 0.2 6.49999 0.5 6.49999 1C6.49999 1.5 5.99999 1.5 5.79999 1.5C5.49999 1.5 5.19999 1.3 5.09999 0.9C4.99999 0.5 5.69999 0.3 5.79999 0.7C5.89999 1 5.39999 1 5.39999 0.8C5.39999 0.8 5.29999 0.9 5.49999 1.1C5.7 1.4 6.1 1.4 6 0.9C5.9 0.499999 5.09999 0.3 4.8 0.2C4.5 0.2 3.8 0.0999999 2.7 0.5C2.7 0.5 3.2 0.6 2.9 1C2.9 1 4 0.9 3.9 1.5C3.9 1.9 3.4 2 3.2 2C3.1 2 2.5 2.1 2.5 2.1C2.5 2.1 3 2.7 3.5 2.6C3.5 2.6 3.7 2.2 4.4 2.1C4.8 2.1 5.3 2.3 5.3 2.5C5.3 2.6 5.3 2.8 5.1 2.9C4.7 3 4.7 2.5 5 2.5C5 2.5 4.8 2.2 4.4 2.3C4.1 2.4 3.9 2.7 3.9 2.9C3.9 3.1 4.2 3.3 4.8 3.3C4.8 3.3 6 3 6.6 3C7.2 2.9 8.6 3 9.2 3.7L9.1 3.7C9.1 3.7 8.8 3.3 7.7 3.2C7.1 3 5.9 3.4 5.9 3.4C5.9 3.4 7 3.7 7 4C7 4.1 6.59999 4.2 6.59999 4.2C6.59999 4.2 7.39999 4.3 7.89999 5C8.39999 5.7 8.59999 5.9 8.69999 6C8.69999 6 8.49999 5.9 8.19999 6C8.19999 6 8.99999 6.4 9.09999 6.6C9.19999 6.8 8.89999 6.9 8.89999 6.9C8.89999 6.9 9.59999 7.2 9.8 7.7C9.89999 8 9.3 8 9.39999 8C9.39999 8 10.4 8.5 10.4 8.7C10.4 8.9 9.8 8.9 9.8 8.9C9.8 8.9 11 9.4 11 10C10.9 10.6 9.7 10 9.7 10C9.7 10 9.7 10.4 10.3 10.8C10.3 10.8 9.89999 10.7 9.5 10.2C9.09999 9.7 9.3 9.6 8.8 9C8.7 8.9 7.9 9 6.8 8.9L6.8 8.9L6.8 8.9ZM2.6 0.744166C2.2 0.215682 0.799999 1.00841 0.799999 1.00841C1.3 1.14053 1.8 1.53689 1.8 1.53689C2.1 1.66901 2.9 1.27265 2.6 0.744166L2.6 0.744166L2.6 0.744166ZM3.7 1.44871C3.5 1.08106 2.9 1.20361 2.9 1.20361C2.6 1.57125 2 1.57125 2 1.57125C2.2 1.81635 2.59999 2.184 2.59999 2.184C3 2.184 3.8 1.9389 3.7 1.44871L3.7 1.44871ZM8.1 5.74342C7.9 5.42812 7.6 5.00772 7.6 5.00772C7.6 5.00772 6.8 4.58733 6.6 5.11282C6.3 5.53322 7.3 5.84852 7.3 5.84852L8.1 5.74342L8.1 5.74342L8.1 5.74342ZM9.3 7.51644C9.2 7.14657 8.7 6.9 8.7 6.9C8.7 6.9 8.6 6.9 8.2 7.26986C7.8 7.63973 8.3 7.8863 8.3 7.8863C8.3 7.8863 9.4 8.00959 9.3 7.51644L9.3 7.51644L9.3 7.51644ZM10.2 9.31026C9.6 8.9 8.9 8.9 8.9 8.9C9.4 9.31026 9.5 9.82308 9.5 9.82308C9.8 9.92564 10.3 9.92564 10.5 9.82308C10.6 9.72051 10.5 9.51538 10.2 9.31026L10.2 9.31026Z" transform="translate(30.944794 4.4000006)" id="Shape" fill="#FFFFFF" fill-rule="evenodd" stroke="none" />
        <path d="M2.5 1C2.7 1 3.1 1 3.3 0.666666C3.5 0.666666 3.3 0 3.1 0C2.9 0 2.7 0.333334 2.5 0.333334C2.3 0.333334 2.2 0.333334 2.2 0.333334C2.2 1 2.3 1 2.5 1L2.5 1L2.5 1ZM4.6 1.6C4.4 1.6 4.2 2.1 4 2.1C3.8 2.1 3.7 1.6 3.7 2.1C3.7 2.6 3.8 2.6 4 2.6C4.2 2.6 4.6 2.6 4.8 2.6C5 2.6 4.8 1.6 4.6 1.6L4.6 1.6L4.6 1.6ZM7.7 7.60448C7.8 7.78918 8.3 7.97388 8.5 8.15858C8.7 8.15858 8.6 7.78918 8.4 7.60448C8.2 7.41978 8 7.41978 7.8 7.41978C7.6 7.23508 7.5 7.05039 7.5 7.23508C7.5 7.41978 7.6 7.41978 7.7 7.60448L7.7 7.60448L7.7 7.60448ZM7.3 7.8C7.6 8.7 8.1 8.4 8.1 8.4C7.9 8.4 7.6 8.1 7.5 7.6C7.40001 7.2 7.1 6.6 6.8 6.3C6.4 6 6.1 6 6.1 6C6.9 6.2 7.1 7 7.3 7.8L7.3 7.8ZM10.2 15.5C10.4 15.2 9.7 14.5 9.4 15.2C9.2 15.6 9.4 15.9 9.7 16.1C10 16.3 10.3 16.4 10.5 16.1C10.9 15.4 10.3 14.5 9.7 13.9C9.1 13.3 8.4 12.7 8.4 12.7C8.2 11.6 7.4 10.7 7.4 10.7C7.4 10.7 8 10.7 7.8 10.1C7.5 9.5 6.8 9.1 6.8 9.1C6.8 9.1 7.7 9.3 7.3 8.7C6.8 8.1 6.5 8 6.5 8C6.5 8 7.1 8.5 7.1 8.6C7.1 8.8 6.7 8.7 6.4 8.7C6.1 8.7 5.5 8.6 3.5 8.3C1.5 8 0 7.7 0 7.7L0.0999985 7.8C1.3 8.1 2.2 8.1 3.4 8.4C4.6 8.7 6.5 8.9 6.5 8.9C6.7 9 7.09999 9.2 7.4 9.6C7.7 10 7.4 10.3 6.8 10.2C6.3 10.1 6.3 9.6 6.3 9.6C6.4 9.8 6.7 9.7 6.6 9.4C6.5 9.1 5.9 9.2 6.2 9.8C6.5 10.4 7.3 10.5 7.3 10.5C8.3 11.7 8.09999 12.9 8.09999 12.9C7.5 11.5 6.19999 10.9 5.69999 11.7C5.39999 12.1 5.39999 12.6 5.49999 13.1C5.59999 13.6 5.69999 13.7 5.89999 14.1C6.39999 15 7.59999 15 7.39999 14.1C7.19999 13.2 6.39999 13.4 6.49999 13.9C6.59999 14.4 6.89999 14.2 6.89999 14C6.89999 13.8 6.69999 13.8 6.69999 13.8C6.69999 13.6 6.89999 13.7 6.89999 13.7C7.39999 13.9 7.3 14.6 6.89999 14.7C6.49999 14.8 5.79999 14.1 5.79999 13.4C5.79999 12.6 6 11.6 6.79999 11.8C7.59999 12 8.09999 13.4 8.09999 13.5C8 14.2 7.89999 14.5 8.19999 15.1C8.39999 15.7 8.89999 16 8.89999 16L8.8 15.6C8.2 15.3 8.3 14.7 8.39999 14.2C8.49999 13.6 8.49999 12.9 8.49999 12.9C9.19999 13.3 9.39999 13.5 9.99999 14.3C10.6 15.1 10.5 15.5 10.4 15.7C10.3 15.9 9.99999 16 9.89999 15.8C9.69999 15.6 9.69999 15.5 9.8 15.3C9.89999 15.1 10.1 15.1 10.1 15.1C9.7 15.5 10.1 15.8 10.2 15.5L10.2 15.5L10.2 15.5Z" transform="translate(34.94479 6.5)" id="Shape" fill="#FFFFFF" fill-rule="evenodd" stroke="none" />
      </g>
    </g>
  </g>
  <g id="G" fill="#FFFFFF" transform="translate(14.5 7)">
    <path d="M21.273 27.3013Q21.294 27.448 21.294 27.5737Q21.294 28.3914 20.097 28.7897Q19.278 29.062 18.333 29.062Q16.779 29.062 16.779 27.9369Q16.779 27.7912 16.8105 27.489Q16.842 27.1868 16.842 27.0618Q16.842 26.416 16.191 26.416Q16.212 26.416 14.994 27.1035Q13.587 27.9162 12.243 28.3746Q10.311 29.0621 8.505 29.062Q4.746 29.062 2.1735 26.5657Q-0.399 24.0693 -0.399 20.2722Q-0.399 16.3492 2.919 13.4961Q5.586 11.2094 9.933 9.88807Q13.461 8.81805 16.254 8.81805Q17.892 8.81805 19.32 9.53205Q21.147 10.4351 21.147 12.073Q21.147 13.5221 19.824 14.5091Q18.606 15.4331 17.136 15.433Q16.968 15.2441 16.968 14.95Q16.968 14.7821 17.031 14.4145Q17.094 14.0471 17.094 13.8371Q17.094 13.3331 16.758 12.9551Q15.75 11.8841 14.679 11.5271Q13.944 11.2751 12.663 11.2751Q9.408 11.2751 6.615 12.9528Q3.129 15.0498 3.129 18.6782Q3.129 21.4883 5.334 24.0887Q7.686 26.8361 10.647 26.8361Q12.075 26.8361 14.2275 25.831Q16.38 24.826 16.632 23.9886Q16.779 23.5279 16.779 22.0412Q16.779 21.9575 16.8105 21.6225Q16.842 21.2875 16.842 21.0781Q16.842 19.6961 15.771 19.6961Q15.645 19.6961 13.881 20.1266Q12.117 20.5571 11.97 20.5571Q11.655 20.5571 11.34 20.389Q11.025 20.2211 11.025 19.9691Q11.025 19.5911 11.5185 19.0661Q12.012 18.541 12.453 18.4571Q13.923 18.163 16.548 17.806Q18.921 17.4491 19.173 17.4491Q21.252 17.4491 21.147 18.6858L21.273 27.3013Z" />
  </g>
  <path d="M0 26C0 11.6406 11.6406 0 26 0C40.3594 0 52 11.6406 52 26C52 40.3594 40.3594 52 26 52C11.6406 52 0 40.3594 0 26Z" transform="translate(0.5 0.5)" id="Ellipse" fill="none" fill-rule="evenodd" stroke="#FFFFFF" stroke-width="1" />
</svg>
