<?xml version="1.0" encoding="utf-8"?>
<!-- Generator: Adobe Illustrator 26.0.3, SVG Export Plug-In . SVG Version: 6.00 Build 0)  -->
<svg version="1.1" id="Layer_1" xmlns="http://www.w3.org/2000/svg" xmlns:xlink="http://www.w3.org/1999/xlink" x="0px" y="0px"
	 viewBox="0 0 157 50" style="enable-background:new 0 0 157 50;" xml:space="preserve">
<style type="text/css">
	.st0{fill-rule:evenodd;clip-rule:evenodd;}
</style>
<g>
	<path class="st0" d="M35.7,44.5c0,0.1,0,0.2,0.2,0.2c0.2,0,0.3-0.1,0.3-0.2c0-0.1-0.1-0.2-0.2-0.2c0,0,0,0,0,0
		C35.8,44.3,35.7,44.4,35.7,44.5z M47,39.2c0.1-0.9,0.2-2.4,0.1-2.4l0.1-0.1c0,0,0,1-0.1,2.4c-0.1,1.1,0,2,0,2.3
		c0,0.3,0.1,1.2,0.3,1.2c0.2,0,0.4-0.7,0.4-0.7c0,0-0.1-0.3-0.1-0.7c0-0.3,0.3-0.8,0.6-0.8c0.3,0,0.2,0.5,0,0.5
		c-0.2,0-0.2-0.3-0.2-0.3c-0.4,0.2,0,1.2,0.2,1.1c0.4-0.2,0.5-1.1,0.5-1.1c0,0,0-0.3-0.1-0.4c0-0.1,0-0.2,0-0.3
		C49,40,49,39.8,49,39.8c0,0.8,0.2,1.5,0.3,1.5c0.2,0,0.3-0.7,0.3-0.7c-0.1-0.3-0.2-0.5-0.1-0.8c0-0.3,0.2-0.6,0.5-0.6
		c0.3,0,0.3,0.5,0.1,0.6c-0.3,0-0.2-0.3-0.2-0.3c-0.3,0.2-0.1,1.2,0.3,1.1c0.4-0.1,0.5-0.8,0.5-0.8c-0.1-0.2-0.2-0.4-0.2-0.8
		c0-0.4,0.3-0.8,0.6-0.7c0.2,0,0.2,0.4,0,0.5C51,38.7,51,38.4,51,38.4c-0.2,0.2-0.2,0.5-0.1,0.8c0.2,0.3,0.4,0.3,0.6,0.1
		c0.2-0.2,0.2-0.9,0.2-0.9c0,0-0.5-1.4-0.9-2.8C50.4,33.8,50,32,50,32l0-0.1c0,0,0.4,1.5,1,3.6c0.4,1.3,0.8,2.3,0.8,2.5
		c0,0.1,0.3,0.7,0.4,0.6c0.2-0.1,0.2-0.8,0.2-0.8c0,0-0.7-1.9-1.2-4c-0.5-2-0.9-3.4-0.9-3.4l0-0.1c0,0,0.4,1.2,0.9,3.3
		c0.5,1.8,1.1,3.3,1.1,3.3c0,0,0-0.5,0.2-0.7c0.2-0.2,0.5,0,0.5,0c0,0-0.1-1.1,0.5-1.1c0.6,0,0.6,1.2,0.6,1.2c0.4-0.6,0.4-1,0.4-1
		c-0.2-0.3-0.3-0.9-0.3-0.9c0,0-0.1,0.4-0.3,0.5c-0.2,0.1-0.9-0.4-1.1-1.2c-0.3-1.1-0.4-2.9-0.4-2.9l0-0.1c0,0,0.2,1.6,0.5,2.8
		c0.2,0.5,0.8,1.1,1,0.9c0.3-0.2,0.2-0.6,0.2-0.6l0.1-0.2c0.1,0.7,0.4,1.3,0.6,1.3c0.3,0,0.3-0.9,0.3-0.9c-0.1-0.1-0.3-0.2-0.4-0.6
		c-0.2-0.4-0.1-0.8,0.1-0.9c0.3-0.1,0.6,0.3,0.4,0.5c-0.2,0.1-0.4-0.2-0.4-0.2c-0.4,0.4,0.5,1,0.7,0.9c0.2-0.2,0.1-0.9,0.1-0.9
		c-0.5-0.4-0.6-1-0.6-1.3c0-0.3,0.3-0.3,0.4-0.2c0.1,0.1,0.2,0.3,0.1,0.4c-0.1,0.1-0.3-0.1-0.3-0.1c-0.3,0.4,0.4,1.1,0.7,0.9
		c0.3-0.2,0-0.8-0.2-1.1c-0.2-0.2-0.3-0.5-0.3-0.7c-0.1-0.3,0-0.3,0-0.3c0.1,0.3,0.9,1.4,0.9,1.3c0.1-0.2,0-0.8,0-0.8
		c0,0-0.8-1-1.7-2.1c-0.4-0.5-0.8-1.1-1.2-1.6c-0.3-0.5-0.6-0.9-1-1.3c-0.1-0.1-0.6-0.8-0.6-0.8l0-0.1c0,0,1.1,1.3,2.1,2.7
		c0.7,0.9,2,2.3,1.9,2.3c0,0-0.4-0.8,0-1.1c0.4-0.3,1.1,0.1,1.2,0.8c0.1,0.3,0,0.8-0.3,0.8c-0.1,0-0.3-0.2-0.2-0.4
		c0.1-0.2,0.3,0,0.3,0c0.2-0.5-0.2-0.9-0.6-0.9c-0.4,0-0.4,0.2-0.3,0.5c0.1,0.3,0.2,0.6,0.2,0.6c0,0,0.3,0.3,0.7,0.9
		c0.2,0.3,0.5,0.8,0.7,1.3c0.6,1.5,0.1,2,0.1,2l-0.1-0.1c0.3-0.4,0.1-1.1-0.2-1.8c-0.3-0.7-1-1.7-1-1.7c0.2,0.4,0.1,1,0,1.1
		c-0.1,0.1-0.3-0.2-0.3-0.2c0,0.1,0.1,0.8,0,1c-0.2,0.2-0.4,0-0.4,0c0,0,0.2,0.7-0.1,1.1c-0.3,0.3-0.5,0.1-0.5,0.1c0,0,0,1-0.2,1.2
		c-0.2,0.2-0.4,0.1-0.4,0.1c-0.1,0.6-0.2,1-0.6,1.6c-0.4,0.6-0.8,0.9-1,1.2c-0.3,0.3-0.4,0.7-0.4,0.7c0,0,0-0.1,0-0.3
		c0-0.2-0.1-0.5-0.1-0.5c0,0,0,1-0.3,1c-0.2,0.1-0.3-0.3-0.3-0.3c0,0,0,0.9-0.4,1.1C51.2,40,51,39.8,51,39.8
		c-0.1,0.4-0.3,0.9-0.6,1.1c-0.3,0.1-0.5-0.2-0.5-0.2c-0.2,0.5-0.3,0.8-0.3,0.8c0,0,0.1,0.8-0.2,1.7c-0.3,1-0.7,1.3-0.9,1.4
		c-0.2,0.1-0.5,0.2-0.7-0.2c-0.2-0.4,0-0.8,0.3-1c0.3-0.2,0.6-0.2,0.7,0c0.1,0.2,0.1,0.5-0.2,0.6c-0.2,0.1-0.4,0-0.3-0.1
		c0-0.2,0.3-0.3,0.3-0.3c0-0.1-0.2-0.2-0.5,0c-0.2,0.2-0.1,0.6,0.1,0.6c0.3,0.1,0.8-0.2,1.1-1.1c0.3-0.9,0.2-1.6,0.2-1.6
		C49,41.9,49,41.2,49,41.2c-0.1,0.5-0.3,1-0.6,1.2c-0.3,0.2-0.5-0.2-0.5-0.2c0,0-0.5,1-0.7,0.9C47,43,47,42.4,47,42.4
		c-0.1,0.4-0.4,1-0.7,1.2c-0.3,0.2-0.4-0.1-0.4-0.1c0,0-0.5,0.8-0.9,0.6c-0.5-0.3,0.1-1.3,0.1-1.3c-0.5,0.2-0.6,0.5-0.7,0.5
		c0.1-0.5,1-1.1,1.7-1.3c0.6-0.2,0.9-0.7,0.9-0.7C46.9,41.2,46.9,40.6,47,39.2L47,39.2z M53.4,37.2c0.2-0.3,0.5-0.7,0.5-0.7
		c0.1-0.4-0.1-0.9-0.5-1c-0.4,0-0.3,0.8-0.3,0.8C53.4,36.6,53.4,37.2,53.4,37.2L53.4,37.2z M52.7,38.1c0-0.1,0.1-0.2,0.3-0.4
		c0.1-0.1,0.2-0.2,0.2-0.3c0,0,0-0.3-0.2-0.5c-0.1-0.2-0.3-0.4-0.4-0.3c-0.1,0.1-0.2,0.3-0.2,0.6c0,0.2,0.1,0.5,0.2,0.6
		C52.7,38,52.7,38.1,52.7,38.1L52.7,38.1z M46,42.4c0,0-0.4,0.1-0.8,0.3c0,0-0.5,0.8,0,1c0.3,0.2,0.6-0.5,0.6-0.5
		C45.8,43.3,45.7,43,46,42.4z M46.9,42.5c0.1-0.4,0.1-0.8,0.1-0.9c0,0-0.4,0.5-0.8,0.7c0,0-0.5,0.8,0,1
		C46.4,43.3,46.7,42.9,46.9,42.5L46.9,42.5z"/>
	<path class="st0" d="M36.4,45.5c0,0,0.5-0.8,1.1-1.9c0.6-1.1,1.5-2.6,2.5-4.1l0.1,0c0,0-0.2,0.3-0.5,0.8c-0.3,0.4-0.6,0.9-1,1.7
		c-0.8,1.4-1.5,2.8-1.5,2.8c0,0,0.5-0.5,1.1-0.5c0.5,0,0.4,0.5,0.4,0.5c0,0,0.4-0.5,1-0.8c0,0-0.2-0.4,0.4-1
		c0.4-0.4,1.2-0.6,1.7-0.3c0.5,0.3,0.9,1.2-0.8,2.5c0,0,0.7,0.1,1.4-0.7c0,0,0-0.5,0.3-0.9c0.3-0.4,0.5-0.5,0.7-0.3
		c0.1,0.1,0.1,0.3,0,0.4c-0.1,0.1-0.3,0.2-0.4-0.1c0,0-0.2,0.1-0.3,0.5c-0.1,0.5,0.1,0.7,0.4,0.6c0.3-0.1,0.7-0.5,0.9-1.3
		c0,0,0-0.1,0.1-0.3c0.1-0.4,0.2-1,0.3-1.6c0.2-1,0.7-2.5,1.1-4.6l0.1-0.1c0,0-0.2,1.1-0.6,3.2c-0.5,2.1-0.6,2.9-0.7,3.4
		c-0.1,0.4-0.1,0.9,0,0.9c0.1,0,0.3-0.2,0.4-0.4c0-0.1,0.1-0.1,0.1-0.1c0,0,0,0.1,0,0.1c-0.1,0.1-0.3,0.4-0.5,0.6
		c-0.2,0.2-0.4,0.1-0.3-0.5c0,0-0.4,0.9-1.1,1c-0.4,0.1-0.4-0.3-0.4-0.3c0,0-0.5,0.4-1,0.7c0,0-0.5,1-1.2,1.7
		c-0.7,0.7-1.4,0.8-1.7,0.6c-0.3-0.2-0.2-0.6,0.1-0.8c0.2-0.2,0.6-0.3,0.8-0.2c0.3,0.1,0.2,0.4,0.1,0.5c-0.1,0.1-0.2,0.3-0.5,0.2
		c-0.2-0.1,0-0.4,0.3-0.4c0,0-0.3-0.2-0.6,0c-0.3,0.2-0.1,0.5,0.2,0.6c0.3,0.1,0.7-0.1,1-0.4c0.3-0.3,0.9-0.9,1.2-1.6
		c0,0-0.4,0.1-0.9,0.1c-0.5,0-0.9,0-1.2,0.1c-0.3,0.1-0.6,0.3-1.3,0.2c0,0-0.5,0.8-1.1,1.3c-0.5,0.5-1,0.5-1.3,0.2
		c0,0-1,0.5-1.4,0.1c-0.3-0.3-0.1-0.7,0.1-0.9c0.3-0.2,0.6-0.3,0.9-0.1c0.6,0.4-0.2,1-0.5,0.7c-0.1-0.1,0-0.2,0-0.3
		c0.1-0.1,0.3-0.1,0.4,0c0,0,0.1-0.1-0.1-0.3c-0.2-0.1-0.4,0-0.6,0.1c-0.1,0.1-0.2,0.3,0.1,0.5c0.3,0.2,0.7,0.2,1.2-0.1
		c0.5-0.2,1.1-0.9,1.5-1.4c0,0-1.3-0.2-1.7,0.2l-0.3,0C34.9,46,35.4,45.4,36.4,45.5L36.4,45.5z M37.5,45.9l-0.5,0c0,0-0.8,1-1.4,1.3
		c0,0,0.2,0.2,0.4,0.1c0.2,0,0.6-0.2,1-0.7C37.3,46.1,37.4,45.9,37.5,45.9z M38,45.6c0,0,0.6,0.1,0.9-0.1c0.3-0.2,0.5-0.3,0.8-0.3
		c0.3,0,0.5,0,0.7,0c0.2,0,0.7-0.3,1.1-0.8c0.4-0.5,0.4-1.1-0.2-1.4c-0.5-0.2-1-0.1-1.3,0.2c-0.2,0.2-0.3,0.4-0.3,0.6
		c0,0,0.3-0.1,0.5,0c0.2,0.1,0.3,0.4,0.2,0.5c-0.1,0.2-0.3,0.3-0.6,0.1c-0.2-0.1-0.3-0.4-0.3-0.4c0,0-0.4,0.2-0.7,0.5
		C38.7,44.9,38.2,45.4,38,45.6L38,45.6z M40.1,44.3c0.1,0.1,0.2,0.1,0.3,0c0.1-0.1-0.1-0.4-0.5-0.3C39.8,44,39.9,44.1,40.1,44.3
		L40.1,44.3z M36.9,45.1l-0.2,0.4c0.5,0,1.1,0.1,1.1,0.1c0,0,0.7-0.6,0.4-1C37.8,44.2,36.9,45.1,36.9,45.1z M43.4,45.3
		c0,0-0.1,0.1-0.2,0.3c-0.1,0.2-0.1,0.6,0.1,0.6c0.1,0,0.2-0.2,0.2-0.2c0-0.1-0.2-0.1-0.1-0.4C43.3,45.4,43.4,45.3,43.4,45.3
		L43.4,45.3z M43,45.6c-0.1,0-0.1,0.2-0.2,0.3c0,0.1-0.1,0.3-0.2,0.5c-0.1,0.1-0.1,0.3,0,0.3c0.1,0,0.1-0.1,0.2-0.2
		c0.1-0.1,0.1-0.3,0.1-0.6C42.9,45.8,43.1,45.6,43,45.6L43,45.6z M42.7,45.9c0-0.2,0.1-0.2,0.1-0.3c0-0.1-0.1-0.1-0.2,0.1
		c0,0.1-0.1,0.3-0.2,0.4c-0.1,0.1-0.3,0.3-0.1,0.3C42.4,46.4,42.6,46.1,42.7,45.9L42.7,45.9z M55.7,35.1c0,0-0.1,0.1,0,0.3
		c0.1,0.2,0.4,0.5,0.5,0.4c0.1-0.1,0.1-0.3,0-0.3c-0.1-0.1-0.2,0.1-0.4-0.2C55.7,35.2,55.7,35,55.7,35.1L55.7,35.1z M55.6,35.6
		c-0.1,0.1,0,0.3,0.1,0.4c0.1,0.1,0.1,0.3,0.2,0.5c0,0.1,0.2,0.3,0.2,0.2c0.1,0,0-0.1,0-0.3c0-0.2-0.2-0.3-0.3-0.5
		C55.7,35.7,55.7,35.5,55.6,35.6L55.6,35.6z M55.6,36c-0.1-0.2-0.1-0.2-0.2-0.3c-0.1-0.1-0.2,0-0.1,0.1c0.1,0.1,0.1,0.3,0.1,0.5
		c0,0.1,0,0.4,0.2,0.3C55.8,36.5,55.7,36.2,55.6,36L55.6,36z M57.6,30c0,0,0,0.2,0.1,0.3c0.1,0.2,0.5,0.4,0.6,0.3
		c0.1-0.1,0-0.3-0.1-0.3c-0.1,0-0.2,0.1-0.4-0.1C57.7,30.1,57.7,30,57.6,30z M57.7,30.5c-0.1,0.1,0.1,0.2,0.2,0.3
		c0.1,0.1,0.2,0.3,0.3,0.4c0.1,0.1,0.2,0.2,0.3,0.2c0-0.1,0-0.1-0.1-0.3c-0.1-0.1-0.3-0.2-0.4-0.4C57.8,30.7,57.7,30.5,57.7,30.5
		L57.7,30.5z M57.8,31c-0.1-0.1-0.1-0.1-0.2-0.2c-0.1-0.1-0.2,0.1,0,0.2c0.1,0.1,0.2,0.3,0.2,0.4c0,0.1,0.1,0.4,0.2,0.2
		C58.2,31.4,57.9,31.1,57.8,31z M31.2,45.5c0,0-0.2,0-0.3,0.1c-0.2,0.1-0.4,0.5-0.3,0.6c0.1,0.1,0.3,0,0.3-0.1
		c0.1-0.1-0.1-0.2,0.1-0.4C31.2,45.6,31.3,45.6,31.2,45.5L31.2,45.5z M30.7,45.6c-0.1-0.1-0.2,0.1-0.3,0.2c-0.1,0.1-0.3,0.2-0.4,0.3
		c-0.1,0.1-0.2,0.2-0.2,0.3c0.1,0,0.1,0,0.3-0.1c0.1-0.1,0.2-0.3,0.4-0.4C30.6,45.7,30.8,45.6,30.7,45.6L30.7,45.6z M30.3,45.7
		c0.1-0.1,0.1-0.1,0.2-0.2c0.1-0.1-0.1-0.2-0.2,0c-0.1,0.1-0.3,0.2-0.4,0.2c-0.1,0-0.4,0.1-0.3,0.2C29.8,46,30.2,45.8,30.3,45.7z
		 M26.3,43.5c0,0-0.1-0.1-0.3,0c-0.2,0.1-0.5,0.4-0.4,0.5c0.1,0.1,0.3,0.1,0.3,0c0.1-0.1-0.1-0.2,0.2-0.4
		C26.2,43.6,26.3,43.6,26.3,43.5z M25.8,43.4c-0.1-0.1-0.3,0-0.4,0.1c-0.1,0.1-0.3,0.1-0.5,0.2c-0.1,0-0.3,0.1-0.2,0.2
		c0,0.1,0.1,0,0.3,0c0.2,0,0.3-0.2,0.5-0.3C25.7,43.5,25.9,43.5,25.8,43.4L25.8,43.4z M25.4,43.5c0.2-0.1,0.2-0.1,0.3-0.2
		c0.1-0.1,0-0.2-0.1-0.1c-0.1,0.1-0.3,0.1-0.5,0.1c-0.1,0-0.4,0-0.3,0.2C24.8,43.6,25.2,43.5,25.4,43.5L25.4,43.5z M17.3,33.6
		c0,0-0.1-0.1-0.3-0.2c-0.2,0-0.6,0-0.6,0.2c0,0.1,0.2,0.2,0.2,0.2c0.1,0,0.1-0.2,0.4-0.2C17.2,33.6,17.3,33.7,17.3,33.6z
		 M16.9,33.3c0-0.1-0.2-0.1-0.4-0.1c-0.1,0-0.4-0.1-0.5-0.1c-0.1,0-0.3,0-0.3,0c0,0.1,0.1,0.1,0.2,0.2c0.1,0.1,0.3,0,0.6,0
		C16.8,33.3,16.9,33.4,16.9,33.3L16.9,33.3z M16.6,33c0.2,0,0.2,0,0.3,0c0.1,0,0.1-0.2-0.1-0.1c-0.1,0-0.3-0.1-0.4-0.2
		c-0.1-0.1-0.3-0.2-0.3,0C16,32.9,16.4,33,16.6,33z"/>
	<path class="st0" d="M15.8,27.8c0,0,0.6,0.3,0.9,1.2c0.2,0.5,0.2,1.4,0.2,1.4c0,0,0.2,0.9,1.1,1.3c0.9,0.4,1.3,0,1.4-0.5
		c0-0.5-0.2-1.2-0.7-1.5c-0.6-0.2-0.9,0.3-0.7,0.6c0,0,0.3-0.2,0.4,0.1c0.1,0.3-0.4,0.4-0.6,0c-0.2-0.4-0.1-0.8,0.2-0.9
		c0.3-0.1,0.9,0.1,1.4,0.7c0.4,0.6,0.5,1.4,0.1,1.7c-0.4,0.3-1.5,0.5-2.5-1c0,0,0,0.9,0.8,1.7c0,0,0.4-0.1,0.9,0.2
		c0.4,0.2,0.8,0.5,0.7,0.8c-0.1,0.3-0.6,0.1-0.5-0.1c0.1-0.1,0.2-0.1,0.2-0.1c0,0,0.1-0.2-0.4-0.4c-0.5-0.2-0.7,0.1-0.7,0.2
		c0,0.1,0.1,0.6,0.9,0.9c0,0,1.3,0.1,2.8,0.2c1.8,0.2,4,0.4,4,0.4l0.1,0.1c0,0-1,0-2.9-0.2c-1.4-0.1-2.9-0.2-3.4-0.2
		c-0.4,0-1,0-1,0.1c0,0.1,0.2,0.3,0.6,0.5c0,0,0.5,0,1.2,0.4c0,0-0.1-0.3-0.7-0.7c0,0,0.4,0,1.1,0.8c0.4,0.5,0.5,1,0.8,1.4
		c0.2,0.3,0.5,0.4,0.5,0.4c0,0,0.9-0.1,2.6-0.2c1.7-0.1,2.9-0.3,2.9-0.3l0.1,0.1c0,0-1.3,0.2-3.1,0.4c-1.8,0.2-2.9,0.3-3.2,0.3
		c-0.3,0-0.6,0.1-0.6,0.2c0,0.1,0.4,0.3,0.8,0.4c0,0,1.5-0.2,3.3-0.4c2-0.1,4.1-0.4,4.1-0.4l0.1,0.1c0,0-1.8,0.3-3.9,0.5
		c-1.2,0.1-2.6,0.3-2.6,0.3c0,0,0.9,0.2,0.6,0.7c0,0,1,0.2,0.9,0.7c-0.1,0.5-1.3,0.3-1.3,0.3c0,0,0.4,0.3,0.9,0.4
		c0,0,1.7-0.6,3.4-1.1c1.6-0.5,2.8-0.8,3.4-1l0.1,0c0,0-1.6,0.4-3.3,1c-1.4,0.5-2.7,1-2.7,1c0,0,1.2,0.1,1,0.7c0,0,1.1,0.1,0.9,0.6
		C26.2,42,25,42,25,41.9c0,0,0.4,0.3,1.3,0.4c0,0,0.4-0.2,1-0.3c0,0-0.9-0.1-0.5-0.7c0.4-0.8,1.9-1,4.2-1.8l0.1,0c0,0-1.1,0.4-2.8,1
		c-1.4,0.5-1.2,1.1-1.1,1.2c0.1,0.1,0.3,0.2,0.5,0.1l0.2,0.1c0,0-1.2,0.2-1.3,0.6c-0.1,0.3,1.1,0.3,1.1,0.3c0,0,0.2-0.2,0.7-0.3
		c0.5-0.1,0.6,0,0.7,0.2c0.1,0.2-0.3,0.5-0.4,0.2c-0.1-0.2,0-0.2,0-0.2c0,0-0.3-0.1-0.5,0.3c-0.3,0.4-0.2,0.7,0.6,0.6
		c0,0,0.2-0.3,0.7-0.5c0.4-0.2,0.7-0.1,0.9,0.1c0.1,0.2-0.3,0.6-0.5,0.3c-0.1-0.2,0.2-0.3,0.2-0.3c0,0-0.1-0.2-0.5,0.1
		c-0.3,0.2-0.4,0.5-0.3,0.6c0.1,0.1,0.7,0.3,1.4-0.3c0.3-0.3,0.7-0.3,0.7-0.3c0,0-0.3,0.2-0.6,0.4c-0.3,0.3-0.5,0.5-0.5,0.5
		c0,0.1,0.3,0,0.5-0.1c0.1-0.1,0.8-0.6,1.5-1.2c0.6-0.5,1.3-1.1,2.1-1.7c0.9-0.7,1.6-1.4,2-1.7l0.1,0c0,0-0.7,0.6-2,1.7
		c-1.4,1.2-2.4,2.2-3,2.7c0,0,1.2-0.5,1.5-0.1c0.2,0.2,0.1,0.6-0.2,0.9c-0.3,0.3-1,0.5-1.3,0.2c-0.1-0.2-0.1-0.3,0.1-0.4
		c0.1-0.1,0.3,0,0.3,0c0.1,0.1-0.1,0.3-0.1,0.3c0,0,0.3,0.2,0.6,0c0.3-0.2,0.3-0.7,0.2-0.8c-0.2-0.1-0.5-0.2-1.4,0.2
		c0,0-0.8,0.7-1.9,1.3c-0.6,0.3-1.4,0.5-2,0.2l0.1-0.1c0,0,0.3,0.2,0.9,0.1c0.6-0.2,0.8-0.3,2.1-1.2c0,0-0.5,0.1-0.6,0
		c-0.1-0.1,0.2-0.4,0.2-0.4c0,0-0.8,0.3-1.1,0c-0.2-0.2-0.1-0.4-0.1-0.4c0,0-0.8,0.2-1.1-0.1c-0.2-0.2,0.1-0.5,0.1-0.5
		c0,0-1,0-1.3-0.1c-0.3-0.1,0-0.4,0-0.5c0,0-0.9,0-1.6-0.5c-0.7-0.4-1.2-1-1.5-1.2c-0.4-0.3-0.4-0.1-0.6-0.3c0,0,0.5,0,0.7-0.1
		c0,0-1.6-0.3-2.7-2.2c0,0,0.2,0,0.5-0.1c0,0-0.9-0.3-1-0.6c-0.1-0.1,0.3-0.2,0.4-0.2c0,0-0.9-0.3-1.1-0.6c-0.2-0.3,0-0.5,0-0.5
		c0,0-0.5-0.2-0.7-0.6c-0.2-0.4,0.2-0.5,0.2-0.6c0,0-0.8-0.5-0.9-0.7c-0.1-0.2,0.3-0.2,0.5-0.2c0,0-0.8-0.3-1-0.9
		c-0.2-0.3,0.2-0.5,0.2-0.5c0,0-0.5-0.5-0.9-1.3c0,0-1.1-0.5-1.7-1c-0.6-0.5-1.1-1.2-0.9-1.7c0.2-0.5,0.7-0.2,0.9-0.1
		c0.2,0.1,0.5,0.4,0.3,0.9c-0.1,0.4-0.5,0.2-0.6,0.1c-0.1-0.1-0.2-0.2-0.1-0.4c0.1-0.2,0.4-0.2,0.4,0.2c0,0,0.2,0.1,0.2-0.2
		c0-0.2-0.1-0.4-0.3-0.5c-0.2-0.1-0.4,0.1-0.4,0.3c-0.1,0.2-0.1,0.4,0.3,0.9c0.4,0.5,1,0.9,1.9,1.3c0,0-0.2-0.6-0.2-1.3
		c-0.1-0.7,0-1.6-0.6-1.7L15.8,27.8L15.8,27.8z M24.1,41.2c0.2,0.2,0.3,0.3,0.5,0.4c0.6,0.3,1.2,0,1.2-0.3c0-0.3-0.6-0.4-0.6-0.4
		C24.9,41.3,24.1,41.2,24.1,41.2L24.1,41.2z M23.1,40.6c0.4,0.2,0.8,0.5,0.8,0.5c0.3,0.1,1-0.1,1-0.3c0-0.3-0.8-0.4-0.8-0.4
		C23.5,40.5,23.1,40.6,23.1,40.6z M21.6,39c0.2,0.3,0.6,0.6,0.6,0.6c0.5,0.2,1.1,0,1.1-0.3c0-0.3-0.6-0.4-0.6-0.4
		C22.5,39.3,21.6,39,21.6,39z M21,38.3c0.2,0.3,0.4,0.6,0.4,0.6c0.4,0.1,1.1,0,1.1-0.2c0-0.3-0.5-0.4-0.5-0.5L21,38.3L21,38.3z
		 M20.2,36.2c-0.2,0-0.4,0.1-0.5,0.2c-0.1,0.2,0.2,0.5,0.5,0.6c0.3,0.1,0.7,0.2,0.7,0.2l0.7-0.1c-0.5-0.2-0.8-0.8-0.8-0.8
		C20.8,36.3,20.5,36.2,20.2,36.2L20.2,36.2z M20.3,35.4c-0.4-0.3-1.1-0.3-1.3-0.1c-0.2,0.3,0.5,0.7,0.5,0.7c0.4-0.2,1.1,0.1,1.1,0.1
		C20.5,35.8,20.3,35.4,20.3,35.4z"/>
	<path class="st0" d="M18.9,36.3c-0.3-0.6-0.6-1-0.8-1.1c-0.2-0.1-0.7-0.3-0.6,0c0.1,0.2,0.4,0.1,0.4,0.1c0.4,0.3,0.3,0.6,0.7,1.4
		c0.2,0.4,0.5,0.7,0.8,0.8c0.4,0.3,0.7,0.2,0.7,0.2C19.6,37.4,19.2,36.9,18.9,36.3L18.9,36.3z M18.5,36.4c0-0.1-0.2-0.2-0.4-0.2
		c-0.1,0-0.4-0.1-0.5-0.2c-0.1-0.1-0.2-0.1-0.2,0c0.1,0.1,0.2,0.3,0.4,0.3c0.1,0,0.4,0,0.5,0C18.5,36.5,18.5,36.5,18.5,36.4z
		 M24.1,7.6c0.1,0,0.1-0.1,0.1-0.3c0-0.2-0.1-0.6-0.3-0.6c-0.1,0-0.2,0.2-0.1,0.3c0.1,0.1,0.2,0,0.3,0.3C24.1,7.5,24,7.6,24.1,7.6z
		 M24.4,7.2c0.1,0,0.1-0.2,0-0.4c0-0.1,0-0.4,0-0.5c0-0.1,0-0.3-0.1-0.3c-0.1,0-0.1,0.1-0.1,0.3s0,0.3,0.1,0.6
		C24.3,7,24.3,7.2,24.4,7.2z M24.5,6.8c0,0.2,0,0.2,0,0.3c0,0.1,0.2,0.1,0.1-0.1c0-0.1,0-0.4,0.1-0.5c0.1-0.1,0.2-0.4,0-0.3
		C24.6,6.2,24.5,6.6,24.5,6.8z M22.1,9.3c0.1,0,0.1-0.1,0.1-0.3c0-0.2-0.2-0.6-0.4-0.5c-0.1,0-0.1,0.2-0.1,0.3
		c0.1,0.1,0.2,0,0.3,0.3C22.1,9.2,22,9.3,22.1,9.3L22.1,9.3z M22.3,8.8c0.1,0,0-0.2,0-0.4c0-0.1,0-0.4,0-0.5c0-0.1-0.1-0.3-0.1-0.3
		c-0.1,0-0.1,0.1-0.1,0.3c0,0.2,0.1,0.3,0.2,0.6C22.3,8.7,22.2,8.9,22.3,8.8L22.3,8.8z M22.4,8.4c0,0.2,0,0.2,0.1,0.3
		c0,0.1,0.2,0,0.1-0.1c0-0.1,0-0.4,0-0.5c0.1-0.1,0.1-0.4-0.1-0.3C22.4,7.8,22.4,8.2,22.4,8.4z M16.5,18.1c0,0,0-0.2-0.1-0.3
		c-0.1-0.2-0.5-0.4-0.6-0.3c-0.1,0.1,0,0.3,0,0.3c0.1,0.1,0.2-0.1,0.4,0.1C16.4,18,16.4,18.1,16.5,18.1L16.5,18.1z M16.5,17.6
		c0.1-0.1-0.1-0.2-0.2-0.3c-0.1-0.1-0.2-0.3-0.3-0.4c-0.1-0.1-0.2-0.2-0.2-0.2c0,0.1,0,0.1,0,0.3c0.1,0.2,0.2,0.3,0.4,0.4
		C16.3,17.5,16.4,17.7,16.5,17.6z M16.4,17.2c0.1,0.1,0.1,0.2,0.2,0.2c0.1,0.1,0.2,0,0-0.2c-0.1-0.1-0.2-0.3-0.2-0.4
		c0-0.2-0.1-0.4-0.2-0.3C16.1,16.7,16.3,17,16.4,17.2z M15.5,23.2c0,0,0-0.2-0.2-0.3c-0.2-0.1-0.5-0.3-0.6-0.2
		c-0.1,0.1,0.1,0.3,0.1,0.3c0.1,0,0.1-0.1,0.4,0C15.4,23.1,15.4,23.3,15.5,23.2z M15.3,22.7c0-0.1-0.1-0.2-0.3-0.3
		c-0.1-0.1-0.3-0.2-0.3-0.3c-0.1-0.1-0.2-0.2-0.3-0.1c0,0.1,0,0.1,0.1,0.3c0.1,0.1,0.3,0.2,0.5,0.3C15.2,22.6,15.3,22.8,15.3,22.7
		L15.3,22.7z M15.1,22.3c0.1,0.1,0.2,0.1,0.3,0.2c0.1,0,0.2-0.1,0-0.2c-0.1,0-0.3-0.2-0.3-0.4c0-0.1-0.2-0.4-0.3-0.2
		C14.7,21.9,15,22.2,15.1,22.3L15.1,22.3z"/>
	<path class="st0" d="M19.3,14.4c0.1,0.2,0.7,1.6,1.6,3.9c0.9,2.2,1.7,3.6,1.6,3.6l0,0.1c0,0-0.6-1.2-1.4-2.9
		c-1-2.4-1.5-3.3-1.5-3.2c0,1-0.6,0.8-0.6,0.8c0,0,0.3,1-0.3,1.1c-0.6,0.1-0.8-1.1-0.7-1.1c-0.3,0.9-0.2,1.4-0.2,1.4
		c0.3,0.2,0.4,0.6,0.4,0.6c0.1-1,0.9-0.6,1.6,0.4c0.7,1.1,1.5,3.1,1.6,3l0,0.1c-0.2-0.5-0.4-0.9-1.1-2.1c-0.6-1.2-1.3-1.8-1.7-1.7
		c-0.4,0.2-0.1,0.8-0.1,0.8l0,0.1c-0.2-0.5-0.6-1-0.9-1.1c-0.2,0-0.3,0.2-0.2,0.4c0,0.3,0.1,0.6,0.1,0.6c0.3,0.1,0.9,0.8,0.7,1.2
		c-0.2,0.4-0.6,0-0.4-0.2c0.1-0.2,0.3,0,0.3,0c0.2-0.4-0.7-0.8-0.9-0.6c-0.2,0.3,0.1,0.7,0.1,0.7c0.6,0.3,0.9,1,0.7,1.4
		c-0.1,0.3-0.6,0.1-0.5-0.2c0.1-0.3,0.3,0,0.3,0c0.1-0.4-0.1-0.5-0.4-0.7c-0.2-0.1-0.5-0.2-0.5,0c-0.2,0.6,0.8,1.3,0.8,1.3
		c0.3,0.4,0.2,0.6,0.2,0.6c-0.1-0.2-0.4-0.4-0.6-0.6c-0.2-0.2-0.5-0.5-0.6-0.4c-0.1,0.2,0.3,0.8,0.3,0.8c0.8,0.7,1.8,1.4,2.9,2.4
		c1.1,1,2.2,2.1,2.2,2l0,0.1c0,0-1.1-1-2.2-2c-1.2-0.9-2.4-1.9-2.4-1.9c0.3,0.5,0.3,0.8,0.3,1c-0.1,0.1-0.4,0.4-1,0
		c-0.6-0.5-0.5-1-0.3-1.2c0.2-0.2,0.4,0.2,0.3,0.3c-0.1,0.1-0.2,0-0.2,0c-0.2,0.5,0.7,0.9,1,0.6c0.3-0.2-0.3-1-0.3-1
		c-0.8-0.5-1.5-1.4-1.5-1.4c-1.2-1.6-0.7-2.3-0.7-2.3l0.1,0.1c-0.2,0.7,0.3,1.5,0.8,2.1c0.5,0.5,1,0.9,1,0.9c-0.2-0.3-0.4-0.9-0.3-1
		c0.1-0.1,0.4,0.1,0.4,0.1c-0.1-0.2-0.3-0.8-0.2-1c0.1-0.2,0.4-0.1,0.4-0.1c-0.1-0.1-0.3-0.8-0.1-1c0.2-0.2,0.5-0.1,0.5-0.1
		c0,0-0.1-0.3-0.1-0.6c0-0.2-0.1-0.5,0-0.6c0.2-0.4,0.5-0.1,0.5-0.1c-0.4-1.4,0.9-3,1.3-3.6c0.3-0.5,0.2-0.6,0.2-0.6
		C19.2,13.9,19.2,14.2,19.3,14.4L19.3,14.4z M18.5,15.4c0,0-0.4,0.6-0.5,0.9c0,0,0.1,1.1,0.7,1c0.4,0,0.2-0.8,0.2-0.8
		C18.9,16.5,18.5,16.3,18.5,15.4z M19.4,15.2c0,0-0.2-0.4-0.3-0.8c0,0-0.1,0.3-0.5,0.7c0,0,0.1,1.1,0.6,1
		C19.6,16.1,19.4,15.2,19.4,15.2z M33.2,2.5c0.6,0.3-0.1,1.3-0.7,1.1c-0.7-0.2-0.2-0.8,0.2-0.7c0.3,0.1,0,0.5-0.3,0.4
		c0,0,0.1,0.1,0.2,0.1c0.2,0,0.4,0,0.5-0.2c0.2-0.3-0.3-0.7-0.9-0.4c-0.6,0.4-1,0.7-1.6,2.2c0,0,1.3-0.2,1.3-0.7L32,4.2
		c0,0,0,0.3-0.5,0.7c-0.5,0.4-0.9,0.5-0.9,0.5c0,0-0.3,0.4-0.6,1.7c-0.2,0.8-0.6,1.9-0.9,3c-0.3,1.1-0.8,2.6-0.8,2.6l-0.1,0.1
		c0,0,0.3-1.1,0.7-2.6c0.4-1.5,0.7-2.5,1-3.6c0,0-0.3,0.4-0.6,0.5c-0.3,0.1-0.4-0.3-0.4-0.3c0,0-0.2,0.7-0.7,0.9c0,0,0.1,0.4-0.2,1
		c-0.3,0.5-1.2,1.3-1.8,1C25.5,9.3,25.6,8,26.4,7c0,0-1.1,0.4-1.2,1.2c0,0,0.2,0.3,0.1,0.7c0,0.4-0.2,0.7-0.5,0.8
		c-0.3,0.1-0.4-0.5-0.1-0.5c0.2,0,0.1,0.3,0.1,0.3c0,0,0.4-0.2,0.3-0.6c-0.1-0.4-0.4-0.6-0.5-0.6c-0.2,0-0.4,0.5-0.5,0.9
		c-0.1,0.5,0.1,1,0.1,1.4c0.1,0.4,0.1,0.9,0.2,2.7c0.1,1.8,0.2,3.2,0.3,3.7l-0.1,0.1c0,0-0.1-0.6-0.3-3.1c-0.1-2.6-0.3-4-0.4-4.3
		C23.9,9.3,23.8,9,23.7,9c-0.1,0-0.4,0.5-0.5,1.2c0,0,0.2,1,0.4,2.5c0.2,1.6,0.3,3.3,0.3,3.3l0,0.1c0,0-0.3-2.1-0.4-3.3
		c-0.2-1.2-0.3-1.8-0.3-1.8c0,0-0.2,0.8-0.7,0.7C22,11.7,22,11,22.2,10.4c0,0-0.4,0.3-0.5,0.8c0,0,0.4,0.9,0.7,2.2
		c0.3,1.3,0.5,2.6,0.6,3.1l0,0.1c0,0-0.1-0.6-0.5-2.1c-0.4-1.6-0.5-1.9-0.5-1.9c0,0-0.2,0.5-0.5,0.2c-0.4-0.3-0.8-0.7-0.9-0.3l0,0.3
		c0,0,0.3,0.1,0.4,0.7c0.1,0.6-0.4,1.3-0.6,0.8c-0.1-0.3,0.2-0.5,0.3-0.1c0,0,0.3-0.3,0.1-0.6c-0.2-0.4-0.5-0.5-0.6-0.5
		c-0.2,0.1-0.3,0.5-0.1,1.1c0.1,0.5,0.4,0.7,0.2,1.1c0,0,0-0.2-0.4-0.7c-0.3-0.5-1-1.7-1-2.7c-0.1-1,0.4-2.6,1-2.8l0,0.2
		c0,0-0.6,0.4-0.7,1.6c-0.1,0.8-0.1,1.4,0.9,3.2c0,0-0.2-1.1,0.2-1.4c0.2-0.1,0.4,0.1,0.4,0.1c0,0,0.1-0.8,0.2-0.9
		c0.2-0.2,0.9,0.8,1.1,0.7c0.1,0,0.1-0.3,0.1-0.3c0,0-0.2-1-0.5-0.9C21.1,11.4,21,12,21,12c0-0.2,0-0.3,0-0.5c0-0.2,0.1-0.3,0.3-0.5
		c0.2-0.2,0.3,0.2,0.3,0.2c0,0,0-0.7,0.6-1.2c0.6-0.5,0.7-0.6,0.8-0.8c0,0-0.1,0.3,0,0.5c0,0.2,0.1,0.4,0.1,0.4c0,0,0.2-1.1,0.7-1.5
		c0.1-0.1,0.2,0.6,0.2,0.6c0,0,0.1-0.9,0.7-1.2c0.2-0.1,0.4,0.2,0.4,0.2c0,0,0.2-0.7,1.1-1.2c0,0,0.1-0.8,0.6-1.8
		c0.5-0.9,1.1-1.4,1.6-1.3c0.5,0.1,0.3,0.7,0.2,0.8c-0.1,0.2-0.5,0.6-0.8,0.5c-0.3,0-0.3-0.4-0.2-0.6c0.2-0.3,0.7-0.3,0.6,0
		c-0.1,0.2-0.4,0.2-0.4,0.1c0,0-0.1,0.3,0.3,0.2c0.4-0.1,0.4-0.3,0.5-0.4c0-0.1-0.1-0.3-0.3-0.4c-0.3,0-0.8,0.2-1.2,1
		c-0.5,0.8-0.5,1.3-0.6,1.7c0,0,0.5-0.2,1-0.4c0.4-0.1,0.8-0.2,0.8-0.5l0.2-0.3c0,0,0.1,0.3-0.3,0.7c-0.5,0.5-1.2,0.6-1.2,0.6
		c0,0-0.8,0.5-0.9,1.4c-0.1,0.9,0.5,1.3,1.2,0.9c0.7-0.4,1-0.9,0.9-1.4c0,0-0.3,0.2-0.5,0.1c-0.2-0.1-0.3-0.2-0.3-0.4
		c0.1-0.3,0.8-0.4,0.9,0.1c0,0,0.3-0.2,0.6-0.7C29,6.3,29,6.1,29.2,5.8c0,0-0.7,0.2-1.2,1c0,0,0-0.8,1.6-1.6
		c0.1-0.4,0.3-0.8,0.4-1.2c0.2-0.6,1.1-1.4,1.6-1.2C31.7,2.8,32.5,2.1,33.2,2.5L33.2,2.5z M27.7,7.4c-0.2,0-0.3,0-0.3,0.1
		c0,0.1,0.1,0.2,0.3,0.2c0.2,0,0.3,0,0.3-0.1C28,7.7,28,7.5,27.7,7.4z M22.9,9.8c-0.2,0.2-0.4,0.3-0.6,0.5c-0.1,0.2-0.2,0.9,0.2,1.1
		c0.4,0.2,0.6-0.6,0.6-0.6L22.9,9.8L22.9,9.8z M30.4,5.4c0,0-0.3,0.1-0.4,0.1c-0.2,0-0.5,0.2-0.5,0.1c0,0-0.5,0.6-0.2,0.9
		C29.6,6.9,30,6.3,30,6.3C30.2,5.7,30.4,5.4,30.4,5.4L30.4,5.4z M30.3,5.1c0.7-1.5,1.1-1.9,1.1-1.9C31,3.1,30.4,3.6,30.2,4
		c-0.2,0.5-0.4,1.2-0.4,1.2C30,5.1,30.3,5.1,30.3,5.1L30.3,5.1z"/>
	<path class="st0" d="M31.2,5.9c-0.1,0-0.2,0.2-0.2,0.3c0,0.1,0.1,0.2,0.3,0.1c0.1,0,0.2-0.2,0.1-0.3C31.4,6,31.4,5.9,31.2,5.9
		L31.2,5.9z M36.8,3.4c0,0,0.2,0,0.3-0.2c0.1-0.2,0.2-0.6,0.1-0.6c-0.1-0.1-0.3,0.1-0.3,0.1c0,0.1,0.1,0.1,0,0.4
		C36.8,3.3,36.7,3.4,36.8,3.4L36.8,3.4z M37.2,3.2c0.1,0,0.2-0.2,0.3-0.3c0.1-0.1,0.2-0.3,0.3-0.4c0.1-0.1,0.2-0.3,0.1-0.3
		c-0.1,0-0.1,0-0.3,0.1c-0.1,0.1-0.2,0.3-0.3,0.5C37.3,3.1,37.2,3.2,37.2,3.2L37.2,3.2z M37.6,3c-0.1,0.2-0.1,0.2-0.1,0.3
		c0,0.1,0.1,0.1,0.2,0C37.7,3.2,37.9,3,38,3c0.1,0,0.3-0.2,0.2-0.3C38,2.6,37.7,2.9,37.6,3L37.6,3z M57.3,18.6c0,0,0.1,0.1,0.3,0.2
		c0.2,0.1,0.6,0.1,0.6-0.1c0-0.1-0.2-0.2-0.2-0.2c-0.1,0-0.1,0.2-0.4,0.1C57.5,18.7,57.4,18.6,57.3,18.6z M57.7,19
		c0,0.1,0.2,0.1,0.3,0.2c0.1,0,0.3,0.1,0.5,0.2c0.1,0.1,0.3,0.1,0.3,0c0-0.1-0.1-0.1-0.2-0.2c-0.1-0.1-0.3-0.1-0.6-0.1
		C57.8,19.1,57.7,18.9,57.7,19L57.7,19z M58,19.3c-0.2,0-0.2-0.1-0.3-0.1c-0.1,0-0.1,0.1,0.1,0.2c0.1,0,0.3,0.1,0.4,0.2
		c0.1,0.1,0.3,0.3,0.3,0.1C58.5,19.6,58.2,19.4,58,19.3L58,19.3z M43.5,6.7c-0.6,0-0.5-0.4-0.4-0.5c0.1-0.1,0.2-0.1,0.3,0
		c0.1,0.1,0.1,0.3-0.1,0.3c0,0,0.3,0.2,0.7-0.2c0.2-0.2,0.4-0.6,0.2-0.7c-0.2-0.1-0.6,0-1.1,0.2c0,0-0.6,0.6-1,0.5
		c0,0,0.3-0.2,0.6-0.5c0.3-0.3,0.4-0.5,0.4-0.6c0-0.1-0.6,0-1.1,0.1c0,0-0.3,0.2-0.6,0.4c0,0,0.5,0.2,0.9,0.1c0,0-0.6,0.4-1.8,0.1
		c-1.2-0.3-1.5-0.2-1.7-0.1c0,0-1,1.1-2,2.2c-1,1.1-2.4,2.4-2.4,2.4l-0.1,0c0,0,1-1,2.3-2.4c1.2-1.4,2.5-2.9,2.6-3
		c0.1-0.1,0.3-0.4,0.3-0.5c-0.1,0-0.4,0.1-0.8,0.3c0,0-1.1,1.2-1.9,2.1c-0.9,0.9-2.3,2-2.3,2l-0.1,0c0,0,1.3-1.1,2.2-2.1
		c0.7-0.8,1.1-1.4,1.1-1.4c0,0-0.9,0.5-1-0.2c0,0-1,0.8-1.3,0.3c-0.3-0.5,0.7-1.2,0.7-1.2c0,0-0.5-0.2-1.9,0.6c0,0,0.8-0.9,2.5-0.9
		c1.4,0,1.3,0.3,2.1,0.2c0,0,0.6-0.8,1.6-1.3c1-0.5,1.5-0.5,1.7-0.3l-0.2,0.1c0,0-0.3-0.3-1.3,0.3C40,3.4,39,4.5,39,4.5
		c0,0,0.8-0.4,1.1-0.2c0.1,0.1-0.2,0.4-0.2,0.4c0,0,0.8-0.4,1.2-0.3c0.3,0.1,0.2,0.3,0.2,0.3c0,0,0.8-0.2,1.1,0c0.3,0.2,0,0.5,0,0.5
		L43,5.1c0,0,1.2-1,1.9-1.1c0.7-0.2,1.6-0.2,1.7,0.5c0,0.7-1,0.8-1.3,0.3C45.1,4.2,46,4,46.1,4.4c0.1,0.3-0.4,0.3-0.5,0.1
		c0,0-0.1,0.1,0,0.3c0.1,0.2,0.3,0.2,0.5,0.1c0.2,0,0.3-0.3,0.2-0.5c-0.2-0.5-1.1-0.4-1.3-0.3c-0.3,0.1-1.1,0.4-1.7,0.9
		c0,0,0.3,0,0.4,0.1c0.1,0.1-0.3,0.4-0.3,0.4c0,0,1-0.4,1.3,0C45,5.9,44.1,6.7,43.5,6.7L43.5,6.7z M37.4,4.3c-0.3,0-0.9-0.1-0.9-0.1
		c0,0-0.9,0.5-0.6,0.9c0.2,0.4,0.9-0.1,0.9-0.1C36.9,4.6,37.4,4.3,37.4,4.3L37.4,4.3z M38.7,4.3c-0.4,0.1-1.1,0-1.1,0
		c0,0-0.7,0.4-0.5,0.7C37.4,5.5,38.1,5,38.1,5C38.3,4.8,38.5,4.5,38.7,4.3z M40.8,4.7C40.5,4.3,39.6,5,39.6,5L39,5.6
		c0.4-0.2,1.2-0.1,1.2-0.1C40.2,5.5,41,5,40.8,4.7L40.8,4.7z M41.3,5.7c0.3-0.1,0.8-0.6,0.7-0.8c-0.2-0.3-0.8,0-0.8,0
		c-0.1,0.3-0.8,0.6-0.8,0.6C40.6,5.6,41.3,5.7,41.3,5.7L41.3,5.7z"/>
	<path class="st0" d="M45.3,8c-0.3-0.6-1-0.1-0.9,0.1c0.1,0.3,0.4,0.1,0.4-0.1c0-0.1-0.2-0.1-0.2-0.1c0.3-0.3,0.7,0.4,0.2,0.6
		c-0.5,0.2-1.2-0.4-0.9-1C44.3,7,45.8,7,45.8,7l0.1-0.1c-0.2,0-0.9,0.1-1-0.2c-0.1-0.2,0.5-0.8,1.3-1.1C48,5,48.7,5.3,48.7,5.3
		l0.2,0c-0.2-0.2-2.2-0.1-3.2,0.4c-0.5,0.2-0.7,0.5-0.9,0.7C44.3,6.9,44.8,7,44.8,7c-0.5,0.1-1.7,0.6-1.1,1.3
		c0.3,0.4,0.8,0.5,1.2,0.4C45.2,8.5,45.5,8.2,45.3,8L45.3,8z"/>
	<path class="st0" d="M51.9,15.5c-1.1-0.1-1.8-0.1-2.5-0.3l-0.1-0.1c0,0,0.8,0.2,2.4,0.2c1.6,0,2.6-0.1,2.8-0.1
		c0.2,0,0.5-0.1,0.5-0.2c0-0.1-0.5-0.4-0.9-0.5c0,0-1.2,0.1-2.3-0.1c-1.2-0.2-1.9-0.3-2.5-0.5L49.3,14c0,0,1,0.3,2.4,0.4
		c0.8,0.1,1.5,0,1.5,0c0,0-0.5-0.4-0.1-0.7c0.4-0.3,0.9-0.5,0.5-0.7c-0.3-0.2-0.6-0.3-0.6-0.3c0,0-1.4,0.2-2.9,0.3
		c-1.6,0.1-3.4,0.2-4.3,0.2L45.6,13c0,0,1.2,0,3.1-0.2c1.8-0.1,3.4-0.3,3.4-0.3c0,0-1-0.4-0.8-0.9c0.2-0.5,1.3-0.2,1.3-0.2
		c0,0-0.4-0.5-1-0.6c0,0-0.5,0.2-0.8,0.2c-0.3,0-0.6-0.1-0.8-0.3c0,0,0.5,0.1,0.9,0c0.3-0.1,0.8-0.2,0.8-0.3c0-0.2-0.8-0.3-0.8-0.3
		c0,0-1.2,0.4-2,0.6c-0.8,0.2-1.7,0.5-2.3,0.6c-0.6,0.1-1.4,0.3-1.4,0.3l-0.1-0.1c0,0,1-0.2,1.8-0.5c0.8-0.3,2.4-0.8,3.1-1
		c0,0-1.2-0.1-1.1-0.7c0,0-0.7-0.1-1.4-0.6c-0.7-0.6-1.5-1-2.2-1.1c0,0,0.3,0,0.6-0.2c0.5-0.2,0.9-0.4,1-0.5
		c0.1-0.2-0.7-0.2-0.7-0.2l0.1-0.1c0,0,0.9,0,1,0.2c0.1,0.1-0.4,0.3-0.4,0.3c0,0,0.4-0.1,0.7,0c0,0,1.8-0.5,2.6-0.4
		c0.8,0.1,1.4,0.4,1.4,0.9c0,0.5-0.5,0.5-0.7,0.5c-0.3,0-0.6-0.2-0.7-0.6c-0.1-0.4,0.6-0.6,0.7-0.2c0.1,0.3-0.4,0.3-0.4,0.1
		c0,0-0.1,0.1,0.1,0.3C50.8,8,51.2,8,51.1,7.5c-0.1-0.4-0.9-0.6-1.2-0.7c-0.3,0-1-0.1-2.1,0.3c0,0,0.5,0.1,0.2,0.5
		c0,0,1.1-0.1,1,0.5c0,0.4-0.5,0.5-0.7,0.5c-0.1,0-0.7,0.1-0.7,0.1c0,0,0.5,0.6,1,0.5c0,0,0.2-0.4,0.9-0.5c0.4,0,0.9,0.2,0.9,0.4
		c0,0.1,0,0.3-0.2,0.4c-0.4,0.1-0.4-0.4-0.1-0.4c0,0-0.2-0.3-0.6-0.2c-0.3,0.1-0.5,0.4-0.5,0.6c0,0.2,0.3,0.4,0.9,0.4
		c0,0,1.2-0.3,1.8-0.3c0.6-0.1,2,0,2.6,0.7l-0.1,0c0,0-0.3-0.4-1.4-0.5C52.2,9.6,51,10,51,10c0,0,1.1,0.3,1.1,0.6
		c0,0.1-0.4,0.2-0.4,0.2c0,0,0.8,0.1,1.3,0.8c0.5,0.7,0.7,0.9,0.8,1c0,0-0.2-0.1-0.5,0c0,0,0.8,0.4,0.9,0.6c0.1,0.2-0.2,0.3-0.2,0.3
		c0,0,0.7,0.3,0.9,0.8c0.1,0.3-0.5,0.3-0.4,0.3c0,0,1,0.5,1,0.7c0,0.2-0.6,0.2-0.6,0.2c0,0,1.2,0.5,1.2,1.1c-0.1,0.6-1.3,0-1.3,0
		c0,0,0,0.4,0.6,0.8c0,0-0.4-0.1-0.8-0.6c-0.4-0.5-0.2-0.6-0.7-1.2C53.8,15.5,53,15.6,51.9,15.5L51.9,15.5z M47.7,7.3
		c-0.4-0.4-1.8,0.2-1.8,0.2c0.5,0.1,1,0.4,1,0.4C47.2,8,48,7.7,47.7,7.3L47.7,7.3z M48.8,8C48.6,7.7,48,7.8,48,7.8
		c-0.3,0.3-0.9,0.3-0.9,0.3c0.2,0.2,0.6,0.5,0.6,0.5C48.1,8.6,48.9,8.4,48.8,8z M53.2,12.3c-0.2-0.3-0.5-0.7-0.5-0.7
		c0,0-0.8-0.4-1,0.1c-0.3,0.4,0.7,0.7,0.7,0.7L53.2,12.3L53.2,12.3z M54.4,14c-0.1-0.3-0.6-0.5-0.6-0.5c0,0-0.1,0-0.5,0.3
		c-0.4,0.3,0.1,0.5,0.1,0.5C53.4,14.3,54.5,14.4,54.4,14L54.4,14z M55.3,15.9c-0.6-0.4-1.3-0.4-1.3-0.4c0.5,0.4,0.6,0.9,0.6,0.9
		c0.3,0.1,0.8,0.1,1,0C55.7,16.3,55.6,16.1,55.3,15.9z"/>
	<path class="st0" d="M51.6,9c0.2,0,0.6,0,0.8-0.1c0.2,0,0-0.2-0.2-0.2c-0.2,0-0.4,0.1-0.6,0.1c-0.2,0-0.3,0-0.3,0
		C51.3,9,51.4,9,51.6,9L51.6,9z M53.7,10.3c-0.2,0-0.4,0.1-0.6,0.1c-0.2,0-0.3-0.1-0.3,0c0,0.1,0.1,0.1,0.3,0.1c0.2,0,0.6,0,0.8,0
		C54.1,10.5,53.9,10.3,53.7,10.3L53.7,10.3z M56.8,16.1c0.1,0.1,0.6,0.2,0.8,0.3c0.2,0,0.1-0.2-0.1-0.3C57.3,16,57.1,16,56.9,16
		c-0.2-0.1-0.3-0.2-0.3-0.1C56.6,16,56.7,16,56.8,16.1L56.8,16.1z M56.4,16.5c0.3,0.9,0.8,0.6,0.8,0.6c-0.2,0-0.5-0.3-0.6-0.8
		c-0.1-0.4-0.4-1-0.7-1.3c-0.4-0.3-0.7-0.3-0.7-0.3C56,14.9,56.2,15.7,56.4,16.5z M59.3,24.2c0.2-0.3-0.5-1-0.8-0.3
		c-0.2,0.4,0,0.7,0.3,0.9c0.3,0.2,0.6,0.3,0.8,0c0.4-0.7-0.2-1.6-0.8-2.2c-0.6-0.6-1.3-1.2-1.3-1.2c-0.2-1.1-1-2-1-2
		c0,0,0.6,0,0.4-0.6c-0.3-0.6-1-1-1-1c0,0,0.9,0.2,0.5-0.4c-0.5-0.6-0.8-0.7-0.8-0.7c0,0,0.6,0.5,0.6,0.6c0,0.2-0.4,0.1-0.7,0.1
		c-0.3,0-0.9-0.1-2.9-0.4c-2-0.3-3.5-0.6-3.5-0.6l0.1,0.1c1.2,0.3,2.1,0.3,3.3,0.6c1.2,0.3,3.1,0.5,3.1,0.5c0.2,0.1,0.6,0.3,0.9,0.7
		c0.3,0.4,0,0.7-0.6,0.6c-0.5-0.1-0.5-0.6-0.5-0.6c0.1,0.2,0.4,0.1,0.3-0.2c-0.1-0.3-0.7-0.2-0.4,0.4c0.3,0.6,1.1,0.7,1.1,0.7
		c1,1.2,0.8,2.4,0.8,2.4c-0.6-1.4-1.9-2-2.4-1.2c-0.3,0.4-0.3,0.9-0.2,1.4c0.1,0.5,0.2,0.6,0.4,1c0.5,0.9,1.7,0.9,1.5,0
		c-0.2-0.9-1-0.7-0.9-0.2c0.1,0.5,0.4,0.3,0.4,0.1c0-0.2-0.2-0.2-0.2-0.2c0-0.2,0.2-0.1,0.2-0.1c0.5,0.2,0.4,0.9,0,1
		c-0.4,0.1-1.1-0.6-1.1-1.3c0-0.8,0.2-1.8,1-1.6c0.8,0.2,1.3,1.6,1.3,1.7c-0.1,0.7-0.2,1,0.1,1.6c0.2,0.6,0.7,0.9,0.7,0.9l-0.1-0.4
		c-0.6-0.3-0.5-0.9-0.4-1.4c0.1-0.6,0.1-1.3,0.1-1.3c0.7,0.4,0.9,0.6,1.5,1.4c0.6,0.8,0.5,1.2,0.4,1.4c-0.1,0.2-0.4,0.3-0.5,0.1
		c-0.2-0.2-0.2-0.3-0.1-0.5c0.1-0.2,0.3-0.2,0.3-0.2C58.8,24.2,59.2,24.5,59.3,24.2L59.3,24.2z"/>
</g>
<g>
	<path d="M29.1,26.5c0,0,0,0.1-0.1,0.1s-0.2,0.1-0.4,0.1c-0.1,0-0.2,0-0.3,0.1c-0.1,0-0.2,0-0.2,0h-2c-0.1,0-0.2-0.1-0.2-0.2
		c0-0.1-0.1-0.2-0.1-0.3v-1.8c0,0,0,0,0-0.1s0,0,0-0.1c0,0,0-0.1,0-0.1c0,0,0,0,0,0c0,0,0,0,0,0v0c0,0,0,0,0,0c0,0,0,0,0,0
		c0,0,0,0,0,0c0,0,0,0,0,0v-0.5h0.1c0,0,0,0,0-0.1c0,0,0-0.1,0-0.2c0,0,0-0.1,0-0.1s0-0.1,0-0.1c0,0,0-0.1,0-0.1c0,0,0-0.1,0-0.1
		v-0.1c0-0.1,0-0.1,0-0.1s0-0.1,0-0.1c0-0.1,0-0.1-0.1-0.1c-0.1,0-0.2,0-0.3-0.1c-0.2,0-0.3,0-0.4-0.1v-0.1h1.4
		c0.2,0,0.3,0.1,0.3,0.3l0,3.8c0,0,0,0,0,0.1c0,0,0.1,0,0.1,0c0,0,0,0,0,0c0,0,0,0,0,0c0,0,0,0,0,0c0,0,0,0,0,0c0.3,0,0.6,0,0.9,0
		c0.2,0,0.3,0,0.5,0c0.1,0,0.1,0,0.3-0.1c0.1,0,0.1,0,0.1,0c0,0,0.1,0,0.1,0c0,0,0,0,0.1,0S29.1,26.4,29.1,26.5L29.1,26.5z"/>
	<path d="M33.8,25c0,0.1,0,0.1,0,0.2c0,0.1,0,0.1,0,0.2c0,0.1,0,0.1,0,0.2c0,0.1,0,0.1-0.1,0.1c-0.5,0.8-1.2,1.2-2.1,1.2
		c-0.4,0-0.8-0.1-1.1-0.3c-0.1-0.1-0.3-0.2-0.4-0.4c-0.1-0.1-0.2-0.3-0.3-0.5c0-0.1-0.1-0.2-0.1-0.4c0-0.1,0-0.1,0-0.2
		c0-0.1,0-0.1,0-0.2c0-0.1,0-0.2,0-0.3c0-0.1,0-0.2,0.1-0.3c0-0.1,0.1-0.2,0.1-0.3c0-0.1,0.1-0.2,0.2-0.3c0.2-0.3,0.5-0.5,0.9-0.6h0
		c0.1,0,0.1,0,0.2-0.1c0.1,0,0.2,0,0.3-0.1c0.2,0,0.4-0.1,0.6-0.1c0.5,0,1,0.2,1.4,0.6C33.6,24.1,33.8,24.5,33.8,25z M32.9,25.3
		c0-0.2,0-0.3,0-0.3c-0.1-0.4-0.2-0.7-0.3-0.9c-0.2-0.3-0.4-0.5-0.7-0.7c-0.1-0.1-0.3-0.1-0.4-0.1c-0.2,0-0.5,0.1-0.7,0.2
		c-0.2,0.2-0.4,0.4-0.5,0.7c0,0,0,0,0,0.1c0,0,0,0.1,0,0.1c0,0,0,0,0,0.1s0,0,0,0.1c0,0,0,0,0,0c0,0,0,0,0,0c0,0,0,0.1,0,0.1
		c0,0,0,0.1,0,0.1c0,0.1,0,0.2,0,0.3l0,0c0,0,0,0,0,0c0,0,0,0,0,0v0c0,0,0,0,0,0c0,0,0,0,0,0c0,0.2,0.1,0.3,0.2,0.5
		c0.1,0.2,0.2,0.3,0.4,0.4c0.1,0.1,0.3,0.2,0.4,0.3c0.1,0.1,0.3,0.1,0.4,0.1c0.2,0,0.4,0,0.5-0.1c0.1-0.1,0.2-0.1,0.3-0.2
		c0.1-0.1,0.2-0.2,0.2-0.3c0.1-0.1,0.1-0.2,0.1-0.3c0,0,0-0.1,0-0.1C32.9,25.5,32.9,25.4,32.9,25.3z"/>
	<path d="M38.4,23.3c0,0.1,0,0.1-0.1,0.2c-0.1,0-0.1,0.1-0.2,0.1c-0.1,0-0.2,0-0.3,0c-0.1,0-0.2,0-0.3,0c0,0-0.1,0-0.1,0
		c0,0,0,0-0.1,0s0,0,0,0c0,0,0,0,0,0c0,0,0,0,0,0h-0.4c0,0-0.1,0-0.1,0c0,0-0.1,0-0.1,0c0,0,0,0-0.1,0s0,0.1,0,0.3v2.2
		c0,0,0,0,0.1,0c0,0,0,0,0,0c0,0,0,0,0,0c0,0,0,0,0,0c0,0,0,0,0,0c0.1,0,0.1,0.1,0.1,0.1c0,0-0.1,0.1-0.2,0.2
		c-0.1,0-0.1,0.1-0.2,0.1c-0.1,0-0.1,0.1-0.2,0.1c-0.1,0.1-0.3,0.1-0.4,0.1c0,0-0.1,0-0.1,0c0,0-0.1,0-0.1-0.1c0-0.1,0-0.1,0-0.2
		s0-0.2,0-0.3c0-0.1,0-0.2,0-0.4c0-0.1,0-0.3,0-0.4v-1.3c0,0,0-0.1,0-0.1c0-0.1,0-0.1,0-0.1c0,0,0-0.1,0-0.1c0,0,0-0.1,0-0.1
		c0,0,0,0-0.1,0c0,0,0,0-0.1,0c0,0-0.1,0-0.1,0c-0.1,0-0.2,0-0.3,0c-0.1,0-0.3,0-0.4,0c0,0,0,0,0,0c0,0,0,0-0.1,0c0,0-0.1,0-0.1,0
		c-0.1,0-0.2,0-0.2-0.1c0-0.1,0.1-0.1,0.2-0.2c0.1,0,0.1-0.1,0.2-0.1c0.1,0,0.2-0.1,0.3-0.1c0.1,0,0.2,0,0.2-0.1c0.1,0,0.1,0,0.2,0
		c0.1,0,0.1,0,0.2,0c0,0,0.1,0,0.1,0s0.1,0,0.1,0l1.9,0c0.1,0,0.1,0,0.2,0s0.1,0,0.1,0C38.3,23.2,38.4,23.2,38.4,23.3z"/>
	<path d="M42.6,26.6c0,0-0.1,0.1-0.4,0.2c-0.2,0.1-0.4,0.1-0.5,0.1c-0.1,0-0.1,0-0.2-0.1s-0.2-0.1-0.3-0.2c-0.1-0.1-0.2-0.2-0.3-0.3
		c-0.1-0.1-0.2-0.2-0.3-0.3c-0.2-0.2-0.3-0.4-0.3-0.4c0-0.1,0.1-0.2,0.4-0.3c0.1-0.1,0.3-0.2,0.4-0.3c0.1-0.1,0.2-0.2,0.3-0.2
		c0.1-0.1,0.2-0.2,0.2-0.3c0.1-0.1,0.1-0.2,0.1-0.2c0-0.1,0-0.1,0-0.2c0-0.1,0-0.1-0.1-0.2c-0.1-0.1-0.2-0.2-0.3-0.2
		c-0.2,0-0.4,0.1-0.6,0.3c-0.2,0.1-0.4,0.3-0.5,0.5c-0.1,0.2-0.2,0.4-0.2,0.5v1.2c0,0,0,0,0,0.1c0,0,0,0,0,0c0,0,0,0,0,0v0.4
		c0,0.2-0.2,0.2-0.6,0.2c-0.2,0-0.3,0-0.4-0.1c0,0,0-0.1,0.1-0.1c0,0,0,0,0,0l0,0c0,0,0-0.1,0-0.1c0-0.1,0-0.2,0.1-0.4
		c0-0.1,0-0.2,0-0.2c0,0,0-0.1,0-0.1v0l0-2.3c0-0.1,0-0.1-0.1-0.2c0,0,0,0-0.1,0c0,0-0.1,0-0.1,0c-0.1,0-0.1-0.1-0.2-0.1
		c0-0.1,0.2-0.2,0.4-0.2c0,0,0,0,0.1,0c0,0,0.1,0,0.1,0c0,0,0.1,0,0.1,0s0,0,0,0c0,0,0,0,0,0c0,0,0,0,0,0c0,0,0,0,0,0
		c0.1,0,0.2,0,0.2,0c0,0,0,0,0,0c0,0,0,0,0,0.1c0,0,0,0,0,0.1c0,0,0,0,0,0.1c0,0,0,0,0,0.1c0,0,0,0,0,0c0,0,0,0,0,0c0,0,0,0,0,0l0,0
		c0,0,0,0,0,0.1s0,0.1,0,0.1c0,0.1,0,0.2,0,0.3c0,0,0,0,0,0c0,0,0,0,0,0c0,0,0-0.1,0.1-0.1c0,0,0.1-0.1,0.1-0.1
		c0.1-0.1,0.2-0.2,0.3-0.3c0.1-0.1,0.2-0.2,0.3-0.2c0.1-0.1,0.3-0.2,0.4-0.2c0.2,0,0.3-0.1,0.5-0.1c0.2,0,0.4,0.1,0.5,0.3
		c0.1,0.2,0.2,0.3,0.2,0.5c0,0.2-0.1,0.5-0.3,0.7c-0.1,0.1-0.3,0.3-0.6,0.5c-0.1,0.1-0.2,0.1-0.2,0.2c0,0-0.1,0.1-0.1,0.1
		c0,0,0.2,0.2,0.5,0.5c0.1,0.1,0.3,0.3,0.4,0.3c0.1,0.1,0.2,0.2,0.3,0.2c0,0,0,0,0.1,0c0,0,0.1,0,0.1,0
		C42.4,26.5,42.5,26.5,42.6,26.6L42.6,26.6z"/>
	<path d="M47.3,25c0,0.1,0,0.1,0,0.2c0,0.1,0,0.1,0,0.2c0,0.1,0,0.1,0,0.2c0,0.1,0,0.1-0.1,0.1c-0.5,0.8-1.2,1.2-2.1,1.2
		c-0.4,0-0.8-0.1-1.1-0.3c-0.1-0.1-0.3-0.2-0.4-0.4c-0.1-0.1-0.2-0.3-0.3-0.5c0-0.1-0.1-0.2-0.1-0.4c0-0.1,0-0.1,0-0.2
		c0-0.1,0-0.1,0-0.2c0-0.1,0-0.2,0-0.3c0-0.1,0-0.2,0.1-0.3c0-0.1,0.1-0.2,0.1-0.3c0-0.1,0.1-0.2,0.2-0.3c0.2-0.3,0.5-0.5,0.9-0.6h0
		c0.1,0,0.1,0,0.2-0.1c0.1,0,0.2,0,0.3-0.1c0.2,0,0.4-0.1,0.6-0.1c0.5,0,1,0.2,1.4,0.6C47.1,24.1,47.3,24.5,47.3,25z M46.5,25.3
		c0-0.2,0-0.3,0-0.3c-0.1-0.4-0.2-0.7-0.3-0.9c-0.2-0.3-0.4-0.5-0.7-0.7c-0.1-0.1-0.3-0.1-0.4-0.1c-0.2,0-0.5,0.1-0.7,0.2
		c-0.2,0.2-0.4,0.4-0.5,0.7c0,0,0,0,0,0.1c0,0,0,0.1,0,0.1c0,0,0,0,0,0.1s0,0,0,0.1c0,0,0,0,0,0c0,0,0,0,0,0c0,0,0,0.1,0,0.1
		c0,0,0,0.1,0,0.1c0,0.1,0,0.2,0,0.3l0,0c0,0,0,0,0,0c0,0,0,0,0,0v0c0,0,0,0,0,0c0,0,0,0,0,0c0,0.2,0.1,0.3,0.2,0.5
		c0.1,0.2,0.2,0.3,0.4,0.4c0.1,0.1,0.3,0.2,0.4,0.3c0.1,0.1,0.3,0.1,0.4,0.1c0.2,0,0.4,0,0.5-0.1c0.1-0.1,0.2-0.1,0.3-0.2
		c0.1-0.1,0.2-0.2,0.2-0.3c0.1-0.1,0.1-0.2,0.1-0.3c0,0,0-0.1,0-0.1C46.5,25.5,46.5,25.4,46.5,25.3z"/>
	<path d="M77.4,26.5C77.4,26.5,77.4,26.6,77.4,26.5C77.4,26.6,77.4,26.6,77.4,26.5c0,0.1,0,0.2-0.1,0.2c0,0-0.1,0.1-0.2,0.1
		c-0.1,0-0.1,0-0.2,0c-0.1,0-0.1,0-0.2,0c-0.2,0-0.3-0.1-0.3-0.3c0,0,0,0,0,0c0,0,0,0,0,0c0,0,0,0,0,0s0,0,0,0c0-0.1,0-0.1-0.1-0.1
		c0,0-0.1,0-0.1,0.1c0,0-0.1,0-0.1,0.1c-0.1,0-0.2,0.1-0.3,0.1c-0.1,0-0.2,0.1-0.3,0.1c-0.1,0-0.2,0.1-0.4,0.1c-0.1,0-0.2,0-0.3,0
		c-0.5,0-0.9-0.2-1.2-0.5c-0.3-0.3-0.5-0.7-0.5-1.2c0-0.5,0.2-0.9,0.6-1.3c0.3-0.3,0.8-0.5,1.3-0.7c0.4-0.1,0.8-0.2,1.2-0.2
		c0.2,0,0.4,0,0.6,0.1h0c0.2,0.1,0.4,0.3,0.4,0.5c0,0.2-0.1,0.4-0.3,0.5c-0.1,0.1-0.2,0.1-0.3,0.1c-0.1,0-0.2,0.1-0.3,0.1
		c0,0,0-0.1,0-0.1c0,0,0,0,0,0c0,0,0,0,0,0s0,0,0,0c0,0,0,0,0-0.1c0,0,0,0,0,0c0-0.1,0-0.1,0-0.1c-0.1-0.1-0.1-0.1-0.2-0.2
		c-0.1,0-0.1-0.1-0.2-0.1c-0.1,0-0.2,0-0.4,0c-0.2,0-0.4,0-0.6,0.1c-0.2,0.1-0.4,0.1-0.5,0.2c-0.2,0.1-0.4,0.3-0.5,0.5
		S74,24.7,74,24.9c0,0.3,0.1,0.7,0.4,1v0c0.3,0.3,0.6,0.5,1,0.5c0.2,0,0.4-0.1,0.6-0.2c0.3-0.1,0.4-0.2,0.4-0.3c0-0.1,0-0.2,0-0.4
		c0,0,0,0,0,0c0,0,0,0,0,0c0,0,0,0,0-0.1c0,0,0,0,0-0.1c0-0.1-0.1-0.2-0.2-0.2c0,0-0.1,0-0.3,0.1c-0.1,0-0.2,0-0.3,0.1
		c-0.1,0-0.1,0-0.1,0c0,0,0,0-0.1,0c0,0,0,0-0.1,0c0,0,0,0-0.1,0c0,0,0,0,0-0.1c0-0.1,0-0.1,0.1-0.2c0.1-0.1,0.1-0.1,0.2-0.1
		c0.1,0,0.2,0,0.3-0.1c0.1,0,0.3,0,0.4-0.1c0.1,0,0.3,0,0.3,0s0.1,0,0.1,0c0.3,0,0.4,0.1,0.4,0.3L77.4,26.5z"/>
	<path d="M79.9,26.7c0,0,0,0.1-0.1,0.1c0,0,0,0-0.1,0c0,0,0,0,0,0c0,0-0.1,0-0.2,0c-0.1,0-0.1,0-0.2,0c0,0,0,0-0.1,0
		c0,0-0.1,0-0.1,0c-0.1,0-0.1,0-0.1,0c0,0,0,0-0.1,0c-0.1,0-0.1,0-0.1,0h0c-0.1,0-0.1-0.1-0.1-0.1c0-0.1,0-0.2,0-0.2v-0.8
		c0,0,0,0,0,0c0,0,0,0,0,0c0-0.1,0-0.1,0-0.1v-0.2h0.1c0,0,0,0,0,0c0,0,0,0,0-0.1c0,0,0-0.1,0-0.1s0-0.1,0-0.1c0,0,0-0.1,0-0.1
		c0,0,0-0.1,0-0.1c0-0.1,0-0.1,0-0.1v-0.3l0-0.4c0,0,0-0.1,0-0.1s0-0.1,0-0.2c0-0.2,0-0.3-0.1-0.3l0,0c0,0-0.1,0-0.1,0
		c-0.1,0-0.1,0-0.2,0c-0.2,0-0.2-0.1-0.2-0.1c0,0,0-0.1,0.1-0.1v0c0,0,0.1,0,0.1,0c0,0,0,0,0,0c0.2,0,0.4,0,0.5,0c0.1,0,0.2,0,0.3,0
		c0.1,0,0.1,0,0.2,0c0.1,0,0.2,0.1,0.2,0.2v1.1c0,0,0,0,0,0s0,0.1,0,0.1c0,0.1,0,0.1,0,0.2c0,0.1,0,0.1,0,0.1c0,0,0,0,0,0
		c0,0,0,0,0,0c0,0,0,0,0,0c0,0,0,0,0,0c0,0,0,0,0,0.1c0,0,0,0,0,0v0.9v0c0,0,0,0,0,0c0,0,0,0,0,0c0,0,0,0,0,0c0,0,0,0,0,0.1v0
		c0,0,0,0,0,0v0.2c0,0,0,0,0,0.1s0,0.1,0,0.1c0,0.1,0,0.1,0.1,0.1c0,0,0.1,0,0.1,0C79.7,26.6,79.7,26.6,79.9,26.7
		C79.8,26.6,79.9,26.7,79.9,26.7z"/>
	<path d="M83.6,25.7c0,0.4-0.3,0.7-0.8,1c-0.2,0.1-0.3,0.1-0.5,0.2S82,26.9,81.8,27h0c-0.1,0-0.2,0-0.3,0c-0.1,0-0.2,0-0.3,0
		c-0.2,0-0.3,0-0.4,0c0,0-0.1-0.1-0.1-0.2s0-0.2,0-0.3c0-0.1,0-0.2,0-0.3s0-0.2,0-0.3c0-0.1,0-0.2,0-0.3c0-0.1,0-0.2,0-0.3
		c0,0,0,0,0-0.1c0,0,0-0.1,0-0.1c0,0,0,0,0-0.1s0,0,0-0.1s0,0,0-0.1c0,0,0,0,0-0.1c0,0,0-0.1,0-0.1c0,0,0-0.1,0-0.1c0,0,0-0.1,0-0.1
		c0,0,0,0,0,0c0,0,0,0,0,0v0h0.1c0,0,0-0.1,0-0.1c0-0.1,0-0.2,0-0.3c0,0,0-0.1,0-0.1c0,0,0,0,0,0c0,0,0,0,0,0l0,0c0,0,0,0,0,0
		c0,0,0,0,0,0c0,0,0,0,0,0c0,0,0,0,0-0.1s0,0,0,0c0,0-0.1,0-0.2,0.1c-0.1,0.1-0.2,0.1-0.2,0.1c-0.1,0-0.1,0-0.1-0.1
		c0-0.1,0.2-0.2,0.6-0.4c0.2-0.1,0.3-0.1,0.4-0.1s0.2,0,0.2,0c0.1,0,0.2,0.1,0.2,0.2v0c0,0,0,0,0,0c0,0,0,0,0,0.1c0,0,0,0.1,0,0.1
		c0,0,0,0,0,0l0,0.3c0,0,0,0,0,0c0,0,0,0,0.1-0.1c0.1,0,0.1-0.1,0.2-0.2c0.1-0.1,0.2-0.2,0.3-0.2c0.1-0.1,0.1-0.1,0.2-0.1
		c0.1-0.1,0.2-0.1,0.3-0.1c0.2,0,0.3,0.1,0.4,0.2c0.1,0.1,0.2,0.3,0.3,0.4c0,0,0,0,0,0.1c0,0,0,0.1,0,0.1c0,0.1,0,0.2,0,0.2
		c0,0,0,0.1-0.1,0.2c0,0.1-0.1,0.1-0.1,0.2v0c0,0,0,0-0.1,0.1s-0.1,0.1-0.1,0.1c0,0,0,0,0,0c0,0,0,0,0,0l0,0c0,0,0,0,0,0
		c0.2,0.1,0.3,0.2,0.5,0.4v0c0.1,0.1,0.1,0.1,0.1,0.2c0,0.1,0,0.1,0,0.2S83.6,25.6,83.6,25.7z M82.8,24.4
		C82.8,24.3,82.8,24.3,82.8,24.4c0-0.1,0-0.1,0-0.2c-0.1-0.3-0.2-0.4-0.4-0.4c0,0-0.1,0-0.1,0c-0.1,0-0.1,0.1-0.1,0.1
		c0,0-0.1,0-0.1,0.1s-0.1,0.1-0.2,0.1c-0.2,0.1-0.3,0.2-0.3,0.3v0.4c0,0,0,0,0,0c0,0,0,0,0,0.1c0,0,0,0,0,0c0,0,0,0,0,0c0,0,0,0,0,0
		c0,0,0,0,0,0c0,0,0,0,0.1,0c0,0,0,0,0,0c0,0,0,0,0,0c0,0,0,0,0,0c0,0,0,0,0,0c0,0,0,0,0,0c0,0,0,0,0,0c0,0,0,0,0,0
		c0.1,0,0.2,0,0.3-0.1c0,0,0.1,0,0.1,0c0,0,0,0,0.1,0c0,0,0,0,0.1,0c0.2-0.1,0.3-0.2,0.4-0.3C82.8,24.5,82.8,24.4,82.8,24.4z M83,26
		c0-0.2-0.1-0.4-0.2-0.5c-0.1-0.2-0.3-0.2-0.5-0.2c0,0,0,0,0,0s0,0,0,0c0,0,0,0,0,0c0,0,0,0-0.1,0c0,0,0,0-0.1,0c0,0,0,0,0,0h0
		c0,0,0,0-0.1,0c0,0,0,0-0.1,0c-0.1,0-0.1,0-0.2,0c0,0-0.1,0-0.1,0s0,0,0,0c0,0-0.1,0-0.1,0.1c0,0.1,0,0.2,0,0.3c0,0,0,0,0,0.1
		s0,0.1,0,0.1c0,0,0,0.1,0,0.1s0,0,0,0.1v0l0,0.4c0,0,0,0,0,0s0,0,0.1,0c0.1,0,0.1,0,0.2,0c0,0,0,0,0.1,0c0,0,0.1,0,0.1,0
		c0,0,0,0,0,0c0,0,0,0,0,0c0,0,0,0,0.1,0c0,0,0.1,0,0.1,0c0.1,0,0.1,0,0.2-0.1c0.1,0,0.1-0.1,0.2-0.1c0.1-0.1,0.2-0.1,0.2-0.2
		C82.9,26.1,83,26.1,83,26z"/>
	<path d="M87.5,25.7c0,0.4-0.3,0.7-0.8,1c-0.2,0.1-0.3,0.1-0.5,0.2s-0.3,0.1-0.5,0.1h0c-0.1,0-0.2,0-0.3,0c-0.1,0-0.2,0-0.3,0
		c-0.2,0-0.3,0-0.4,0c0,0-0.1-0.1-0.1-0.2s0-0.2,0-0.3c0-0.1,0-0.2,0-0.3s0-0.2,0-0.3c0-0.1,0-0.2,0-0.3c0-0.1,0-0.2,0-0.3
		c0,0,0,0,0-0.1c0,0,0-0.1,0-0.1c0,0,0,0,0-0.1s0,0,0-0.1s0,0,0-0.1c0,0,0,0,0-0.1c0,0,0-0.1,0-0.1c0,0,0-0.1,0-0.1c0,0,0-0.1,0-0.1
		c0,0,0,0,0,0c0,0,0,0,0,0v0h0.1c0,0,0-0.1,0-0.1c0-0.1,0-0.2,0-0.3c0,0,0-0.1,0-0.1c0,0,0,0,0,0c0,0,0,0,0,0l0,0c0,0,0,0,0,0
		c0,0,0,0,0,0c0,0,0,0,0,0c0,0,0,0,0-0.1s0,0,0,0c0,0-0.1,0-0.2,0.1c-0.1,0.1-0.2,0.1-0.2,0.1c-0.1,0-0.1,0-0.1-0.1
		c0-0.1,0.2-0.2,0.6-0.4c0.2-0.1,0.3-0.1,0.4-0.1s0.2,0,0.2,0c0.1,0,0.2,0.1,0.2,0.2v0c0,0,0,0,0,0c0,0,0,0,0,0.1c0,0,0,0.1,0,0.1
		c0,0,0,0,0,0l0,0.3c0,0,0,0,0,0c0,0,0,0,0.1-0.1c0.1,0,0.1-0.1,0.2-0.2c0.1-0.1,0.2-0.2,0.3-0.2c0.1-0.1,0.1-0.1,0.2-0.1
		c0.1-0.1,0.2-0.1,0.3-0.1c0.2,0,0.3,0.1,0.4,0.2c0.1,0.1,0.2,0.3,0.3,0.4c0,0,0,0,0,0.1c0,0,0,0.1,0,0.1c0,0.1,0,0.2,0,0.2
		c0,0,0,0.1-0.1,0.2c0,0.1-0.1,0.1-0.1,0.2v0c0,0,0,0-0.1,0.1s-0.1,0.1-0.1,0.1c0,0,0,0,0,0c0,0,0,0,0,0l0,0c0,0,0,0,0,0
		c0.2,0.1,0.3,0.2,0.5,0.4v0c0.1,0.1,0.1,0.1,0.1,0.2c0,0.1,0,0.1,0,0.2S87.5,25.6,87.5,25.7z M86.7,24.4
		C86.7,24.3,86.7,24.3,86.7,24.4c0-0.1,0-0.1,0-0.2c-0.1-0.3-0.2-0.4-0.4-0.4c0,0-0.1,0-0.1,0c-0.1,0-0.1,0.1-0.1,0.1
		c0,0-0.1,0-0.1,0.1s-0.1,0.1-0.2,0.1c-0.2,0.1-0.3,0.2-0.3,0.3v0.4c0,0,0,0,0,0c0,0,0,0,0,0.1c0,0,0,0,0,0c0,0,0,0,0,0c0,0,0,0,0,0
		c0,0,0,0,0,0c0,0,0,0,0.1,0c0,0,0,0,0,0c0,0,0,0,0,0c0,0,0,0,0,0c0,0,0,0,0,0c0,0,0,0,0,0c0,0,0,0,0,0c0,0,0,0,0,0
		c0.1,0,0.2,0,0.3-0.1c0,0,0.1,0,0.1,0c0,0,0,0,0.1,0c0,0,0,0,0.1,0c0.2-0.1,0.3-0.2,0.4-0.3C86.7,24.5,86.7,24.4,86.7,24.4z
		 M86.8,26c0-0.2-0.1-0.4-0.2-0.5c-0.1-0.2-0.3-0.2-0.5-0.2c0,0,0,0,0,0s0,0,0,0c0,0,0,0,0,0c0,0,0,0-0.1,0c0,0,0,0-0.1,0
		c0,0,0,0,0,0h0c0,0,0,0-0.1,0c0,0,0,0-0.1,0c-0.1,0-0.1,0-0.2,0c0,0-0.1,0-0.1,0s0,0,0,0c0,0-0.1,0-0.1,0.1c0,0.1,0,0.2,0,0.3
		c0,0,0,0,0,0.1s0,0.1,0,0.1c0,0,0,0.1,0,0.1s0,0,0,0.1v0l0,0.4c0,0,0,0,0,0s0,0,0.1,0c0.1,0,0.1,0,0.2,0c0,0,0,0,0.1,0
		c0,0,0.1,0,0.1,0c0,0,0,0,0,0c0,0,0,0,0,0c0,0,0,0,0.1,0c0,0,0.1,0,0.1,0c0.1,0,0.1,0,0.2-0.1c0.1,0,0.1-0.1,0.2-0.1
		c0.1-0.1,0.2-0.1,0.2-0.2C86.8,26.1,86.8,26.1,86.8,26z"/>
	<path d="M91.5,23.7c0,0.1,0,0.2-0.1,0.2v0c-0.1,0.1-0.2,0.1-0.2,0.1s-0.1,0-0.2-0.1c0-0.1-0.1-0.1-0.1-0.2c0,0-0.1,0-0.1-0.1
		c0,0-0.1,0-0.2-0.1c-0.1,0-0.3-0.1-0.4-0.1c-0.2,0-0.4,0.1-0.6,0.2h0c-0.2,0.1-0.4,0.3-0.5,0.6C89,24.5,89,24.5,89,24.6
		c0,0.1,0,0.1,0,0.1h0c0,0,0,0,0.1,0h0.6c0,0,0,0,0,0c0,0,0.1,0,0.1,0c0.1,0,0.1,0,0.1,0h0.9c0.1,0,0.1,0,0.2,0
		c0.1,0,0.2,0.1,0.2,0.2c0,0.1-0.1,0.1-0.2,0.2c0,0-0.1,0.1-0.1,0.1c0,0-0.1,0-0.1,0h0c0,0-0.1,0-0.1,0c0,0-0.1,0-0.2-0.1
		c0,0-0.1,0-0.1-0.1c0,0-0.1,0-0.1,0c-0.1,0-0.1,0-0.2,0c-0.1,0-0.2,0-0.2,0c-0.1,0-0.2,0-0.2,0c-0.1,0-0.1,0-0.2,0h0
		c0,0-0.1,0-0.1,0c-0.1,0-0.1,0-0.2,0c-0.1,0-0.2,0-0.2,0c0,0.1,0,0.1,0,0.1c0,0,0,0.1,0,0.1s0,0.1,0,0.1c0,0,0,0,0,0c0,0,0,0,0,0
		c0,0.3,0.2,0.5,0.4,0.7c0.2,0.2,0.5,0.2,0.7,0.2c0.1,0,0.2,0,0.3,0h0l0.3-0.1c0,0,0.1,0,0.1,0c0,0,0.1,0,0.1-0.1c0.1,0,0.1,0,0.1,0
		c0,0,0.1,0,0.1,0c0.1,0,0.1,0,0.1,0.1c0,0.1,0,0.1-0.1,0.2c0,0-0.1,0.1-0.1,0.1c0,0-0.1,0-0.1,0.1c-0.1,0-0.1,0.1-0.2,0.1
		c-0.1,0-0.1,0-0.1,0c-0.1,0-0.2,0.1-0.3,0.1c-0.1,0-0.2,0-0.3,0c-0.1,0-0.2,0-0.3,0c-0.1,0-0.2,0-0.3,0c0,0-0.2-0.1-0.4-0.2
		c-0.2-0.1-0.3-0.2-0.4-0.3c-0.1-0.1-0.2-0.3-0.3-0.4c-0.1-0.3-0.2-0.6-0.2-0.9c0-0.1,0-0.2,0-0.2c0-0.1,0-0.2,0.1-0.4
		c0.1-0.2,0.1-0.3,0.2-0.4s0.2-0.2,0.3-0.4c0.2-0.1,0.3-0.2,0.5-0.3c0,0,0.1,0,0.1-0.1c0.1,0,0.2,0,0.3-0.1c0.2-0.1,0.4-0.1,0.6-0.1
		c0.2,0,0.4,0,0.6,0.1C91.3,23.3,91.5,23.5,91.5,23.7z"/>
	<path d="M95.8,26.6c0,0-0.1,0.1-0.4,0.2c-0.2,0.1-0.4,0.1-0.5,0.1c-0.1,0-0.1,0-0.2-0.1s-0.2-0.1-0.3-0.2c-0.1-0.1-0.2-0.2-0.3-0.3
		c-0.1-0.1-0.2-0.2-0.3-0.3c-0.2-0.2-0.3-0.4-0.3-0.4c0-0.1,0.1-0.2,0.4-0.3c0.1-0.1,0.3-0.2,0.4-0.3c0.1-0.1,0.2-0.2,0.3-0.2
		c0.1-0.1,0.2-0.2,0.2-0.3c0.1-0.1,0.1-0.2,0.1-0.2c0-0.1,0-0.1,0-0.2c0-0.1,0-0.1-0.1-0.2c-0.1-0.1-0.2-0.2-0.3-0.2
		c-0.2,0-0.4,0.1-0.6,0.3c-0.2,0.1-0.4,0.3-0.5,0.5C93,24.6,93,24.8,93,24.9v1.2c0,0,0,0,0,0.1c0,0,0,0,0,0c0,0,0,0,0,0v0.4
		c0,0.2-0.2,0.2-0.6,0.2c-0.2,0-0.3,0-0.4-0.1c0,0,0-0.1,0.1-0.1c0,0,0,0,0,0l0,0c0,0,0-0.1,0-0.1c0-0.1,0-0.2,0.1-0.4
		c0-0.1,0-0.2,0-0.2c0,0,0-0.1,0-0.1v0l0-2.3c0-0.1,0-0.1-0.1-0.2c0,0,0,0-0.1,0c0,0-0.1,0-0.1,0c-0.1,0-0.1-0.1-0.2-0.1
		c0-0.1,0.2-0.2,0.4-0.2c0,0,0,0,0.1,0c0,0,0.1,0,0.1,0c0,0,0.1,0,0.1,0s0,0,0,0c0,0,0,0,0,0c0,0,0,0,0,0c0,0,0,0,0,0
		c0.1,0,0.2,0,0.2,0c0,0,0,0,0,0c0,0,0,0,0,0.1c0,0,0,0,0,0.1c0,0,0,0,0,0.1c0,0,0,0,0,0.1c0,0,0,0,0,0c0,0,0,0,0,0c0,0,0,0,0,0l0,0
		c0,0,0,0,0,0.1s0,0.1,0,0.1c0,0.1,0,0.2,0,0.3c0,0,0,0,0,0c0,0,0,0,0,0c0,0,0-0.1,0.1-0.1c0,0,0.1-0.1,0.1-0.1
		c0.1-0.1,0.2-0.2,0.3-0.3c0.1-0.1,0.2-0.2,0.3-0.2c0.1-0.1,0.3-0.2,0.4-0.2c0.2,0,0.3-0.1,0.5-0.1c0.2,0,0.4,0.1,0.5,0.3
		c0.1,0.2,0.2,0.3,0.2,0.5c0,0.2-0.1,0.5-0.3,0.7c-0.1,0.1-0.3,0.3-0.6,0.5c-0.1,0.1-0.2,0.1-0.2,0.2c0,0-0.1,0.1-0.1,0.1
		c0,0,0.2,0.2,0.5,0.5c0.1,0.1,0.3,0.3,0.4,0.3c0.1,0.1,0.2,0.2,0.3,0.2c0,0,0,0,0.1,0c0,0,0.1,0,0.1,0
		C95.7,26.5,95.8,26.5,95.8,26.6L95.8,26.6z"/>
	<path d="M98.2,26.7c0,0,0,0.1-0.1,0.1c0,0,0,0-0.1,0c0,0,0,0,0,0c0,0-0.1,0-0.2,0c-0.1,0-0.1,0-0.2,0c0,0,0,0-0.1,0
		c0,0-0.1,0-0.1,0c-0.1,0-0.1,0-0.1,0c0,0,0,0-0.1,0c-0.1,0-0.1,0-0.1,0h0c-0.1,0-0.1-0.1-0.1-0.1c0-0.1,0-0.2,0-0.2v-0.8
		c0,0,0,0,0,0c0,0,0,0,0,0c0-0.1,0-0.1,0-0.1v-0.2H97c0,0,0,0,0,0c0,0,0,0,0-0.1c0,0,0-0.1,0-0.1s0-0.1,0-0.1c0,0,0-0.1,0-0.1
		c0,0,0-0.1,0-0.1c0-0.1,0-0.1,0-0.1v-0.3l0-0.4c0,0,0-0.1,0-0.1s0-0.1,0-0.2c0-0.2,0-0.3-0.1-0.3l0,0c0,0-0.1,0-0.1,0
		c-0.1,0-0.1,0-0.2,0c-0.2,0-0.2-0.1-0.2-0.1c0,0,0-0.1,0.1-0.1v0c0,0,0.1,0,0.1,0c0,0,0,0,0,0c0.2,0,0.4,0,0.5,0c0.1,0,0.2,0,0.3,0
		c0.1,0,0.1,0,0.2,0c0.1,0,0.2,0.1,0.2,0.2v1.1c0,0,0,0,0,0s0,0.1,0,0.1c0,0.1,0,0.1,0,0.2c0,0.1,0,0.1,0,0.1c0,0,0,0,0,0
		c0,0,0,0,0,0c0,0,0,0,0,0c0,0,0,0,0,0c0,0,0,0,0,0.1c0,0,0,0,0,0v0.9v0c0,0,0,0,0,0c0,0,0,0,0,0c0,0,0,0,0,0c0,0,0,0,0,0.1v0
		c0,0,0,0,0,0v0.2c0,0,0,0,0,0.1c0,0,0,0.1,0,0.1c0,0.1,0,0.1,0.1,0.1c0,0,0.1,0,0.1,0S98.1,26.6,98.2,26.7
		C98.1,26.6,98.2,26.7,98.2,26.7z"/>
	<path d="M102,25.4c0,0.1-0.2,0.4-0.5,0.7c0,0-0.1,0.1-0.2,0.2c-0.1,0.1-0.2,0.1-0.3,0.2c-0.1,0.1-0.2,0.1-0.3,0.2
		c-0.1,0.1-0.2,0.1-0.2,0.1h0c0,0-0.1,0-0.1,0c0,0-0.1,0-0.1,0.1c-0.2,0-0.4,0.1-0.6,0.1c0,0-0.1,0-0.3-0.1c0,0,0,0-0.1,0
		c0,0-0.1,0-0.2-0.1l-0.1,0c0,0-0.1,0-0.1,0s-0.1,0-0.1,0c-0.2-0.1-0.3-0.2-0.3-0.2c0,0,0.1-0.1,0.2-0.3c0.1-0.2,0.2-0.2,0.3-0.2
		c0,0,0.1,0,0.1,0.1c0,0,0.1,0,0.1,0.1c0,0,0.1,0,0.1,0c0.1,0,0.1,0.1,0.2,0.1s0.1,0.1,0.2,0.1c0.1,0,0.2,0.1,0.3,0.1s0.2,0,0.2,0
		c0,0,0,0,0.1,0c0,0,0.1,0,0.1,0c0,0,0,0,0,0s0,0,0,0c0,0,0,0,0,0c0.1,0,0.3,0,0.5-0.1c0.1,0,0.1-0.1,0.2-0.1c0.1,0,0.1-0.1,0.2-0.2
		c0,0,0-0.1,0-0.2c0-0.2-0.1-0.3-0.3-0.4c-0.1,0-0.2-0.1-0.2-0.1c-0.1,0-0.2,0-0.3-0.1c-0.1,0-0.1,0-0.2,0c-0.1,0-0.1,0-0.2,0
		c0,0-0.1,0-0.1,0c0,0-0.1,0-0.1,0c-0.1,0-0.1,0-0.2,0c-0.1,0-0.2,0-0.2,0c-0.1,0-0.1,0-0.2-0.1s-0.1-0.1-0.2-0.1h0
		c-0.2-0.1-0.2-0.2-0.2-0.4c0,0,0-0.1,0.1-0.2c0-0.1,0.1-0.2,0.2-0.3c0.3-0.3,0.6-0.5,0.9-0.7c0.3-0.1,0.6-0.2,0.9-0.2
		c0.1,0,0.2,0,0.3,0c0.1,0,0.2,0,0.2,0c0.2,0.1,0.3,0.2,0.4,0.3c0,0.1,0.1,0.1,0.1,0.2c0,0.1-0.1,0.2-0.2,0.4
		c-0.1,0.2-0.2,0.3-0.4,0.3c0,0-0.1,0-0.1,0c0,0,0-0.1,0-0.1c0,0,0-0.1,0.1-0.1c0,0,0.1-0.1,0.1-0.2c0-0.1-0.1-0.1-0.2-0.2
		c-0.1,0-0.2-0.1-0.4-0.1c0,0-0.1,0-0.1,0c0,0-0.1,0-0.2,0c-0.1,0-0.1,0-0.1,0c0,0,0,0-0.1,0c-0.1,0-0.2,0-0.2,0c0,0-0.1,0-0.1,0
		s-0.1,0-0.2,0.1c-0.1,0-0.2,0.1-0.4,0.2c0,0-0.1,0.1-0.1,0.2c0,0.1-0.1,0.1-0.1,0.2s0,0.1,0.1,0.1c0,0,0.1,0.1,0.2,0.1
		c0.1,0,0.2,0,0.3,0h0.4c0,0,0.2,0,0.3,0c0.1,0,0.1,0,0.2,0c0.1,0,0.1,0,0.2,0c0.1,0,0.1,0,0.2,0c0.1,0,0.1,0,0.1,0h0
		C101.7,24.8,102,25.1,102,25.4z"/>
	<path d="M107,24.8c0,0.1,0,0.2,0,0.3s0,0.2,0,0.2c0,0.1-0.1,0.2-0.2,0.6c0,0,0,0,0,0.1c0,0,0,0.1-0.1,0.1c0,0,0,0.1-0.1,0.1
		c0,0,0,0,0,0.1c-0.2,0.3-0.5,0.6-0.8,0.9h0c-0.1,0.1-0.3,0.2-0.4,0.2c0,0,0-0.1,0-0.1c0,0,0,0,0-0.1c0,0,0-0.1,0.1-0.1
		c0,0,0-0.1,0.1-0.1c0,0,0-0.1,0.1-0.1c0.2-0.3,0.4-0.5,0.5-0.8c0.1-0.3,0.2-0.5,0.2-0.8c0-0.1,0-0.3,0-0.4c0-0.1-0.1-0.3-0.1-0.4
		c-0.1-0.4-0.4-0.6-0.6-0.6c-0.1,0-0.3,0-0.4,0.1c-0.2,0.1-0.3,0.2-0.5,0.3c-0.2,0.1-0.4,0.3-0.5,0.4c-0.1,0.1-0.2,0.3-0.2,0.4
		c0,0.2,0,0.4,0,0.5c0,0.1,0,0.2,0,0.2c0,0,0,0,0,0.1c0,0.1,0,0.1,0,0.2c0,0.1,0,0.1,0,0.2c0,0,0,0.1,0,0.1c0,0.1,0,0.2,0,0.3l0,0
		c0,0,0,0,0,0.1s0,0,0,0.1c0,0,0,0,0,0.1c0,0,0,0,0,0.1c0,0-0.1,0.1-0.2,0.1c-0.1,0-0.2,0.1-0.3,0.1c-0.1,0-0.2,0.1-0.3,0.1
		c-0.1,0-0.1,0-0.1,0c-0.1,0-0.1,0-0.2-0.1s-0.1-0.1-0.1-0.1l0-1.5c0-0.1,0-0.1,0-0.2c0-0.1,0-0.1,0-0.2c0-0.1,0-0.1,0-0.2
		c0-0.1,0-0.1,0-0.1c0-0.1,0-0.3,0-0.5c0-0.2,0-0.4,0-0.6c0-0.2,0-0.4,0-0.6c0-0.2,0-0.3,0-0.5c0,0,0,0,0,0c0,0,0-0.1,0-0.1
		c0,0,0-0.1,0-0.1l-0.1,0.1c0,0,0,0,0,0c0,0,0,0,0,0h0c-0.1,0.1-0.2,0.1-0.3,0.1c0,0-0.1,0-0.1,0c-0.1,0-0.1-0.1-0.1-0.1
		c0-0.1,0.1-0.2,0.4-0.3c0.1,0,0.2-0.1,0.3-0.1c0.1-0.1,0.3-0.1,0.4-0.2h0c0.2-0.1,0.3-0.1,0.3-0.1c0.1,0,0.1,0,0.2,0
		c0,0,0,0.1,0,0.1c0,0.4,0,0.7,0,1.1c0,0.4,0,0.7,0,1.1c0,0,0,0,0,0.1c0,0,0,0,0,0.1c0,0,0,0,0,0c0,0,0.1-0.1,0.3-0.2
		c0.1-0.1,0.3-0.2,0.4-0.3c0.1-0.1,0.2-0.1,0.3-0.2c0.3-0.2,0.7-0.3,1-0.3c0.4,0,0.7,0.2,1,0.6C106.9,24.1,107,24.4,107,24.8z"/>
	<path d="M115.2,23.6c0,0.1-0.1,0.3-0.2,0.4c-0.1,0.1-0.2,0.2-0.4,0.2c-0.1,0-0.2,0-0.2-0.1c0,0,0,0,0,0c0,0,0,0,0.1-0.1
		c0,0,0,0,0,0c0,0,0,0,0,0c0,0,0,0,0.1,0c0,0,0,0,0,0c0,0,0,0,0,0c0-0.1-0.1-0.1-0.2-0.1c-0.1,0-0.2,0-0.2,0c0,0-0.1,0-0.3,0.1
		c-0.2,0-0.4,0.1-0.6,0.3c-0.2,0.1-0.4,0.3-0.5,0.6v0c0,0,0,0.1,0,0.1s0,0.1,0,0.1c0,0,0,0.1,0,0.1c0,0,0,0.1,0,0.1h0
		c-0.1,0.2-0.1,0.3-0.1,0.4c0,0.2,0.1,0.4,0.2,0.6c0.1,0.2,0.3,0.4,0.5,0.5c0.1,0,0.1,0.1,0.2,0.1c0.1,0,0.1,0,0.1,0
		c0,0,0.1,0,0.1,0l0.1,0h0c0.1,0,0.1,0,0.3,0c0,0,0.1,0,0.1,0c0,0,0.1,0,0.1,0h0c0,0,0.1,0,0.1,0c0,0,0.1,0,0.1-0.1
		c0.1-0.1,0.2-0.1,0.3-0.1c0.1,0,0.1,0,0.1,0.1c0,0.1,0,0.1-0.1,0.2c0,0,0,0-0.1,0c0,0,0,0-0.1,0c-0.1,0.1-0.3,0.1-0.4,0.2
		s-0.3,0.1-0.4,0.1h0c-0.2,0-0.4,0.1-0.6,0.1c0,0-0.1,0-0.2,0c-0.1,0-0.1,0-0.2,0c-0.2,0-0.3-0.1-0.5-0.2c-0.1-0.1-0.3-0.2-0.4-0.3
		c-0.1-0.1-0.1-0.2-0.2-0.3c0-0.1-0.1-0.3-0.1-0.4c0-0.1,0-0.2,0-0.3c0-0.1,0-0.2,0.1-0.3c0.1-0.3,0.2-0.6,0.4-0.8
		c0.2-0.2,0.4-0.4,0.7-0.6v0c0.5-0.3,0.9-0.4,1.5-0.4C115,23.2,115.2,23.3,115.2,23.6z"/>
	<path d="M120.1,25c0,0.1,0,0.1,0,0.2c0,0.1,0,0.1,0,0.2c0,0.1,0,0.1,0,0.2s0,0.1-0.1,0.1c-0.5,0.8-1.2,1.2-2.1,1.2
		c-0.4,0-0.8-0.1-1.1-0.3c-0.1-0.1-0.3-0.2-0.4-0.4c-0.1-0.1-0.2-0.3-0.3-0.5c0-0.1-0.1-0.2-0.1-0.4c0-0.1,0-0.1,0-0.2s0-0.1,0-0.2
		c0-0.1,0-0.2,0-0.3c0-0.1,0-0.2,0.1-0.3c0-0.1,0.1-0.2,0.1-0.3s0.1-0.2,0.2-0.3c0.2-0.3,0.5-0.5,0.9-0.6h0c0.1,0,0.1,0,0.2-0.1
		s0.2,0,0.3-0.1c0.2,0,0.4-0.1,0.6-0.1c0.5,0,1,0.2,1.4,0.6C119.9,24.1,120.1,24.5,120.1,25z M119.2,25.3c0-0.2,0-0.3,0-0.3
		c-0.1-0.4-0.2-0.7-0.3-0.9c-0.2-0.3-0.4-0.5-0.7-0.7c-0.1-0.1-0.3-0.1-0.4-0.1c-0.2,0-0.5,0.1-0.7,0.2c-0.2,0.2-0.4,0.4-0.5,0.7
		c0,0,0,0,0,0.1c0,0,0,0.1,0,0.1c0,0,0,0,0,0.1s0,0,0,0.1c0,0,0,0,0,0c0,0,0,0,0,0c0,0,0,0.1,0,0.1c0,0,0,0.1,0,0.1
		c0,0.1,0,0.2,0,0.3l0,0c0,0,0,0,0,0c0,0,0,0,0,0v0c0,0,0,0,0,0c0,0,0,0,0,0c0,0.2,0.1,0.3,0.2,0.5c0.1,0.2,0.2,0.3,0.4,0.4
		c0.1,0.1,0.3,0.2,0.4,0.3c0.1,0.1,0.3,0.1,0.4,0.1c0.2,0,0.4,0,0.5-0.1c0.1-0.1,0.2-0.1,0.3-0.2c0.1-0.1,0.2-0.2,0.2-0.3
		c0.1-0.1,0.1-0.2,0.1-0.3c0,0,0-0.1,0-0.1C119.2,25.5,119.2,25.4,119.2,25.3z"/>
	<path d="M125.7,26.7c0,0.1-0.1,0.1-0.2,0.1c0,0-0.1,0-0.1,0s-0.1,0-0.1,0h-0.2c0,0-0.1,0-0.1,0c0,0-0.1,0-0.1,0
		c-0.1-0.1-0.2-0.1-0.2-0.2c0,0,0,0,0-0.1c0,0,0-0.1,0-0.1c0-0.1,0-0.1,0-0.1c0,0,0,0-0.1-0.1s-0.1,0-0.1,0c0,0,0,0-0.1,0
		c0,0-0.1,0-0.1,0v0c-0.1,0-0.1,0-0.1,0c-0.1,0-0.2-0.1-0.3-0.1c-0.1,0-0.2-0.1-0.3-0.1c-0.1-0.1-0.3-0.1-0.4-0.2s-0.2-0.1-0.2-0.1
		c-0.1-0.1-0.2-0.1-0.4-0.2c-0.1-0.1-0.2-0.1-0.3-0.2l0,0c0,0,0,0-0.1-0.1v0c0,0,0,0-0.1,0c0,0,0,0-0.1-0.1
		c-0.1-0.1-0.1-0.1-0.2-0.1c0,0-0.1,0-0.1,0.1v1.3c0,0.2-0.1,0.4-0.3,0.5c-0.1,0.1-0.3,0.1-0.5,0.1c-0.1,0-0.2,0-0.2-0.1V26l0.1-1.7
		c0,0,0,0,0,0c0,0,0,0,0-0.1c0,0,0-0.1,0-0.1c0,0,0-0.1,0-0.1c0-0.3-0.1-0.5-0.3-0.5v-0.2c0.4-0.1,0.7-0.2,0.8-0.2
		c0.1,0,0.2,0,0.3,0.1c0,0,0,0.1,0.1,0.1s0,0.1,0.1,0.1c0.1,0.1,0.2,0.3,0.3,0.4c0.1,0.2,0.3,0.4,0.4,0.6c0,0.1,0.1,0.1,0.2,0.2
		c0.1,0.1,0.2,0.1,0.2,0.2s0.2,0.2,0.3,0.2s0.2,0.2,0.3,0.2c0.2,0.1,0.4,0.3,0.6,0.4c0.2,0.1,0.3,0.1,0.4,0.1c0,0,0.1,0,0.1-0.1
		c0,0,0,0,0-0.1s0-0.1,0-0.1c0-0.1,0-0.2,0-0.4s0-0.4,0-0.6c0-0.2,0-0.4-0.1-0.6c0-0.2,0-0.4-0.1-0.5c0,0,0-0.1,0-0.1
		c0,0-0.1-0.1-0.1-0.2c0.1-0.1,0.2-0.1,0.3-0.1c0.1,0,0.3,0,0.4,0.1c0.1,0,0.2,0.1,0.2,0.1c0.1,0.2,0.1,0.5,0.2,0.8
		c0.1,0.3,0.1,0.6,0.1,1v0.2c0,0.2,0,0.5,0,0.9c0,0.1,0,0.2,0.1,0.3v0c0,0,0,0,0,0.1c0,0,0,0,0,0.1v0
		C125.7,26.6,125.7,26.7,125.7,26.7z"/>
	<path d="M129.6,23.5C129.6,23.5,129.6,23.6,129.6,23.5c-0.1,0.1-0.1,0.1-0.1,0.2c0,0,0,0-0.1,0c0,0-0.1,0-0.1,0
		c-0.1,0-0.1,0-0.2,0.1c0,0-0.1,0-0.1,0c0,0-0.1,0-0.2-0.1c-0.1,0-0.1-0.1-0.1-0.1c0,0,0,0-0.1,0c-0.1,0-0.1,0-0.2,0
		c-0.1,0-0.1,0-0.2,0c-0.1,0-0.3,0.1-0.5,0.2c-0.1,0.1-0.2,0.1-0.2,0.2s-0.2,0.1-0.2,0.2v0c0,0,0,0,0,0.1c0,0,0,0,0,0.1
		c0,0,0,0.1,0,0.1v0.1c0,0,0,0.1,0,0.1c0,0.1,0,0.1,0,0.2c0,0,0,0,0,0.1c0,0,0,0,0.1,0c0,0,0,0,0,0c0,0,0,0,0,0c0,0,0.1,0,0.1,0
		c0.1,0,0.1,0,0.2,0c0.1,0,0.1,0,0.2,0c0,0,0.1,0,0.1,0c0,0,0,0,0.1,0s0,0,0,0c0,0,0.1,0,0.2,0c0.1,0,0.1,0,0.2,0
		c0.1,0,0.1,0,0.1,0.1c0,0,0,0.1-0.1,0.1c0,0,0,0-0.1,0c0,0,0,0-0.1,0c-0.1,0.1-0.2,0.1-0.3,0.1s-0.2,0-0.3,0c0,0-0.1,0-0.1,0
		c0,0-0.1,0-0.1,0c-0.1,0-0.2,0-0.2,0c0,0,0,0,0,0.1c0,0,0,0,0,0.1s0,0,0,0.1c0,0,0,0,0,0c0,0,0,0,0,0v1c0,0.1,0,0.1,0,0.1
		s0,0.1,0,0.1l0,1.1c0,0.1-0.1,0.3-0.2,0.5c-0.1,0.1-0.1,0.2-0.2,0.2c-0.1,0.1-0.2,0.1-0.2,0.2h0l-0.1,0.1c0,0-0.1,0-0.1,0
		c-0.1,0-0.1,0-0.1-0.1c0,0,0-0.1,0.1-0.2c0,0,0.1-0.1,0.1-0.1s0-0.1,0-0.1c0-0.1,0.1-0.2,0.1-0.3c0,0,0,0,0,0c0,0,0,0,0-0.1
		c0,0,0,0,0,0c0,0,0,0,0,0v0c0,0,0,0,0-0.1c0,0,0-0.1,0-0.1c0-0.1,0-0.1,0-0.2c0,0,0-0.1,0-0.1c0,0,0-0.1,0-0.2s0-0.1,0-0.2v-0.4
		c0,0,0,0,0-0.1c0,0,0-0.1,0-0.1c0,0,0-0.1,0-0.1c0,0,0-0.1,0-0.1v0c0,0,0,0,0,0l0,0c0,0,0,0,0,0c0,0,0,0,0,0c0-0.1,0-0.2,0-0.3
		c0-0.2,0-0.4,0-0.7l0-1.6c0,0,0-0.1,0-0.1c0,0,0-0.1-0.1-0.1h0c-0.1,0-0.1,0-0.1,0s-0.1,0-0.1-0.1v-0.1c0.1,0,0.1-0.1,0.2-0.1
		c0.1,0,0.1,0,0.3,0c0,0,0.1,0,0.1,0c0,0,0,0,0.1,0c0.2,0,0.3,0.1,0.4,0.2c0,0,0,0.1,0,0.3c0,0,0,0,0,0c0,0,0.1,0,0.2-0.1h0
		c0.1-0.1,0.2-0.2,0.3-0.2c0.1-0.1,0.2-0.1,0.4-0.1c0.1,0,0.3-0.1,0.4-0.1C129,23.2,129.4,23.3,129.6,23.5L129.6,23.5z"/>
	<path d="M131.7,26.7c0,0,0,0.1-0.1,0.1c0,0,0,0-0.1,0c0,0,0,0,0,0c0,0-0.1,0-0.2,0c-0.1,0-0.1,0-0.2,0c0,0,0,0-0.1,0
		c0,0-0.1,0-0.1,0c-0.1,0-0.1,0-0.1,0c0,0,0,0-0.1,0c-0.1,0-0.1,0-0.1,0h0c-0.1,0-0.1-0.1-0.1-0.1c0-0.1,0-0.2,0-0.2v-0.8
		c0,0,0,0,0,0c0,0,0,0,0,0c0-0.1,0-0.1,0-0.1v-0.2h0.1c0,0,0,0,0,0c0,0,0,0,0-0.1c0,0,0-0.1,0-0.1s0-0.1,0-0.1c0,0,0-0.1,0-0.1
		c0,0,0-0.1,0-0.1c0-0.1,0-0.1,0-0.1v-0.3l0-0.4c0,0,0-0.1,0-0.1s0-0.1,0-0.2c0-0.2,0-0.3-0.1-0.3l0,0c0,0-0.1,0-0.1,0
		c-0.1,0-0.1,0-0.2,0c-0.2,0-0.2-0.1-0.2-0.1c0,0,0-0.1,0.1-0.1v0c0,0,0.1,0,0.1,0s0,0,0,0c0.2,0,0.4,0,0.5,0c0.1,0,0.2,0,0.3,0
		c0.1,0,0.1,0,0.2,0c0.1,0,0.2,0.1,0.2,0.2v1.1c0,0,0,0,0,0s0,0.1,0,0.1c0,0.1,0,0.1,0,0.2c0,0.1,0,0.1,0,0.1c0,0,0,0,0,0
		c0,0,0,0,0,0c0,0,0,0,0,0c0,0,0,0,0,0c0,0,0,0,0,0.1c0,0,0,0,0,0v0.9v0c0,0,0,0,0,0c0,0,0,0,0,0c0,0,0,0,0,0c0,0,0,0,0,0.1v0
		c0,0,0,0,0,0v0.2c0,0,0,0,0,0.1c0,0,0,0.1,0,0.1c0,0.1,0,0.1,0.1,0.1c0,0,0.1,0,0.1,0S131.6,26.6,131.7,26.7
		C131.7,26.6,131.7,26.7,131.7,26.7z"/>
	<path d="M136.2,26.5C136.2,26.5,136.2,26.6,136.2,26.5C136.2,26.6,136.2,26.6,136.2,26.5c0,0.1,0,0.2-0.1,0.2c0,0-0.1,0.1-0.2,0.1
		c-0.1,0-0.1,0-0.2,0c-0.1,0-0.1,0-0.2,0c-0.2,0-0.3-0.1-0.3-0.3c0,0,0,0,0,0c0,0,0,0,0,0c0,0,0,0,0,0s0,0,0,0c0-0.1,0-0.1-0.1-0.1
		c0,0,0,0-0.1,0.1s-0.1,0-0.1,0.1c-0.1,0-0.2,0.1-0.3,0.1c-0.1,0-0.2,0.1-0.3,0.1c-0.1,0-0.2,0.1-0.4,0.1c-0.1,0-0.2,0-0.3,0
		c-0.5,0-0.9-0.2-1.2-0.5c-0.3-0.3-0.5-0.7-0.5-1.2c0-0.5,0.2-0.9,0.6-1.3c0.3-0.3,0.8-0.5,1.3-0.7c0.4-0.1,0.8-0.2,1.2-0.2
		c0.2,0,0.4,0,0.6,0.1h0c0.2,0.1,0.4,0.3,0.4,0.5c0,0.2-0.1,0.4-0.3,0.5c-0.1,0.1-0.2,0.1-0.3,0.1c-0.1,0-0.2,0.1-0.3,0.1
		c0,0,0-0.1,0-0.1c0,0,0,0,0,0s0,0,0,0s0,0,0,0c0,0,0,0,0-0.1c0,0,0,0,0,0c0-0.1,0-0.1,0-0.1c-0.1-0.1-0.1-0.1-0.2-0.2
		c-0.1,0-0.1-0.1-0.2-0.1c-0.1,0-0.2,0-0.4,0c-0.2,0-0.4,0-0.6,0.1s-0.4,0.1-0.5,0.2c-0.2,0.1-0.4,0.3-0.5,0.5s-0.2,0.4-0.2,0.6
		c0,0.3,0.1,0.7,0.4,1v0c0.3,0.3,0.6,0.5,1,0.5c0.2,0,0.4-0.1,0.6-0.2c0.3-0.1,0.4-0.2,0.4-0.3c0-0.1,0-0.2,0-0.4c0,0,0,0,0,0
		c0,0,0,0,0,0c0,0,0,0,0-0.1c0,0,0,0,0-0.1c0-0.1-0.1-0.2-0.2-0.2c0,0-0.1,0-0.3,0.1c-0.1,0-0.2,0-0.3,0.1c-0.1,0-0.1,0-0.1,0
		c0,0,0,0-0.1,0c0,0,0,0-0.1,0c0,0,0,0-0.1,0c0,0,0,0,0-0.1c0-0.1,0-0.1,0.1-0.2c0.1-0.1,0.1-0.1,0.2-0.1c0.1,0,0.2,0,0.3-0.1
		c0.1,0,0.3,0,0.4-0.1c0.1,0,0.3,0,0.3,0s0.1,0,0.1,0c0.3,0,0.4,0.1,0.4,0.3L136.2,26.5z"/>
	<path d="M140.3,25.4c0,0.1-0.2,0.4-0.5,0.7c0,0-0.1,0.1-0.2,0.2c-0.1,0.1-0.2,0.1-0.3,0.2c-0.1,0.1-0.2,0.1-0.3,0.2
		c-0.1,0.1-0.2,0.1-0.2,0.1h0c0,0-0.1,0-0.1,0c0,0-0.1,0-0.1,0.1c-0.2,0-0.4,0.1-0.6,0.1c0,0-0.1,0-0.3-0.1c0,0,0,0-0.1,0
		c0,0-0.1,0-0.2-0.1l-0.1,0c0,0-0.1,0-0.1,0s-0.1,0-0.1,0c-0.2-0.1-0.3-0.2-0.3-0.2c0,0,0.1-0.1,0.2-0.3c0.1-0.2,0.2-0.2,0.3-0.2
		c0,0,0.1,0,0.1,0.1c0,0,0.1,0,0.1,0.1c0,0,0.1,0,0.1,0c0.1,0,0.1,0.1,0.2,0.1s0.1,0.1,0.2,0.1c0.1,0,0.2,0.1,0.3,0.1s0.2,0,0.2,0
		c0,0,0,0,0.1,0c0,0,0.1,0,0.1,0c0,0,0,0,0,0s0,0,0,0c0,0,0,0,0,0c0.1,0,0.3,0,0.5-0.1c0.1,0,0.1-0.1,0.2-0.1c0.1,0,0.1-0.1,0.2-0.2
		c0,0,0-0.1,0-0.2c0-0.2-0.1-0.3-0.3-0.4c-0.1,0-0.2-0.1-0.2-0.1c-0.1,0-0.2,0-0.3-0.1c-0.1,0-0.1,0-0.2,0c-0.1,0-0.1,0-0.2,0
		c0,0-0.1,0-0.1,0c0,0-0.1,0-0.1,0c-0.1,0-0.1,0-0.2,0c-0.1,0-0.2,0-0.2,0c-0.1,0-0.1,0-0.2-0.1s-0.1-0.1-0.2-0.1h0
		c-0.2-0.1-0.2-0.2-0.2-0.4c0,0,0-0.1,0.1-0.2c0-0.1,0.1-0.2,0.2-0.3c0.3-0.3,0.6-0.5,0.9-0.7c0.3-0.1,0.6-0.2,0.9-0.2
		c0.1,0,0.2,0,0.3,0c0.1,0,0.2,0,0.2,0c0.2,0.1,0.3,0.2,0.4,0.3c0,0.1,0.1,0.1,0.1,0.2c0,0.1-0.1,0.2-0.2,0.4
		c-0.1,0.2-0.2,0.3-0.4,0.3c0,0-0.1,0-0.1,0c0,0,0-0.1,0-0.1c0,0,0-0.1,0.1-0.1c0,0,0.1-0.1,0.1-0.2c0-0.1-0.1-0.1-0.2-0.2
		c-0.1,0-0.2-0.1-0.4-0.1c0,0-0.1,0-0.1,0c0,0-0.1,0-0.2,0c-0.1,0-0.1,0-0.1,0c0,0,0,0-0.1,0c-0.1,0-0.2,0-0.2,0c0,0-0.1,0-0.1,0
		s-0.1,0-0.2,0.1c-0.1,0-0.2,0.1-0.4,0.2c0,0-0.1,0.1-0.1,0.2c0,0.1-0.1,0.1-0.1,0.2s0,0.1,0.1,0.1c0,0,0.1,0.1,0.2,0.1
		c0.1,0,0.2,0,0.3,0h0.4c0,0,0.2,0,0.3,0c0.1,0,0.1,0,0.2,0c0.1,0,0.1,0,0.2,0c0.1,0,0.1,0,0.2,0c0.1,0,0.1,0,0.1,0h0
		C140,24.8,140.3,25.1,140.3,25.4z"/>
</g>
<g>
</g>
<g>
</g>
<g>
</g>
<g>
</g>
<g>
</g>
<g>
</g>
<g>
</g>
<g>
</g>
<g>
</g>
<g>
</g>
<g>
</g>
<g>
</g>
<g>
</g>
<g>
</g>
<g>
</g>
</svg>
