<svg id="Layer_1" data-name="Layer 1" xmlns="http://www.w3.org/2000/svg" viewBox="0 0 250.12 45.41"><defs><style>.cls-1{fill-rule:evenodd;}.cls-2{font-size:8px;font-family:Aniron-Bold, Aniron;font-weight:700;}</style></defs><path class="cls-1" d="M24.71,44.49a.19.19,0,0,0,.18.22.24.24,0,0,0,.25-.21.21.21,0,0,0-.19-.21h0A.26.26,0,0,0,24.71,44.49ZM36,39.19c.09-.94.16-2.38.14-2.38l.1-.08s0,1-.12,2.44a19.24,19.24,0,0,0,0,2.28c0,.31.09,1.22.26,1.18s.43-.66.43-.66a1.51,1.51,0,0,1-.09-.66c0-.33.29-.76.6-.75s.22.51,0,.53-.18-.27-.18-.27c-.38.23,0,1.22.25,1.12.44-.18.51-1.08.5-1.08a3.35,3.35,0,0,0-.07-.4.34.34,0,0,1,0-.34c.07-.12.17-.33.17-.33,0,.75.15,1.51.31,1.47s.35-.73.35-.73a1.37,1.37,0,0,1-.1-.84c0-.25.25-.62.52-.58s.32.54.06.56-.19-.32-.19-.32c-.33.23-.1,1.18.31,1.13s.52-.85.52-.85a1.11,1.11,0,0,1-.19-.83c0-.43.3-.76.56-.71s.24.44,0,.5-.24-.18-.24-.18a.6.6,0,0,0-.07.78c.18.29.42.34.63.13s.16-.94.16-.93-.46-1.36-.87-2.84C39.43,33.82,39,32,39,32L39,32s.38,1.46,1,3.63c.37,1.31.78,2.35.82,2.47s.26.65.39.59.17-.77.16-.77-.71-1.92-1.23-4-.95-3.4-.93-3.4l0-.1s.37,1.2.94,3.27A25.93,25.93,0,0,0,41.34,37a1.36,1.36,0,0,1,.22-.74.31.31,0,0,1,.45,0s-.15-1.14.46-1.14.6,1.21.59,1.22a1.84,1.84,0,0,0,.41-1,2.22,2.22,0,0,1-.33-.86s-.09.44-.32.5-.86-.36-1.15-1.2a18.17,18.17,0,0,1-.42-2.89l0-.07a21.23,21.23,0,0,0,.52,2.75c.16.55.77,1.09,1,.93s.19-.63.19-.63l.1-.19c.07.71.39,1.34.64,1.32S44,34,44,34a1,1,0,0,1-.43-.57c-.16-.37-.13-.8.14-.91s.58.29.37.47-.38-.18-.38-.18c-.35.42.53,1,.75.86s.13-.9.13-.9a1.47,1.47,0,0,1-.57-1.32c0-.31.29-.31.45-.18s.18.3,0,.39-.3-.12-.3-.12c-.27.37.42,1.07.69.87s0-.84-.17-1.06a1.9,1.9,0,0,1-.35-.73c-.06-.27,0-.35,0-.35a3.67,3.67,0,0,0,.93,1.32c.12-.15,0-.8,0-.8s-.78-1-1.66-2.08c-.43-.53-.8-1.12-1.16-1.62s-.63-.9-1-1.33c-.09-.12-.65-.82-.64-.82v-.09s1.13,1.32,2.1,2.7c.66.87,1.95,2.33,1.94,2.34s-.4-.8,0-1.1,1.07.14,1.21.78c.08.32,0,.83-.31.79a.24.24,0,0,1-.16-.37c.11-.2.29,0,.29,0a.66.66,0,0,0-.58-.91c-.37,0-.4.19-.34.5a5.61,5.61,0,0,0,.17.62,9.64,9.64,0,0,1,.7.9,7.08,7.08,0,0,1,.74,1.33c.56,1.49.07,2,.08,2l0-.07c.26-.36.11-1-.2-1.78a8.83,8.83,0,0,0-1-1.68,1.75,1.75,0,0,1,0,1.13c-.09.08-.28-.19-.28-.19s.12.83,0,1-.4,0-.4,0a1.55,1.55,0,0,1-.1,1.13.32.32,0,0,1-.51.07s0,1-.21,1.22a.32.32,0,0,1-.38.08A2.84,2.84,0,0,1,43,37a11,11,0,0,1-1,1.25,1.34,1.34,0,0,0-.39.67,1.27,1.27,0,0,1,0-.32,1.8,1.8,0,0,0-.07-.51s-.05,1-.25,1-.33-.33-.33-.33-.05.9-.38,1.09a.43.43,0,0,1-.53-.05c-.11.44-.31.94-.63,1.07a.48.48,0,0,1-.54-.17,8.17,8.17,0,0,1-.32.8,5.19,5.19,0,0,1-.19,1.74,2.26,2.26,0,0,1-.94,1.45.49.49,0,0,1-.74-.19.76.76,0,0,1,.27-1c.27-.15.58-.2.7,0a.43.43,0,0,1-.16.59c-.22.13-.36,0-.35-.15s.27-.26.27-.26-.23-.21-.45,0a.37.37,0,0,0,.13.63c.26.07.79-.2,1.1-1.07a3.78,3.78,0,0,0,.19-1.57c-.27.2-.31-.54-.31-.54-.1.5-.28,1-.63,1.19s-.49-.23-.49-.23-.46,1-.66.94-.21-.67-.21-.67a2.12,2.12,0,0,1-.75,1.2.31.31,0,0,1-.44-.13s-.55.84-.94.64.14-1.34.13-1.34a1.37,1.37,0,0,0-.65.46c.11-.52,1-1.09,1.68-1.3a1.64,1.64,0,0,0,.89-.69A16,16,0,0,1,36,39.19Zm6.38-2a7,7,0,0,1,.51-.65c.13-.38-.06-.94-.46-1s-.31.75-.31.75a1.45,1.45,0,0,1,.26.88Zm-.64.86a1.23,1.23,0,0,1,.29-.4,1.18,1.18,0,0,0,.22-.28,1.19,1.19,0,0,0-.15-.52c-.12-.19-.31-.36-.43-.27a.67.67,0,0,0-.21.58,2.29,2.29,0,0,0,.2.64,1.29,1.29,0,0,1,.08.25ZM35,42.35a3.35,3.35,0,0,0-.79.33s-.48.77,0,1,.63-.46.62-.47S34.65,43,35,42.35Zm.87.14a2.4,2.4,0,0,0,.08-1,2.18,2.18,0,0,1-.75.71s-.46.83,0,1c.19.06.52-.31.63-.76Z" transform="translate(-3.2 -2.3)"/><path class="cls-1" d="M25.42,45.48s.48-.76,1.09-1.87a46.58,46.58,0,0,1,2.54-4.07l.09,0-.5.76c-.25.41-.6.93-1,1.67-.8,1.42-1.53,2.84-1.53,2.84a2,2,0,0,1,1.12-.53c.47,0,.38.49.38.49a3.41,3.41,0,0,1,1-.83s-.2-.44.41-1a1.5,1.5,0,0,1,1.67-.26c.49.27.93,1.24-.81,2.49a1.92,1.92,0,0,0,1.4-.65,1.56,1.56,0,0,1,.3-.87c.29-.4.52-.45.71-.34s.1.25,0,.35-.26.16-.37-.11a.67.67,0,0,0-.32.52c-.1.5.07.68.35.56a1.94,1.94,0,0,0,.9-1.32A2.54,2.54,0,0,0,33,43c.07-.37.19-1,.33-1.58.23-1,.68-2.49,1.07-4.64l.08-.06s-.2,1.11-.64,3.2a26.62,26.62,0,0,0-.67,3.35c-.06.44-.12.9,0,.94s.31-.24.38-.36.07-.09.11-.07,0,0,0,.11a3.13,3.13,0,0,1-.53.63c-.25.21-.39.12-.25-.52,0,0-.41.87-1.1,1-.36.08-.4-.35-.4-.35a4,4,0,0,1-1,.72A6.77,6.77,0,0,1,29.12,47c-.69.69-1.36.84-1.72.57s-.16-.59.08-.82a.86.86,0,0,1,.85-.16c.35.14.17.44.11.54a.35.35,0,0,1-.46.16c-.23-.12-.05-.41.3-.44,0,0-.35-.23-.59,0s-.09.5.18.58a1.2,1.2,0,0,0,1-.36,4.69,4.69,0,0,0,1.22-1.63,3.87,3.87,0,0,1-1,.1,2.83,2.83,0,0,0-1.23.12,2.19,2.19,0,0,1-1.34.23,6.56,6.56,0,0,1-1.07,1.34c-.53.48-1,.49-1.33.18,0,0-1,.54-1.44.07-.27-.26-.06-.69.14-.86a.8.8,0,0,1,.94-.14c.6.38-.17,1-.47.67-.11-.11,0-.23,0-.29a.25.25,0,0,1,.38,0s.09-.14-.14-.25a.51.51,0,0,0-.56.07.34.34,0,0,0,.09.53,1.11,1.11,0,0,0,1.17-.07,4.67,4.67,0,0,0,1.45-1.36s-1.32-.25-1.67.16l-.27,0a2.1,2.1,0,0,1,1.57-.52Zm1,.39-.51,0a5.67,5.67,0,0,1-1.39,1.34.51.51,0,0,0,.42.14,1.84,1.84,0,0,0,1-.73A6,6,0,0,0,26.45,45.87Zm.59-.25a2.18,2.18,0,0,0,.9-.09,2.61,2.61,0,0,1,.84-.34c.34,0,.55,0,.73,0a2.17,2.17,0,0,0,1.1-.8c.4-.52.37-1.14-.23-1.39a1.26,1.26,0,0,0-1.3.21.63.63,0,0,0-.28.64.71.71,0,0,1,.53,0,.35.35,0,0,1,.15.53.38.38,0,0,1-.57.13.58.58,0,0,1-.26-.41,2.83,2.83,0,0,0-.68.5A11.6,11.6,0,0,0,27,45.62Zm2-1.36c.14.08.25.08.31,0s-.09-.41-.53-.3a.47.47,0,0,0,.22.31Zm-3.15.88-.22.35c.47,0,1.07.13,1.07.13s.7-.57.37-.95S25.92,45.13,25.91,45.14Zm6.45.13s-.14.07-.21.28-.06.6.09.64.23-.15.22-.22-.18-.08-.15-.4.12-.28,0-.3Zm-.4.31c-.1,0-.14.21-.16.34a3.71,3.71,0,0,1-.19.46c-.06.11-.07.3,0,.3s.12-.06.2-.2a1.69,1.69,0,0,0,.11-.57c0-.16.14-.33,0-.33Zm-.28.33a1.08,1.08,0,0,0,.05-.31c0-.12-.14-.11-.15.06a.71.71,0,0,1-.23.41c-.12.09-.26.3-.08.34s.37-.33.41-.5Zm13-10.84s-.06.14,0,.34.38.48.51.41.06-.28,0-.32-.19.06-.38-.18-.11-.28-.17-.25Zm-.08.49c-.07.08,0,.26.12.37a2.58,2.58,0,0,1,.18.46c0,.12.15.26.21.21s0-.13,0-.28a1.63,1.63,0,0,0-.31-.49c-.09-.13-.13-.33-.2-.27Zm0,.44a.89.89,0,0,0-.17-.26c-.08-.09-.18,0-.07.15a.76.76,0,0,1,.12.45c0,.15,0,.4.17.3s0-.48,0-.64Zm2-6s0,.16.12.33.48.37.59.26,0-.27-.06-.3-.17.1-.42-.08S46.69,30,46.64,30Zm0,.51c0,.09.11.23.2.32a2.27,2.27,0,0,1,.29.4c.07.1.22.22.26.16s0-.14-.07-.29-.25-.23-.42-.38-.21-.29-.26-.21Zm.13.41a1.82,1.82,0,0,0-.23-.21c-.1-.06-.17.07,0,.16a.82.82,0,0,1,.23.42c0,.15.11.38.24.24S46.94,31.09,46.82,31ZM20.25,45.55s-.16,0-.33.11-.38.48-.28.59.28,0,.31-.06-.1-.17.09-.42.25-.17.21-.22Zm-.51,0c-.09-.05-.23.11-.32.2a2.13,2.13,0,0,1-.41.28c-.1.06-.22.21-.16.25s.14,0,.28,0,.24-.25.4-.42.29-.21.21-.26Zm-.42.13a1.43,1.43,0,0,0,.22-.23c.06-.1-.06-.17-.16,0a.8.8,0,0,1-.42.21c-.15,0-.38.11-.25.23S19.2,45.84,19.32,45.72Zm-4-2.19c0-.05-.14-.07-.35,0s-.48.38-.41.51.27.06.31,0,0-.19.2-.38S15.34,43.59,15.31,43.53Zm-.5-.08c-.07-.08-.25,0-.37.11a2.41,2.41,0,0,1-.45.16c-.12,0-.27.15-.22.21s.12,0,.28,0a1.86,1.86,0,0,0,.49-.31c.13-.09.34-.13.27-.19Zm-.43,0a1.05,1.05,0,0,0,.26-.17c.08-.08,0-.18-.15-.07a.69.69,0,0,1-.45.1c-.15,0-.4,0-.3.17s.48.06.64,0ZM6.29,33.64s-.09-.14-.3-.18-.62,0-.64.16.19.21.25.2.07-.19.38-.2S6.27,33.71,6.29,33.64Zm-.37-.36c0-.1-.22-.12-.35-.13A2.52,2.52,0,0,1,5.1,33c-.12-.05-.3,0-.3,0s.08.11.22.18a2,2,0,0,0,.57.05c.16,0,.35.1.33,0ZM5.57,33a.89.89,0,0,0,.31,0c.12,0,.09-.15-.07-.14a.67.67,0,0,1-.43-.19c-.11-.1-.34-.22-.35,0S5.39,33,5.57,33Z" transform="translate(-3.2 -2.3)"/><path class="cls-1" d="M4.84,27.84A2,2,0,0,1,5.73,29a7.71,7.71,0,0,1,.2,1.43A2.19,2.19,0,0,0,7,31.75c.91.42,1.31,0,1.35-.54a1.44,1.44,0,0,0-.72-1.45c-.55-.24-.88.26-.65.56,0,0,.32-.16.41.12s-.36.39-.56,0a.66.66,0,0,1,.2-.94,1.36,1.36,0,0,1,1.36.71c.43.62.49,1.37.08,1.68S7,32.38,6,30.92a2.49,2.49,0,0,0,.83,1.71,1.46,1.46,0,0,1,.86.17c.45.24.78.5.65.81s-.58.09-.5-.1A.28.28,0,0,1,8,33.37s.1-.24-.39-.41-.68.09-.71.2.1.6,1,.87l2.82.25c1.79.23,4,.43,4,.4l.05.06s-1-.05-2.93-.22c-1.44-.13-2.9-.2-3.35-.23s-1,0-1,.08.23.35.58.5a2.63,2.63,0,0,1,1.21.37s-.07-.27-.73-.73c0,0,.37,0,1.1.81.43.47.47,1,.82,1.45a1.08,1.08,0,0,0,.54.35s.88-.08,2.58-.18,2.85-.26,2.86-.26l.06,0-3.14.36c-1.82.21-2.92.29-3.22.34s-.56.09-.57.19.39.28.8.38c0,0,1.48-.22,3.26-.36,2-.11,4.11-.36,4.1-.37l.08,0s-1.78.26-3.89.46c-1.19.13-2.58.32-2.59.32s.86.19.62.73c0,0,1,.2.89.69s-1.26.34-1.26.33a3.21,3.21,0,0,0,.94.42s1.75-.56,3.39-1.11,2.8-.78,3.35-1l.06,0s-1.56.39-3.27,1c-1.4.53-2.65,1-2.65,1s1.17,0,1,.65c0,0,1,.09.95.62S14,42,14,41.94a3.14,3.14,0,0,0,1.25.44,3.69,3.69,0,0,1,1-.29s-.85-.09-.55-.65c.41-.78,1.87-1,4.21-1.82l.11,0s-1.15.41-2.8,1c-1.41.49-1.16,1.07-1.06,1.17a.65.65,0,0,0,.47.15l.2.1s-1.2.16-1.35.57,1.07.27,1.07.26a1.11,1.11,0,0,1,.66-.35c.49-.11.64,0,.7.18s-.3.45-.45.2,0-.24,0-.24A.53.53,0,0,0,17,43c-.31.42-.19.74.59.6a1.5,1.5,0,0,1,.66-.46c.43-.16.7-.15.88.13s-.34.63-.51.27.2-.28.2-.28-.14-.2-.55.1-.38.49-.32.63.72.3,1.36-.31a1,1,0,0,1,.72-.25,3.34,3.34,0,0,0-.64.45c-.33.29-.48.45-.45.51s.32,0,.46-.07a13.5,13.5,0,0,0,1.5-1.22c.59-.53,1.32-1.13,2.05-1.7.89-.68,1.59-1.38,2-1.67h.09s-.75.59-2,1.69-2.4,2.19-3,2.67c0,0,1.21-.53,1.55-.13a.71.71,0,0,1-.24.89c-.31.29-1.05.47-1.26.21a.24.24,0,0,1,.05-.4.3.3,0,0,1,.32,0c.12.12-.07.26-.07.26a.53.53,0,0,0,.62,0,.57.57,0,0,0,.16-.78c-.15-.09-.5-.23-1.37.17A12.82,12.82,0,0,1,18,45.56a2.32,2.32,0,0,1-2,.19l.1-.06a1.22,1.22,0,0,0,.92.08,5.48,5.48,0,0,0,2.07-1.22s-.5.14-.63,0,.23-.39.23-.39-.76.28-1.14,0a.39.39,0,0,1-.1-.44s-.82.15-1.08-.14.06-.55.06-.55A4,4,0,0,1,15.18,43c-.27-.14,0-.45,0-.5A3.81,3.81,0,0,1,13.63,42a13.54,13.54,0,0,1-1.54-1.25c-.35-.26-.44-.13-.58-.27a3.73,3.73,0,0,0,.73-.12A4.51,4.51,0,0,1,9.5,38.1a1.4,1.4,0,0,0,.51-.05s-.88-.32-1-.55.31-.23.43-.25a2.55,2.55,0,0,1-1.07-.63c-.2-.34,0-.49,0-.53a1.38,1.38,0,0,1-.73-.62.35.35,0,0,1,.22-.55A3.39,3.39,0,0,1,7,34.26c-.09-.19.29-.22.54-.21a2.47,2.47,0,0,1-1-.91.32.32,0,0,1,.21-.46,3.83,3.83,0,0,1-.86-1.28,7.17,7.17,0,0,1-1.7-1c-.61-.54-1.09-1.18-.86-1.66s.73-.24.89-.12a.77.77,0,0,1,.33.86c-.11.41-.49.21-.59.13a.34.34,0,0,1-.14-.41c.08-.17.4-.15.35.24,0,0,.16.07.19-.15A.45.45,0,0,0,4,28.8a.33.33,0,0,0-.41.26c-.05.15-.1.42.31.9a4.42,4.42,0,0,0,1.85,1.26,8.52,8.52,0,0,1-.2-1.32c0-.72,0-1.6-.59-1.73l-.13-.33Zm8.26,13.4a5.62,5.62,0,0,0,.53.44c.55.27,1.17,0,1.21-.32s-.62-.38-.62-.38a1.93,1.93,0,0,1-1.12.26Zm-1-.67a4.13,4.13,0,0,1,.77.5c.29.1,1-.06,1-.33s-.82-.44-.82-.45C12.5,40.49,12.12,40.57,12.13,40.57ZM10.6,39a4.18,4.18,0,0,0,.63.59c.53.24,1.07,0,1.1-.25s-.59-.44-.59-.44C11.48,39.26,10.61,39.05,10.6,39ZM10,38.28a4,4,0,0,0,.41.58c.44.13,1.09,0,1.06-.25s-.54-.44-.54-.45l-.93.12Zm-.86-2.07a.54.54,0,0,0-.48.22c-.1.22.18.45.47.58a2.82,2.82,0,0,0,.68.17l.72-.07a2.26,2.26,0,0,1-.81-.82,2,2,0,0,0-.58-.08Zm.11-.79c-.4-.27-1.07-.34-1.25-.06s.51.66.51.65c.37-.15,1.13.15,1.13.14C9.47,35.79,9.3,35.42,9.29,35.42Z" transform="translate(-3.2 -2.3)"/><path class="cls-1" d="M7.89,36.31a3.22,3.22,0,0,0-.75-1.12c-.21-.15-.67-.27-.57,0s.38.07.38.08c.37.34.34.63.74,1.36a2.66,2.66,0,0,0,.76.84.9.9,0,0,0,.69.24,2.53,2.53,0,0,1-1.25-1.36Zm-.38.13a.58.58,0,0,0-.37-.16,1.21,1.21,0,0,1-.52-.16c-.11-.06-.22-.09-.16,0a.57.57,0,0,0,.36.28,3.68,3.68,0,0,1,.49,0C7.47,36.51,7.53,36.5,7.51,36.44ZM13.1,7.61c.06,0,.12-.11.12-.33s-.14-.59-.29-.58-.17.22-.14.28.2,0,.27.33S13,7.61,13.1,7.61Zm.28-.42c.1,0,.07-.25,0-.38a2.63,2.63,0,0,1,0-.49c0-.12,0-.31-.09-.29s-.1.1-.14.26a1.9,1.9,0,0,0,.09.57C13.35,7,13.3,7.22,13.38,7.19Zm.17-.41a.76.76,0,0,0,0,.31c0,.11.16.06.12-.1a.75.75,0,0,1,.09-.46c.08-.12.15-.37,0-.35S13.53,6.6,13.55,6.78ZM11.1,9.3c.05,0,.1-.13.07-.35s-.22-.57-.36-.54-.14.24-.1.29.19,0,.3.3,0,.3.09.3Zm.22-.46c.09-.05,0-.25,0-.38a2,2,0,0,1,0-.49c0-.12-.07-.3-.14-.27s-.08.11-.09.27a1.52,1.52,0,0,0,.15.55c0,.16,0,.36.1.32Zm.12-.42a.79.79,0,0,0,.08.3c.05.11.17,0,.11-.12a.82.82,0,0,1,0-.46c.07-.14.1-.39-.07-.34S11.4,8.25,11.44,8.42ZM5.5,18.09s0-.15-.1-.33-.46-.41-.57-.31,0,.28,0,.31.18-.09.42.11.15.26.21.22Zm0-.51c.06-.08-.09-.24-.18-.33a2,2,0,0,1-.25-.42c-.06-.11-.2-.23-.25-.18s0,.14,0,.29.23.25.4.41S5.42,17.66,5.48,17.58Zm-.1-.42a1,1,0,0,0,.22.23c.09.07.17-.05,0-.16a.77.77,0,0,1-.19-.43c0-.15-.09-.39-.22-.26S5.27,17,5.38,17.16Zm-.91,6s0-.16-.17-.3-.55-.28-.64-.16.07.27.13.28.14-.12.42,0S4.43,23.25,4.47,23.2Zm-.14-.49c0-.09-.14-.21-.25-.28a2.26,2.26,0,0,1-.35-.34c-.08-.1-.25-.18-.28-.12s0,.14.11.27.28.19.48.31.26.25.29.16Zm-.19-.38a.87.87,0,0,0,.26.16c.11.05.15-.09,0-.16A.72.72,0,0,1,4.11,22c0-.14-.18-.35-.28-.2s.16.46.31.57Z" transform="translate(-3.2 -2.3)"/><path class="cls-1" d="M8.27,14.41c.07.17.7,1.63,1.63,3.86s1.65,3.55,1.64,3.56l0,.1S10.88,20.7,10.09,19a30.77,30.77,0,0,0-1.5-3.25c0,1-.56.81-.56.81s.26,1-.34,1.09-.77-1.12-.75-1.12a2.46,2.46,0,0,0-.21,1.41,1.48,1.48,0,0,1,.41.6c.14-1,.85-.64,1.58.43s1.54,3.06,1.57,3l0,.12C10,21.6,9.82,21.23,9.19,20s-1.28-1.81-1.67-1.65-.1.8-.09.8l0,.13c-.16-.46-.57-1.05-.87-1.09s-.27.18-.24.42.12.65.12.65c.33.11.85.78.65,1.22s-.57,0-.43-.22.31,0,.31,0c.17-.41-.74-.84-.95-.62s.11.74.11.74a1.23,1.23,0,0,1,.72,1.35c-.14.31-.59.1-.48-.15s.33,0,.33,0c.06-.38-.13-.55-.42-.7s-.47-.25-.54,0c-.18.58.76,1.32.76,1.32.32.4.25.59.25.59-.07-.2-.39-.45-.6-.62s-.5-.46-.55-.37c-.13.24.28.81.28.81.78.68,1.76,1.41,2.86,2.4s2.24,2.05,2.24,2.05v.09s-1.11-1-2.25-2L6.26,23.28c.34.5.35.82.25,1s-.43.42-1,0S5,23.21,5.19,23s.39.21.29.34-.25,0-.25,0c-.19.53.68.91,1,.63S6,23,6,23A10.16,10.16,0,0,1,4.4,21.59c-1.18-1.58-.72-2.35-.74-2.33l.07.12a2.41,2.41,0,0,0,.84,2.12,8.85,8.85,0,0,0,1,.95,1.59,1.59,0,0,1-.27-1c.08-.14.37.09.37.09-.13-.23-.32-.83-.19-1.05a.33.33,0,0,1,.39-.11c-.1-.15-.35-.82-.12-1a.44.44,0,0,1,.5-.07,6.36,6.36,0,0,1-.12-.63,1.29,1.29,0,0,1,0-.62.34.34,0,0,1,.51-.15c-.35-1.38.89-3,1.25-3.55s.25-.55.25-.56a4.39,4.39,0,0,1,.11.68Zm-.76,1a7.56,7.56,0,0,0-.45.85s.07,1.08.68,1c.36,0,.16-.79.16-.8S7.49,16.32,7.51,15.39Zm.88-.16a3.2,3.2,0,0,1-.32-.77,2.69,2.69,0,0,1-.45.75s0,1.07.62.95C8.56,16.11,8.38,15.23,8.39,15.23ZM22.16,2.47c.6.34-.09,1.31-.73,1.1s-.15-.83.19-.71,0,.5-.28.42a.54.54,0,0,0,.18.11A.45.45,0,0,0,22,3.24c.24-.32-.32-.73-.92-.38s-1,.68-1.64,2.17c0,0,1.26-.21,1.28-.72L21,4.16a1,1,0,0,1-.47.66,2.49,2.49,0,0,1-.87.47A6,6,0,0,0,19,7c-.19.81-.56,1.87-.86,3s-.8,2.58-.78,2.58l-.08.06s.32-1.1.69-2.58.7-2.47,1-3.56a1.21,1.21,0,0,1-.61.53c-.31.08-.43-.26-.43-.27a1.77,1.77,0,0,1-.7.91,1.22,1.22,0,0,1-.22,1c-.34.51-1.15,1.29-1.84,1S14.56,8,15.45,7c0,0-1.09.37-1.24,1.22a1.21,1.21,0,0,1,.12.65c-.05.42-.25.75-.52.81s-.4-.45-.09-.49.14.28.14.28a.53.53,0,0,0,.3-.56c-.05-.39-.37-.65-.53-.63s-.37.51-.45.88a3.88,3.88,0,0,0,.13,1.35,16.88,16.88,0,0,1,.18,2.74c.06,1.84.22,3.2.26,3.66l-.09.13s-.1-.62-.3-3.13a23,23,0,0,0-.44-4.3c-.07-.32-.12-.65-.2-.62a2.45,2.45,0,0,0-.52,1.23s.19,1,.39,2.54.3,3.28.3,3.27l-.05.07s-.25-2.1-.41-3.34S12.12,11,12.12,11s-.22.82-.66.74S11,11,11.16,10.4a1.34,1.34,0,0,0-.48.79,9.58,9.58,0,0,1,.66,2.16c.26,1.31.52,2.57.55,3.15l0,.08a14.28,14.28,0,0,0-.48-2.14,10.85,10.85,0,0,0-.48-1.85s-.19.49-.55.19-.79-.74-.85-.31l0,.31s.3.11.4.71-.4,1.26-.58.76c-.11-.31.21-.51.29-.1a.61.61,0,0,0,.11-.63c-.16-.37-.48-.51-.59-.46s-.25.5-.15,1.1.36.74.19,1.08a1.91,1.91,0,0,0-.36-.71,6.15,6.15,0,0,1-1-2.66c-.08-1,.45-2.63,1-2.84v.22a2.12,2.12,0,0,0-.75,1.57c-.09.84-.08,1.42.87,3.21,0,0-.17-1.07.18-1.36.18-.15.42.08.42.08a2.46,2.46,0,0,1,.19-.9c.18-.16.87.8,1.11.73.07,0,.13-.27.13-.26s-.23-1-.49-1S10,12,10,12a1.94,1.94,0,0,1,0-.48.93.93,0,0,1,.29-.54c.17-.16.32.18.32.18a1.81,1.81,0,0,1,.64-1.23c.61-.5.74-.6.84-.84a1.88,1.88,0,0,0,0,.54c0,.2.07.42.07.42a3.6,3.6,0,0,1,.67-1.48c.13-.11.23.58.24.58s.13-.93.69-1.24c.16-.09.36.23.36.23a2.32,2.32,0,0,1,1.06-1.22,5.83,5.83,0,0,1,.61-1.78c.51-.94,1.09-1.4,1.59-1.31s.3.66.22.85a.94.94,0,0,1-.84.5c-.35,0-.33-.38-.19-.63s.66-.3.57,0a.29.29,0,0,1-.44.15s-.09.32.31.24a.53.53,0,0,0,.47-.42c.05-.15-.08-.35-.34-.39s-.76.24-1.2,1a6.25,6.25,0,0,0-.64,1.67,7.18,7.18,0,0,1,1-.37c.43-.13.83-.22.78-.55l.22-.3s.13.26-.29.71a2.1,2.1,0,0,1-1.15.58A2.13,2.13,0,0,0,15,8.26c-.12.9.54,1.31,1.24.92s1-.88.89-1.4a.85.85,0,0,1-.53.11.31.31,0,0,1-.27-.44.52.52,0,0,1,.92.13,1.47,1.47,0,0,0,.57-.72,9.9,9.9,0,0,1,.4-1.08,2.32,2.32,0,0,0-1.18,1S17,6,18.64,5.24c.12-.41.27-.81.43-1.21.22-.58,1.06-1.4,1.63-1.18,0,0,.84-.73,1.46-.38Zm-5.43,5c-.15,0-.31,0-.33.09s.1.17.26.19A.63.63,0,0,0,17,7.66.36.36,0,0,0,16.73,7.44ZM11.89,9.75c-.18.18-.37.34-.57.51s-.22.85.17,1.07.56-.61.57-.61l-.17-1Zm7.46-4.36a3.64,3.64,0,0,1-.44.11,3.24,3.24,0,0,0-.47.15s-.46.61-.17.92.77-.31.77-.31c.18-.57.31-.87.31-.87Zm-.06-.32A6.78,6.78,0,0,1,20.34,3.2c-.37-.14-.89.38-1.12.83A8.53,8.53,0,0,0,18.8,5.2l.49-.13Z" transform="translate(-3.2 -2.3)"/><path class="cls-1" d="M20.24,5.93a.23.23,0,0,0-.18.27.2.2,0,0,0,.26.13.22.22,0,0,0,.15-.25.19.19,0,0,0-.23-.15Zm5.53-2.51s.16,0,.28-.2.24-.56.11-.64-.26.08-.27.14.14.14,0,.43-.2.23-.14.27Zm.47-.18c.1,0,.2-.15.26-.27a2.38,2.38,0,0,1,.32-.38c.08-.09.16-.26.09-.29s-.14,0-.26.14a1.65,1.65,0,0,0-.27.5c-.07.15-.23.28-.14.3ZM26.61,3a.9.9,0,0,0-.14.28c0,.11.1.14.16,0A.76.76,0,0,1,27,3c.14,0,.34-.2.18-.29s-.45.19-.54.35ZM46.35,18.63s.06.14.27.22.6.06.65-.08-.16-.23-.22-.23-.09.18-.4.14S46.37,18.56,46.35,18.63Zm.3.4c0,.11.21.15.34.17a2,2,0,0,1,.45.2c.11.06.3.08.31,0s-.06-.12-.2-.21a2,2,0,0,0-.57-.11c-.16,0-.33-.14-.33,0Zm.33.29a1.8,1.8,0,0,0-.31-.06c-.12,0-.11.14.06.15a.76.76,0,0,1,.4.24c.09.13.3.27.33.09s-.3-.38-.48-.42ZM32.49,6.65c-.63,0-.52-.4-.37-.5s.25-.07.32,0,.1.29-.14.31c0,0,.31.2.71-.16.21-.19.4-.58.2-.73s-.63,0-1.1.23c0,0-.55.57-1,.51a2.71,2.71,0,0,0,.65-.46c.3-.29.4-.47.38-.56s-.61,0-1.07.08a2.36,2.36,0,0,1-.63.41,1.4,1.4,0,0,0,.9.07,2.28,2.28,0,0,1-1.77,0c-1.16-.32-1.45-.22-1.72-.12,0,0-1,1.08-2,2.17s-2.39,2.38-2.37,2.38l-.11,0s1.05-1,2.29-2.43,2.49-2.9,2.61-3,.32-.42.27-.46a1.57,1.57,0,0,0-.79.28S26.7,5.88,25.88,6.78s-2.3,2-2.28,2l-.13,0s1.26-1.1,2.22-2.11a13.68,13.68,0,0,0,1.12-1.4s-.91.52-1-.23c0,0-1,.79-1.25.3s.74-1.19.75-1.18-.51-.15-1.91.6a3.45,3.45,0,0,1,2.48-.91c1.38,0,1.33.29,2.14.19a4.55,4.55,0,0,1,1.61-1.27c1-.47,1.53-.49,1.75-.33l-.21.1s-.34-.27-1.26.26A9.15,9.15,0,0,0,28,4.45s.79-.43,1.1-.25c.14.09-.23.45-.23.45A2.33,2.33,0,0,1,30,4.37a.26.26,0,0,1,.2.33,2.07,2.07,0,0,1,1.08,0c.31.18,0,.51,0,.51L32,5.07A6.26,6.26,0,0,1,34,4c.68-.16,1.61-.15,1.68.5s-1,.79-1.27.3.63-.76.71-.44-.38.31-.5.12c0,0-.1.09.05.29a.41.41,0,0,0,.46.15.34.34,0,0,0,.19-.48c-.22-.51-1.06-.37-1.33-.27a4.73,4.73,0,0,0-1.68.89s.32,0,.4.06-.29.4-.29.4,1-.42,1.29,0-.56,1.16-1.18,1.12ZM26.43,4.29l-.91-.07s-.86.47-.62.87.88-.14.89-.14c.08-.36.64-.66.64-.66Zm1.31,0a6,6,0,0,1-1.1,0s-.66.43-.46.75S27.09,5,27.1,5Zm2,.41c-.24-.38-1.23.28-1.22.29L28,5.56a2.62,2.62,0,0,1,1.16-.08s.78-.45.58-.79Zm.47,1c.25-.14.83-.56.67-.83s-.78,0-.77,0c-.11.28-.76.61-.76.61.24.09.86.22.86.23Z" transform="translate(-3.2 -2.3)"/><path class="cls-1" d="M34.31,8c-.32-.6-1-.14-.88.13A.2.2,0,0,0,33.82,8a.15.15,0,0,0-.15-.11c.27-.35.74.42.23.61s-1.21-.42-.92-1S34.8,7,34.8,7l.14-.1c-.2,0-.94.06-1-.2s.46-.82,1.32-1.1a4.6,4.6,0,0,1,2.43-.29l.16,0a5.69,5.69,0,0,0-3.25.41,2,2,0,0,0-.9.7c-.38.55.12.61.12.61-.55.08-1.7.58-1.13,1.31a1,1,0,0,0,1.16.38c.37-.12.63-.41.47-.7Z" transform="translate(-3.2 -2.3)"/><path class="cls-1" d="M40.91,15.5a14.68,14.68,0,0,1-2.47-.31l-.07-.08a10.36,10.36,0,0,0,2.36.24,14.86,14.86,0,0,0,2.79-.13c.16,0,.48-.06.47-.18a2.1,2.1,0,0,0-.88-.46,11.56,11.56,0,0,1-2.33-.09A19.41,19.41,0,0,1,38.32,14L38.26,14a15.78,15.78,0,0,0,2.44.36c.85.05,1.47,0,1.47,0s-.53-.41-.09-.74.87-.47.49-.72a3.26,3.26,0,0,0-.64-.33s-1.4.19-3,.29-3.37.17-4.3.17l-.1-.07s1.23,0,3.07-.17,3.41-.32,3.41-.33-1-.4-.82-.9,1.27-.17,1.27-.16a2.17,2.17,0,0,0-1-.61,5.38,5.38,0,0,1-.82.19,1.33,1.33,0,0,1-.8-.27,2.57,2.57,0,0,0,.87,0c.34-.1.83-.19.78-.34s-.77-.34-.76-.34l-2.05.6c-.84.25-1.67.47-2.33.63s-1.39.33-1.38.33l-.1-.07s1-.23,1.8-.45,2.36-.81,3.15-1.05c0,0-1.18-.13-1.07-.71a2.77,2.77,0,0,1-1.39-.62,4.65,4.65,0,0,0-2.16-1.14,2.86,2.86,0,0,0,.63-.17c.46-.2.89-.35,1-.53s-.66-.21-.66-.2l.08-.1s.89,0,1,.24c.05.11-.38.31-.38.31a1.69,1.69,0,0,1,.68,0,8.19,8.19,0,0,1,2.57-.37c.76.12,1.38.35,1.38.9s-.51.5-.65.5a.76.76,0,0,1-.71-.57c-.1-.41.64-.55.73-.17s-.37.27-.43.12c0,0-.08.08.06.27s.64.24.59-.24-.88-.65-1.15-.67a5,5,0,0,0-2.08.33s.47.11.22.48c0,0,1,0,1,.51,0,.36-.54.45-.68.47s-.7.08-.69.09.49.57,1,.5c0,0,.17-.39.88-.45a.94.94,0,0,1,.94.43c0,.13,0,.33-.21.38a.22.22,0,1,1-.06-.42.63.63,0,0,0-.61-.24.58.58,0,0,0-.49.59c0,.2.27.39.94.41,0,0,1.16-.27,1.8-.35a3.4,3.4,0,0,1,2.59.67l-.1,0s-.32-.42-1.41-.53A6.59,6.59,0,0,0,40,10s1.07.29,1.14.56-.41.2-.41.2a2.32,2.32,0,0,1,1.29.79,10.34,10.34,0,0,0,.82,1,1.37,1.37,0,0,0-.51,0s.78.38.89.59-.19.29-.18.29.74.3.86.83c.06.27-.45.29-.45.29s1,.47,1,.71-.63.19-.63.19S45.05,16,45,16.56s-1.34,0-1.33,0,0,.38.6.76a1.31,1.31,0,0,1-.78-.58c-.36-.53-.22-.62-.73-1.23a14.44,14.44,0,0,1-1.85,0ZM36.7,7.34c-.37-.42-1.8.22-1.79.24a3.35,3.35,0,0,1,1,.41c.28,0,1.08-.29.79-.65Zm1,.68c-.12-.35-.76-.25-.76-.25a1.78,1.78,0,0,1-.93.32c.23.16.62.49.62.49C37.13,8.57,37.87,8.37,37.75,8Zm4.47,4.31a5.85,5.85,0,0,0-.51-.72s-.79-.38-1.05.08.68.72.68.73l.88-.09ZM43.44,14c-.09-.34-.6-.47-.6-.47a2.61,2.61,0,0,0-.5.31c-.44.31.09.5.09.5s1.11,0,1-.34Zm.9,1.89A2,2,0,0,0,43,15.51a2,2,0,0,1,.6.87,1.13,1.13,0,0,0,1,0C44.68,16.27,44.56,16.08,44.34,15.89Z" transform="translate(-3.2 -2.3)"/><path class="cls-1" d="M40.6,9a4.74,4.74,0,0,0,.82,0c.19,0,0-.19-.19-.21a6.17,6.17,0,0,0-.62.11c-.2,0-.3,0-.29,0s.12.09.28.11Zm2.1,1.29a4.1,4.1,0,0,0-.62,0c-.21,0-.3-.07-.3,0s.11.1.27.14a4.4,4.4,0,0,0,.82,0c.19,0,.05-.19-.17-.22Zm3.13,5.79a5.49,5.49,0,0,0,.78.27c.19.05.11-.16-.09-.26A4.66,4.66,0,0,0,45.9,16c-.19-.06-.26-.15-.29-.07s.08.13.22.21Zm-.42.4c.27.88.82.62.83.62-.23,0-.47-.3-.62-.85a2.87,2.87,0,0,0-.71-1.3,1.13,1.13,0,0,0-.69-.28C45,15,45.17,15.73,45.41,16.49Zm2.92,7.72c.18-.31-.52-1-.78-.34a.76.76,0,0,0,.28.95c.27.24.6.33.82,0,.45-.65-.23-1.6-.77-2.2a8.49,8.49,0,0,0-1.35-1.2,4.31,4.31,0,0,0-1-2s.64,0,.41-.56a2.64,2.64,0,0,0-1-1s.92.16.52-.35a1.89,1.89,0,0,0-.84-.67s.62.47.57.63-.36.15-.66.12-.9-.08-2.95-.39-3.53-.58-3.52-.58l0,.09c1.25.26,2.07.35,3.29.6s3.14.5,3.14.51a2.24,2.24,0,0,1,.92.66c.28.38,0,.72-.56.6a.65.65,0,0,1-.54-.6c.09.17.41.09.3-.19s-.71-.24-.4.43a1.54,1.54,0,0,0,1.1.69,3.17,3.17,0,0,1,.85,2.36c-.59-1.38-1.94-2-2.38-1.22A2.12,2.12,0,0,0,43.6,22a2,2,0,0,0,.4,1c.53.91,1.71.9,1.52,0s-1-.69-.92-.22.44.27.43.1-.21-.2-.21-.2a.19.19,0,0,1,.22-.14c.48.19.38.91,0,1S43.91,23,43.88,22.2s.2-1.77,1-1.61,1.33,1.65,1.32,1.65a2.36,2.36,0,0,0,.06,1.62,1.86,1.86,0,0,0,.69.92l-.12-.4c-.6-.34-.5-.87-.39-1.43a8.86,8.86,0,0,0,.1-1.3A5.13,5.13,0,0,1,48,23.07c.61.78.46,1.25.36,1.42s-.37.3-.53.12a.53.53,0,0,1-.12-.54.3.3,0,0,1,.25-.21c-.14.31.21.6.36.35Z" transform="translate(-3.2 -2.3)"/><text class="cls-2" transform="translate(52.84 25.57)"><tspan xml:space="preserve">LOTRO   GIBBERISH   CONFIGS</tspan></text></svg>