<?xml version="1.0" encoding="utf-8"?>
<svg width="481px" height="53px" viewBox="0 0 481 53" version="1.1" xmlns:xlink="http://www.w3.org/1999/xlink" xmlns="http://www.w3.org/2000/svg">
  <defs>
    <path d="M0 0L253 0L253 50L0 50L0 0Z" id="path_1" />
    <clipPath id="mask_1">
      <use xlink:href="#path_1" />
    </clipPath>
  </defs>
  <g id="logo-large_white" transform="translate(1 1.5)">
    <path d="M0 0L253 0L253 50L0 50L0 0Z" id="Background" fill="none" fill-rule="evenodd" stroke="none" />
    <g clip-path="url(#mask_1)">
      <g id="Group" transform="translate(3.1552124 2.2000008)">
        <path d="M0 19.8C0 20.05 0 20.3 0.400002 20.3C0.800003 20.3 1 20.05 1 19.8C1 19.55 0.799999 19.3 0.599998 19.3C0.599998 19.3 0.599998 19.3 0.599998 19.3C0.199997 19.3 0 19.55 0 19.8L0 19.8ZM11.3 14.2C11.4 13.3 11.5 11.8 11.4 11.8L11.5 11.7C11.5 11.7 11.5 12.7 11.4 14.1C11.3 15.2 11.4 16.1 11.4 16.4C11.4 16.7 11.5 17.6 11.7 17.6C11.9 17.6 12.1 16.9 12.1 16.9C12.1 16.9 12 16.6 12 16.2C12 15.9 12.3 15.4 12.6 15.4C12.9 15.4 12.8 15.9 12.6 15.9C12.4 15.9 12.4 15.6 12.4 15.6C12 15.8 12.4 16.8 12.6 16.7C13 16.5 13.1 15.6 13.1 15.6C13.1 15.6 13.1 15.3 13 15.2C13 15.1 13 15 13 14.9C13.3 15 13.3 14.8 13.3 14.8C13.3 15.6 13.5 16.3 13.6 16.3C13.8 16.3 13.9 15.6 13.9 15.6C13.8 15.3 13.7 15.1 13.8 14.8C13.8 14.5 14 14.2 14.3 14.2C14.6 14.2 14.6 14.7 14.4 14.8C14.1 14.8 14.2 14.5 14.2 14.5C13.9 14.7 14.1 15.7 14.5 15.6C14.9 15.5 15 14.8 15 14.8C14.9 14.6 14.8 14.4 14.8 14C14.8 13.6 15.1 13.2 15.4 13.3C15.6 13.3 15.6 13.7 15.4 13.8C15.3 13.7 15.3 13.4 15.3 13.4C15.1 13.6 15.1 13.9 15.2 14.2C15.4 14.5 15.6 14.5 15.8 14.3C16 14.1 16 13.4 16 13.4C16 13.4 15.5 12 15.1 10.6C14.7 8.8 14.3 7 14.3 7L14.3 6.9C14.3 6.9 14.7 8.40001 15.3 10.5C15.7 11.8 16.1 12.8 16.1 13C16.1 13.1 16.4 13.7 16.5 13.6C16.7 13.5 16.7 12.8 16.7 12.8C16.7 12.8 16 10.9 15.5 8.8C15 6.8 14.6 5.4 14.6 5.4L14.6 5.3C14.6 5.3 15 6.5 15.5 8.6C16 10.4 16.6 11.9 16.6 11.9C16.6 11.9 16.6 11.4 16.8 11.2C17 11 17.3 11.2 17.3 11.2C17.3 11.2 17.2 10.1 17.8 10.1C18.4 10.1 18.4 11.3 18.4 11.3C18.8 10.7 18.8 10.3 18.8 10.3C18.6 10 18.5 9.4 18.5 9.4C18.5 9.4 18.4 9.8 18.2 9.9C18 10 17.3 9.5 17.1 8.7C16.8 7.6 16.7 5.8 16.7 5.8L16.7 5.7C16.7 5.7 16.9 7.3 17.2 8.5C17.4 9 18 9.6 18.2 9.4C18.5 9.2 18.4 8.8 18.4 8.8L18.5 8.6C18.6 9.3 18.9 9.9 19.1 9.9C19.4 9.9 19.4 9 19.4 9C19.3 8.9 19.1 8.8 19 8.4C18.8 8 18.9 7.6 19.1 7.5C19.4 7.4 19.7 7.8 19.5 8C19.3 8.1 19.1 7.8 19.1 7.8C18.7 8.2 19.6 8.8 19.8 8.7C20 8.5 19.9 7.8 19.9 7.8C19.4 7.4 19.3 6.8 19.3 6.5C19.3 6.2 19.6 6.2 19.7 6.3C19.8 6.4 19.9 6.6 19.8 6.7C19.7 6.8 19.5 6.6 19.5 6.6C19.2 7 19.9 7.7 20.2 7.5C20.5 7.3 20.2 6.7 20 6.4C19.8 6.2 19.7 5.9 19.7 5.7C19.6 5.4 19.7 5.4 19.7 5.4C19.8 5.7 20.6 6.8 20.6 6.7C20.7 6.5 20.6 5.9 20.6 5.9C20.6 5.9 19.8 4.9 18.9 3.8C18.5 3.3 18.1 2.7 17.7 2.2C17.4 1.7 17.1 1.3 16.7 0.9C16.6 0.799999 16.1 0.1 16.1 0.1L16.1 0C16.1 0 17.2 1.3 18.2 2.7C18.9 3.6 20.2 5 20.1 5C20.1 5 19.7 4.2 20.1 3.9C20.5 3.6 21.2 4 21.3 4.7C21.4 5 21.3 5.5 21 5.5C20.9 5.5 20.7 5.3 20.8 5.1C20.9 4.9 21.1 5.1 21.1 5.1C21.3 4.6 20.9 4.2 20.5 4.2C20.1 4.2 20.1 4.4 20.2 4.7C20.3 5 20.4 5.3 20.4 5.3C20.4 5.3 20.7 5.6 21.1 6.2C21.3 6.5 21.6 7 21.8 7.5C22.4 9 21.9 9.5 21.9 9.5L21.8 9.4C22.1 9 21.9 8.3 21.6 7.6C21.3 6.9 20.6 5.9 20.6 5.9C20.8 6.3 20.7 6.9 20.6 7C20.5 7.1 20.3 6.8 20.3 6.8C20.3 6.9 20.4 7.6 20.3 7.8C20.1 8 19.9 7.8 19.9 7.8C19.9 7.8 20.1 8.5 19.8 8.9C19.5 9.2 19.3 9 19.3 9C19.3 9 19.3 10 19.1 10.2C18.9 10.4 18.7 10.3 18.7 10.3C18.6 10.9 18.5 11.3 18.1 11.9C17.7 12.5 17.3 12.8 17.1 13.1C16.8 13.4 16.7 13.8 16.7 13.8C16.7 13.8 16.7 13.7 16.7 13.5C16.7 13.3 16.6 13 16.6 13C16.6 13 16.6 14 16.3 14C16.1 14.1 16 13.7 16 13.7C16 13.7 16 14.6 15.6 14.8C15.5 15 15.3 14.8 15.3 14.8C15.2 15.2 15 15.7 14.7 15.9C14.4 16 14.2 15.7 14.2 15.7C14 16.2 13.9 16.5 13.9 16.5C13.9 16.5 14 17.3 13.7 18.2C13.4 19.2 13 19.5 12.8 19.6C12.6 19.7 12.3 19.8 12.1 19.4C11.9 19 12.1 18.6 12.4 18.4C12.7 18.2 13 18.2 13.1 18.4C13.2 18.6 13.2 18.9 12.9 19C12.7 19.1 12.5 19 12.6 18.9C12.6 18.7 12.9 18.6 12.9 18.6C12.9 18.5 12.7 18.4 12.4 18.6C12.2 18.8 12.3 19.2 12.5 19.2C12.8 19.3 13.3 19 13.6 18.1C13.9 17.2 13.8 16.5 13.8 16.5C13.3 16.9 13.3 16.2 13.3 16.2C13.2 16.7 13 17.2 12.7 17.4C12.4 17.6 12.2 17.2 12.2 17.2C12.2 17.2 11.7 18.2 11.5 18.1C11.3 18 11.3 17.4 11.3 17.4C11.2 17.8 10.9 18.4 10.6 18.6C10.3 18.8 10.2 18.5 10.2 18.5C10.2 18.5 9.7 19.3 9.3 19.1C8.8 18.8 9.39999 17.8 9.39999 17.8C8.89999 18 8.8 18.3 8.69999 18.3C8.79999 17.8 9.69999 17.2 10.4 17C11 16.8 11.3 16.3 11.3 16.3C11.2 16.2 11.2 15.6 11.3 14.2L11.3 14.2L11.3 14.2ZM17.7608 12.2C17.9998 11.9 18.3584 11.5 18.3584 11.5C18.478 11.1 18.2389 10.6 17.7608 10.5C17.2826 10.5 17.4022 11.3 17.4022 11.3C17.7608 11.6 17.7608 12.2 17.7608 12.2L17.7608 12.2L17.7608 12.2ZM17.075 13.1C17.075 13 17.2 12.9 17.45 12.7C17.575 12.6 17.7 12.5 17.7 12.4C17.7 12.4 17.7 12.1 17.45 11.9C17.325 11.7 17.075 11.5 16.95 11.6C16.825 11.7 16.7 11.9 16.7 12.2C16.7 12.4 16.825 12.7 16.95 12.8C17.075 13 17.075 13.1 17.075 13.1L17.075 13.1L17.075 13.1ZM10.3 17.4C10.3 17.4 9.9 17.5 9.5 17.7C9.5 17.7 9 18.5 9.5 18.7C9.8 18.9 10.1 18.2 10.1 18.2C10.1 18.3 10 18 10.3 17.4L10.3 17.4ZM11.2 17.5C11.3 17.1 11.3 16.7 11.3 16.6C11.3 16.6 10.9 17.1 10.5 17.3C10.5 17.3 10 18.1 10.5 18.3C10.7 18.3 11 17.9 11.2 17.5L11.2 17.5L11.2 17.5Z" transform="translate(21.544792 22.799995)" id="Shape" fill="#FFFFFF" fill-rule="evenodd" stroke="none" />
        <path d="M20.7 15.5C20.7 15.5 21.2 14.7 21.8 13.6C22.4 12.5 23.3 11 24.3 9.5L24.4 9.5C24.4 9.5 24.2 9.8 23.9 10.3C23.6 10.7 23.3 11.2 22.9 12C22.1 13.4 21.4 14.8 21.4 14.8C21.4 14.8 21.9 14.3 22.5 14.3C23 14.3 22.9 14.8 22.9 14.8C22.9 14.8 23.3 14.3 23.9 14C23.9 14 23.7 13.6 24.3 13C24.7 12.6 25.5 12.4 26 12.7C26.5 13 26.9 13.9 25.2 15.2C25.2 15.2 25.9 15.3 26.6 14.5C26.6 14.5 26.6 14 26.9 13.6C27.2 13.2 27.4 13.1 27.6 13.3C27.7 13.4 27.7 13.6 27.6 13.7C27.5 13.8 27.3 13.9 27.2 13.6C27.2 13.6 27 13.7 26.9 14.1C26.8 14.6 27 14.8 27.3 14.7C27.6 14.6 28 14.2 28.2 13.4C28.2 13.4 28.2 13.3 28.3 13.1C28.4 12.7 28.5 12.1 28.6 11.5C28.8 10.5 29.3 9 29.7 6.90001L29.8 6.80001C29.8 6.80001 29.6 7.90001 29.2 10C28.7 12.1 28.6 12.9 28.5 13.4C28.4 13.8 28.4 14.3 28.5 14.3C28.6 14.3 28.8 14.1 28.9 13.9C28.9 13.8 29 13.8 29 13.8C29 13.8 29 13.9 29 13.9C28.9 14 28.7 14.3 28.5 14.5C28.3 14.7 28.1 14.6 28.2 14C28.2 14 27.8 14.9 27.1 15C26.7 15.1 26.7 14.7 26.7 14.7C26.7 14.7 26.2 15.1 25.7 15.4C25.7 15.4 25.2 16.4 24.5 17.1C23.8 17.8 23.1 17.9 22.8 17.7C22.5 17.5 22.6 17.1 22.9 16.9C23.1 16.7 23.5 16.6 23.7 16.7C24 16.8 23.9 17.1 23.8 17.2C23.7 17.3 23.6 17.5 23.3 17.4C23.1 17.3 23.3 17 23.6 17C23.6 17 23.3 16.8 23 17C22.7 17.2 22.9 17.5 23.2 17.6C23.5 17.7 23.9 17.5 24.2 17.2C24.5 16.9 25.1 16.3 25.4 15.6C25.4 15.6 25 15.7 24.5 15.7C24 15.7 23.6 15.7 23.3 15.8C23 15.9 22.7 16.1 22 16C22 16 21.5 16.8 20.9 17.3C20.4 17.8 19.9 17.8 19.6 17.5C19.6 17.5 18.6 18 18.2 17.6C17.9 17.3 18.1 16.9 18.3 16.7C18.6 16.5 18.9 16.4 19.2 16.6C19.8 17 19 17.6 18.7 17.3C18.6 17.2 18.7 17.1 18.7 17C18.8 16.9 19 16.9 19.1 17C19.1 17 19.2 16.9 19 16.7C18.8 16.6 18.6 16.7 18.4 16.8C18.3 16.9 18.2 17.1 18.5 17.3C18.8 17.5 19.2 17.5 19.7 17.2C20.2 17 20.8 16.3 21.2 15.8C21.2 15.8 19.9 15.6 19.5 16L19.2 16C19.2 16 19.7 15.4 20.7 15.5L20.7 15.5L20.7 15.5ZM21.8 15.9L21.3 15.9C21.3 15.9 20.5 16.9 19.9 17.2C19.9 17.2 20.1 17.4 20.3 17.3C20.5 17.3 20.9 17.1 21.3 16.6C21.6 16.1 21.7 15.9 21.8 15.9L21.8 15.9ZM22.3 15.6C22.3 15.6 22.9 15.7 23.2 15.5C23.5 15.3 23.7 15.2 24 15.2C24.3 15.2 24.5 15.2 24.7 15.2C24.9 15.2 25.4 14.9 25.8 14.4C26.2 13.9 26.2 13.3 25.6 13C25.1 12.8 24.6 12.9 24.3 13.2C24.1 13.4 24 13.6 24 13.8C24 13.8 24.3 13.7 24.5 13.8C24.7 13.9 24.8 14.2 24.7 14.3C24.6 14.5 24.4 14.6 24.1 14.4C23.9 14.3 23.8 14 23.8 14C23.8 14 23.4 14.2 23.1 14.5C23 14.9 22.5 15.4 22.3 15.6L22.3 15.6L22.3 15.6ZM24.5844 14.7901C24.7615 15.0431 24.9386 15.0431 25.1156 14.7901C25.2927 14.537 24.9386 13.7777 24.2302 14.0308C24.0532 14.0308 24.2302 14.2839 24.5844 14.7901L24.5844 14.7901L24.5844 14.7901ZM21.2 15.1L21 15.5C21.5 15.5 22.1 15.6 22.1 15.6C22.1 15.6 22.8 15 22.5 14.6C22.1 14.2 21.2 15.1 21.2 15.1L21.2 15.1ZM28.1609 15.3C28.1609 15.3 27.8874 15.4111 27.6139 15.6333C27.3405 15.8556 27.3405 16.3 27.8874 16.3C28.1608 16.3 28.4343 16.0778 28.4343 16.0778C28.4343 15.9667 27.8874 15.9667 28.1609 15.6333C27.8874 15.4111 28.1609 15.3 28.1609 15.3L28.1609 15.3L28.1609 15.3ZM27.7693 15.6C27.5705 15.6 27.5705 15.8 27.3717 15.9C27.3717 16 27.1729 16.2 26.9741 16.4C26.7753 16.5 26.7753 16.7 26.9741 16.7C27.1729 16.7 27.1729 16.6 27.3717 16.5C27.5705 16.4 27.5705 16.2 27.5705 15.9C27.5705 15.8 27.9681 15.6 27.7693 15.6L27.7693 15.6L27.7693 15.6ZM27.3437 15.9567C27.3437 15.7257 27.5144 15.7257 27.5144 15.6102C27.5144 15.4947 27.3437 15.4947 27.1729 15.7257C27.1729 15.8412 27.0021 16.0723 26.8313 16.1878C26.6606 16.3033 26.319 16.5343 26.6606 16.5343C26.8313 16.5343 27.1729 16.1878 27.3437 15.9567L27.3437 15.9567L27.3437 15.9567ZM40.0273 5.10922C40.0273 5.10922 39.8659 5.24307 40.0273 5.51077C40.1887 5.77846 40.673 6.18001 40.8345 6.04616C40.9959 5.91231 40.9959 5.64462 40.8345 5.64462C40.673 5.51077 40.5116 5.77846 40.1887 5.37692C40.0273 5.24307 40.0273 4.97538 40.0273 5.10922L40.0273 5.10922L40.0273 5.10922ZM39.9293 5.6C39.7586 5.7 39.9293 5.9 40.1 6C40.2706 6.1 40.2706 6.3 40.4413 6.5C40.4413 6.6 40.7827 6.8 40.7827 6.7C40.9534 6.7 40.7827 6.6 40.7827 6.4C40.7827 6.2 40.4413 6.1 40.2707 5.9C40.1 5.7 40.1 5.5 39.9293 5.6L39.9293 5.6L39.9293 5.6ZM40.3058 6.01365C40.087 5.80566 40.087 5.80566 39.8681 5.70166C39.6492 5.59766 39.4304 5.70166 39.6492 5.80566C39.8681 5.90965 39.8681 6.11765 39.8681 6.32565C39.8681 6.42965 39.8681 6.74165 40.3058 6.63765C40.7436 6.53365 40.5247 6.22165 40.3058 6.01365L40.3058 6.01365L40.3058 6.01365ZM41.9 0C41.9 0 41.9 0.319186 42.0349 0.478776C42.1697 0.797962 42.7093 1.11714 42.8441 0.957552C42.979 0.797959 42.8441 0.478776 42.7093 0.478776C42.5744 0.478776 42.4395 0.638369 42.1697 0.319183C42.0349 0.159593 42.0349 0 41.9 0L41.9 0ZM42.0057 0.5C41.8848 0.611112 42.1266 0.722223 42.2475 0.833333C42.3683 0.944444 42.4892 1.16667 42.6101 1.27778C42.731 1.38889 42.8519 1.5 42.9727 1.5C42.9727 1.38889 42.9727 1.38889 42.8519 1.16667C42.731 1.05556 42.4892 0.944444 42.3683 0.722223C42.1266 0.722223 42.0057 0.5 42.0057 0.5L42.0057 0.5L42.0057 0.5ZM42.3259 1.02679C42.1543 0.915003 42.1543 0.915003 41.9827 0.803213C41.8111 0.691422 41.6395 0.915003 41.9827 1.02679C42.1543 1.13859 42.3259 1.36216 42.3259 1.47396C42.3259 1.58575 42.4975 1.92112 42.6691 1.69754C43.0123 1.47396 42.4975 1.13859 42.3259 1.02679L42.3259 1.02679ZM15.8145 15.5C15.8145 15.5 15.5141 15.5 15.3639 15.6349C15.0635 15.7697 14.7632 16.3093 14.9134 16.4441C15.0635 16.579 15.3639 16.4441 15.3639 16.3093C15.5141 16.1744 15.2137 16.0395 15.5141 15.7697C15.8145 15.6349 15.9647 15.6349 15.8145 15.5L15.8145 15.5L15.8145 15.5ZM15.0706 15.6057C14.9628 15.4848 14.8549 15.7266 14.7471 15.8475C14.6392 15.9683 14.4235 16.0892 14.3157 16.2101C14.2078 16.331 14.1 16.4519 14.1 16.5727C14.2078 16.5727 14.2078 16.5727 14.4235 16.4519C14.5314 16.331 14.6392 16.0892 14.8549 15.9683C14.9628 15.7266 15.1785 15.6057 15.0706 15.6057L15.0706 15.6057L15.0706 15.6057ZM14.64 15.9658C14.7456 15.7816 14.7456 15.7816 14.8511 15.5973C14.9567 15.413 14.7456 15.2288 14.64 15.5973C14.5344 15.7815 14.3233 15.9658 14.2178 15.9658C14.1122 15.9658 13.7956 16.1501 13.9011 16.3343C14.1122 16.5186 14.5344 16.1501 14.64 15.9658L14.64 15.9658ZM10.8801 13.5273C10.8801 13.5273 10.7412 13.3659 10.4634 13.5273C10.1856 13.6887 9.76881 14.173 9.90773 14.3345C10.0466 14.4959 10.3245 14.4959 10.3245 14.3345C10.4634 14.173 10.1856 14.0116 10.6023 13.6887C10.7412 13.6887 10.8801 13.6887 10.8801 13.5273L10.8801 13.5273ZM10.1 13.4293C10 13.2586 9.8 13.4293 9.7 13.6C9.6 13.7707 9.4 13.7707 9.2 13.9413C9.1 13.9413 8.9 14.112 9 14.2827C9 14.4534 9.1 14.2827 9.3 14.2827C9.5 14.2827 9.6 13.9413 9.8 13.7707C10 13.6 10.2 13.6 10.1 13.4293L10.1 13.4293L10.1 13.4293ZM9.7248 14.0434C9.9328 13.7842 9.9328 13.7842 10.0368 13.5251C10.1408 13.2659 10.0368 13.0068 9.9328 13.2659C9.8288 13.5251 9.6208 13.5251 9.4128 13.5251C9.3088 13.5251 8.99681 13.5251 9.1008 14.0434C9.10081 14.3025 9.5168 14.0434 9.7248 14.0434L9.7248 14.0434L9.7248 14.0434ZM1.7 3.9C1.7 3.9 1.58889 3.65 1.36667 3.4C1.14444 3.4 0.7 3.4 0.7 3.9C0.7 4.14999 0.922222 4.4 0.922222 4.4C1.03333 4.4 1.03333 3.9 1.36667 3.9C1.58889 3.9 1.7 4.15 1.7 3.9L1.7 3.9ZM1.2 3.91817C1.2 3.50908 1 3.50908 0.8 3.50908C0.7 3.50908 0.4 3.1 0.3 3.1C0.2 3.1 0 3.1 0 3.1C0 3.50908 0.0999999 3.50908 0.2 3.91818C0.3 4.32727 0.5 3.91818 0.8 3.91818C1.1 3.91817 1.2 4.32727 1.2 3.91817L1.2 3.91817L1.2 3.91817ZM0.969356 3.58453C1.19625 3.58453 1.19625 3.58453 1.3097 3.58453C1.42314 3.58453 1.42314 3.34384 1.19625 3.34384C1.0828 3.34384 0.85591 3.10315 0.742463 2.86246C0.629017 2.62177 0.402123 2.38107 0.402123 2.86246C0.288676 3.34384 0.742463 3.58453 0.969356 3.58453L0.969356 3.58453Z" transform="translate(1.5447905 27.8)" id="Shape" fill="#FFFFFF" fill-rule="evenodd" stroke="none" />
        <path d="M1.64479 0C1.64479 0 2.24479 0.299999 2.54479 1.2C2.74479 1.7 2.74479 2.6 2.74479 2.6C2.74479 2.6 2.94479 3.5 3.84479 3.9C4.74479 4.3 5.14479 3.9 5.24479 3.4C5.24479 2.9 5.04479 2.2 4.54479 1.9C3.94479 1.7 3.64479 2.2 3.84479 2.5C3.84479 2.5 4.14479 2.3 4.24479 2.6C4.34479 2.9 3.84479 3 3.64479 2.6C3.44479 2.2 3.54479 1.8 3.84479 1.7C4.14479 1.6 4.74479 1.8 5.24479 2.4C5.64479 3 5.74479 3.8 5.34479 4.1C4.94479 4.4 3.84479 4.6 2.84479 3.1C2.84479 3.1 2.84479 4 3.64479 4.8C3.64479 4.8 4.04479 4.7 4.54479 5C4.94479 5.2 5.34479 5.5 5.24479 5.8C5.14479 6.1 4.64479 5.9 4.74479 5.70001C4.74479 5.6 4.84479 5.6 4.84479 5.6C4.84479 5.6 4.94479 5.4 4.44479 5.2C3.94479 5 3.74479 5.3 3.74479 5.4C3.74479 5.5 3.84479 6 4.64479 6.3C4.64479 6.3 5.94479 6.4 7.44479 6.5C9.24479 6.7 11.4448 6.90001 11.4448 6.90001L11.5448 7C11.5448 7 10.5448 7 8.64479 6.8C7.24479 6.7 5.74479 6.6 5.24479 6.6C4.84479 6.6 4.24479 6.6 4.24479 6.7C4.24479 6.8 4.44479 7 4.84479 7.2C4.84479 7.2 5.34479 7.2 6.04479 7.6C6.04479 7.6 5.94479 7.3 5.34479 6.9C5.34479 6.9 5.74479 6.9 6.44479 7.7C6.84479 8.2 6.94479 8.7 7.24479 9.1C7.44479 9.4 7.74479 9.5 7.74479 9.5C7.74479 9.5 8.64479 9.40001 10.3448 9.3C12.0448 9.2 13.2448 9 13.2448 9L13.3448 9.1C13.3448 9.1 12.0448 9.3 10.2448 9.5C8.44479 9.7 7.34479 9.8 7.04479 9.8C6.74479 9.8 6.44479 9.9 6.44479 10C6.44479 10.1 6.84479 10.3 7.24479 10.4C7.24479 10.4 8.74479 10.2 10.5448 10C12.5448 9.90001 14.6448 9.6 14.6448 9.6L14.7448 9.7C14.7448 9.7 12.9448 10 10.8448 10.2C9.64479 10.3 8.24479 10.5 8.24479 10.5C8.24479 10.5 9.14479 10.7 8.84479 11.2C8.84479 11.2 9.84479 11.4 9.74479 11.9C9.64479 12.4 8.44479 12.2 8.44479 12.2C8.44479 12.2 8.84479 12.5 9.34479 12.6C9.34479 12.6 11.0448 12 12.7448 11.5C14.3448 11 15.5448 10.7 16.1448 10.5L16.2448 10.5C16.2448 10.5 14.6448 10.9 12.9448 11.5C11.5448 12 10.2448 12.5 10.2448 12.5C10.2448 12.5 11.4448 12.6 11.2448 13.2C11.2448 13.2 12.3448 13.3 12.1448 13.8C12.0448 14.2 10.8448 14.2 10.8448 14.1C10.8448 14.1 11.2448 14.4 12.1448 14.5C12.1448 14.5 12.5448 14.3 13.1448 14.2C13.1448 14.2 12.2448 14.1 12.6448 13.5C13.0448 12.7 14.5448 12.5 16.8448 11.7L16.9448 11.7C16.9448 11.7 15.8448 12.1 14.1448 12.7C12.7448 13.2 12.9448 13.8 13.0448 13.9C13.1448 14 13.3448 14.1 13.5448 14L13.7448 14.1C13.7448 14.1 12.5448 14.3 12.4448 14.7C12.3448 15 13.5448 15 13.5448 15C13.5448 15 13.7448 14.8 14.2448 14.7C14.7448 14.6 14.8448 14.7 14.9448 14.9C15.0448 15.1 14.6448 15.4 14.5448 15.1C14.4448 14.9 14.5448 14.9 14.5448 14.9C14.5448 14.9 14.2448 14.8 14.0448 15.2C13.7448 15.6 13.8448 15.9 14.6448 15.8C14.6448 15.8 14.8448 15.5 15.3448 15.3C15.7448 15.1 16.0448 15.2 16.2448 15.4C16.3448 15.6 15.9448 16 15.7448 15.7C15.6448 15.5 15.9448 15.4 15.9448 15.4C15.9448 15.4 15.8448 15.2 15.4448 15.5C15.1448 15.7 15.0448 16 15.1448 16.1C15.2448 16.2 15.8448 16.4 16.5448 15.8C16.8448 15.5 17.2448 15.5 17.2448 15.5C17.2448 15.5 16.9448 15.7 16.6448 15.9C16.3448 16.2 16.1448 16.4 16.1448 16.4C16.1448 16.5 16.4448 16.4 16.6448 16.3C16.7448 16.2 17.4448 15.7 18.1448 15.1C18.7448 14.6 19.4448 14 20.2448 13.4C21.1448 12.7 21.8448 12 22.2448 11.7L22.3448 11.7C22.3448 11.7 21.6448 12.3 20.3448 13.4C18.9448 14.6 17.9448 15.6 17.3448 16.1C17.3448 16.1 18.5448 15.6 18.8448 16C19.0448 16.2 18.9448 16.6 18.6448 16.9C18.3448 17.2 17.6448 17.4 17.3448 17.1C17.2448 16.9 17.2448 16.8 17.4448 16.7C17.5448 16.6 17.7448 16.7 17.7448 16.7C17.8448 16.8 17.6448 17 17.6448 17C17.6448 17 17.9448 17.2 18.2448 17C18.5448 16.8 18.5448 16.3 18.4448 16.2C18.2448 16.1 17.9448 16 17.0448 16.4C17.0448 16.4 16.2448 17.1 15.1448 17.7C14.5448 18 13.7448 18.2 13.1448 17.9L13.2448 17.8C13.2448 17.8 13.5448 18 14.1448 17.9C14.7448 17.7 14.9448 17.6 16.2448 16.7C16.2448 16.7 15.7448 16.8 15.6448 16.7C15.5448 16.6 15.8448 16.3 15.8448 16.3C15.8448 16.3 15.0448 16.6 14.7448 16.3C14.5448 16.1 14.6448 15.9 14.6448 15.9C14.6448 15.9 13.8448 16.1 13.5448 15.8C13.3448 15.6 13.6448 15.3 13.6448 15.3C13.6448 15.3 12.6448 15.3 12.3448 15.2C12.0448 15.1 12.3448 14.8 12.3448 14.7C12.3448 14.7 11.4448 14.7 10.7448 14.2C10.0448 13.8 9.5448 13.2 9.2448 13C8.8448 12.7 8.8448 12.9 8.6448 12.7C8.6448 12.7 9.1448 12.7 9.3448 12.6C9.3448 12.6 7.7448 12.3 6.6448 10.4C6.6448 10.4 6.8448 10.4 7.1448 10.3C7.1448 10.3 6.2448 10 6.1448 9.7C6.0448 9.60001 6.4448 9.5 6.5448 9.5C6.5448 9.5 5.6448 9.2 5.4448 8.90001C5.2448 8.60001 5.4448 8.40001 5.4448 8.40001C5.4448 8.40001 4.9448 8.2 4.7448 7.80001C4.5448 7.40001 4.9448 7.30001 4.9448 7.20001C4.9448 7.20001 4.1448 6.70001 4.0448 6.50001C3.74479 6.3 4.14479 6.2 4.34479 6.2C4.34479 6.2 3.54479 5.9 3.34479 5.3C3.14479 5 3.54479 4.8 3.54479 4.8C3.54479 4.8 3.04479 4.3 2.64479 3.5C2.64479 3.5 1.54479 3 0.94479 2.5C0.34479 2 -0.15521 1.3 0.04479 0.799999C0.24479 0.299999 0.74479 0.599998 0.94479 0.699999C1.14479 0.799999 1.44479 1.1 1.24479 1.6C1.14479 2 0.74479 1.8 0.64479 1.7C0.544791 1.6 0.44479 1.5 0.544791 1.3C0.64479 1.1 0.944791 1.1 0.944791 1.5C0.944791 1.5 1.14479 1.6 1.14479 1.3C1.14479 1.1 1.04479 0.9 0.84479 0.799999C0.64479 0.699999 0.44479 0.9 0.44479 1.1C0.34479 1.3 0.34479 1.5 0.74479 2C1.14479 2.5 1.74479 2.9 2.64479 3.3C2.64479 3.3 2.44479 2.7 2.44479 2C2.34479 1.3 2.44479 0.399998 1.84479 0.299997L1.64479 0L1.64479 0L1.64479 0ZM9.94479 13.464C10.1448 13.7066 10.2448 13.8279 10.4448 13.9492C11.0448 14.3132 11.6448 13.9492 11.6448 13.5853C11.6448 13.2213 11.0448 13.1 11.0448 13.1C10.7448 13.5853 9.94479 13.464 9.94479 13.464L9.94479 13.464L9.94479 13.464ZM8.94479 12.8753C9.34479 13.1505 9.74479 13.5634 9.74479 13.5634C10.0448 13.701 10.7448 13.4258 10.7448 13.1505C10.7448 12.7376 9.94479 12.6 9.94479 12.6C9.34479 12.7376 8.94479 12.8753 8.94479 12.8753L8.94479 12.8753ZM7.44479 11.2281C7.64479 11.6125 8.04479 11.9969 8.04479 11.9969C8.54479 12.2531 9.14479 11.9969 9.14479 11.6125C9.14479 11.2281 8.54479 11.1 8.54479 11.1C8.34479 11.6125 7.44479 11.2281 7.44479 11.2281L7.44479 11.2281ZM6.84479 10.5353C7.04479 10.9411 7.24479 11.3469 7.24479 11.3469C7.64479 11.4822 8.34479 11.3469 8.34479 11.0764C8.34479 10.6706 7.84479 10.5353 7.84479 10.4L6.84479 10.5353L6.84479 10.5353L6.84479 10.5353ZM6.04479 8.4C5.84479 8.4 5.64479 8.5 5.54479 8.6C5.44479 8.8 5.74479 9.1 6.04479 9.2C6.34479 9.3 6.74479 9.4 6.74479 9.4L7.44479 9.3C6.94479 9.1 6.64479 8.5 6.64479 8.5C6.64479 8.5 6.34479 8.4 6.04479 8.4L6.04479 8.4L6.04479 8.4ZM6.14479 7.61545C5.74479 7.29609 5.04479 7.29609 4.84479 7.509C4.64479 7.93481 5.34479 8.25416 5.34479 8.25416C5.74479 8.04126 6.44479 8.36061 6.44479 8.36061C6.34479 8.04126 6.14479 7.61545 6.14479 7.61545L6.14479 7.61545Z" transform="translate(0 25.599998)" id="Shape" fill="#FFFFFF" fill-rule="evenodd" stroke="none" />
        <path d="M4.5 30.3C4.2 29.7 3.9 29.3 3.7 29.2C3.5 29.1 3 28.9 3.1 29.2C3.2 29.4 3.5 29.3 3.5 29.3C3.9 29.6 3.8 29.9 4.2 30.7C4.4 31.1 4.7 31.4 5 31.5C5.4 31.8 5.7 31.7 5.7 31.7C5.2 31.4 4.8 30.9 4.5 30.3L4.5 30.3L4.5 30.3ZM4.1 30.8035C4.1 30.6186 3.9 30.4336 3.7 30.4336C3.6 30.4336 3.3 30.2487 3.2 30.0637C3.1 29.8788 3 29.8788 3 30.0637C3.1 30.2487 3.2 30.6186 3.4 30.6186C3.5 30.6186 3.8 30.6186 3.9 30.6186C4.1 30.9885 4.1 30.9885 4.1 30.8035L4.1 30.8035ZM10.132 1.7C10.3586 1.7 10.3586 1.58889 10.3586 1.36667C10.3586 1.14444 10.132 0.7 9.67896 0.7C9.45241 0.7 9.22588 0.922222 9.45241 1.03333C9.67896 1.14444 9.9055 1.03333 10.132 1.36667C10.132 1.58889 9.9055 1.7 10.132 1.7L10.132 1.7ZM10.5273 1.2C10.8909 1.2 10.8909 1 10.5273 0.8C10.5273 0.7 10.5273 0.4 10.5273 0.3C10.5273 0.2 10.5273 0 10.1636 0C9.8 0 9.8 0.0999999 9.8 0.3C9.8 0.5 9.8 0.6 10.1636 0.9C10.1636 1 10.1636 1.2 10.5273 1.2L10.5273 1.2ZM10.1 0.808926C10.1 1.0118 10.1 1.0118 10.1 1.11324C10.1 1.21468 10.734 1.21468 10.417 1.0118C10.417 0.910365 10.417 0.606048 10.734 0.504608C11.051 0.403169 11.3679 0.0988513 10.734 0.20029C10.417 0.20029 10.1 0.606047 10.1 0.808926L10.1 0.808926ZM8.1 3.48421C8.3 3.48421 8.3 3.36163 8.3 3.11647C8.3 2.87131 7.9 2.38098 7.5 2.50357C7.3 2.50357 7.3 2.74873 7.3 2.87131C7.5 2.99389 7.7 2.87131 7.9 3.23905C8.1 3.36163 7.9 3.48421 8.1 3.48421L8.1 3.48421L8.1 3.48421ZM8.51818 2.8C8.92727 2.8 8.51818 2.6 8.51818 2.4C8.51818 2.3 8.51818 2 8.51818 1.9C8.51818 1.8 8.10909 1.6 8.10909 1.6C7.7 1.6 7.7 1.7 7.7 1.9C7.7 2.1 8.10909 2.2 8.51818 2.5C8.51818 2.7 8.10909 2.9 8.51818 2.8L8.51818 2.8L8.51818 2.8ZM8 2.4248C8 2.6328 8 2.6328 8.37638 2.7368C8.37638 2.8408 9.12915 2.7368 8.75277 2.6328C8.75277 2.5288 8.75277 2.2168 8.75277 2.1128C9.12916 2.0088 9.12916 1.69681 8.37638 1.8008C8 1.80081 8 2.2168 8 2.4248L8 2.4248ZM2.35556 12.4734C2.35556 12.4734 2.35556 12.1542 2.22123 11.9946C2.0869 11.6754 1.54959 11.3563 1.41526 11.5159C1.28093 11.6754 1.41526 11.9946 1.41526 11.9946C1.68391 11.9946 1.68391 11.835 2.0869 12.1542C2.22123 12.3138 2.22123 12.4734 2.35556 12.4734L2.35556 12.4734L2.35556 12.4734ZM2.36252 11.6706C2.50003 11.5628 2.22502 11.4549 2.08752 11.3471C1.95001 11.2392 1.81251 11.0235 1.67501 10.9157C1.5375 10.8078 1.4 10.7 1.4 10.7C1.4 10.8078 1.4 10.8078 1.4 11.0235C1.5375 11.2392 1.67501 11.3471 1.95001 11.4549C2.08752 11.5628 2.22502 11.7785 2.36252 11.6706L2.36252 11.6706ZM2.19147 11.2257C2.37573 11.3292 2.37573 11.4328 2.55999 11.4328C2.74424 11.5363 2.9285 11.4328 2.55999 11.2257C2.37573 11.1222 2.19147 10.9151 2.19147 10.8116C2.19147 10.6045 2.00722 10.3974 1.82296 10.5009C1.63871 10.708 2.00722 11.0186 2.19147 11.2257L2.19147 11.2257ZM1.25858 17.6236C1.25858 17.6236 1.25858 17.2629 1.02089 17.0826C0.783193 16.9022 0.426653 16.5416 0.307807 16.7219C0.18896 16.9022 0.307806 17.2629 0.426653 17.2629C0.545499 17.2629 0.545499 17.0826 0.902039 17.2629C1.13973 17.4433 1.13973 17.8039 1.25858 17.6236L1.25858 17.6236ZM1 16.9222C1 16.7922 0.888889 16.6623 0.666667 16.5323C0.555556 16.4023 0.333333 16.2724 0.333333 16.1424C0.222222 16.0124 0.111111 15.8824 0 16.0124C0 16.1424 0 16.1424 0.111111 16.4023C0.222222 16.5323 0.444444 16.6623 0.666667 16.7922C0.888889 16.7922 1 17.0522 1 16.9222L1 16.9222L1 16.9222ZM0.815066 16.4021C0.95101 16.5174 1.08695 16.5174 1.2229 16.6327C1.35884 16.6327 1.49479 16.5174 1.2229 16.4021C1.08695 16.4021 0.815066 16.1715 0.815066 15.9409C0.815066 15.8256 0.543178 15.4797 0.407234 15.7103C0.27129 15.9409 0.679122 16.2868 0.815066 16.4021L0.815066 16.4021L0.815066 16.4021Z" transform="translate(0.24479079 3.7999995)" id="Shape" fill="#FFFFFF" fill-rule="evenodd" stroke="none" />
        <path d="M4.40331 12.0235C4.40331 12.2235 5.10331 13.6235 6.0033 15.9235C6.9033 18.1235 7.7033 19.5235 7.60331 19.5235L7.60331 19.6235C7.60331 19.6235 7.0033 18.4235 6.20331 16.7235C5.20331 14.3235 4.70331 13.4235 4.70331 13.5235C4.70331 14.5235 4.1033 14.3235 4.1033 14.3235C4.1033 14.3235 4.40331 15.3235 3.8033 15.4235C3.20331 15.5235 3.0033 14.3235 3.10331 14.3235C2.8033 15.2235 2.90331 15.7235 2.90331 15.7235C3.20331 15.9235 3.30331 16.3235 3.30331 16.3235C3.40331 15.3235 4.20331 15.7235 4.90331 16.7235C5.60331 17.8235 6.40331 19.8235 6.50331 19.7235L6.50331 19.8235C6.1033 19.2235 5.90331 18.8235 5.30331 17.6235C4.7033 16.4235 4.0033 15.8235 3.60331 15.9235C3.20331 16.1235 3.50331 16.7235 3.50331 16.7235L3.50331 16.8235C3.30331 16.3235 2.90331 15.8235 2.60331 15.7235C2.40331 15.7235 2.30331 15.9235 2.40331 16.1235C2.40331 16.4235 2.50331 16.7235 2.50331 16.7235C2.80331 16.8235 3.40331 17.5235 3.20331 17.9235C3.00331 18.3235 2.60331 17.9235 2.8033 17.7235C2.9033 17.5235 3.10331 17.7235 3.10331 17.7235C3.30331 17.3235 2.40331 16.9235 2.20331 17.1235C2.00331 17.4235 2.30331 17.8235 2.30331 17.8235C2.9033 18.1235 3.20331 18.8235 3.0033 19.2235C2.9033 19.5235 2.40331 19.3235 2.5033 19.0235C2.6033 18.7235 2.8033 19.0235 2.8033 19.0235C2.9033 18.6235 2.70331 18.5235 2.40331 18.3235C2.20331 18.2235 1.9033 18.1235 1.9033 18.3235C1.70331 18.9235 2.70331 19.6235 2.70331 19.6235C3.00331 20.0235 2.9033 20.2235 2.9033 20.2235C2.8033 20.0235 2.5033 19.8235 2.30331 19.6235C2.10331 19.4235 1.80331 19.1235 1.70331 19.2235C1.60331 19.4235 2.00331 20.0235 2.00331 20.0235C2.80331 20.7235 3.8033 21.4235 4.90331 22.4235C6.00331 23.4235 7.1033 24.5235 7.1033 24.4235L7.1033 24.5235C7.1033 24.5235 6.0033 23.5235 4.90331 22.5235C3.70331 21.6235 2.50331 20.6235 2.50331 20.6235C2.80331 21.1235 2.80331 21.4235 2.80331 21.6235C2.70331 21.7235 2.40331 22.0235 1.80331 21.6235C1.20331 21.1235 1.30331 20.6235 1.50331 20.4235C1.70331 20.2234 1.90331 20.6235 1.80331 20.7235C1.70331 20.8235 1.60331 20.7235 1.60331 20.7235C1.40331 21.2235 2.30331 21.6235 2.60331 21.3235C2.90331 21.1235 2.30331 20.3235 2.30331 20.3235C1.50331 19.8235 0.803306 18.9235 0.803306 18.9235C-0.396694 17.3235 0.103306 16.6235 0.103306 16.6235L0.203306 16.7235C0.00330567 17.4235 0.503306 18.2235 1.00331 18.8235C1.50331 19.3235 2.00331 19.7235 2.00331 19.7235C1.80331 19.4235 1.60331 18.8235 1.70331 18.7235C1.80331 18.6235 2.10331 18.8235 2.10331 18.8235C2.00331 18.6235 1.80331 18.0235 1.90331 17.8235C2.00331 17.6235 2.30331 17.7235 2.30331 17.7235C2.20331 17.6235 2.00331 16.9235 2.20331 16.7235C2.40331 16.5235 2.70331 16.6235 2.70331 16.6235C2.70331 16.6235 2.60331 16.3235 2.60331 16.0235C2.60331 15.8235 2.50331 15.5235 2.60331 15.4235C2.80331 15.0235 3.10331 15.3235 3.10331 15.3235C2.70331 13.9235 4.00331 12.3235 4.40331 11.7235C4.70331 11.2235 4.60331 11.1235 4.60331 11.1235C4.3033 11.5235 4.3033 11.8235 4.40331 12.0235L4.40331 12.0235L4.40331 12.0235ZM3.62962 13.0235C3.62962 13.0235 3.20857 13.6235 3.10331 13.9235C3.10331 13.9235 3.20857 15.0235 3.84015 14.9235C4.2612 14.9235 4.05067 14.1235 4.05067 14.1235C4.05067 14.1235 3.62962 13.9235 3.62962 13.0235L3.62962 13.0235ZM4.64448 12.8235C4.64448 12.8235 4.40919 12.4235 4.29154 12.0235C4.29154 12.0235 4.17389 12.3235 3.7033 12.7235C3.7033 12.7235 3.82095 13.8235 4.40919 13.7235C4.87978 13.7235 4.64448 12.8235 4.64448 12.8235L4.64448 12.8235ZM18.3033 0.123457C18.9033 0.423457 18.2033 1.42346 17.6033 1.22346C16.9033 1.02346 17.4033 0.423457 17.8033 0.523457C18.1033 0.623456 17.8033 1.02346 17.5033 0.923457C17.5033 0.923457 17.6033 1.02346 17.7033 1.02346C17.9033 1.02346 18.1033 1.02346 18.2033 0.823456C18.4033 0.523457 17.9033 0.123456 17.3033 0.423456C16.7033 0.823456 16.3033 1.12346 15.7033 2.62346C15.7033 2.62346 17.0033 2.42346 17.0033 1.92346L17.1033 1.82346C17.1033 1.82346 17.1033 2.12346 16.6033 2.52346C16.1033 2.92346 15.7033 3.02346 15.7033 3.02346C15.7033 3.02346 15.4033 3.42346 15.1033 4.72346C14.9033 5.52346 14.5033 6.62346 14.2033 7.72346C13.9033 8.82346 13.4033 10.3235 13.4033 10.3235L13.3033 10.4235C13.3033 10.4235 13.6033 9.32345 14.0033 7.82346C14.4033 6.32346 14.7033 5.32346 15.0033 4.22346C15.0033 4.22346 14.7033 4.62346 14.4033 4.72346C14.1033 4.82346 14.0033 4.42346 14.0033 4.42346C14.0033 4.42346 13.8033 5.12345 13.3033 5.32346C13.3033 5.32346 13.4033 5.72346 13.1033 6.32346C12.8033 6.82346 11.9033 7.62346 11.3033 7.32346C10.6033 6.92346 10.7033 5.62346 11.5033 4.62346C11.5033 4.62346 10.4033 5.02346 10.3033 5.82346C10.3033 5.82346 10.5033 6.12346 10.4033 6.52346C10.4033 6.92346 10.2033 7.22346 9.90331 7.32346C9.60331 7.42346 9.50331 6.82346 9.8033 6.82346C10.0033 6.82346 9.90331 7.12346 9.90331 7.12346C9.90331 7.12346 10.3033 6.92346 10.2033 6.52346C10.1033 6.12346 9.80331 5.92346 9.70331 5.92346C9.50331 5.92346 9.30331 6.42346 9.20331 6.82346C9.10331 7.32346 9.30331 7.82346 9.30331 8.22346C9.40331 8.62346 9.40331 9.12346 9.50331 10.9235C9.60331 12.7235 9.70331 14.1235 9.80331 14.6235L9.70331 14.7235C9.70331 14.7235 9.60331 14.1235 9.40331 11.6235C9.3033 9.02345 9.10331 7.62345 9.00331 7.32345C9.00331 6.92346 8.90331 6.62346 8.8033 6.62346C8.7033 6.62346 8.40331 7.12346 8.3033 7.82346C8.3033 7.82346 8.50331 8.82346 8.7033 10.3235C8.90331 11.9235 9.00331 13.6235 9.00331 13.6235L9.00331 13.7235C9.00331 13.7235 8.7033 11.6235 8.60331 10.4235C8.40331 9.22346 8.3033 8.62346 8.3033 8.62346C8.3033 8.62346 8.10331 9.42346 7.60331 9.32346C7.10331 9.32346 7.10331 8.62346 7.30331 8.02346C7.30331 8.02346 6.90331 8.32346 6.80331 8.82346C6.80331 8.82346 7.2033 9.72346 7.50331 11.0235C7.80331 12.3235 8.00331 13.6235 8.10331 14.1235L8.10331 14.2235C8.10331 14.2235 8.00331 13.6235 7.60331 12.1235C7.20331 10.5235 7.10331 10.2235 7.10331 10.2235C7.10331 10.2235 6.90331 10.7235 6.60331 10.4235C6.10331 10.1235 5.70331 9.62346 5.60331 10.1235L5.60331 10.4235C5.60331 10.4235 5.90331 10.5235 6.00331 11.1235C6.10331 11.7235 5.60331 12.4235 5.4033 11.9235C5.3033 11.6235 5.6033 11.4235 5.7033 11.8235C5.7033 11.8235 6.00331 11.5235 5.80331 11.2235C5.60331 10.8235 5.30331 10.7235 5.2033 10.7235C5.0033 10.8235 4.9033 11.2235 5.1033 11.8235C5.2033 12.3235 5.5033 12.5235 5.3033 12.9235C5.3033 12.9235 5.3033 12.7235 4.9033 12.2235C4.6033 11.7235 3.9033 10.5235 3.9033 9.52346C3.8033 8.52346 4.3033 6.92346 4.9033 6.72346L4.9033 6.92346C4.9033 6.92346 4.3033 7.32346 4.2033 8.52346C4.1033 9.32346 4.1033 9.92346 5.1033 11.7235C5.1033 11.7235 4.9033 10.6235 5.3033 10.3235C5.5033 10.2235 5.7033 10.4235 5.7033 10.4235C5.7033 10.4235 5.8033 9.62346 5.9033 9.52346C6.1033 9.32346 6.8033 10.3235 7.0033 10.2235C7.1033 10.2235 7.1033 9.92346 7.1033 9.92346C7.1033 9.92346 6.9033 8.92346 6.6033 9.02346C6.20331 9.02346 6.10331 9.62346 6.10331 9.62346C6.10331 9.42346 6.10331 9.32346 6.10331 9.12346C6.10331 8.92346 6.20331 8.82346 6.40331 8.62346C6.60331 8.42346 6.70331 8.82346 6.70331 8.82346C6.70331 8.82346 6.70331 8.12346 7.30331 7.62346C7.90331 7.12346 8.00331 7.02346 8.10331 6.82346C8.10331 6.82346 8.00331 7.12346 8.10331 7.32346C8.10331 7.52346 8.20331 7.72346 8.20331 7.72346C8.20331 7.72346 8.40331 6.62346 8.90331 6.22346C9.00331 6.12346 9.10331 6.82346 9.10331 6.82346C9.10331 6.82346 9.20331 5.92346 9.80331 5.62346C10.0033 5.52346 10.2033 5.82346 10.2033 5.82346C10.2033 5.82346 10.4033 5.12346 11.3033 4.62346C11.3033 4.62346 11.4033 3.82346 11.9033 2.82346C12.4033 1.92346 13.0033 1.42346 13.5033 1.52346C14.0033 1.62346 13.8033 2.22346 13.7033 2.32346C13.6033 2.52346 13.2033 2.92346 12.9033 2.82346C12.6033 2.82346 12.6033 2.42346 12.7033 2.22346C12.9033 1.92346 13.4033 1.92346 13.3033 2.22346C13.2033 2.42346 12.9033 2.42346 12.9033 2.32346C12.9033 2.32346 12.8033 2.62346 13.2033 2.52346C13.6033 2.42346 13.6033 2.22346 13.7033 2.12346C13.7033 2.02346 13.6033 1.82346 13.4033 1.72346C13.1033 1.72346 12.6033 1.92346 12.2033 2.72346C11.7033 3.52346 11.7033 4.02346 11.6033 4.42346C11.6033 4.42346 12.1033 4.22346 12.6033 4.02346C13.0033 3.92346 13.4033 3.82346 13.4033 3.52346L13.6033 3.22346C13.6033 3.22346 13.7033 3.52346 13.3033 3.92346C12.8033 4.42346 12.1033 4.52346 12.1033 4.52346C12.1033 4.52346 11.3033 5.02346 11.2033 5.92345C11.1033 6.82345 11.7033 7.22346 12.4033 6.82345C13.1033 6.42345 13.4033 5.92345 13.3033 5.42345C13.3033 5.42345 13.0033 5.62345 12.8033 5.52345C12.6033 5.42345 12.5033 5.32345 12.5033 5.12345C12.6033 4.82345 13.3033 4.72345 13.4033 5.22345C13.4033 5.22345 13.7033 5.02345 14.0033 4.52345C14.1033 3.92346 14.1033 3.72346 14.3033 3.42346C14.3033 3.42346 13.6033 3.62346 13.1033 4.42346C13.1033 4.42346 13.1033 3.62346 14.7033 2.82346C14.8033 2.42346 15.0033 2.02346 15.1033 1.62346C15.3033 1.02346 16.2033 0.223457 16.7033 0.423457C16.8033 0.423457 17.6033 -0.276543 18.3033 0.123457L18.3033 0.123457L18.3033 0.123457ZM13.0033 5.02346C12.67 5.02346 12.5033 5.02346 12.5033 5.35679C12.5033 5.69012 12.67 6.02346 13.0033 6.02346C13.3366 6.02346 13.5033 6.02346 13.5033 5.69012C13.5033 6.02346 13.5033 5.35679 13.0033 5.02346L13.0033 5.02346ZM8.089 7.42346C7.86414 7.62346 7.63928 7.72346 7.41442 7.92346C7.30199 8.12346 7.18956 8.82346 7.63928 9.02346C8.089 9.22346 8.31386 8.42346 8.31386 8.42346L8.089 7.42346L8.089 7.42346L8.089 7.42346ZM15.5033 3.02346C15.5033 3.02346 15.2033 3.12346 15.1033 3.12346C14.9033 3.12346 14.6033 3.32346 14.6033 3.22346C14.6033 3.22346 14.1033 3.82346 14.4033 4.12346C14.7033 4.52346 15.1033 3.92346 15.1033 3.92346C15.3033 3.32346 15.5033 3.02346 15.5033 3.02346L15.5033 3.02346L15.5033 3.02346ZM15.4033 2.72346C16.1033 1.22346 16.5033 0.823457 16.5033 0.823457C16.1033 0.723457 15.5033 1.22346 15.3033 1.62346C15.1033 2.12346 14.9033 2.82346 14.9033 2.82346C15.1033 2.72346 15.4033 2.72346 15.4033 2.72346L15.4033 2.72346L15.4033 2.72346Z" transform="translate(0.74148536 0.17654324)" id="Shape" fill="#FFFFFF" fill-rule="evenodd" stroke="none" />
        <path d="M0.453083 3.7C0.226542 3.7 0 4.15308 0 4.37962C0 4.60616 0.226542 4.8327 0.679621 4.60616C0.906163 4.60616 1.1327 4.15308 0.906163 3.92654C0.906163 3.92654 0.906163 3.7 0.453083 3.7L0.453083 3.7L0.453083 3.7ZM5.84436 1.372C5.84436 1.372 6.25858 1.372 6.46568 1.13045C6.67279 0.888908 6.8799 0.405816 6.67279 0.405816C6.46568 0.285043 6.05147 0.526589 6.05147 0.526589C6.05147 0.647362 6.25858 0.647362 6.05147 1.00968C5.84436 1.25123 5.63726 1.372 5.84436 1.372L5.84436 1.372L5.84436 1.372ZM6.2 1C6.33488 1 6.46975 0.8 6.60463 0.7C6.7395 0.6 6.87438 0.4 7.00926 0.3C7.14413 0.2 7.27901 0 7.14413 0C7.00926 0 7.00926 0 6.7395 0.0999999C6.60463 0.2 6.46975 0.4 6.33488 0.6C6.33488 0.9 6.2 1 6.2 1L6.2 1L6.2 1ZM6.6375 0.940403C6.5 1.22812 6.5 1.22812 6.5 1.37198C6.5 1.51584 6.6375 1.51584 6.77501 1.37198C6.77501 1.22812 7.05001 0.940403 7.18752 0.940403C7.32502 0.940403 7.60003 0.652686 7.46252 0.508827C7.18752 0.364968 6.77501 0.796545 6.6375 0.940403L6.6375 0.940403L6.6375 0.940403ZM26.3 16.5735C26.3 16.5735 26.4111 16.8469 26.6333 17.1204C26.8556 17.3938 27.3 17.3938 27.3 16.8469C27.3 16.5735 27.0778 16.3 27.0778 16.3C26.9667 16.3 26.9667 16.8469 26.6333 16.5735C26.5222 16.8469 26.4111 16.5735 26.3 16.5735L26.3 16.5735ZM26.7 16.8277C26.7 17.0265 26.9 17.0265 27 17.2253C27.1 17.2253 27.3 17.4241 27.5 17.6229C27.6 17.8217 27.8 17.8217 27.8 17.6229C27.8 17.4241 27.7 17.4241 27.6 17.2253C27.5 17.0265 27.3 17.0265 27 17.0265C26.8 17.0265 26.7 16.6289 26.7 16.8277L26.7 16.8277L26.7 16.8277ZM27.0567 17.1708C26.8257 17.1708 26.8257 17 26.7102 17C26.5947 17 26.5947 17.1708 26.8257 17.3415C26.9412 17.3415 27.1723 17.5123 27.2878 17.6831C27.4033 17.8539 27.6343 18.1954 27.6343 17.8539C27.6343 17.6831 27.2878 17.3415 27.0567 17.1708L27.0567 17.1708L27.0567 17.1708ZM12.5 4.5C11.9 4.5 12 4.1 12.1 4C12.2 3.9 12.3 3.9 12.4 4C12.5 4.1 12.5 4.3 12.3 4.3C12.3 4.3 12.6 4.5 13 4.1C13.2 3.9 13.4 3.5 13.2 3.4C13 3.3 12.6 3.4 12.1 3.6C12.1 3.6 11.5 4.2 11.1 4.1C11.1 4.1 11.4 3.9 11.7 3.6C12 3.3 12.1 3.1 12.1 3C12.1 2.9 11.5 3 11 3.1C11 3.1 10.7 3.3 10.4 3.5C10.4 3.5 10.9 3.7 11.3 3.6C11.3 3.6 10.7 4 9.5 3.7C8.3 3.4 8 3.5 7.8 3.6C7.8 3.6 6.8 4.7 5.8 5.8C4.8 6.9 3.4 8.2 3.4 8.2L3.3 8.2C3.3 8.2 4.3 7.2 5.6 5.8C6.8 4.4 8.1 2.9 8.2 2.8C8.3 2.7 8.5 2.4 8.5 2.3C8.4 2.3 8.1 2.4 7.7 2.6C7.7 2.6 6.6 3.8 5.8 4.7C4.9 5.6 3.5 6.7 3.5 6.7L3.4 6.7C3.4 6.7 4.7 5.6 5.6 4.6C6.3 3.8 6.7 3.2 6.7 3.2C6.7 3.2 5.8 3.7 5.7 3C5.7 3 4.7 3.8 4.4 3.3C4.1 2.8 5.1 2.1 5.1 2.1C5.1 2.1 4.6 1.9 3.2 2.7C3.2 2.7 4 1.8 5.7 1.8C7.1 1.8 7 2.1 7.8 2C7.8 2 8.40001 1.2 9.40001 0.7C10.4 0.2 10.9 0.2 11.1 0.4L10.9 0.5C10.9 0.5 10.6 0.2 9.60001 0.8C9 1.2 8 2.3 8 2.3C8 2.3 8.8 1.9 9.1 2.1C9.2 2.2 8.9 2.5 8.9 2.5C8.9 2.5 9.7 2.1 10.1 2.2C10.4 2.3 10.3 2.5 10.3 2.5C10.3 2.5 11.1 2.3 11.4 2.5C11.7 2.7 11.4 3 11.4 3L12 2.9C12 2.9 13.2 1.9 13.9 1.8C14.6 1.6 15.5 1.6 15.6 2.3C15.6 3 14.6 3.1 14.3 2.6C14.1 2 15 1.8 15.1 2.2C15.2 2.5 14.7 2.5 14.6 2.3C14.6 2.3 14.5 2.4 14.6 2.6C14.7 2.8 14.9 2.8 15.1 2.7C15.3 2.7 15.4 2.4 15.3 2.2C15.1 1.7 14.2 1.8 14 1.9C13.7 2 12.9 2.3 12.3 2.8C12.3 2.8 12.6 2.8 12.7 2.9C12.8 3 12.4 3.3 12.4 3.3C12.4 3.3 13.4 2.9 13.7 3.3C14 3.7 13.1 4.5 12.5 4.5L12.5 4.5L12.5 4.5ZM6.4 2.1C6.1 2.1 5.5 2 5.5 2C5.5 2 4.6 2.5 4.9 2.9C5.1 3.3 5.8 2.8 5.8 2.8C5.9 2.4 6.4 2.1 6.4 2.1L6.4 2.1L6.4 2.1ZM7.7 2.1C7.3 2.20843 6.6 2.1 6.6 2.1C6.6 2.1 5.9 2.53374 6.1 2.85904C6.4 3.40121 7.1 2.85904 7.1 2.85904C7.3 2.64217 7.5 2.31687 7.7 2.1L7.7 2.1ZM9.8 2.5C9.5 2.1 8.6 2.8 8.6 2.8L8 3.4C8.4 3.2 9.2 3.3 9.2 3.3C9.2 3.3 10 2.8 9.8 2.5L9.8 2.5L9.8 2.5ZM10.3 3.56667C10.6 3.45952 11.1 2.92381 11 2.70952C10.8 2.38809 10.2 2.70952 10.2 2.70952C10.1 3.03095 9.4 3.35238 9.4 3.35238C9.6 3.45952 10.3 3.56667 10.3 3.56667L10.3 3.56667L10.3 3.56667Z" transform="translate(16.844791 0)" id="Shape" fill="#FFFFFF" fill-rule="evenodd" stroke="none" />
        <path d="M1.76423 2.79657C1.46423 2.19657 0.764229 2.69657 0.864227 2.89657C0.964226 3.19657 1.26423 2.99657 1.26423 2.79657C1.26423 2.69657 1.06423 2.69657 1.06423 2.69657C1.36423 2.39657 1.76423 3.09657 1.26423 3.29657C0.764229 3.49657 0.0642281 2.89657 0.364227 2.29657C0.764229 1.79657 2.26423 1.79657 2.26423 1.79657L2.36423 1.69657C2.16423 1.69657 1.46423 1.79657 1.36423 1.49657C1.26423 1.29657 1.86423 0.696574 2.66423 0.396574C4.46423 -0.203426 5.16423 0.0965743 5.16423 0.0965743L5.36423 0.0965743C5.16423 -0.103426 3.16423 -0.0034256 2.16423 0.496574C1.66423 0.696574 1.46423 0.996574 1.26423 1.19657C0.764229 1.69657 1.26423 1.79657 1.26423 1.79657C0.764229 1.89657 -0.435772 2.39657 0.16423 3.09657C0.46423 3.49657 0.96423 3.59657 1.36423 3.49657C1.66423 3.29657 1.96423 2.99657 1.76423 2.79657L1.76423 2.79657L1.76423 2.79657Z" transform="translate(29.380562 3.0034258)" id="Shape" fill="#FFFFFF" fill-rule="evenodd" stroke="none" />
        <path d="M6.8 8.9C5.7 8.8 5 8.8 4.3 8.6L4.2 8.5C4.2 8.5 5 8.7 6.6 8.7C8.2 8.7 9.2 8.6 9.4 8.6C9.6 8.6 9.9 8.5 9.9 8.4C9.9 8.3 9.4 8 9 7.9C9 7.9 7.8 8 6.7 7.8C5.5 7.6 4.8 7.5 4.2 7.3L4.2 7.4C4.2 7.4 5.2 7.7 6.6 7.8C7.4 7.9 8.1 7.8 8.1 7.8C8.1 7.8 7.6 7.4 8 7.1C8.4 6.8 8.9 6.6 8.5 6.4C8.2 6.2 7.9 6.1 7.9 6.1C7.9 6.1 6.5 6.3 5 6.4C3.4 6.5 1.6 6.6 0.700001 6.6L0.499996 6.4C0.499996 6.4 1.7 6.4 3.59999 6.2C5.39999 6.1 7 5.9 7 5.9C7 5.9 6 5.5 6.2 5C6.4 4.5 7.5 4.8 7.5 4.8C7.5 4.8 7.09999 4.3 6.5 4.2C6.5 4.2 6 4.4 5.7 4.4C5.4 4.4 5.1 4.3 4.9 4.1C4.9 4.1 5.4 4.2 5.8 4.1C6.1 4 6.6 3.9 6.6 3.8C6.6 3.6 5.8 3.5 5.8 3.5C5.8 3.5 4.6 3.9 3.8 4.1C3 4.3 2.1 4.6 1.5 4.7C0.900002 4.8 0.0999985 5 0.0999985 5L0 4.9C0 4.9 1 4.7 1.8 4.4C2.6 4.1 4.2 3.6 4.9 3.4C4.9 3.4 3.7 3.3 3.8 2.7C3.8 2.7 3.1 2.6 2.4 2.1C1.7 1.5 0.899998 1.1 0.199997 1C0.199997 1 0.499996 1 0.799995 0.8C1.3 0.6 1.7 0.4 1.8 0.3C1.89999 0.0999999 1.09999 0.0999999 1.09999 0.0999999L1.19999 0C1.19999 0 2.09999 0 2.19999 0.2C2.29999 0.3 1.79999 0.5 1.79999 0.5C1.79999 0.5 2.19999 0.4 2.49999 0.5C2.49999 0.5 4.29999 0 5.09999 0.0999999C5.89999 0.2 6.49999 0.5 6.49999 1C6.49999 1.5 5.99999 1.5 5.79999 1.5C5.49999 1.5 5.19999 1.3 5.09999 0.9C4.99999 0.5 5.69999 0.3 5.79999 0.7C5.89999 1 5.39999 1 5.39999 0.8C5.39999 0.8 5.29999 0.9 5.49999 1.1C5.7 1.4 6.1 1.4 6 0.9C5.9 0.499999 5.09999 0.3 4.8 0.2C4.5 0.2 3.8 0.0999999 2.7 0.5C2.7 0.5 3.2 0.6 2.9 1C2.9 1 4 0.9 3.9 1.5C3.9 1.9 3.4 2 3.2 2C3.1 2 2.5 2.1 2.5 2.1C2.5 2.1 3 2.7 3.5 2.6C3.5 2.6 3.7 2.2 4.4 2.1C4.8 2.1 5.3 2.3 5.3 2.5C5.3 2.6 5.3 2.8 5.1 2.9C4.7 3 4.7 2.5 5 2.5C5 2.5 4.8 2.2 4.4 2.3C4.1 2.4 3.9 2.7 3.9 2.9C3.9 3.1 4.2 3.3 4.8 3.3C4.8 3.3 6 3 6.6 3C7.2 2.9 8.6 3 9.2 3.7L9.1 3.7C9.1 3.7 8.8 3.3 7.7 3.2C7.1 3 5.9 3.4 5.9 3.4C5.9 3.4 7 3.7 7 4C7 4.1 6.59999 4.2 6.59999 4.2C6.59999 4.2 7.39999 4.3 7.89999 5C8.39999 5.7 8.59999 5.9 8.69999 6C8.69999 6 8.49999 5.9 8.19999 6C8.19999 6 8.99999 6.4 9.09999 6.6C9.19999 6.8 8.89999 6.9 8.89999 6.9C8.89999 6.9 9.59999 7.2 9.8 7.7C9.89999 8 9.3 8 9.39999 8C9.39999 8 10.4 8.5 10.4 8.7C10.4 8.9 9.8 8.9 9.8 8.9C9.8 8.9 11 9.4 11 10C10.9 10.6 9.7 10 9.7 10C9.7 10 9.7 10.4 10.3 10.8C10.3 10.8 9.89999 10.7 9.5 10.2C9.09999 9.7 9.3 9.6 8.8 9C8.7 8.9 7.9 9 6.8 8.9L6.8 8.9L6.8 8.9ZM2.6 0.744166C2.2 0.215682 0.799999 1.00841 0.799999 1.00841C1.3 1.14053 1.8 1.53689 1.8 1.53689C2.1 1.66901 2.9 1.27265 2.6 0.744166L2.6 0.744166L2.6 0.744166ZM3.7 1.44871C3.5 1.08106 2.9 1.20361 2.9 1.20361C2.6 1.57125 2 1.57125 2 1.57125C2.2 1.81635 2.59999 2.184 2.59999 2.184C3 2.184 3.8 1.9389 3.7 1.44871L3.7 1.44871ZM8.1 5.74342C7.9 5.42812 7.6 5.00772 7.6 5.00772C7.6 5.00772 6.8 4.58733 6.6 5.11282C6.3 5.53322 7.3 5.84852 7.3 5.84852L8.1 5.74342L8.1 5.74342L8.1 5.74342ZM9.3 7.51644C9.2 7.14657 8.7 6.9 8.7 6.9C8.7 6.9 8.6 6.9 8.2 7.26986C7.8 7.63973 8.3 7.8863 8.3 7.8863C8.3 7.8863 9.4 8.00959 9.3 7.51644L9.3 7.51644L9.3 7.51644ZM10.2 9.31026C9.6 8.9 8.9 8.9 8.9 8.9C9.4 9.31026 9.5 9.82308 9.5 9.82308C9.8 9.92564 10.3 9.92564 10.5 9.82308C10.6 9.72051 10.5 9.51538 10.2 9.31026L10.2 9.31026Z" transform="translate(30.944794 4.4000006)" id="Shape" fill="#FFFFFF" fill-rule="evenodd" stroke="none" />
        <path d="M2.5 1C2.7 1 3.1 1 3.3 0.666666C3.5 0.666666 3.3 0 3.1 0C2.9 0 2.7 0.333334 2.5 0.333334C2.3 0.333334 2.2 0.333334 2.2 0.333334C2.2 1 2.3 1 2.5 1L2.5 1L2.5 1ZM4.6 1.6C4.4 1.6 4.2 2.1 4 2.1C3.8 2.1 3.7 1.6 3.7 2.1C3.7 2.6 3.8 2.6 4 2.6C4.2 2.6 4.6 2.6 4.8 2.6C5 2.6 4.8 1.6 4.6 1.6L4.6 1.6L4.6 1.6ZM7.7 7.60448C7.8 7.78918 8.3 7.97388 8.5 8.15858C8.7 8.15858 8.6 7.78918 8.4 7.60448C8.2 7.41978 8 7.41978 7.8 7.41978C7.6 7.23508 7.5 7.05039 7.5 7.23508C7.5 7.41978 7.6 7.41978 7.7 7.60448L7.7 7.60448L7.7 7.60448ZM7.3 7.8C7.6 8.7 8.1 8.4 8.1 8.4C7.9 8.4 7.6 8.1 7.5 7.6C7.40001 7.2 7.1 6.6 6.8 6.3C6.4 6 6.1 6 6.1 6C6.9 6.2 7.1 7 7.3 7.8L7.3 7.8ZM10.2 15.5C10.4 15.2 9.7 14.5 9.4 15.2C9.2 15.6 9.4 15.9 9.7 16.1C10 16.3 10.3 16.4 10.5 16.1C10.9 15.4 10.3 14.5 9.7 13.9C9.1 13.3 8.4 12.7 8.4 12.7C8.2 11.6 7.4 10.7 7.4 10.7C7.4 10.7 8 10.7 7.8 10.1C7.5 9.5 6.8 9.1 6.8 9.1C6.8 9.1 7.7 9.3 7.3 8.7C6.8 8.1 6.5 8 6.5 8C6.5 8 7.1 8.5 7.1 8.6C7.1 8.8 6.7 8.7 6.4 8.7C6.1 8.7 5.5 8.6 3.5 8.3C1.5 8 0 7.7 0 7.7L0.0999985 7.8C1.3 8.1 2.2 8.1 3.4 8.4C4.6 8.7 6.5 8.9 6.5 8.9C6.7 9 7.09999 9.2 7.4 9.6C7.7 10 7.4 10.3 6.8 10.2C6.3 10.1 6.3 9.6 6.3 9.6C6.4 9.8 6.7 9.7 6.6 9.4C6.5 9.1 5.9 9.2 6.2 9.8C6.5 10.4 7.3 10.5 7.3 10.5C8.3 11.7 8.09999 12.9 8.09999 12.9C7.5 11.5 6.19999 10.9 5.69999 11.7C5.39999 12.1 5.39999 12.6 5.49999 13.1C5.59999 13.6 5.69999 13.7 5.89999 14.1C6.39999 15 7.59999 15 7.39999 14.1C7.19999 13.2 6.39999 13.4 6.49999 13.9C6.59999 14.4 6.89999 14.2 6.89999 14C6.89999 13.8 6.69999 13.8 6.69999 13.8C6.69999 13.6 6.89999 13.7 6.89999 13.7C7.39999 13.9 7.3 14.6 6.89999 14.7C6.49999 14.8 5.79999 14.1 5.79999 13.4C5.79999 12.6 6 11.6 6.79999 11.8C7.59999 12 8.09999 13.4 8.09999 13.5C8 14.2 7.89999 14.5 8.19999 15.1C8.39999 15.7 8.89999 16 8.89999 16L8.8 15.6C8.2 15.3 8.3 14.7 8.39999 14.2C8.49999 13.6 8.49999 12.9 8.49999 12.9C9.19999 13.3 9.39999 13.5 9.99999 14.3C10.6 15.1 10.5 15.5 10.4 15.7C10.3 15.9 9.99999 16 9.89999 15.8C9.69999 15.6 9.69999 15.5 9.8 15.3C9.89999 15.1 10.1 15.1 10.1 15.1C9.7 15.5 10.1 15.8 10.2 15.5L10.2 15.5L10.2 15.5Z" transform="translate(34.94479 6.5)" id="Shape" fill="#FFFFFF" fill-rule="evenodd" stroke="none" />
      </g>
    </g>
  </g>
  <g id="Type-something" transform="translate(63.5 8)">
    <g id="L" fill="#FFFFFF">
      <path d="M20.54 25.922Q20.54 26.522 18.02 27.102Q16.02 27.582 15.4 27.582L5.16 27.582Q4.48 27.582 4.12 26.742Q3.84 26.102 3.84 25.322L3.84 15.842Q3.84 15.722 3.92 15.382Q4 15.042 4 14.962Q4.02 14.782 3.98 14.462Q3.94 14.062 3.94 13.982L3.94 11.322Q3.94 11.342 3.97 10.262Q3.985 9.08195 4 8.20195Q4.02 6.92195 3.98 6.22195Q3.96031 5.66195 3.38313 5.34195Q2.94531 5.10196 1.73125 5.04195Q0.616875 4.98195 0.02 4.52195L0.02 4.06195L7.06 4.06195Q8.1 4.06195 8.26 5.46195L8.46 24.942Q8.46 25.162 8.74 25.462Q8.96 25.702 9.62 25.762Q10.06 25.782 10.52 25.802Q12.68 26.042 14.98 26.042Q16.46 26.042 17.42 25.922Q17.86 25.862 18.88 25.622Q19.82 25.382 19.92 25.382Q20.1 25.382 20.54 25.582L20.54 25.922Z" />
    </g>
    <g id="O" fill="#FFFFFF">
      <path d="M41.56 18.302Q41.56 19.162 41.36 20.282Q41.14 21.502 40.84 22.002C38.48 25.922 34.9267 27.882 30.18 27.882Q26.88 27.882 24.56 26.482Q22.16 25.022 21 22.222Q20.74 21.682 20.36 20.582Q20.1 19.542 20.1 18.502Q20.1 16.942 20.62 15.232Q21.14 13.522 21.98 12.402Q23.62 10.202 26.38 9.22195Q27.26 8.90195 28.9 8.60195Q30.7 8.26195 31.8 8.26195Q35.86 8.26195 38.76 11.382Q41.56 14.382 41.56 18.302ZM37.72 19.882Q37.72 18.442 37.7 18.342Q36.92 15.442 36 13.862Q34.62 11.422 32.28 10.342Q31.14 9.80195 30.14 9.80195Q28.24 9.80195 26.66 10.962Q24.86 12.262 24.2 14.622Q24.04 14.922 23.88 15.402Q23.88 15.802 23.84 16.482Q23.72 17.482 23.72 17.262Q23.72 18.202 23.96 19.042Q24.06 19.282 24.2 19.662Q24.92 22.642 27.2 24.582Q29.36 26.422 31.74 26.422Q33.38 26.422 34.58 25.702Q35.98 24.882 37.1 22.922Q37.62 22.022 37.7 21.442Q37.72 21.222 37.72 19.882Z" />
    </g>
    <g id="T" fill="#FFFFFF">
      <path d="M61.36 9.34195Q61.36 9.66195 60.89 10.012Q60.42 10.362 60.06 10.442Q58.76 10.682 56.98 10.742Q56.82 10.742 56.3 10.792Q55.78 10.842 55.7 10.842L53.66 10.842Q53.8 10.842 52.52 11.142Q52.34 11.182 52.14 11.382Q51.94 11.582 51.94 12.822L51.94 24.002Q51.94 24.242 52.42 24.402Q52.74 24.502 53.06 24.582Q53.34 24.722 53.34 24.982Q53.34 25.182 52.52 25.842Q51.78 26.442 50.82 26.942C50.1 27.3153 49.5333 27.502 49.12 27.502C49 27.502 48.8767 27.4553 48.75 27.362Q48.56 27.222 48.54 27.142Q48.42 26.302 48.2 24.602Q48.06 22.882 48.06 20.502L48.06 13.762Q48.06 13.682 48.15 13.232Q48.24 12.782 48.24 12.482Q48.24 12.202 48.16 11.962Q48 11.362 47.36 11.222Q47.18 11.182 46.28 11.182Q45.16 11.182 42.68 11.542Q42.62 11.562 42.34 11.642Q42.06 11.722 41.84 11.722Q41.24 11.722 41.24 11.422Q41.24 11.122 42.12 10.622Q42.72 10.282 43.14 10.142Q44.9 9.52195 45.94 9.34195Q46.96 9.22195 48.96 8.98195L58.86 9.04195Q60.1 8.90195 60.62 8.90195Q61.36 8.90195 61.36 9.34195Z" />
    </g>
    <g id="R" fill="#FFFFFF">
      <path d="M82.3 26.222Q82.14 26.502 80.44 27.082Q78.74 27.662 78.02 27.662Q77.2 27.662 75.18 26.022Q73.56 24.702 71.82 22.902Q70.2 21.202 70.2 20.942Q70.2 20.582 72.02 19.362Q74.52 17.662 75.4 16.902Q77.22 15.322 77.24 14.102Q77.26 13.102 76.6212 12.102Q75.8628 10.922 74.765 10.962Q73.3481 11.022 71.5716 12.3004Q69.975 13.4391 68.7675 15.0171Q67.56 16.5951 67.56 17.5741L67.56 23.8266Q67.56 23.9066 67.62 24.1563Q67.68 24.406 67.68 24.4857L67.68 26.7432Q67.68 27.702 64.84 27.702Q63.3 27.702 62.88 27.3623Q62.88 27.2026 63.15 26.7929Q63.42 26.3832 63.46 26.2635Q63.68 25.4245 63.76 24.4254Q63.86 23.087 63.88 22.947L63.94 10.9995Q63.88 10.3401 63.46 10.0404Q63.26 9.9007 62.6 9.70102Q62.04 9.54102 61.82 9.28133Q62.06 8.70195 63.54 8.70195Q63.64 8.70195 64.3 8.77195Q64.96 8.84195 65.04 8.84195Q65.12 8.84195 65.29 8.91195Q65.46 8.98195 65.54 8.98195Q66.38 8.98195 66.6 9.18195Q66.94 9.66195 67.28 10.142Q67.34 10.582 67.34 10.582Q67.4 10.822 67.38 10.862Q67.32 10.982 67.32 10.982Q67.32 11.002 67.49 12.072Q67.66 13.142 67.62 13.582Q67.96 13.962 68.08 13.962Q68 13.962 69.26 12.642Q70.7 11.102 72.28 10.162Q74.5 8.84195 76.82 8.84195Q78.38 8.84195 79.32 10.182Q80.1 11.322 80.1 12.762Q80.1 14.422 78.56 16.162Q77.58 17.262 75.68 18.642Q74.12 19.782 74.12 19.942Q74.12 20.322 76.64 22.642Q78.94 24.762 80.16 25.662Q80.36 25.802 81.16 25.822Q81.9 25.842 82.3 26.222Z" />
    </g>
    <g id="O" fill="#FFFFFF">
      <path d="M103.6 18.302Q103.6 19.162 103.4 20.282Q103.18 21.502 102.88 22.002C100.52 25.922 96.9667 27.882 92.22 27.882Q88.92 27.882 86.6 26.482Q84.2 25.022 83.04 22.222Q82.78 21.682 82.4 20.582Q82.14 19.542 82.14 18.502Q82.14 16.942 82.66 15.232Q83.18 13.522 84.02 12.402Q85.66 10.202 88.42 9.22195Q89.3 8.90195 90.94 8.60195Q92.74 8.26195 93.84 8.26195Q97.9 8.26195 100.8 11.382Q103.6 14.382 103.6 18.302ZM99.76 19.882Q99.76 18.442 99.74 18.342Q98.96 15.442 98.04 13.862Q96.66 11.422 94.32 10.342Q93.18 9.80195 92.18 9.80195Q90.28 9.80195 88.7 10.962Q86.9 12.262 86.24 14.622Q86.08 14.922 85.92 15.402Q85.92 15.802 85.88 16.482Q85.76 17.482 85.76 17.262Q85.76 18.202 86 19.042Q86.1 19.282 86.24 19.662Q86.96 22.642 89.24 24.582Q91.4 26.422 93.78 26.422Q95.42 26.422 96.62 25.702Q98.02 24.882 99.14 22.922Q99.66 22.022 99.74 21.442Q99.76 21.222 99.76 19.882Z" />
    </g>
    <g id="G" fill="#FFFFFF">
      <path d="M135.4 26.0251Q135.42 26.1648 135.42 26.2845Q135.42 27.0632 134.28 27.4426Q133.5 27.702 132.6 27.702Q131.12 27.702 131.12 26.6304Q131.12 26.4916 131.15 26.2038Q131.18 25.916 131.18 25.797Q131.18 25.182 130.56 25.182Q130.58 25.182 129.42 25.8366Q128.08 26.6107 126.8 27.0473Q124.96 27.702 123.24 27.702Q119.66 27.702 117.21 25.3245Q114.76 22.947 114.76 19.3307Q114.76 15.5945 117.92 12.8773Q120.46 10.6995 124.6 9.44102Q127.96 8.42195 130.62 8.42195Q132.18 8.42195 133.54 9.10195Q135.28 9.96195 135.28 11.522Q135.28 12.902 134.02 13.842Q132.86 14.722 131.46 14.722Q131.3 14.542 131.3 14.262Q131.3 14.102 131.36 13.752Q131.42 13.402 131.42 13.202Q131.42 12.722 131.1 12.362Q130.14 11.342 129.12 11.002Q128.42 10.762 127.2 10.762Q124.1 10.762 121.44 12.3598Q118.12 14.357 118.12 17.8126Q118.12 20.4888 120.22 22.9654Q122.46 25.582 125.28 25.582Q126.64 25.582 128.69 24.6248Q130.74 23.6676 130.98 22.8701Q131.12 22.4313 131.12 21.0154Q131.12 20.9357 131.15 20.6166Q131.18 20.2976 131.18 20.0982Q131.18 18.782 130.16 18.782Q130.04 18.782 128.36 19.192Q126.68 19.602 126.54 19.602Q126.24 19.602 125.94 19.442Q125.64 19.282 125.64 19.042Q125.64 18.682 126.11 18.182Q126.58 17.682 127 17.602Q128.4 17.322 130.9 16.982Q133.16 16.642 133.4 16.642Q135.38 16.642 135.28 17.8198L135.4 26.0251Z" />
    </g>
    <g id="I" fill="#FFFFFF">
      <path d="M146.42 26.882Q146.42 27.102 146.021 27.302Q145.722 27.442 145.523 27.462Q144.865 27.562 143.549 27.662Q143.47 27.662 142.593 27.742Q141.795 27.822 141.716 27.822Q141.417 27.822 141.058 27.682Q140.639 27.542 140.579 27.322Q140.38 26.582 140.38 26.322L140.38 22.562Q140.38 22.502 140.42 22.082Q140.46 21.662 140.46 21.602L140.46 20.402Q140.46 20.462 140.46 19.862Q140.44 19.342 140.46 19.062Q140.46 18.702 140.517 17.922Q140.56 17.202 140.56 17.162L140.56 15.702L140.56 13.462Q140.481 12.762 140.481 11.982Q140.481 10.342 139.789 10.082Q139.492 9.98195 138.068 9.82195Q137 9.70195 137 9.42195Q137 9.22195 137.52 9.06195Q137.88 8.94195 138.1 8.92195Q141.56 8.64195 142.16 8.64195Q142.68 8.64195 143.34 8.86195Q144.16 9.16195 144.16 9.56195L144.16 15.142Q144.16 15.102 144.14 16.072Q144.12 17.042 144.12 17.462Q144.12 17.622 144.09 17.992Q144.06 18.362 144.06 18.402L144.06 22.942Q144.06 22.982 144.17 23.302Q144.28 23.622 144.28 23.682L144.28 24.902Q144.28 25.222 144.438 25.782Q144.637 26.502 144.894 26.522Q145.35 26.522 146.262 26.622Q146.42 26.662 146.42 26.882Z" />
    </g>
    <g id="B" fill="#FFFFFF">
      <path d="M163.72 21.482Q163.72 24.442 159.94 26.362Q157.52 27.582 154.78 27.982Q153.42 28.182 151.82 28.182Q150.28 28.182 149.92 27.962C149.533 27.7086 149.34 27.0153 149.34 25.882L149.28 19.542Q149.28 19.062 149.24 17.932Q149.2 16.802 149.2 16.222Q149.2 16.062 149.15 15.562Q149.1 15.062 149.1 15.002Q149.1 15.322 149.16 12.482Q149.16 12.262 149.25 11.812Q149.34 11.362 149.34 11.302Q149.34 11.082 149.17 10.902Q149 10.722 148.82 10.722Q148.74 10.722 147.74 11.152Q146.74 11.582 146.66 11.582Q146.14 11.582 146.14 11.242Q146.14 10.402 148.9 9.48195Q151.24 8.70195 152.02 8.70195Q152.9 8.70195 152.9 9.28195Q152.9 9.36195 152.87 9.95195Q152.84 10.542 152.84 10.602L152.84 11.962Q152.8 12.442 153.099 12.442Q153.259 12.442 154.836 11.182Q156.612 9.76195 157.311 9.36195Q158.009 8.96195 158.968 8.96195Q161.383 8.96195 162.54 11.922Q162.62 12.142 162.62 13.042Q162.62 13.842 162.6 13.902Q162.34 14.582 161.54 15.522Q161.24 15.882 160.74 16.422Q160.46 16.742 160.46 16.762Q160.46 16.982 160.82 17.082Q162.02 17.442 163.08 19.102Q163.46 19.682 163.52 19.982Q163.72 21.002 163.72 21.482ZM159.92 14.762Q159.92 14.362 159.76 13.882Q159.1 11.722 157.3 11.702Q157 11.702 156.6 11.862Q155.9 12.162 155.88 12.162Q155.5 12.282 154.3 13.222Q152.9 14.302 152.9 14.822L152.9 16.662Q152.9 16.722 152.94 17.222Q152.98 17.722 152.98 17.962Q153.12 18.222 153.56 18.222Q153.62 18.222 154.01 18.152Q154.4 18.082 154.54 18.062Q155.16 18.042 156.04 17.782Q156.68 17.582 157.3 17.382Q158.82 16.942 159.64 15.882Q159.92 15.522 159.92 14.762ZM160.76 23.362Q160.8 21.682 159.715 20.422Q158.629 19.162 156.981 19.162Q156.92 19.162 156.237 19.262Q155.473 19.362 155.091 19.402Q154.548 19.462 154.006 19.602Q153.563 19.722 153.443 19.782Q153.061 19.942 153.001 20.202Q152.9 20.722 152.9 21.742Q152.9 21.822 152.96 22.632Q153.02 23.442 153.02 23.502L153.02 25.702Q153.02 26.082 153.72 26.242Q154.14 26.342 154.54 26.342Q154.7 26.342 155.64 26.182Q156.04 26.162 156.76 26.082Q157.68 25.942 158.9 25.362Q160.76 24.482 160.76 23.362Z" />
    </g>
    <g id="B" fill="#FFFFFF">
      <path d="M181.36 21.482Q181.36 24.442 177.58 26.362Q175.16 27.582 172.42 27.982Q171.06 28.182 169.46 28.182Q167.92 28.182 167.56 27.962C167.173 27.7086 166.98 27.0153 166.98 25.882L166.92 19.542Q166.92 19.062 166.88 17.932Q166.84 16.802 166.84 16.222Q166.84 16.062 166.79 15.562Q166.74 15.062 166.74 15.002Q166.74 15.322 166.8 12.482Q166.8 12.262 166.89 11.812Q166.98 11.362 166.98 11.302Q166.98 11.082 166.81 10.902Q166.64 10.722 166.46 10.722Q166.38 10.722 165.38 11.152Q164.38 11.582 164.3 11.582Q163.78 11.582 163.78 11.242Q163.78 10.402 166.54 9.48195Q168.88 8.70195 169.66 8.70195Q170.54 8.70195 170.54 9.28195Q170.54 9.36195 170.51 9.95195Q170.48 10.542 170.48 10.602L170.48 11.962Q170.44 12.442 170.739 12.442Q170.899 12.442 172.476 11.182Q174.252 9.76195 174.951 9.36195Q175.649 8.96195 176.608 8.96195Q179.023 8.96195 180.18 11.922Q180.26 12.142 180.26 13.042Q180.26 13.842 180.24 13.902Q179.98 14.582 179.18 15.522Q178.88 15.882 178.38 16.422Q178.1 16.742 178.1 16.762Q178.1 16.982 178.46 17.082Q179.66 17.442 180.72 19.102Q181.1 19.682 181.16 19.982Q181.36 21.002 181.36 21.482ZM177.56 14.762Q177.56 14.362 177.4 13.882Q176.74 11.722 174.94 11.702Q174.64 11.702 174.24 11.862Q173.54 12.162 173.52 12.162Q173.14 12.282 171.94 13.222Q170.54 14.302 170.54 14.822L170.54 16.662Q170.54 16.722 170.58 17.222Q170.62 17.722 170.62 17.962Q170.76 18.222 171.2 18.222Q171.26 18.222 171.65 18.152Q172.04 18.082 172.18 18.062Q172.8 18.042 173.68 17.782Q174.32 17.582 174.94 17.382Q176.46 16.942 177.28 15.882Q177.56 15.522 177.56 14.762ZM178.4 23.362Q178.44 21.682 177.355 20.422Q176.269 19.162 174.621 19.162Q174.56 19.162 173.877 19.262Q173.113 19.362 172.731 19.402Q172.188 19.462 171.646 19.602Q171.203 19.722 171.083 19.782Q170.701 19.942 170.641 20.202Q170.54 20.722 170.54 21.742Q170.54 21.822 170.6 22.632Q170.66 23.442 170.66 23.502L170.66 25.702Q170.66 26.082 171.36 26.242Q171.78 26.342 172.18 26.342Q172.34 26.342 173.28 26.182Q173.68 26.162 174.4 26.082Q175.32 25.942 176.54 25.362Q178.4 24.482 178.4 23.362Z" />
    </g>
    <g id="E" fill="#FFFFFF">
      <path d="M200.18 11.402Q200.18 11.962 199.57 12.502Q198.96 13.042 198.46 13.042Q198.08 13.042 197.86 12.542Q197.58 11.862 197.2 11.602Q196.72 11.262 195.63 10.962Q194.54 10.662 193.74 10.662Q192.16 10.662 190.6 11.662Q188.92 12.762 187.98 14.642Q187.5 15.582 187.5 15.802Q187.46 16.462 187.78 16.642Q187.9 16.702 188.3 16.702L191.5 16.702Q191.58 16.702 192.19 16.772Q192.8 16.842 192.88 16.842L197.5 16.842Q198.04 16.842 198.52 17.002Q199.2 17.242 199.2 17.682Q199.2 18.102 198.36 18.662Q197.64 19.142 197.32 19.262Q197.12 19.342 196.82 19.342Q196.68 19.342 195.96 18.932Q195.24 18.522 194.76 18.522L190.16 18.582Q190.12 18.582 188.54 18.682Q187.38 18.742 187.36 19.062Q187.3 19.602 187.3 19.802Q187.38 20.282 187.5 21.162Q187.74 23.202 189.92 24.642Q191.8 25.922 193.6 25.922Q194.24 25.922 195.22 25.682Q196 25.462 196.78 25.262Q197.02 25.202 197.98 24.782Q198.78 24.442 199.14 24.442Q199.52 24.442 199.52 24.862Q199.52 25.222 198.86 25.782Q198.32 26.242 197.84 26.442Q196.5 27.042 196.18 27.162C195.62 27.3886 195.067 27.5686 194.52 27.702Q193.7 27.902 192.86 27.902Q191.3 27.902 190.1 27.642Q189.84 27.582 187.84 26.642Q185.4 25.502 184.18 23.042Q183.18 21.022 183.18 18.642Q183.18 17.822 183.24 17.502Q183.32 16.882 183.74 15.642Q184.52 13.262 186.34 11.662Q187.54 10.602 188.92 9.98195Q189.24 9.82195 190.98 9.32195Q192.58 8.86195 194.22 8.86195Q195.74 8.86195 197.44 9.28195Q200.18 9.96195 200.18 11.402Z" />
    </g>
    <g id="R" fill="#FFFFFF">
      <path d="M221.42 26.222Q221.26 26.502 219.56 27.082Q217.86 27.662 217.14 27.662Q216.32 27.662 214.3 26.022Q212.68 24.702 210.94 22.902Q209.32 21.202 209.32 20.942Q209.32 20.582 211.14 19.362Q213.64 17.662 214.52 16.902Q216.34 15.322 216.36 14.102Q216.38 13.102 215.741 12.102Q214.983 10.922 213.885 10.962Q212.468 11.022 210.692 12.3004Q209.095 13.4391 207.888 15.0171Q206.68 16.5951 206.68 17.5741L206.68 23.8266Q206.68 23.9066 206.74 24.1563Q206.8 24.406 206.8 24.4857L206.8 26.7432Q206.8 27.702 203.96 27.702Q202.42 27.702 202 27.3623Q202 27.2026 202.27 26.7929Q202.54 26.3832 202.58 26.2635Q202.8 25.4245 202.88 24.4254Q202.98 23.087 203 22.947L203.06 10.9995Q203 10.3401 202.58 10.0404Q202.38 9.9007 201.72 9.70102Q201.16 9.54102 200.94 9.28133Q201.18 8.70195 202.66 8.70195Q202.76 8.70195 203.42 8.77195Q204.08 8.84195 204.16 8.84195Q204.24 8.84195 204.41 8.91195Q204.58 8.98195 204.66 8.98195Q205.5 8.98195 205.72 9.18195Q206.06 9.66195 206.4 10.142Q206.46 10.582 206.46 10.582Q206.52 10.822 206.5 10.862Q206.44 10.982 206.44 10.982Q206.44 11.002 206.61 12.072Q206.78 13.142 206.74 13.582Q207.08 13.962 207.2 13.962Q207.12 13.962 208.38 12.642Q209.82 11.102 211.4 10.162Q213.62 8.84195 215.94 8.84195Q217.5 8.84195 218.44 10.182Q219.22 11.322 219.22 12.762Q219.22 14.422 217.68 16.162Q216.7 17.262 214.8 18.642Q213.24 19.782 213.24 19.942Q213.24 20.322 215.76 22.642Q218.06 24.762 219.28 25.662Q219.48 25.802 220.28 25.822Q221.02 25.842 221.42 26.222Z" />
    </g>
    <g id="I" fill="#FFFFFF">
      <path d="M230.06 26.882Q230.06 27.102 229.661 27.302Q229.362 27.442 229.163 27.462Q228.505 27.562 227.189 27.662Q227.11 27.662 226.233 27.742Q225.435 27.822 225.356 27.822Q225.057 27.822 224.698 27.682Q224.279 27.542 224.219 27.322Q224.02 26.582 224.02 26.322L224.02 22.562Q224.02 22.502 224.06 22.082Q224.1 21.662 224.1 21.602L224.1 20.402Q224.1 20.462 224.1 19.862Q224.08 19.342 224.1 19.062Q224.1 18.702 224.157 17.922Q224.2 17.202 224.2 17.162L224.2 15.702L224.2 13.462Q224.121 12.762 224.121 11.982Q224.121 10.342 223.429 10.082Q223.132 9.98195 221.708 9.82195Q220.64 9.70195 220.64 9.42195Q220.64 9.22195 221.16 9.06195Q221.52 8.94195 221.74 8.92195Q225.2 8.64195 225.8 8.64195Q226.32 8.64195 226.98 8.86195Q227.8 9.16195 227.8 9.56195L227.8 15.142Q227.8 15.102 227.78 16.072Q227.76 17.042 227.76 17.462Q227.76 17.622 227.73 17.992Q227.7 18.362 227.7 18.402L227.7 22.942Q227.7 22.982 227.81 23.302Q227.92 23.622 227.92 23.682L227.92 24.902Q227.92 25.222 228.078 25.782Q228.277 26.502 228.534 26.522Q228.99 26.522 229.902 26.622Q230.06 26.662 230.06 26.882Z" />
    </g>
    <g id="S" fill="#FFFFFF">
      <path d="M248.34 20.002Q248.34 21.062 245.86 23.522Q245.14 24.242 243.47 25.442Q241.8 26.642 240.96 27.062Q240.6 27.262 239.88 27.522Q238.3 27.822 236.68 27.822Q236.38 27.822 235.06 27.522C234.993 27.5086 234.587 27.3286 233.84 26.982Q233.08 26.642 232.3 26.302Q231.1 25.702 231.1 25.322Q231.1 25.082 231.87 23.912Q232.64 22.742 233 22.742Q233.2 22.742 233.58 23.102Q234.08 23.542 234.44 23.742Q235.2 24.122 236.48 24.562Q238.06 25.102 239 25.142Q239.14 25.142 239.52 25.192Q239.9 25.242 239.98 25.242Q241.18 25.242 242.43 24.652Q243.68 24.062 244.46 23.122Q244.76 22.742 244.76 21.922Q244.76 20.462 243.24 19.642Q242.14 19.042 240.22 18.782Q239.14 18.642 238.06 18.522Q236.82 18.322 234.5 17.942Q233.44 17.762 232.6 17.202Q231.46 16.462 231.46 15.422C231.46 14.942 231.807 14.1486 232.5 13.042Q234.84 10.582 237.24 9.58195Q239.28 8.74195 241.94 8.74195Q243.62 8.74195 244.56 9.02195Q245.94 9.46195 246.56 10.622Q246.84 11.142 246.84 11.322Q246.84 11.862 246.08 13.042Q245.2 14.382 244.44 14.382Q244.3 14.382 244.14 14.242Q243.98 14.102 243.98 14.002Q243.98 13.842 244.33 13.422Q244.68 13.002 244.68 12.502Q244.7 11.742 243.68 11.322Q242.86 10.962 241.68 10.902Q241.32 10.902 240.3 10.822Q239.38 10.742 239.3 10.742Q238.5 10.742 238.44 10.762Q238.06 10.802 236.88 11.202Q235.92 11.502 234.9 12.522Q234.64 12.782 234.34 13.412Q234.04 14.042 234.04 14.382Q234.04 15.262 235.36 15.622Q236.14 15.822 237.12 15.822L239.42 15.822Q239.76 15.822 241 15.942Q241.86 16.022 242.7 16.082Q243.76 16.202 244.3 16.422Q248.34 17.922 248.34 20.002Z" />
    </g>
    <g id="H" fill="#FFFFFF">
      <path d="M271.82 17.202Q271.82 18.862 271.52 19.902Q271.4 20.282 270.4 22.902Q270.28 23.162 269.94 23.622Q269.5 24.162 269.38 24.362Q267.86 26.902 265.42 28.942Q264.36 29.842 263.66 29.782Q263.56 29.682 263.56 29.502Q263.56 29.362 263.93 28.752Q264.3 28.142 264.58 27.842Q268.06 23.742 268.06 19.442Q268.06 17.302 267.2 14.982Q265.96 11.642 263.68 11.642Q261.78 11.642 258.6 13.862Q255.3 16.162 254.98 17.982Q254.98 21.062 254.98 21.142Q255.02 21.342 254.953 22.762Q254.9 24.282 254.9 24.262Q254.9 25.302 255.08 25.802Q255.24 26.002 255.52 26.462Q255.54 26.542 255.54 26.822Q255.18 27.162 253.26 27.922Q251.46 28.642 251.26 28.642Q250.9 28.642 250.57 28.402Q250.24 28.162 250.24 27.782L250.42 20.182Q250.42 17.642 250.5 16.462L250.5 5.72195Q250.5 5.70195 250.42 5.00195Q250.379 4.56195 250.057 4.56195Q249.997 4.54195 249.193 4.94195Q248.388 5.34195 247.865 5.34195Q247.664 5.34195 247.402 5.24195Q247.04 5.10196 247.04 4.90195Q247.04 4.36195 249.04 3.44195Q250.24 2.90195 252.62 1.74195Q253.86 1.10196 254.16 1.10195Q255.02 1.10195 254.98 1.88195L254.9 13.302Q254.94 13.382 255.02 13.902Q255.06 14.262 255.38 14.262Q255.58 14.262 257.22 12.962Q259.24 11.402 260.9 10.562Q263.48 9.26195 265.92 9.26195Q269.12 9.26196 270.68 12.142Q271.82 14.282 271.82 17.202Z" />
    </g>
    <g id="C" fill="#FFFFFF">
      <path d="M300.24 10.942Q300.24 11.942 299.52 12.762Q298.8 13.582 297.72 13.582Q297.14 13.582 297.14 13.282Q297.14 13.222 297.54 12.882Q298.06 12.442 298.28 12.202Q298.42 12.062 298.42 11.882Q298.42 11.302 297.42 10.982Q296.74 10.742 296.22 10.742Q296.18 10.742 294.5 11.062Q292.72 11.402 291.22 12.442Q289.52 13.602 288.6 15.362Q288.38 15.782 288.2 16.282Q288.04 16.682 287.82 17.322Q287.44 18.682 287.44 19.382Q287.44 21.082 288.3 22.602Q289.28 24.402 291.16 25.242Q292.22 25.722 292.86 25.722Q292.94 25.722 293.37 25.772Q293.8 25.822 293.86 25.822Q294.28 25.822 295.34 25.622Q296.28 25.442 296.44 25.402Q297.02 25.122 297.62 24.862Q298.64 24.402 298.88 24.402Q299.46 24.402 299.46 24.882Q299.46 25.242 298.82 25.662Q298.44 25.842 298.06 26.042Q295.92 27.182 294.12 27.442Q292.22 27.742 291.3 27.742Q290.54 27.742 289.22 27.482Q286.36 26.922 285 25.162Q284.6 24.642 284.26 23.482Q283.92 22.322 283.92 21.582Q283.92 20.042 284.52 18.202Q285.96 13.702 290.06 11.182Q293.54 9.02195 297.44 9.02195Q300.24 9.02195 300.24 10.942Z" />
    </g>
    <g id="O" fill="#FFFFFF">
      <path d="M321.9 18.302Q321.9 19.162 321.7 20.282Q321.48 21.502 321.18 22.002C318.82 25.922 315.267 27.882 310.52 27.882Q307.22 27.882 304.9 26.482Q302.5 25.022 301.34 22.222Q301.08 21.682 300.7 20.582Q300.44 19.542 300.44 18.502Q300.44 16.942 300.96 15.232Q301.48 13.522 302.32 12.402Q303.96 10.202 306.72 9.22195Q307.6 8.90195 309.24 8.60195Q311.04 8.26195 312.14 8.26195Q316.2 8.26195 319.1 11.382Q321.9 14.382 321.9 18.302ZM318.06 19.882Q318.06 18.442 318.04 18.342Q317.26 15.442 316.34 13.862Q314.96 11.422 312.62 10.342Q311.48 9.80195 310.48 9.80195Q308.58 9.80195 307 10.962Q305.2 12.262 304.54 14.622Q304.38 14.922 304.22 15.402Q304.22 15.802 304.18 16.482Q304.06 17.482 304.06 17.262Q304.06 18.202 304.3 19.042Q304.4 19.282 304.54 19.662Q305.26 22.642 307.54 24.582Q309.7 26.422 312.08 26.422Q313.72 26.422 314.92 25.702Q316.32 24.882 317.44 22.922Q317.96 22.022 318.04 21.442Q318.06 21.222 318.06 19.882Z" />
    </g>
    <g id="N" fill="#FFFFFF">
      <path d="M348.24 26.902Q348.24 27.222 347.58 27.442Q347.04 27.602 346.6 27.602L345.32 27.602Q344.76 27.602 344.22 27.342Q343.54 27.022 343.42 26.462Q343.38 26.282 343.4 25.642Q343.4 25.142 343.26 24.862Q343.06 24.462 342.1 24.182Q341.36 23.962 340.6 23.742Q339.56 23.362 337.56 22.522Q335.44 21.502 334.46 20.982Q332.44 19.942 331.1 19.102Q331.02 19.042 330.12 18.282Q329.38 17.642 329.16 17.622Q328.66 17.562 328.66 18.362L328.66 24.942Q328.66 26.422 327.18 27.102Q326.1 27.602 324.48 27.602Q323.76 27.602 323.52 27.162L323.52 23.102L324.12 14.442Q324.12 14.262 324.14 13.782Q324.16 13.302 324.16 13.042Q324.16 10.662 322.52 10.242L322.52 9.76195Q325.52 8.74195 326.34 8.74195Q327.18 8.74195 327.64 9.36195Q328.92 11.142 332 15.322Q333.48 17.242 337.42 19.862Q341.2 22.362 342.54 22.462Q343.1 22.502 343.24 21.902Q343.28 21.722 343.28 21.142Q343.28 19.982 342.96 16.262Q342.64 12.602 342.34 10.302Q342.3 9.98195 341.48 8.88195Q341.9 8.54195 342.68 8.54195Q343.78 8.54195 344.76 8.84195Q345.66 9.10195 345.76 9.38195Q347.06 12.502 347.28 18.482Q347.24 20.322 347.34 24.022Q347.44 25.122 347.66 25.762Q347.8 26.122 348.04 26.462Q348.24 26.702 348.24 26.902Z" />
    </g>
    <g id="F" fill="#FFFFFF">
      <path d="M365.7 10.482Q365.7 10.542 365.55 10.752Q365.4 10.962 365.4 10.962Q365.06 11.222 364.46 11.482Q363.64 11.802 363.08 11.742Q362.94 11.742 362.12 11.262Q361.3 10.782 361.16 10.762Q360.16 10.562 358.96 10.602Q357.88 10.622 356.38 11.662Q355.04 12.582 353.94 13.842Q353.78 14.042 353.74 14.242Q353.7 14.562 353.7 15.042Q353.7 14.922 353.7 15.422Q353.72 15.922 353.72 17.142Q353.74 17.742 354.48 17.742Q354.56 17.742 356.45 17.642Q358.34 17.542 358.44 17.542Q359.12 17.542 360.22 17.642Q360.6 17.662 360.6 17.962Q360.6 18.182 360.26 18.362Q360 18.482 359.72 18.622Q358.94 19.062 358.13 19.142Q357.32 19.222 356.54 19.282Q355.76 19.342 354.98 19.382Q354.08 19.462 353.9 19.762Q353.82 19.882 353.82 20.342Q353.82 20.562 353.85 20.982Q353.88 21.402 353.88 21.462L353.88 25.582Q353.88 25.662 353.88 26.642Q353.88 27.622 353.88 27.722L353.94 33.442Q353.94 34.402 352.9 35.672Q351.86 36.942 350.66 37.542Q350.38 37.702 350.12 37.842Q349.8 38.022 349.58 38.022Q349.12 38.022 349.12 37.622Q349.12 37.342 349.511 36.922Q350.006 36.382 350.191 35.982Q350.5 35.302 350.5 34.362Q350.5 34.122 350.433 33.422Q350.38 32.862 350.4 32.522Q350.48 31.562 350.48 31.182Q350.48 30.602 350.5 29.182Q350.5 27.762 350.5 27.082Q350.5 26.862 350.46 26.332Q350.42 25.802 350.4 25.442Q350.4 25.422 350.45 25.302Q350.5 25.182 350.5 25.102Q350.54 24.302 350.54 20.002L350.6 11.582Q350.58 11.342 350.49 10.872Q350.4 10.402 349.82 10.262Q349.04 10.102 348.84 9.90195L348.84 9.62195Q349.18 9.42195 349.6 9.39195Q350.02 9.36195 350.94 9.28195Q351.78 9.20195 351.84 9.20195Q353.38 9.20195 353.56 9.84195Q353.66 10.182 353.68 11.322Q353.74 11.482 354.12 11.482Q354.2 11.482 355.24 10.822Q356.4 10.042 356.66 9.92195Q358.48 8.96195 360.74 8.96195Q364.16 8.96195 365.7 10.482Z" />
    </g>
    <g id="I" fill="#FFFFFF">
      <path d="M375.48 26.882Q375.48 27.102 375.081 27.302Q374.782 27.442 374.583 27.462Q373.925 27.562 372.609 27.662Q372.53 27.662 371.653 27.742Q370.855 27.822 370.776 27.822Q370.477 27.822 370.118 27.682Q369.699 27.542 369.639 27.322Q369.44 26.582 369.44 26.322L369.44 22.562Q369.44 22.502 369.48 22.082Q369.52 21.662 369.52 21.602L369.52 20.402Q369.52 20.462 369.52 19.862Q369.5 19.342 369.52 19.062Q369.52 18.702 369.577 17.922Q369.62 17.202 369.62 17.162L369.62 15.702L369.62 13.462Q369.541 12.762 369.541 11.982Q369.541 10.342 368.849 10.082Q368.552 9.98195 367.128 9.82195Q366.06 9.70195 366.06 9.42195Q366.06 9.22195 366.58 9.06195Q366.94 8.94195 367.16 8.92195Q370.62 8.64195 371.22 8.64195Q371.74 8.64195 372.4 8.86195Q373.22 9.16195 373.22 9.56195L373.22 15.142Q373.22 15.102 373.2 16.072Q373.18 17.042 373.18 17.462Q373.18 17.622 373.15 17.992Q373.12 18.362 373.12 18.402L373.12 22.942Q373.12 22.982 373.23 23.302Q373.34 23.622 373.34 23.682L373.34 24.902Q373.34 25.222 373.498 25.782Q373.697 26.502 373.954 26.522Q374.41 26.522 375.322 26.622Q375.48 26.662 375.48 26.882Z" />
    </g>
    <g id="G" fill="#FFFFFF">
      <path d="M396.5 26.0251Q396.52 26.1648 396.52 26.2845Q396.52 27.0632 395.38 27.4426Q394.6 27.702 393.7 27.702Q392.22 27.702 392.22 26.6304Q392.22 26.4916 392.25 26.2038Q392.28 25.916 392.28 25.797Q392.28 25.182 391.66 25.182Q391.68 25.182 390.52 25.8366Q389.18 26.6107 387.9 27.0473Q386.06 27.702 384.34 27.702Q380.76 27.702 378.31 25.3245Q375.86 22.947 375.86 19.3307Q375.86 15.5945 379.02 12.8773Q381.56 10.6995 385.7 9.44102Q389.06 8.42195 391.72 8.42195Q393.28 8.42195 394.64 9.10195Q396.38 9.96195 396.38 11.522Q396.38 12.902 395.12 13.842Q393.96 14.722 392.56 14.722Q392.4 14.542 392.4 14.262Q392.4 14.102 392.46 13.752Q392.52 13.402 392.52 13.202Q392.52 12.722 392.2 12.362Q391.24 11.342 390.22 11.002Q389.52 10.762 388.3 10.762Q385.2 10.762 382.54 12.3598Q379.22 14.357 379.22 17.8126Q379.22 20.4888 381.32 22.9654Q383.56 25.582 386.38 25.582Q387.74 25.582 389.79 24.6248Q391.84 23.6676 392.08 22.8701Q392.22 22.4313 392.22 21.0154Q392.22 20.9357 392.25 20.6166Q392.28 20.2976 392.28 20.0982Q392.28 18.782 391.26 18.782Q391.14 18.782 389.46 19.192Q387.78 19.602 387.64 19.602Q387.34 19.602 387.04 19.442Q386.74 19.282 386.74 19.042Q386.74 18.682 387.21 18.182Q387.68 17.682 388.1 17.602Q389.5 17.322 392 16.982Q394.26 16.642 394.5 16.642Q396.48 16.642 396.38 17.8198L396.5 26.0251Z" />
    </g>
    <g id="S" fill="#FFFFFF">
      <path d="M415.26 20.002Q415.26 21.062 412.78 23.522Q412.06 24.242 410.39 25.442Q408.72 26.642 407.88 27.062Q407.52 27.262 406.8 27.522Q405.22 27.822 403.6 27.822Q403.3 27.822 401.98 27.522C401.913 27.5086 401.507 27.3286 400.76 26.982Q400 26.642 399.22 26.302Q398.02 25.702 398.02 25.322Q398.02 25.082 398.79 23.912Q399.56 22.742 399.92 22.742Q400.12 22.742 400.5 23.102Q401 23.542 401.36 23.742Q402.12 24.122 403.4 24.562Q404.98 25.102 405.92 25.142Q406.06 25.142 406.44 25.192Q406.82 25.242 406.9 25.242Q408.1 25.242 409.35 24.652Q410.6 24.062 411.38 23.122Q411.68 22.742 411.68 21.922Q411.68 20.462 410.16 19.642Q409.06 19.042 407.14 18.782Q406.06 18.642 404.98 18.522Q403.74 18.322 401.42 17.942Q400.36 17.762 399.52 17.202Q398.38 16.462 398.38 15.422C398.38 14.942 398.727 14.1486 399.42 13.042Q401.76 10.582 404.16 9.58195Q406.2 8.74195 408.86 8.74195Q410.54 8.74195 411.48 9.02195Q412.86 9.46195 413.48 10.622Q413.76 11.142 413.76 11.322Q413.76 11.862 413 13.042Q412.12 14.382 411.36 14.382Q411.22 14.382 411.06 14.242Q410.9 14.102 410.9 14.002Q410.9 13.842 411.25 13.422Q411.6 13.002 411.6 12.502Q411.62 11.742 410.6 11.322Q409.78 10.962 408.6 10.902Q408.24 10.902 407.22 10.822Q406.3 10.742 406.22 10.742Q405.42 10.742 405.36 10.762Q404.98 10.802 403.8 11.202Q402.84 11.502 401.82 12.522Q401.56 12.782 401.26 13.412Q400.96 14.042 400.96 14.382Q400.96 15.262 402.28 15.622Q403.06 15.822 404.04 15.822L406.34 15.822Q406.68 15.822 407.92 15.942Q408.78 16.022 409.62 16.082Q410.68 16.202 411.22 16.422Q415.26 17.922 415.26 20.002Z" />
    </g>
  </g>
  <g id="G" fill="#FFFFFF" transform="translate(14.5 7)">
    <path d="M21.273 27.3013Q21.294 27.448 21.294 27.5737Q21.294 28.3914 20.097 28.7897Q19.278 29.062 18.333 29.062Q16.779 29.062 16.779 27.9369Q16.779 27.7912 16.8105 27.489Q16.842 27.1868 16.842 27.0618Q16.842 26.416 16.191 26.416Q16.212 26.416 14.994 27.1035Q13.587 27.9162 12.243 28.3746Q10.311 29.0621 8.505 29.062Q4.746 29.062 2.1735 26.5657Q-0.399 24.0693 -0.399 20.2722Q-0.399 16.3492 2.919 13.4961Q5.586 11.2094 9.933 9.88807Q13.461 8.81805 16.254 8.81805Q17.892 8.81805 19.32 9.53205Q21.147 10.4351 21.147 12.073Q21.147 13.5221 19.824 14.5091Q18.606 15.4331 17.136 15.433Q16.968 15.2441 16.968 14.95Q16.968 14.7821 17.031 14.4145Q17.094 14.0471 17.094 13.8371Q17.094 13.3331 16.758 12.9551Q15.75 11.8841 14.679 11.5271Q13.944 11.2751 12.663 11.2751Q9.408 11.2751 6.615 12.9528Q3.129 15.0498 3.129 18.6782Q3.129 21.4883 5.334 24.0887Q7.686 26.8361 10.647 26.8361Q12.075 26.8361 14.2275 25.831Q16.38 24.826 16.632 23.9886Q16.779 23.5279 16.779 22.0412Q16.779 21.9575 16.8105 21.6225Q16.842 21.2875 16.842 21.0781Q16.842 19.6961 15.771 19.6961Q15.645 19.6961 13.881 20.1266Q12.117 20.5571 11.97 20.5571Q11.655 20.5571 11.34 20.389Q11.025 20.2211 11.025 19.9691Q11.025 19.5911 11.5185 19.0661Q12.012 18.541 12.453 18.4571Q13.923 18.163 16.548 17.806Q18.921 17.4491 19.173 17.4491Q21.252 17.4491 21.147 18.6858L21.273 27.3013Z" />
  </g>
  <path d="M0 26C0 11.6406 11.6406 0 26 0C40.3594 0 52 11.6406 52 26C52 40.3594 40.3594 52 26 52C11.6406 52 0 40.3594 0 26Z" transform="translate(0.5 0.5)" id="Ellipse" fill="none" fill-rule="evenodd" stroke="#FFFFFF" stroke-width="1" />
</svg>