<?xml version="1.0" encoding="utf-8"?>
<!-- Generator: Adobe Illustrator 26.0.3, SVG Export Plug-In . SVG Version: 6.00 Build 0)  -->
<svg version="1.1" id="Layer_1" xmlns="http://www.w3.org/2000/svg" xmlns:xlink="http://www.w3.org/1999/xlink" x="0px" y="0px"
	 viewBox="0 0 253 50" style="enable-background:new 0 0 253 50;" xml:space="preserve">
<style type="text/css">
	.st0{fill-rule:evenodd;clip-rule:evenodd;fill:white;}
</style>
<g>
	<path class="st0" d="M24.7,44.5c0,0.1,0,0.2,0.2,0.2c0.2,0,0.3-0.1,0.3-0.2c0-0.1-0.1-0.2-0.2-0.2c0,0,0,0,0,0
		C24.8,44.3,24.7,44.4,24.7,44.5z M36,39.2c0.1-0.9,0.2-2.4,0.1-2.4l0.1-0.1c0,0,0,1-0.1,2.4c-0.1,1.1,0,2,0,2.3
		c0,0.3,0.1,1.2,0.3,1.2c0.2,0,0.4-0.7,0.4-0.7c0,0-0.1-0.3-0.1-0.7c0-0.3,0.3-0.8,0.6-0.8c0.3,0,0.2,0.5,0,0.5
		c-0.2,0-0.2-0.3-0.2-0.3c-0.4,0.2,0,1.2,0.2,1.1c0.4-0.2,0.5-1.1,0.5-1.1c0,0,0-0.3-0.1-0.4c0-0.1,0-0.2,0-0.3
		C38,40,38,39.8,38,39.8c0,0.8,0.2,1.5,0.3,1.5c0.2,0,0.3-0.7,0.3-0.7c-0.1-0.3-0.2-0.5-0.1-0.8c0-0.3,0.2-0.6,0.5-0.6
		c0.3,0,0.3,0.5,0.1,0.6c-0.3,0-0.2-0.3-0.2-0.3c-0.3,0.2-0.1,1.2,0.3,1.1c0.4-0.1,0.5-0.8,0.5-0.8c-0.1-0.2-0.2-0.4-0.2-0.8
		c0-0.4,0.3-0.8,0.6-0.7c0.2,0,0.2,0.4,0,0.5C40,38.7,40,38.4,40,38.4c-0.2,0.2-0.2,0.5-0.1,0.8c0.2,0.3,0.4,0.3,0.6,0.1
		c0.2-0.2,0.2-0.9,0.2-0.9c0,0-0.5-1.4-0.9-2.8C39.4,33.8,39,32,39,32l0-0.1c0,0,0.4,1.5,1,3.6c0.4,1.3,0.8,2.3,0.8,2.5
		c0,0.1,0.3,0.7,0.4,0.6c0.2-0.1,0.2-0.8,0.2-0.8c0,0-0.7-1.9-1.2-4c-0.5-2-0.9-3.4-0.9-3.4l0-0.1c0,0,0.4,1.2,0.9,3.3
		c0.5,1.8,1.1,3.3,1.1,3.3c0,0,0-0.5,0.2-0.7c0.2-0.2,0.5,0,0.5,0c0,0-0.1-1.1,0.5-1.1c0.6,0,0.6,1.2,0.6,1.2c0.4-0.6,0.4-1,0.4-1
		c-0.2-0.3-0.3-0.9-0.3-0.9c0,0-0.1,0.4-0.3,0.5c-0.2,0.1-0.9-0.4-1.1-1.2c-0.3-1.1-0.4-2.9-0.4-2.9l0-0.1c0,0,0.2,1.6,0.5,2.8
		c0.2,0.5,0.8,1.1,1,0.9c0.3-0.2,0.2-0.6,0.2-0.6l0.1-0.2c0.1,0.7,0.4,1.3,0.6,1.3c0.3,0,0.3-0.9,0.3-0.9c-0.1-0.1-0.3-0.2-0.4-0.6
		c-0.2-0.4-0.1-0.8,0.1-0.9c0.3-0.1,0.6,0.3,0.4,0.5c-0.2,0.1-0.4-0.2-0.4-0.2c-0.4,0.4,0.5,1,0.7,0.9c0.2-0.2,0.1-0.9,0.1-0.9
		c-0.5-0.4-0.6-1-0.6-1.3c0-0.3,0.3-0.3,0.4-0.2c0.1,0.1,0.2,0.3,0.1,0.4c-0.1,0.1-0.3-0.1-0.3-0.1c-0.3,0.4,0.4,1.1,0.7,0.9
		c0.3-0.2,0-0.8-0.2-1.1c-0.2-0.2-0.3-0.5-0.3-0.7c-0.1-0.3,0-0.3,0-0.3c0.1,0.3,0.9,1.4,0.9,1.3c0.1-0.2,0-0.8,0-0.8
		c0,0-0.8-1-1.7-2.1c-0.4-0.5-0.8-1.1-1.2-1.6c-0.3-0.5-0.6-0.9-1-1.3c-0.1-0.1-0.6-0.8-0.6-0.8l0-0.1c0,0,1.1,1.3,2.1,2.7
		c0.7,0.9,2,2.3,1.9,2.3c0,0-0.4-0.8,0-1.1c0.4-0.3,1.1,0.1,1.2,0.8c0.1,0.3,0,0.8-0.3,0.8c-0.1,0-0.3-0.2-0.2-0.4
		c0.1-0.2,0.3,0,0.3,0c0.2-0.5-0.2-0.9-0.6-0.9c-0.4,0-0.4,0.2-0.3,0.5c0.1,0.3,0.2,0.6,0.2,0.6c0,0,0.3,0.3,0.7,0.9
		c0.2,0.3,0.5,0.8,0.7,1.3c0.6,1.5,0.1,2,0.1,2l-0.1-0.1c0.3-0.4,0.1-1.1-0.2-1.8c-0.3-0.7-1-1.7-1-1.7c0.2,0.4,0.1,1,0,1.1
		c-0.1,0.1-0.3-0.2-0.3-0.2c0,0.1,0.1,0.8,0,1c-0.2,0.2-0.4,0-0.4,0c0,0,0.2,0.7-0.1,1.1c-0.3,0.3-0.5,0.1-0.5,0.1c0,0,0,1-0.2,1.2
		c-0.2,0.2-0.4,0.1-0.4,0.1c-0.1,0.6-0.2,1-0.6,1.6c-0.4,0.6-0.8,0.9-1,1.2c-0.3,0.3-0.4,0.7-0.4,0.7c0,0,0-0.1,0-0.3
		c0-0.2-0.1-0.5-0.1-0.5c0,0,0,1-0.3,1c-0.2,0.1-0.3-0.3-0.3-0.3c0,0,0,0.9-0.4,1.1C40.2,40,40,39.8,40,39.8
		c-0.1,0.4-0.3,0.9-0.6,1.1c-0.3,0.1-0.5-0.2-0.5-0.2c-0.2,0.5-0.3,0.8-0.3,0.8c0,0,0.1,0.8-0.2,1.7c-0.3,1-0.7,1.3-0.9,1.4
		c-0.2,0.1-0.5,0.2-0.7-0.2c-0.2-0.4,0-0.8,0.3-1c0.3-0.2,0.6-0.2,0.7,0c0.1,0.2,0.1,0.5-0.2,0.6c-0.2,0.1-0.4,0-0.3-0.1
		c0-0.2,0.3-0.3,0.3-0.3c0-0.1-0.2-0.2-0.5,0c-0.2,0.2-0.1,0.6,0.1,0.6c0.3,0.1,0.8-0.2,1.1-1.1c0.3-0.9,0.2-1.6,0.2-1.6
		C38,41.9,38,41.2,38,41.2c-0.1,0.5-0.3,1-0.6,1.2c-0.3,0.2-0.5-0.2-0.5-0.2c0,0-0.5,1-0.7,0.9C36,43,36,42.4,36,42.4
		c-0.1,0.4-0.4,1-0.7,1.2c-0.3,0.2-0.4-0.1-0.4-0.1c0,0-0.5,0.8-0.9,0.6c-0.5-0.3,0.1-1.3,0.1-1.3c-0.5,0.2-0.6,0.5-0.7,0.5
		c0.1-0.5,1-1.1,1.7-1.3c0.6-0.2,0.9-0.7,0.9-0.7C35.9,41.2,35.9,40.6,36,39.2L36,39.2z M42.4,37.2c0.2-0.3,0.5-0.7,0.5-0.7
		c0.1-0.4-0.1-0.9-0.5-1c-0.4,0-0.3,0.8-0.3,0.8C42.4,36.6,42.4,37.2,42.4,37.2L42.4,37.2z M41.7,38.1c0-0.1,0.1-0.2,0.3-0.4
		c0.1-0.1,0.2-0.2,0.2-0.3c0,0,0-0.3-0.2-0.5c-0.1-0.2-0.3-0.4-0.4-0.3c-0.1,0.1-0.2,0.3-0.2,0.6c0,0.2,0.1,0.5,0.2,0.6
		C41.7,38,41.7,38.1,41.7,38.1L41.7,38.1z M35,42.4c0,0-0.4,0.1-0.8,0.3c0,0-0.5,0.8,0,1c0.3,0.2,0.6-0.5,0.6-0.5
		C34.8,43.3,34.7,43,35,42.4z M35.9,42.5c0.1-0.4,0.1-0.8,0.1-0.9c0,0-0.4,0.5-0.8,0.7c0,0-0.5,0.8,0,1
		C35.4,43.3,35.7,42.9,35.9,42.5L35.9,42.5z"/>
	<path class="st0" d="M25.4,45.5c0,0,0.5-0.8,1.1-1.9c0.6-1.1,1.5-2.6,2.5-4.1l0.1,0c0,0-0.2,0.3-0.5,0.8c-0.3,0.4-0.6,0.9-1,1.7
		c-0.8,1.4-1.5,2.8-1.5,2.8c0,0,0.5-0.5,1.1-0.5c0.5,0,0.4,0.5,0.4,0.5c0,0,0.4-0.5,1-0.8c0,0-0.2-0.4,0.4-1
		c0.4-0.4,1.2-0.6,1.7-0.3c0.5,0.3,0.9,1.2-0.8,2.5c0,0,0.7,0.1,1.4-0.7c0,0,0-0.5,0.3-0.9c0.3-0.4,0.5-0.5,0.7-0.3
		c0.1,0.1,0.1,0.3,0,0.4c-0.1,0.1-0.3,0.2-0.4-0.1c0,0-0.2,0.1-0.3,0.5c-0.1,0.5,0.1,0.7,0.4,0.6c0.3-0.1,0.7-0.5,0.9-1.3
		c0,0,0-0.1,0.1-0.3c0.1-0.4,0.2-1,0.3-1.6c0.2-1,0.7-2.5,1.1-4.6l0.1-0.1c0,0-0.2,1.1-0.6,3.2c-0.5,2.1-0.6,2.9-0.7,3.4
		c-0.1,0.4-0.1,0.9,0,0.9c0.1,0,0.3-0.2,0.4-0.4c0-0.1,0.1-0.1,0.1-0.1c0,0,0,0.1,0,0.1c-0.1,0.1-0.3,0.4-0.5,0.6
		c-0.2,0.2-0.4,0.1-0.3-0.5c0,0-0.4,0.9-1.1,1c-0.4,0.1-0.4-0.3-0.4-0.3c0,0-0.5,0.4-1,0.7c0,0-0.5,1-1.2,1.7
		c-0.7,0.7-1.4,0.8-1.7,0.6c-0.3-0.2-0.2-0.6,0.1-0.8c0.2-0.2,0.6-0.3,0.8-0.2c0.3,0.1,0.2,0.4,0.1,0.5c-0.1,0.1-0.2,0.3-0.5,0.2
		c-0.2-0.1,0-0.4,0.3-0.4c0,0-0.3-0.2-0.6,0c-0.3,0.2-0.1,0.5,0.2,0.6c0.3,0.1,0.7-0.1,1-0.4c0.3-0.3,0.9-0.9,1.2-1.6
		c0,0-0.4,0.1-0.9,0.1c-0.5,0-0.9,0-1.2,0.1c-0.3,0.1-0.6,0.3-1.3,0.2c0,0-0.5,0.8-1.1,1.3c-0.5,0.5-1,0.5-1.3,0.2
		c0,0-1,0.5-1.4,0.1c-0.3-0.3-0.1-0.7,0.1-0.9c0.3-0.2,0.6-0.3,0.9-0.1c0.6,0.4-0.2,1-0.5,0.7c-0.1-0.1,0-0.2,0-0.3
		c0.1-0.1,0.3-0.1,0.4,0c0,0,0.1-0.1-0.1-0.3c-0.2-0.1-0.4,0-0.6,0.1c-0.1,0.1-0.2,0.3,0.1,0.5c0.3,0.2,0.7,0.2,1.2-0.1
		c0.5-0.2,1.1-0.9,1.5-1.4c0,0-1.3-0.2-1.7,0.2l-0.3,0C23.9,46,24.4,45.4,25.4,45.5L25.4,45.5z M26.5,45.9l-0.5,0c0,0-0.8,1-1.4,1.3
		c0,0,0.2,0.2,0.4,0.1c0.2,0,0.6-0.2,1-0.7C26.3,46.1,26.4,45.9,26.5,45.9z M27,45.6c0,0,0.6,0.1,0.9-0.1c0.3-0.2,0.5-0.3,0.8-0.3
		c0.3,0,0.5,0,0.7,0c0.2,0,0.7-0.3,1.1-0.8c0.4-0.5,0.4-1.1-0.2-1.4c-0.5-0.2-1-0.1-1.3,0.2c-0.2,0.2-0.3,0.4-0.3,0.6
		c0,0,0.3-0.1,0.5,0c0.2,0.1,0.3,0.4,0.2,0.5c-0.1,0.2-0.3,0.3-0.6,0.1c-0.2-0.1-0.3-0.4-0.3-0.4c0,0-0.4,0.2-0.7,0.5
		C27.7,44.9,27.2,45.4,27,45.6L27,45.6z M29.1,44.3c0.1,0.1,0.2,0.1,0.3,0c0.1-0.1-0.1-0.4-0.5-0.3C28.8,44,28.9,44.1,29.1,44.3
		L29.1,44.3z M25.9,45.1l-0.2,0.4c0.5,0,1.1,0.1,1.1,0.1c0,0,0.7-0.6,0.4-1C26.8,44.2,25.9,45.1,25.9,45.1z M32.4,45.3
		c0,0-0.1,0.1-0.2,0.3c-0.1,0.2-0.1,0.6,0.1,0.6c0.1,0,0.2-0.2,0.2-0.2c0-0.1-0.2-0.1-0.1-0.4C32.3,45.4,32.4,45.3,32.4,45.3
		L32.4,45.3z M32,45.6c-0.1,0-0.1,0.2-0.2,0.3c0,0.1-0.1,0.3-0.2,0.5c-0.1,0.1-0.1,0.3,0,0.3c0.1,0,0.1-0.1,0.2-0.2
		c0.1-0.1,0.1-0.3,0.1-0.6C31.9,45.8,32.1,45.6,32,45.6L32,45.6z M31.7,45.9c0-0.2,0.1-0.2,0.1-0.3c0-0.1-0.1-0.1-0.2,0.1
		c0,0.1-0.1,0.3-0.2,0.4c-0.1,0.1-0.3,0.3-0.1,0.3C31.4,46.4,31.6,46.1,31.7,45.9L31.7,45.9z M44.7,35.1c0,0-0.1,0.1,0,0.3
		c0.1,0.2,0.4,0.5,0.5,0.4c0.1-0.1,0.1-0.3,0-0.3c-0.1-0.1-0.2,0.1-0.4-0.2C44.7,35.2,44.7,35,44.7,35.1L44.7,35.1z M44.6,35.6
		c-0.1,0.1,0,0.3,0.1,0.4c0.1,0.1,0.1,0.3,0.2,0.5c0,0.1,0.2,0.3,0.2,0.2c0.1,0,0-0.1,0-0.3c0-0.2-0.2-0.3-0.3-0.5
		C44.7,35.7,44.7,35.5,44.6,35.6L44.6,35.6z M44.6,36c-0.1-0.2-0.1-0.2-0.2-0.3c-0.1-0.1-0.2,0-0.1,0.1c0.1,0.1,0.1,0.3,0.1,0.5
		c0,0.1,0,0.4,0.2,0.3C44.8,36.5,44.7,36.2,44.6,36L44.6,36z M46.6,30c0,0,0,0.2,0.1,0.3c0.1,0.2,0.5,0.4,0.6,0.3
		c0.1-0.1,0-0.3-0.1-0.3c-0.1,0-0.2,0.1-0.4-0.1C46.7,30.1,46.7,30,46.6,30z M46.7,30.5c-0.1,0.1,0.1,0.2,0.2,0.3
		c0.1,0.1,0.2,0.3,0.3,0.4c0.1,0.1,0.2,0.2,0.3,0.2c0-0.1,0-0.1-0.1-0.3c-0.1-0.1-0.3-0.2-0.4-0.4C46.8,30.7,46.7,30.5,46.7,30.5
		L46.7,30.5z M46.8,31c-0.1-0.1-0.1-0.1-0.2-0.2c-0.1-0.1-0.2,0.1,0,0.2c0.1,0.1,0.2,0.3,0.2,0.4c0,0.1,0.1,0.4,0.2,0.2
		C47.2,31.4,46.9,31.1,46.8,31z M20.2,45.5c0,0-0.2,0-0.3,0.1c-0.2,0.1-0.4,0.5-0.3,0.6c0.1,0.1,0.3,0,0.3-0.1
		c0.1-0.1-0.1-0.2,0.1-0.4C20.2,45.6,20.3,45.6,20.2,45.5L20.2,45.5z M19.7,45.6c-0.1-0.1-0.2,0.1-0.3,0.2c-0.1,0.1-0.3,0.2-0.4,0.3
		c-0.1,0.1-0.2,0.2-0.2,0.3c0.1,0,0.1,0,0.3-0.1c0.1-0.1,0.2-0.3,0.4-0.4C19.6,45.7,19.8,45.6,19.7,45.6L19.7,45.6z M19.3,45.7
		c0.1-0.1,0.1-0.1,0.2-0.2c0.1-0.1-0.1-0.2-0.2,0c-0.1,0.1-0.3,0.2-0.4,0.2c-0.1,0-0.4,0.1-0.3,0.2C18.8,46,19.2,45.8,19.3,45.7z
		 M15.3,43.5c0,0-0.1-0.1-0.3,0c-0.2,0.1-0.5,0.4-0.4,0.5c0.1,0.1,0.3,0.1,0.3,0c0.1-0.1-0.1-0.2,0.2-0.4
		C15.2,43.6,15.3,43.6,15.3,43.5z M14.8,43.4c-0.1-0.1-0.3,0-0.4,0.1c-0.1,0.1-0.3,0.1-0.5,0.2c-0.1,0-0.3,0.1-0.2,0.2
		c0,0.1,0.1,0,0.3,0c0.2,0,0.3-0.2,0.5-0.3C14.7,43.5,14.9,43.5,14.8,43.4L14.8,43.4z M14.4,43.5c0.2-0.1,0.2-0.1,0.3-0.2
		c0.1-0.1,0-0.2-0.1-0.1c-0.1,0.1-0.3,0.1-0.5,0.1c-0.1,0-0.4,0-0.3,0.2C13.8,43.6,14.2,43.5,14.4,43.5L14.4,43.5z M6.3,33.6
		c0,0-0.1-0.1-0.3-0.2c-0.2,0-0.6,0-0.6,0.2c0,0.1,0.2,0.2,0.2,0.2c0.1,0,0.1-0.2,0.4-0.2C6.2,33.6,6.3,33.7,6.3,33.6z M5.9,33.3
		c0-0.1-0.2-0.1-0.4-0.1c-0.1,0-0.4-0.1-0.5-0.1c-0.1,0-0.3,0-0.3,0c0,0.1,0.1,0.1,0.2,0.2c0.1,0.1,0.3,0,0.6,0
		C5.8,33.3,5.9,33.4,5.9,33.3L5.9,33.3z M5.6,33c0.2,0,0.2,0,0.3,0C6,33,6,32.9,5.8,32.9c-0.1,0-0.3-0.1-0.4-0.2
		c-0.1-0.1-0.3-0.2-0.3,0C5,32.9,5.4,33,5.6,33z"/>
	<path class="st0" d="M4.8,27.8c0,0,0.6,0.3,0.9,1.2c0.2,0.5,0.2,1.4,0.2,1.4c0,0,0.2,0.9,1.1,1.3c0.9,0.4,1.3,0,1.4-0.5
		c0-0.5-0.2-1.2-0.7-1.5C7.1,29.5,6.8,30,7,30.3c0,0,0.3-0.2,0.4,0.1c0.1,0.3-0.4,0.4-0.6,0c-0.2-0.4-0.1-0.8,0.2-0.9
		c0.3-0.1,0.9,0.1,1.4,0.7c0.4,0.6,0.5,1.4,0.1,1.7c-0.4,0.3-1.5,0.5-2.5-1c0,0,0,0.9,0.8,1.7c0,0,0.4-0.1,0.9,0.2
		c0.4,0.2,0.8,0.5,0.7,0.8c-0.1,0.3-0.6,0.1-0.5-0.1C7.9,33.4,8,33.4,8,33.4c0,0,0.1-0.2-0.4-0.4c-0.5-0.2-0.7,0.1-0.7,0.2
		c0,0.1,0.1,0.6,0.9,0.9c0,0,1.3,0.1,2.8,0.2c1.8,0.2,4,0.4,4,0.4l0.1,0.1c0,0-1,0-2.9-0.2c-1.4-0.1-2.9-0.2-3.4-0.2
		c-0.4,0-1,0-1,0.1c0,0.1,0.2,0.3,0.6,0.5c0,0,0.5,0,1.2,0.4c0,0-0.1-0.3-0.7-0.7c0,0,0.4,0,1.1,0.8c0.4,0.5,0.5,1,0.8,1.4
		c0.2,0.3,0.5,0.4,0.5,0.4c0,0,0.9-0.1,2.6-0.2c1.7-0.1,2.9-0.3,2.9-0.3l0.1,0.1c0,0-1.3,0.2-3.1,0.4c-1.8,0.2-2.9,0.3-3.2,0.3
		c-0.3,0-0.6,0.1-0.6,0.2c0,0.1,0.4,0.3,0.8,0.4c0,0,1.5-0.2,3.3-0.4c2-0.1,4.1-0.4,4.1-0.4l0.1,0.1c0,0-1.8,0.3-3.9,0.5
		c-1.2,0.1-2.6,0.3-2.6,0.3c0,0,0.9,0.2,0.6,0.7c0,0,1,0.2,0.9,0.7c-0.1,0.5-1.3,0.3-1.3,0.3c0,0,0.4,0.3,0.9,0.4
		c0,0,1.7-0.6,3.4-1.1c1.6-0.5,2.8-0.8,3.4-1l0.1,0c0,0-1.6,0.4-3.3,1c-1.4,0.5-2.7,1-2.7,1c0,0,1.2,0.1,1,0.7c0,0,1.1,0.1,0.9,0.6
		C15.2,42,14,42,14,41.9c0,0,0.4,0.3,1.3,0.4c0,0,0.4-0.2,1-0.3c0,0-0.9-0.1-0.5-0.7c0.4-0.8,1.9-1,4.2-1.8l0.1,0c0,0-1.1,0.4-2.8,1
		c-1.4,0.5-1.2,1.1-1.1,1.2c0.1,0.1,0.3,0.2,0.5,0.1l0.2,0.1c0,0-1.2,0.2-1.3,0.6c-0.1,0.3,1.1,0.3,1.1,0.3c0,0,0.2-0.2,0.7-0.3
		c0.5-0.1,0.6,0,0.7,0.2c0.1,0.2-0.3,0.5-0.4,0.2c-0.1-0.2,0-0.2,0-0.2c0,0-0.3-0.1-0.5,0.3c-0.3,0.4-0.2,0.7,0.6,0.6
		c0,0,0.2-0.3,0.7-0.5c0.4-0.2,0.7-0.1,0.9,0.1c0.1,0.2-0.3,0.6-0.5,0.3c-0.1-0.2,0.2-0.3,0.2-0.3c0,0-0.1-0.2-0.5,0.1
		c-0.3,0.2-0.4,0.5-0.3,0.6c0.1,0.1,0.7,0.3,1.4-0.3c0.3-0.3,0.7-0.3,0.7-0.3c0,0-0.3,0.2-0.6,0.4c-0.3,0.3-0.5,0.5-0.5,0.5
		c0,0.1,0.3,0,0.5-0.1c0.1-0.1,0.8-0.6,1.5-1.2c0.6-0.5,1.3-1.1,2.1-1.7c0.9-0.7,1.6-1.4,2-1.7l0.1,0c0,0-0.7,0.6-2,1.7
		c-1.4,1.2-2.4,2.2-3,2.7c0,0,1.2-0.5,1.5-0.1c0.2,0.2,0.1,0.6-0.2,0.9c-0.3,0.3-1,0.5-1.3,0.2c-0.1-0.2-0.1-0.3,0.1-0.4
		c0.1-0.1,0.3,0,0.3,0c0.1,0.1-0.1,0.3-0.1,0.3c0,0,0.3,0.2,0.6,0c0.3-0.2,0.3-0.7,0.2-0.8c-0.2-0.1-0.5-0.2-1.4,0.2
		c0,0-0.8,0.7-1.9,1.3c-0.6,0.3-1.4,0.5-2,0.2l0.1-0.1c0,0,0.3,0.2,0.9,0.1c0.6-0.2,0.8-0.3,2.1-1.2c0,0-0.5,0.1-0.6,0
		c-0.1-0.1,0.2-0.4,0.2-0.4c0,0-0.8,0.3-1.1,0c-0.2-0.2-0.1-0.4-0.1-0.4c0,0-0.8,0.2-1.1-0.1c-0.2-0.2,0.1-0.5,0.1-0.5
		c0,0-1,0-1.3-0.1c-0.3-0.1,0-0.4,0-0.5c0,0-0.9,0-1.6-0.5c-0.7-0.4-1.2-1-1.5-1.2c-0.4-0.3-0.4-0.1-0.6-0.3c0,0,0.5,0,0.7-0.1
		c0,0-1.6-0.3-2.7-2.2c0,0,0.2,0,0.5-0.1c0,0-0.9-0.3-1-0.6c-0.1-0.1,0.3-0.2,0.4-0.2c0,0-0.9-0.3-1.1-0.6c-0.2-0.3,0-0.5,0-0.5
		c0,0-0.5-0.2-0.7-0.6c-0.2-0.4,0.2-0.5,0.2-0.6c0,0-0.8-0.5-0.9-0.7C6.9,34.1,7.3,34,7.5,34c0,0-0.8-0.3-1-0.9
		c-0.2-0.3,0.2-0.5,0.2-0.5c0,0-0.5-0.5-0.9-1.3c0,0-1.1-0.5-1.7-1c-0.6-0.5-1.1-1.2-0.9-1.7c0.2-0.5,0.7-0.2,0.9-0.1
		c0.2,0.1,0.5,0.4,0.3,0.9c-0.1,0.4-0.5,0.2-0.6,0.1c-0.1-0.1-0.2-0.2-0.1-0.4c0.1-0.2,0.4-0.2,0.4,0.2c0,0,0.2,0.1,0.2-0.2
		c0-0.2-0.1-0.4-0.3-0.5c-0.2-0.1-0.4,0.1-0.4,0.3c-0.1,0.2-0.1,0.4,0.3,0.9c0.4,0.5,1,0.9,1.9,1.3c0,0-0.2-0.6-0.2-1.3
		c-0.1-0.7,0-1.6-0.6-1.7L4.8,27.8L4.8,27.8z M13.1,41.2c0.2,0.2,0.3,0.3,0.5,0.4c0.6,0.3,1.2,0,1.2-0.3c0-0.3-0.6-0.4-0.6-0.4
		C13.9,41.3,13.1,41.2,13.1,41.2L13.1,41.2z M12.1,40.6c0.4,0.2,0.8,0.5,0.8,0.5c0.3,0.1,1-0.1,1-0.3c0-0.3-0.8-0.4-0.8-0.4
		C12.5,40.5,12.1,40.6,12.1,40.6z M10.6,39c0.2,0.3,0.6,0.6,0.6,0.6c0.5,0.2,1.1,0,1.1-0.3c0-0.3-0.6-0.4-0.6-0.4
		C11.5,39.3,10.6,39,10.6,39z M10,38.3c0.2,0.3,0.4,0.6,0.4,0.6c0.4,0.1,1.1,0,1.1-0.2c0-0.3-0.5-0.4-0.5-0.5L10,38.3L10,38.3z
		 M9.2,36.2c-0.2,0-0.4,0.1-0.5,0.2c-0.1,0.2,0.2,0.5,0.5,0.6c0.3,0.1,0.7,0.2,0.7,0.2l0.7-0.1c-0.5-0.2-0.8-0.8-0.8-0.8
		C9.8,36.3,9.5,36.2,9.2,36.2L9.2,36.2z M9.3,35.4c-0.4-0.3-1.1-0.3-1.3-0.1C7.8,35.7,8.5,36,8.5,36c0.4-0.2,1.1,0.1,1.1,0.1
		C9.5,35.8,9.3,35.4,9.3,35.4z"/>
	<path class="st0" d="M7.9,36.3c-0.3-0.6-0.6-1-0.8-1.1c-0.2-0.1-0.7-0.3-0.6,0c0.1,0.2,0.4,0.1,0.4,0.1c0.4,0.3,0.3,0.6,0.7,1.4
		c0.2,0.4,0.5,0.7,0.8,0.8c0.4,0.3,0.7,0.2,0.7,0.2C8.6,37.4,8.2,36.9,7.9,36.3L7.9,36.3z M7.5,36.4c0-0.1-0.2-0.2-0.4-0.2
		c-0.1,0-0.4-0.1-0.5-0.2c-0.1-0.1-0.2-0.1-0.2,0c0.1,0.1,0.2,0.3,0.4,0.3c0.1,0,0.4,0,0.5,0C7.5,36.5,7.5,36.5,7.5,36.4z M13.1,7.6
		c0.1,0,0.1-0.1,0.1-0.3c0-0.2-0.1-0.6-0.3-0.6c-0.1,0-0.2,0.2-0.1,0.3c0.1,0.1,0.2,0,0.3,0.3C13.1,7.5,13,7.6,13.1,7.6z M13.4,7.2
		c0.1,0,0.1-0.2,0-0.4c0-0.1,0-0.4,0-0.5c0-0.1,0-0.3-0.1-0.3c-0.1,0-0.1,0.1-0.1,0.3s0,0.3,0.1,0.6C13.3,7,13.3,7.2,13.4,7.2z
		 M13.5,6.8c0,0.2,0,0.2,0,0.3c0,0.1,0.2,0.1,0.1-0.1c0-0.1,0-0.4,0.1-0.5c0.1-0.1,0.2-0.4,0-0.3C13.6,6.2,13.5,6.6,13.5,6.8z
		 M11.1,9.3c0.1,0,0.1-0.1,0.1-0.3c0-0.2-0.2-0.6-0.4-0.5c-0.1,0-0.1,0.2-0.1,0.3c0.1,0.1,0.2,0,0.3,0.3C11.1,9.2,11,9.3,11.1,9.3
		L11.1,9.3z M11.3,8.8c0.1,0,0-0.2,0-0.4c0-0.1,0-0.4,0-0.5c0-0.1-0.1-0.3-0.1-0.3c-0.1,0-0.1,0.1-0.1,0.3c0,0.2,0.1,0.3,0.2,0.6
		C11.3,8.7,11.2,8.9,11.3,8.8L11.3,8.8z M11.4,8.4c0,0.2,0,0.2,0.1,0.3c0,0.1,0.2,0,0.1-0.1c0-0.1,0-0.4,0-0.5
		c0.1-0.1,0.1-0.4-0.1-0.3C11.4,7.8,11.4,8.2,11.4,8.4z M5.5,18.1c0,0,0-0.2-0.1-0.3c-0.1-0.2-0.5-0.4-0.6-0.3c-0.1,0.1,0,0.3,0,0.3
		C5,17.8,5,17.7,5.3,17.9C5.4,18,5.4,18.1,5.5,18.1L5.5,18.1z M5.5,17.6c0.1-0.1-0.1-0.2-0.2-0.3c-0.1-0.1-0.2-0.3-0.3-0.4
		c-0.1-0.1-0.2-0.2-0.2-0.2c0,0.1,0,0.1,0,0.3c0.1,0.2,0.2,0.3,0.4,0.4C5.3,17.5,5.4,17.7,5.5,17.6z M5.4,17.2
		c0.1,0.1,0.1,0.2,0.2,0.2c0.1,0.1,0.2,0,0-0.2c-0.1-0.1-0.2-0.3-0.2-0.4c0-0.2-0.1-0.4-0.2-0.3C5.1,16.7,5.3,17,5.4,17.2z
		 M4.5,23.2c0,0,0-0.2-0.2-0.3c-0.2-0.1-0.5-0.3-0.6-0.2C3.6,22.8,3.7,23,3.8,23c0.1,0,0.1-0.1,0.4,0C4.4,23.1,4.4,23.3,4.5,23.2z
		 M4.3,22.7c0-0.1-0.1-0.2-0.3-0.3c-0.1-0.1-0.3-0.2-0.3-0.3C3.6,22,3.5,21.9,3.4,22c0,0.1,0,0.1,0.1,0.3c0.1,0.1,0.3,0.2,0.5,0.3
		C4.2,22.6,4.3,22.8,4.3,22.7L4.3,22.7z M4.1,22.3c0.1,0.1,0.2,0.1,0.3,0.2c0.1,0,0.2-0.1,0-0.2c-0.1,0-0.3-0.2-0.3-0.4
		c0-0.1-0.2-0.4-0.3-0.2C3.7,21.9,4,22.2,4.1,22.3L4.1,22.3z"/>
	<path class="st0" d="M8.3,14.4C8.3,14.6,9,16,9.9,18.3c0.9,2.2,1.7,3.6,1.6,3.6l0,0.1c0,0-0.6-1.2-1.4-2.9c-1-2.4-1.5-3.3-1.5-3.2
		c0,1-0.6,0.8-0.6,0.8c0,0,0.3,1-0.3,1.1c-0.6,0.1-0.8-1.1-0.7-1.1c-0.3,0.9-0.2,1.4-0.2,1.4c0.3,0.2,0.4,0.6,0.4,0.6
		c0.1-1,0.9-0.6,1.6,0.4c0.7,1.1,1.5,3.1,1.6,3l0,0.1C10,21.6,9.8,21.2,9.2,20c-0.6-1.2-1.3-1.8-1.7-1.7c-0.4,0.2-0.1,0.8-0.1,0.8
		l0,0.1c-0.2-0.5-0.6-1-0.9-1.1c-0.2,0-0.3,0.2-0.2,0.4c0,0.3,0.1,0.6,0.1,0.6c0.3,0.1,0.9,0.8,0.7,1.2c-0.2,0.4-0.6,0-0.4-0.2
		c0.1-0.2,0.3,0,0.3,0c0.2-0.4-0.7-0.8-0.9-0.6c-0.2,0.3,0.1,0.7,0.1,0.7c0.6,0.3,0.9,1,0.7,1.4c-0.1,0.3-0.6,0.1-0.5-0.2
		c0.1-0.3,0.3,0,0.3,0c0.1-0.4-0.1-0.5-0.4-0.7c-0.2-0.1-0.5-0.2-0.5,0c-0.2,0.6,0.8,1.3,0.8,1.3c0.3,0.4,0.2,0.6,0.2,0.6
		c-0.1-0.2-0.4-0.4-0.6-0.6c-0.2-0.2-0.5-0.5-0.6-0.4c-0.1,0.2,0.3,0.8,0.3,0.8c0.8,0.7,1.8,1.4,2.9,2.4c1.1,1,2.2,2.1,2.2,2l0,0.1
		c0,0-1.1-1-2.2-2c-1.2-0.9-2.4-1.9-2.4-1.9c0.3,0.5,0.3,0.8,0.3,1c-0.1,0.1-0.4,0.4-1,0c-0.6-0.5-0.5-1-0.3-1.2
		c0.2-0.2,0.4,0.2,0.3,0.3c-0.1,0.1-0.2,0-0.2,0c-0.2,0.5,0.7,0.9,1,0.6c0.3-0.2-0.3-1-0.3-1c-0.8-0.5-1.5-1.4-1.5-1.4
		c-1.2-1.6-0.7-2.3-0.7-2.3l0.1,0.1c-0.2,0.7,0.3,1.5,0.8,2.1c0.5,0.5,1,0.9,1,0.9c-0.2-0.3-0.4-0.9-0.3-1c0.1-0.1,0.4,0.1,0.4,0.1
		c-0.1-0.2-0.3-0.8-0.2-1c0.1-0.2,0.4-0.1,0.4-0.1c-0.1-0.1-0.3-0.8-0.1-1c0.2-0.2,0.5-0.1,0.5-0.1c0,0-0.1-0.3-0.1-0.6
		c0-0.2-0.1-0.5,0-0.6c0.2-0.4,0.5-0.1,0.5-0.1c-0.4-1.4,0.9-3,1.3-3.6c0.3-0.5,0.2-0.6,0.2-0.6C8.2,13.9,8.2,14.2,8.3,14.4
		L8.3,14.4z M7.5,15.4c0,0-0.4,0.6-0.5,0.9c0,0,0.1,1.1,0.7,1c0.4,0,0.2-0.8,0.2-0.8C7.9,16.5,7.5,16.3,7.5,15.4z M8.4,15.2
		c0,0-0.2-0.4-0.3-0.8c0,0-0.1,0.3-0.5,0.7c0,0,0.1,1.1,0.6,1C8.6,16.1,8.4,15.2,8.4,15.2z M22.2,2.5c0.6,0.3-0.1,1.3-0.7,1.1
		c-0.7-0.2-0.2-0.8,0.2-0.7c0.3,0.1,0,0.5-0.3,0.4c0,0,0.1,0.1,0.2,0.1c0.2,0,0.4,0,0.5-0.2c0.2-0.3-0.3-0.7-0.9-0.4
		c-0.6,0.4-1,0.7-1.6,2.2c0,0,1.3-0.2,1.3-0.7L21,4.2c0,0,0,0.3-0.5,0.7c-0.5,0.4-0.9,0.5-0.9,0.5c0,0-0.3,0.4-0.6,1.7
		c-0.2,0.8-0.6,1.9-0.9,3c-0.3,1.1-0.8,2.6-0.8,2.6l-0.1,0.1c0,0,0.3-1.1,0.7-2.6c0.4-1.5,0.7-2.5,1-3.6c0,0-0.3,0.4-0.6,0.5
		c-0.3,0.1-0.4-0.3-0.4-0.3c0,0-0.2,0.7-0.7,0.9c0,0,0.1,0.4-0.2,1c-0.3,0.5-1.2,1.3-1.8,1C14.5,9.3,14.6,8,15.4,7
		c0,0-1.1,0.4-1.2,1.2c0,0,0.2,0.3,0.1,0.7c0,0.4-0.2,0.7-0.5,0.8c-0.3,0.1-0.4-0.5-0.1-0.5c0.2,0,0.1,0.3,0.1,0.3
		c0,0,0.4-0.2,0.3-0.6c-0.1-0.4-0.4-0.6-0.5-0.6c-0.2,0-0.4,0.5-0.5,0.9c-0.1,0.5,0.1,1,0.1,1.4c0.1,0.4,0.1,0.9,0.2,2.7
		c0.1,1.8,0.2,3.2,0.3,3.7l-0.1,0.1c0,0-0.1-0.6-0.3-3.1c-0.1-2.6-0.3-4-0.4-4.3C12.9,9.3,12.8,9,12.7,9c-0.1,0-0.4,0.5-0.5,1.2
		c0,0,0.2,1,0.4,2.5c0.2,1.6,0.3,3.3,0.3,3.3l0,0.1c0,0-0.3-2.1-0.4-3.3c-0.2-1.2-0.3-1.8-0.3-1.8c0,0-0.2,0.8-0.7,0.7
		C11,11.7,11,11,11.2,10.4c0,0-0.4,0.3-0.5,0.8c0,0,0.4,0.9,0.7,2.2c0.3,1.3,0.5,2.6,0.6,3.1l0,0.1c0,0-0.1-0.6-0.5-2.1
		c-0.4-1.6-0.5-1.9-0.5-1.9c0,0-0.2,0.5-0.5,0.2C10,12.5,9.6,12,9.5,12.5l0,0.3c0,0,0.3,0.1,0.4,0.7c0.1,0.6-0.4,1.3-0.6,0.8
		c-0.1-0.3,0.2-0.5,0.3-0.1c0,0,0.3-0.3,0.1-0.6c-0.2-0.4-0.5-0.5-0.6-0.5c-0.2,0.1-0.3,0.5-0.1,1.1c0.1,0.5,0.4,0.7,0.2,1.1
		c0,0,0-0.2-0.4-0.7c-0.3-0.5-1-1.7-1-2.7c-0.1-1,0.4-2.6,1-2.8l0,0.2c0,0-0.6,0.4-0.7,1.6c-0.1,0.8-0.1,1.4,0.9,3.2
		c0,0-0.2-1.1,0.2-1.4c0.2-0.1,0.4,0.1,0.4,0.1c0,0,0.1-0.8,0.2-0.9c0.2-0.2,0.9,0.8,1.1,0.7c0.1,0,0.1-0.3,0.1-0.3
		c0,0-0.2-1-0.5-0.9C10.1,11.4,10,12,10,12c0-0.2,0-0.3,0-0.5c0-0.2,0.1-0.3,0.3-0.5c0.2-0.2,0.3,0.2,0.3,0.2c0,0,0-0.7,0.6-1.2
		c0.6-0.5,0.7-0.6,0.8-0.8c0,0-0.1,0.3,0,0.5c0,0.2,0.1,0.4,0.1,0.4c0,0,0.2-1.1,0.7-1.5c0.1-0.1,0.2,0.6,0.2,0.6
		c0,0,0.1-0.9,0.7-1.2c0.2-0.1,0.4,0.2,0.4,0.2c0,0,0.2-0.7,1.1-1.2c0,0,0.1-0.8,0.6-1.8c0.5-0.9,1.1-1.4,1.6-1.3
		c0.5,0.1,0.3,0.7,0.2,0.8c-0.1,0.2-0.5,0.6-0.8,0.5c-0.3,0-0.3-0.4-0.2-0.6c0.2-0.3,0.7-0.3,0.6,0c-0.1,0.2-0.4,0.2-0.4,0.1
		c0,0-0.1,0.3,0.3,0.2c0.4-0.1,0.4-0.3,0.5-0.4c0-0.1-0.1-0.3-0.3-0.4c-0.3,0-0.8,0.2-1.2,1c-0.5,0.8-0.5,1.3-0.6,1.7
		c0,0,0.5-0.2,1-0.4c0.4-0.1,0.8-0.2,0.8-0.5l0.2-0.3c0,0,0.1,0.3-0.3,0.7c-0.5,0.5-1.2,0.6-1.2,0.6c0,0-0.8,0.5-0.9,1.4
		c-0.1,0.9,0.5,1.3,1.2,0.9c0.7-0.4,1-0.9,0.9-1.4c0,0-0.3,0.2-0.5,0.1c-0.2-0.1-0.3-0.2-0.3-0.4c0.1-0.3,0.8-0.4,0.9,0.1
		c0,0,0.3-0.2,0.6-0.7C18,6.3,18,6.1,18.2,5.8c0,0-0.7,0.2-1.2,1c0,0,0-0.8,1.6-1.6c0.1-0.4,0.3-0.8,0.4-1.2
		c0.2-0.6,1.1-1.4,1.6-1.2C20.7,2.8,21.5,2.1,22.2,2.5L22.2,2.5z M16.7,7.4c-0.2,0-0.3,0-0.3,0.1c0,0.1,0.1,0.2,0.3,0.2
		c0.2,0,0.3,0,0.3-0.1C17,7.7,17,7.5,16.7,7.4z M11.9,9.8c-0.2,0.2-0.4,0.3-0.6,0.5c-0.1,0.2-0.2,0.9,0.2,1.1
		c0.4,0.2,0.6-0.6,0.6-0.6L11.9,9.8L11.9,9.8z M19.4,5.4c0,0-0.3,0.1-0.4,0.1c-0.2,0-0.5,0.2-0.5,0.1c0,0-0.5,0.6-0.2,0.9
		C18.6,6.9,19,6.3,19,6.3C19.2,5.7,19.4,5.4,19.4,5.4L19.4,5.4z M19.3,5.1c0.7-1.5,1.1-1.9,1.1-1.9C20,3.1,19.4,3.6,19.2,4
		c-0.2,0.5-0.4,1.2-0.4,1.2C19,5.1,19.3,5.1,19.3,5.1L19.3,5.1z"/>
	<path class="st0" d="M20.2,5.9c-0.1,0-0.2,0.2-0.2,0.3c0,0.1,0.1,0.2,0.3,0.1c0.1,0,0.2-0.2,0.1-0.3C20.4,6,20.4,5.9,20.2,5.9
		L20.2,5.9z M25.8,3.4c0,0,0.2,0,0.3-0.2c0.1-0.2,0.2-0.6,0.1-0.6c-0.1-0.1-0.3,0.1-0.3,0.1c0,0.1,0.1,0.1,0,0.4
		C25.8,3.3,25.7,3.4,25.8,3.4L25.8,3.4z M26.2,3.2c0.1,0,0.2-0.2,0.3-0.3c0.1-0.1,0.2-0.3,0.3-0.4c0.1-0.1,0.2-0.3,0.1-0.3
		c-0.1,0-0.1,0-0.3,0.1c-0.1,0.1-0.2,0.3-0.3,0.5C26.3,3.1,26.2,3.2,26.2,3.2L26.2,3.2z M26.6,3c-0.1,0.2-0.1,0.2-0.1,0.3
		c0,0.1,0.1,0.1,0.2,0C26.7,3.2,26.9,3,27,3c0.1,0,0.3-0.2,0.2-0.3C27,2.6,26.7,2.9,26.6,3L26.6,3z M46.3,18.6c0,0,0.1,0.1,0.3,0.2
		c0.2,0.1,0.6,0.1,0.6-0.1c0-0.1-0.2-0.2-0.2-0.2c-0.1,0-0.1,0.2-0.4,0.1C46.5,18.7,46.4,18.6,46.3,18.6z M46.7,19
		c0,0.1,0.2,0.1,0.3,0.2c0.1,0,0.3,0.1,0.5,0.2c0.1,0.1,0.3,0.1,0.3,0c0-0.1-0.1-0.1-0.2-0.2c-0.1-0.1-0.3-0.1-0.6-0.1
		C46.8,19.1,46.7,18.9,46.7,19L46.7,19z M47,19.3c-0.2,0-0.2-0.1-0.3-0.1c-0.1,0-0.1,0.1,0.1,0.2c0.1,0,0.3,0.1,0.4,0.2
		c0.1,0.1,0.3,0.3,0.3,0.1C47.5,19.6,47.2,19.4,47,19.3L47,19.3z M32.5,6.7c-0.6,0-0.5-0.4-0.4-0.5c0.1-0.1,0.2-0.1,0.3,0
		c0.1,0.1,0.1,0.3-0.1,0.3c0,0,0.3,0.2,0.7-0.2c0.2-0.2,0.4-0.6,0.2-0.7c-0.2-0.1-0.6,0-1.1,0.2c0,0-0.6,0.6-1,0.5
		c0,0,0.3-0.2,0.6-0.5c0.3-0.3,0.4-0.5,0.4-0.6c0-0.1-0.6,0-1.1,0.1c0,0-0.3,0.2-0.6,0.4c0,0,0.5,0.2,0.9,0.1c0,0-0.6,0.4-1.8,0.1
		c-1.2-0.3-1.5-0.2-1.7-0.1c0,0-1,1.1-2,2.2c-1,1.1-2.4,2.4-2.4,2.4l-0.1,0c0,0,1-1,2.3-2.4c1.2-1.4,2.5-2.9,2.6-3
		c0.1-0.1,0.3-0.4,0.3-0.5c-0.1,0-0.4,0.1-0.8,0.3c0,0-1.1,1.2-1.9,2.1c-0.9,0.9-2.3,2-2.3,2l-0.1,0c0,0,1.3-1.1,2.2-2.1
		c0.7-0.8,1.1-1.4,1.1-1.4c0,0-0.9,0.5-1-0.2c0,0-1,0.8-1.3,0.3c-0.3-0.5,0.7-1.2,0.7-1.2c0,0-0.5-0.2-1.9,0.6c0,0,0.8-0.9,2.5-0.9
		c1.4,0,1.3,0.3,2.1,0.2c0,0,0.6-0.8,1.6-1.3c1-0.5,1.5-0.5,1.7-0.3l-0.2,0.1c0,0-0.3-0.3-1.3,0.3C29,3.4,28,4.5,28,4.5
		c0,0,0.8-0.4,1.1-0.2c0.1,0.1-0.2,0.4-0.2,0.4c0,0,0.8-0.4,1.2-0.3c0.3,0.1,0.2,0.3,0.2,0.3c0,0,0.8-0.2,1.1,0c0.3,0.2,0,0.5,0,0.5
		L32,5.1c0,0,1.2-1,1.9-1.1c0.7-0.2,1.6-0.2,1.7,0.5c0,0.7-1,0.8-1.3,0.3C34.1,4.2,35,4,35.1,4.4c0.1,0.3-0.4,0.3-0.5,0.1
		c0,0-0.1,0.1,0,0.3c0.1,0.2,0.3,0.2,0.5,0.1c0.2,0,0.3-0.3,0.2-0.5c-0.2-0.5-1.1-0.4-1.3-0.3c-0.3,0.1-1.1,0.4-1.7,0.9
		c0,0,0.3,0,0.4,0.1c0.1,0.1-0.3,0.4-0.3,0.4c0,0,1-0.4,1.3,0C34,5.9,33.1,6.7,32.5,6.7L32.5,6.7z M26.4,4.3c-0.3,0-0.9-0.1-0.9-0.1
		c0,0-0.9,0.5-0.6,0.9c0.2,0.4,0.9-0.1,0.9-0.1C25.9,4.6,26.4,4.3,26.4,4.3L26.4,4.3z M27.7,4.3c-0.4,0.1-1.1,0-1.1,0
		c0,0-0.7,0.4-0.5,0.7C26.4,5.5,27.1,5,27.1,5C27.3,4.8,27.5,4.5,27.7,4.3z M29.8,4.7C29.5,4.3,28.6,5,28.6,5L28,5.6
		c0.4-0.2,1.2-0.1,1.2-0.1C29.2,5.5,30,5,29.8,4.7L29.8,4.7z M30.3,5.7c0.3-0.1,0.8-0.6,0.7-0.8c-0.2-0.3-0.8,0-0.8,0
		c-0.1,0.3-0.8,0.6-0.8,0.6C29.6,5.6,30.3,5.7,30.3,5.7L30.3,5.7z"/>
	<path class="st0" d="M34.3,8c-0.3-0.6-1-0.1-0.9,0.1c0.1,0.3,0.4,0.1,0.4-0.1c0-0.1-0.2-0.1-0.2-0.1c0.3-0.3,0.7,0.4,0.2,0.6
		c-0.5,0.2-1.2-0.4-0.9-1C33.3,7,34.8,7,34.8,7l0.1-0.1c-0.2,0-0.9,0.1-1-0.2c-0.1-0.2,0.5-0.8,1.3-1.1C37,5,37.7,5.3,37.7,5.3
		l0.2,0c-0.2-0.2-2.2-0.1-3.2,0.4c-0.5,0.2-0.7,0.5-0.9,0.7C33.3,6.9,33.8,7,33.8,7c-0.5,0.1-1.7,0.6-1.1,1.3
		c0.3,0.4,0.8,0.5,1.2,0.4C34.2,8.5,34.5,8.2,34.3,8L34.3,8z"/>
	<path class="st0" d="M40.9,15.5c-1.1-0.1-1.8-0.1-2.5-0.3l-0.1-0.1c0,0,0.8,0.2,2.4,0.2c1.6,0,2.6-0.1,2.8-0.1
		c0.2,0,0.5-0.1,0.5-0.2c0-0.1-0.5-0.4-0.9-0.5c0,0-1.2,0.1-2.3-0.1c-1.2-0.2-1.9-0.3-2.5-0.5L38.3,14c0,0,1,0.3,2.4,0.4
		c0.8,0.1,1.5,0,1.5,0c0,0-0.5-0.4-0.1-0.7c0.4-0.3,0.9-0.5,0.5-0.7c-0.3-0.2-0.6-0.3-0.6-0.3c0,0-1.4,0.2-2.9,0.3
		c-1.6,0.1-3.4,0.2-4.3,0.2L34.6,13c0,0,1.2,0,3.1-0.2c1.8-0.1,3.4-0.3,3.4-0.3c0,0-1-0.4-0.8-0.9c0.2-0.5,1.3-0.2,1.3-0.2
		c0,0-0.4-0.5-1-0.6c0,0-0.5,0.2-0.8,0.2c-0.3,0-0.6-0.1-0.8-0.3c0,0,0.5,0.1,0.9,0c0.3-0.1,0.8-0.2,0.8-0.3c0-0.2-0.8-0.3-0.8-0.3
		c0,0-1.2,0.4-2,0.6c-0.8,0.2-1.7,0.5-2.3,0.6c-0.6,0.1-1.4,0.3-1.4,0.3l-0.1-0.1c0,0,1-0.2,1.8-0.5c0.8-0.3,2.4-0.8,3.1-1
		c0,0-1.2-0.1-1.1-0.7c0,0-0.7-0.1-1.4-0.6c-0.7-0.6-1.5-1-2.2-1.1c0,0,0.3,0,0.6-0.2c0.5-0.2,0.9-0.4,1-0.5
		c0.1-0.2-0.7-0.2-0.7-0.2l0.1-0.1c0,0,0.9,0,1,0.2c0.1,0.1-0.4,0.3-0.4,0.3c0,0,0.4-0.1,0.7,0c0,0,1.8-0.5,2.6-0.4
		c0.8,0.1,1.4,0.4,1.4,0.9c0,0.5-0.5,0.5-0.7,0.5c-0.3,0-0.6-0.2-0.7-0.6c-0.1-0.4,0.6-0.6,0.7-0.2c0.1,0.3-0.4,0.3-0.4,0.1
		c0,0-0.1,0.1,0.1,0.3C39.8,8,40.2,8,40.1,7.5c-0.1-0.4-0.9-0.6-1.2-0.7c-0.3,0-1-0.1-2.1,0.3c0,0,0.5,0.1,0.2,0.5
		c0,0,1.1-0.1,1,0.5c0,0.4-0.5,0.5-0.7,0.5c-0.1,0-0.7,0.1-0.7,0.1c0,0,0.5,0.6,1,0.5c0,0,0.2-0.4,0.9-0.5c0.4,0,0.9,0.2,0.9,0.4
		c0,0.1,0,0.3-0.2,0.4c-0.4,0.1-0.4-0.4-0.1-0.4c0,0-0.2-0.3-0.6-0.2c-0.3,0.1-0.5,0.4-0.5,0.6c0,0.2,0.3,0.4,0.9,0.4
		c0,0,1.2-0.3,1.8-0.3c0.6-0.1,2,0,2.6,0.7l-0.1,0c0,0-0.3-0.4-1.4-0.5C41.2,9.6,40,10,40,10c0,0,1.1,0.3,1.1,0.6
		c0,0.1-0.4,0.2-0.4,0.2c0,0,0.8,0.1,1.3,0.8c0.5,0.7,0.7,0.9,0.8,1c0,0-0.2-0.1-0.5,0c0,0,0.8,0.4,0.9,0.6c0.1,0.2-0.2,0.3-0.2,0.3
		c0,0,0.7,0.3,0.9,0.8c0.1,0.3-0.5,0.3-0.4,0.3c0,0,1,0.5,1,0.7c0,0.2-0.6,0.2-0.6,0.2c0,0,1.2,0.5,1.2,1.1c-0.1,0.6-1.3,0-1.3,0
		c0,0,0,0.4,0.6,0.8c0,0-0.4-0.1-0.8-0.6c-0.4-0.5-0.2-0.6-0.7-1.2C42.8,15.5,42,15.6,40.9,15.5L40.9,15.5z M36.7,7.3
		c-0.4-0.4-1.8,0.2-1.8,0.2c0.5,0.1,1,0.4,1,0.4C36.2,8,37,7.7,36.7,7.3L36.7,7.3z M37.8,8C37.6,7.7,37,7.8,37,7.8
		c-0.3,0.3-0.9,0.3-0.9,0.3c0.2,0.2,0.6,0.5,0.6,0.5C37.1,8.6,37.9,8.4,37.8,8z M42.2,12.3c-0.2-0.3-0.5-0.7-0.5-0.7
		c0,0-0.8-0.4-1,0.1c-0.3,0.4,0.7,0.7,0.7,0.7L42.2,12.3L42.2,12.3z M43.4,14c-0.1-0.3-0.6-0.5-0.6-0.5c0,0-0.1,0-0.5,0.3
		c-0.4,0.3,0.1,0.5,0.1,0.5C42.4,14.3,43.5,14.4,43.4,14L43.4,14z M44.3,15.9c-0.6-0.4-1.3-0.4-1.3-0.4c0.5,0.4,0.6,0.9,0.6,0.9
		c0.3,0.1,0.8,0.1,1,0C44.7,16.3,44.6,16.1,44.3,15.9z"/>
	<path class="st0" d="M40.6,9c0.2,0,0.6,0,0.8-0.1c0.2,0,0-0.2-0.2-0.2c-0.2,0-0.4,0.1-0.6,0.1c-0.2,0-0.3,0-0.3,0
		C40.3,9,40.4,9,40.6,9L40.6,9z M42.7,10.3c-0.2,0-0.4,0.1-0.6,0.1c-0.2,0-0.3-0.1-0.3,0c0,0.1,0.1,0.1,0.3,0.1c0.2,0,0.6,0,0.8,0
		C43.1,10.5,42.9,10.3,42.7,10.3L42.7,10.3z M45.8,16.1c0.1,0.1,0.6,0.2,0.8,0.3c0.2,0,0.1-0.2-0.1-0.3C46.3,16,46.1,16,45.9,16
		c-0.2-0.1-0.3-0.2-0.3-0.1C45.6,16,45.7,16,45.8,16.1L45.8,16.1z M45.4,16.5c0.3,0.9,0.8,0.6,0.8,0.6c-0.2,0-0.5-0.3-0.6-0.8
		c-0.1-0.4-0.4-1-0.7-1.3c-0.4-0.3-0.7-0.3-0.7-0.3C45,14.9,45.2,15.7,45.4,16.5z M48.3,24.2c0.2-0.3-0.5-1-0.8-0.3
		c-0.2,0.4,0,0.7,0.3,0.9c0.3,0.2,0.6,0.3,0.8,0c0.4-0.7-0.2-1.6-0.8-2.2c-0.6-0.6-1.3-1.2-1.3-1.2c-0.2-1.1-1-2-1-2
		c0,0,0.6,0,0.4-0.6c-0.3-0.6-1-1-1-1c0,0,0.9,0.2,0.5-0.4c-0.5-0.6-0.8-0.7-0.8-0.7c0,0,0.6,0.5,0.6,0.6c0,0.2-0.4,0.1-0.7,0.1
		c-0.3,0-0.9-0.1-2.9-0.4c-2-0.3-3.5-0.6-3.5-0.6l0.1,0.1c1.2,0.3,2.1,0.3,3.3,0.6c1.2,0.3,3.1,0.5,3.1,0.5c0.2,0.1,0.6,0.3,0.9,0.7
		c0.3,0.4,0,0.7-0.6,0.6c-0.5-0.1-0.5-0.6-0.5-0.6c0.1,0.2,0.4,0.1,0.3-0.2c-0.1-0.3-0.7-0.2-0.4,0.4c0.3,0.6,1.1,0.7,1.1,0.7
		c1,1.2,0.8,2.4,0.8,2.4c-0.6-1.4-1.9-2-2.4-1.2c-0.3,0.4-0.3,0.9-0.2,1.4c0.1,0.5,0.2,0.6,0.4,1c0.5,0.9,1.7,0.9,1.5,0
		c-0.2-0.9-1-0.7-0.9-0.2c0.1,0.5,0.4,0.3,0.4,0.1c0-0.2-0.2-0.2-0.2-0.2c0-0.2,0.2-0.1,0.2-0.1c0.5,0.2,0.4,0.9,0,1
		c-0.4,0.1-1.1-0.6-1.1-1.3c0-0.8,0.2-1.8,1-1.6c0.8,0.2,1.3,1.6,1.3,1.7c-0.1,0.7-0.2,1,0.1,1.6c0.2,0.6,0.7,0.9,0.7,0.9l-0.1-0.4
		c-0.6-0.3-0.5-0.9-0.4-1.4c0.1-0.6,0.1-1.3,0.1-1.3c0.7,0.4,0.9,0.6,1.5,1.4c0.6,0.8,0.5,1.2,0.4,1.4c-0.1,0.2-0.4,0.3-0.5,0.1
		c-0.2-0.2-0.2-0.3-0.1-0.5c0.1-0.2,0.3-0.2,0.3-0.2C47.8,24.2,48.2,24.5,48.3,24.2L48.3,24.2z"/>
</g>
<g>
	<path class="st0" d="M64.2,27.2c0,0.1-0.1,0.2-0.3,0.3c-0.2,0.1-0.4,0.2-0.8,0.3c-0.2,0.1-0.5,0.1-0.6,0.1c-0.2,0-0.3,0.1-0.4,0.1h-4
		c-0.2,0-0.4-0.1-0.5-0.4c-0.1-0.2-0.1-0.4-0.1-0.6v-3.7c0,0,0-0.1,0-0.1c0,0,0-0.1,0-0.1c0-0.1,0-0.1,0-0.1c0,0,0,0,0-0.1
		c0,0,0-0.1,0-0.1v0c0,0,0,0,0-0.1c0,0,0,0,0-0.1c0,0,0,0,0,0c0,0,0,0,0,0v-1h0.2c0,0,0,0-0.1-0.1c0-0.1-0.1-0.2-0.1-0.3
		c0-0.1,0-0.1,0-0.2c0-0.1,0-0.1,0-0.2c0-0.1,0-0.1,0-0.2c0-0.1,0-0.1,0-0.2V20c0-0.1,0-0.2,0-0.3c0-0.1,0-0.2,0-0.2
		c0-0.1-0.1-0.2-0.2-0.3c-0.1-0.1-0.3-0.1-0.6-0.1c-0.3,0-0.6-0.1-0.7-0.2v-0.3h2.8c0.3,0,0.5,0.2,0.6,0.6l0.1,7.6
		c0,0,0,0.1,0.1,0.1c0,0,0.1,0.1,0.3,0.1c0,0,0.1,0,0.1,0c0,0,0.1,0,0.1,0c0,0,0.1,0,0.1,0s0.1,0,0.1,0c0.6,0.1,1.1,0.1,1.7,0.1
		c0.4,0,0.7,0,0.9,0c0.1,0,0.3-0.1,0.6-0.1c0.1,0,0.2-0.1,0.3-0.1c0.1,0,0.1,0,0.1,0c0,0,0.1,0,0.1,0c0.1,0,0.1,0,0.2,0.1V27.2z"/>
	<path class="st0" d="M73.5,24.2c0,0.1,0,0.2,0,0.4c0,0.1,0,0.3-0.1,0.4c0,0.2-0.1,0.3-0.1,0.4s-0.1,0.2-0.1,0.3C72.3,27.2,70.9,28,69,28
		c-0.9,0-1.6-0.2-2.2-0.6c-0.3-0.2-0.6-0.4-0.8-0.7c-0.2-0.3-0.4-0.6-0.6-1c-0.1-0.1-0.2-0.4-0.3-0.7c0-0.1-0.1-0.2-0.1-0.4
		c0-0.1,0-0.3,0-0.4c0-0.2,0-0.4,0.1-0.6s0.1-0.4,0.1-0.7c0.1-0.2,0.1-0.4,0.2-0.6c0.1-0.2,0.2-0.4,0.3-0.5c0.4-0.6,1-1,1.8-1.3h0
		c0.1,0,0.3-0.1,0.4-0.1c0.2,0,0.4-0.1,0.6-0.1c0.5-0.1,0.9-0.1,1.1-0.1c1.1,0,2,0.4,2.8,1.2C73.1,22.3,73.5,23.2,73.5,24.2z
		 M71.8,24.8c0-0.4,0-0.6,0-0.6c-0.2-0.7-0.4-1.3-0.7-1.7c-0.3-0.6-0.8-1.1-1.4-1.3C69.5,21.1,69.2,21,69,21c-0.5,0-0.9,0.1-1.3,0.4
		c-0.5,0.3-0.8,0.8-0.9,1.4c0,0,0,0.1-0.1,0.1c0,0.1,0,0.1-0.1,0.2c0,0,0,0.1,0,0.1s0,0.1,0,0.2c0,0,0,0,0,0.1c0,0,0,0,0,0.1
		c0,0.1,0,0.1,0,0.2c0,0.1,0,0.1,0,0.2c0,0.2,0,0.4,0.1,0.6l0,0c0,0,0,0,0,0.1c0,0,0,0.1,0,0.1v0c0,0,0,0.1,0,0.1c0,0,0,0.1,0,0.1
		c0.1,0.4,0.2,0.7,0.4,1c0.2,0.3,0.4,0.6,0.7,0.8c0.3,0.2,0.5,0.4,0.8,0.5c0.3,0.1,0.6,0.2,0.9,0.2c0.4,0,0.7-0.1,1.1-0.3
		c0.2-0.1,0.3-0.2,0.5-0.4s0.3-0.4,0.4-0.6c0.1-0.2,0.2-0.4,0.2-0.5c0,0,0-0.1,0-0.2C71.8,25.1,71.8,25,71.8,24.8z"/>
	<path class="st0" d="M82.7,20.7c0,0.1-0.1,0.2-0.2,0.3c-0.1,0.1-0.2,0.2-0.4,0.2c-0.2,0-0.4,0-0.6,0.1s-0.4,0-0.7,0c0,0-0.1,0-0.3,0
		c0,0-0.1,0-0.1,0c0,0-0.1,0-0.1,0c0,0,0,0,0,0c0,0,0,0,0,0h-0.8c-0.1,0-0.1,0-0.2,0.1c-0.1,0-0.2,0-0.3,0.1c0,0-0.1,0-0.1,0.1
		S79,21.8,79,22.1v4.3c0,0,0,0.1,0.1,0.1c0,0,0,0,0,0c0,0,0,0,0.1,0c0,0,0,0,0.1,0c0,0,0.1,0,0.1,0c0.1,0,0.2,0.1,0.2,0.2
		c0,0.1-0.1,0.2-0.4,0.4c-0.1,0.1-0.2,0.2-0.3,0.2s-0.2,0.1-0.3,0.2c-0.3,0.1-0.5,0.2-0.7,0.2c-0.1,0-0.1,0-0.2-0.1
		c-0.1-0.1-0.1-0.1-0.1-0.1c0-0.1,0-0.2-0.1-0.4c0-0.2,0-0.4-0.1-0.6c0-0.2,0-0.5,0-0.7s0-0.6,0-0.9v-2.6c0,0,0-0.1,0-0.2
		c0-0.1,0-0.2,0-0.3c0-0.1,0-0.1,0-0.2c0-0.1,0-0.1-0.1-0.1c0,0-0.1-0.1-0.2-0.1c0,0-0.1,0-0.1,0c-0.1,0-0.2,0-0.3,0
		c-0.1,0-0.3,0-0.6,0c-0.2,0-0.5,0.1-0.8,0.1c0,0,0,0,0,0c0,0-0.1,0-0.1,0c-0.1,0-0.1,0-0.2,0c-0.2,0-0.3-0.1-0.3-0.2
		c0-0.1,0.1-0.2,0.4-0.4c0.1-0.1,0.3-0.1,0.4-0.2c0.2-0.1,0.5-0.2,0.6-0.2c0.2,0,0.3-0.1,0.5-0.1c0.1,0,0.2,0,0.4,0
		c0.1,0,0.3,0,0.4-0.1c0.1,0,0.1,0,0.2,0c0.1,0,0.1,0,0.2,0l3.9,0c0.1,0,0.3,0,0.4,0c0.1,0,0.2,0,0.3,0
		C82.6,20.5,82.7,20.6,82.7,20.7z"/>
	<path class="st0" d="M91.1,27.3c0,0.1-0.3,0.2-0.8,0.4c-0.5,0.2-0.8,0.2-1,0.2c-0.1,0-0.3-0.1-0.5-0.2c-0.2-0.1-0.4-0.3-0.7-0.5
		c-0.2-0.2-0.4-0.4-0.6-0.6s-0.4-0.4-0.7-0.7c-0.4-0.5-0.6-0.7-0.6-0.8c0-0.1,0.2-0.3,0.7-0.7c0.3-0.2,0.6-0.4,0.8-0.6
		c0.2-0.2,0.4-0.3,0.5-0.4c0.2-0.2,0.4-0.4,0.5-0.5c0.1-0.2,0.2-0.3,0.2-0.5c0-0.1,0-0.2-0.1-0.4c0-0.1-0.1-0.2-0.2-0.4
		c-0.2-0.3-0.4-0.4-0.7-0.4c-0.4,0-0.8,0.2-1.2,0.5c-0.4,0.3-0.8,0.6-1.1,1c-0.3,0.4-0.4,0.7-0.4,1v2.4c0,0,0,0.1,0,0.1
		c0,0,0,0.1,0,0.1c0,0,0,0,0,0.1v0.9c0,0.3-0.4,0.5-1.2,0.5c-0.4,0-0.7-0.1-0.8-0.2c0-0.1,0-0.2,0.1-0.3c0,0,0,0,0,0l0,0
		c0-0.1,0.1-0.1,0.1-0.2c0.1-0.2,0.1-0.4,0.1-0.7c0-0.2,0-0.3,0-0.4c0-0.1,0-0.2,0-0.2v0l0-4.7c0-0.1-0.1-0.2-0.2-0.3
		c0,0-0.1,0-0.1,0c-0.1,0-0.1,0-0.2-0.1c-0.2,0-0.3-0.1-0.4-0.2c0.1-0.2,0.3-0.3,0.8-0.3c0,0,0,0,0.1,0s0.1,0,0.2,0
		c0.1,0,0.1,0,0.2,0c0.1,0,0.1,0,0.1,0s0,0,0,0c0,0,0,0,0.1,0c0,0,0.1,0,0.1,0c0.2,0,0.4,0,0.5,0.1c0,0,0,0,0.1,0.1
		c0,0,0.1,0.1,0.1,0.1c0,0,0.1,0.1,0.1,0.1c0,0,0,0.1,0.1,0.1c0,0,0,0.1,0,0.1c0,0,0,0.1,0,0.1c0,0,0,0.1,0,0.1c0,0,0,0,0,0.1l0,0
		c0,0,0,0.1,0,0.1s0,0.2,0,0.3c0,0.2,0.1,0.4,0.1,0.6c0,0,0,0,0,0.1s0,0,0,0c0-0.1,0.1-0.1,0.2-0.2c0.1-0.1,0.2-0.2,0.3-0.3
		c0.2-0.2,0.4-0.4,0.6-0.5c0.2-0.2,0.4-0.3,0.6-0.4c0.3-0.2,0.6-0.3,0.9-0.4c0.3-0.1,0.6-0.1,0.9-0.1c0.4,0,0.8,0.2,1,0.6
		c0.2,0.3,0.3,0.7,0.3,1c0,0.4-0.2,0.9-0.6,1.4c-0.3,0.3-0.6,0.6-1.1,1c-0.2,0.1-0.3,0.2-0.4,0.3s-0.1,0.1-0.1,0.1
		c0,0.1,0.3,0.4,1,1c0.3,0.3,0.6,0.5,0.8,0.7c0.2,0.2,0.4,0.3,0.6,0.5c0,0,0.1,0,0.1,0c0.1,0,0.1,0,0.2,0
		C90.8,27.1,90.9,27.1,91.1,27.3L91.1,27.3z"/>
	<path class="st0" d="M100.6,24.2c0,0.1,0,0.2,0,0.4c0,0.1,0,0.3-0.1,0.4c0,0.2-0.1,0.3-0.1,0.4s-0.1,0.2-0.1,0.3C99.3,27.2,97.9,28,96,28
		c-0.9,0-1.6-0.2-2.2-0.6c-0.3-0.2-0.6-0.4-0.8-0.7c-0.2-0.3-0.4-0.6-0.6-1c-0.1-0.1-0.2-0.4-0.3-0.7c0-0.1-0.1-0.2-0.1-0.4
		c0-0.1,0-0.3,0-0.4c0-0.2,0-0.4,0.1-0.6s0.1-0.4,0.1-0.7c0.1-0.2,0.1-0.4,0.2-0.6c0.1-0.2,0.2-0.4,0.3-0.5c0.4-0.6,1-1,1.8-1.3h0
		c0.1,0,0.3-0.1,0.4-0.1c0.2,0,0.4-0.1,0.6-0.1c0.5-0.1,0.9-0.1,1.1-0.1c1.1,0,2,0.4,2.8,1.2C100.2,22.3,100.6,23.2,100.6,24.2z
		 M98.9,24.8c0-0.4,0-0.6,0-0.6c-0.2-0.7-0.4-1.3-0.7-1.7c-0.3-0.6-0.8-1.1-1.4-1.3C96.6,21.1,96.3,21,96,21c-0.5,0-0.9,0.1-1.3,0.4
		c-0.5,0.3-0.8,0.8-0.9,1.4c0,0,0,0.1-0.1,0.1c0,0.1,0,0.1-0.1,0.2c0,0,0,0.1,0,0.1s0,0.1,0,0.2c0,0,0,0,0,0.1c0,0,0,0,0,0.1
		c0,0.1,0,0.1,0,0.2c0,0.1,0,0.1,0,0.2c0,0.2,0,0.4,0.1,0.6l0,0c0,0,0,0,0,0.1c0,0,0,0.1,0,0.1v0c0,0,0,0.1,0,0.1c0,0,0,0.1,0,0.1
		c0.1,0.4,0.2,0.7,0.4,1c0.2,0.3,0.4,0.6,0.7,0.8c0.3,0.2,0.5,0.4,0.8,0.5c0.3,0.1,0.6,0.2,0.9,0.2c0.4,0,0.7-0.1,1.1-0.3
		c0.2-0.1,0.3-0.2,0.5-0.4s0.3-0.4,0.4-0.6c0.1-0.2,0.2-0.4,0.2-0.5c0,0,0-0.1,0-0.2C98.9,25.1,98.9,25,98.9,24.8z"/>
	<path class="st0" d="M122.6,27.2C122.6,27.2,122.6,27.2,122.6,27.2c0,0.1,0,0.1,0,0.1c0,0.1,0,0.2-0.1,0.3c-0.1,0.1-0.2,0.2-0.4,0.2
		c-0.1,0-0.2,0.1-0.3,0.1c-0.1,0-0.2,0-0.3,0c-0.4,0-0.7-0.2-0.7-0.5c0,0,0,0,0-0.1c0,0,0-0.1,0-0.1c0,0,0-0.1,0-0.1c0,0,0,0,0-0.1
		c0-0.1-0.1-0.2-0.2-0.2c0,0-0.1,0.1-0.2,0.1c-0.1,0-0.2,0.1-0.2,0.1c-0.2,0.1-0.3,0.2-0.5,0.3c-0.2,0.1-0.4,0.2-0.5,0.2
		c-0.2,0.1-0.5,0.2-0.7,0.2c-0.2,0-0.5,0.1-0.7,0.1c-0.9,0-1.7-0.3-2.4-1c-0.6-0.6-1-1.4-1-2.4c0-1,0.4-1.9,1.2-2.6
		c0.7-0.6,1.5-1,2.6-1.4c0.9-0.3,1.7-0.4,2.4-0.4c0.4,0,0.8,0.1,1.2,0.3h0c0.5,0.2,0.7,0.6,0.7,1c0,0.4-0.2,0.7-0.5,1
		c-0.2,0.1-0.3,0.2-0.5,0.3c-0.2,0.1-0.4,0.1-0.6,0.1c-0.1-0.1-0.1-0.2-0.1-0.2c0,0,0-0.1,0-0.1c0,0,0-0.1,0-0.1s0,0,0-0.1
		c0,0,0-0.1,0-0.1c0,0,0-0.1,0-0.1c0-0.1,0-0.2-0.1-0.3c-0.1-0.1-0.2-0.2-0.4-0.3c-0.1-0.1-0.3-0.2-0.4-0.2
		c-0.2-0.1-0.4-0.1-0.7-0.1c-0.4,0-0.8,0.1-1.1,0.2c-0.4,0.1-0.7,0.3-1.1,0.5c-0.4,0.3-0.7,0.6-0.9,0.9c-0.2,0.3-0.3,0.7-0.3,1.2
		c0,0.7,0.3,1.3,0.8,2v0c0.6,0.7,1.2,1,1.9,1c0.3,0,0.8-0.1,1.3-0.4c0.5-0.2,0.8-0.5,0.8-0.6c0-0.1,0.1-0.3,0.1-0.7c0,0,0,0,0,0
		s0,0,0-0.1c0,0,0-0.1,0-0.1c0,0,0-0.1,0-0.1c0-0.3-0.1-0.4-0.3-0.4c0,0-0.3,0.1-0.7,0.2c-0.2,0-0.4,0.1-0.5,0.1c-0.1,0-0.2,0-0.2,0
		c0,0-0.1,0-0.1,0c-0.1,0-0.1,0-0.1-0.1c0,0-0.1-0.1-0.1-0.1c0,0,0-0.1,0-0.1c0-0.1,0.1-0.2,0.2-0.4c0.1-0.1,0.3-0.2,0.4-0.2
		c0.2,0,0.4-0.1,0.7-0.1c0.3,0,0.5-0.1,0.9-0.1c0.3,0,0.5-0.1,0.7-0.1c0.2,0,0.3,0,0.3,0c0.6,0,0.8,0.2,0.8,0.5L122.6,27.2z"/>
	<path class="st0" d="M127.5,27.5c0,0.1-0.1,0.2-0.2,0.2c0,0-0.1,0-0.1,0.1c0,0-0.1,0-0.1,0c-0.1,0-0.2,0-0.3,0c-0.1,0-0.3,0-0.5,0
		c0,0,0,0-0.1,0s-0.1,0-0.3,0c-0.1,0-0.2,0-0.2,0c-0.1,0-0.1,0-0.1,0c-0.1,0-0.2,0-0.3-0.1h0c-0.1-0.1-0.2-0.1-0.2-0.2
		c-0.1-0.2-0.1-0.3-0.1-0.4v-1.5c0,0,0,0,0-0.1c0,0,0,0,0-0.1c0-0.1,0-0.2,0-0.2V25h0.1c0,0,0,0-0.1-0.1s-0.1-0.1-0.1-0.1
		c0-0.1,0-0.1,0-0.2c0-0.1,0-0.1,0-0.1c0-0.1,0-0.1,0-0.2c0-0.1,0-0.2,0-0.2c0-0.2,0-0.3,0-0.3v-0.6l0-0.9c0-0.1,0-0.2,0-0.3
		c0-0.1,0-0.2,0-0.3c0-0.4-0.1-0.6-0.2-0.7l0,0c0,0-0.1,0-0.2,0c-0.1,0-0.3,0-0.4-0.1c-0.3,0-0.5-0.1-0.5-0.2c0-0.1,0.1-0.2,0.3-0.2
		v0c0.1,0,0.1,0,0.1,0c0,0,0.1,0,0.1,0c0.5,0,0.8-0.1,1.1-0.1c0.3,0,0.4,0,0.5,0c0.1,0,0.3,0,0.5,0.1c0.2,0.1,0.4,0.2,0.4,0.3V23
		c0,0,0,0,0,0.1s0,0.1,0,0.3c0,0.1,0,0.2,0,0.3s0,0.2,0,0.2c0,0,0,0,0,0.1s0,0,0,0.1c0,0,0,0,0,0c0,0,0,0,0,0c0,0,0,0.1,0,0.1
		s0,0,0,0V26v0c0,0,0,0,0,0c0,0,0,0,0,0.1s0,0,0,0c0,0,0,0.1,0,0.1v0c0,0,0,0,0,0v0.5c0,0,0,0.1,0,0.1c0,0.1,0,0.1,0,0.2
		c0,0.1,0.1,0.2,0.1,0.2c0.1,0,0.1,0,0.2,0c0.1,0,0.2,0,0.3,0C127.5,27.4,127.5,27.5,127.5,27.5z"/>
	<path class="st0" d="M135,25.5c0,0.8-0.5,1.4-1.5,2c-0.3,0.2-0.6,0.3-1,0.4c-0.3,0.1-0.7,0.2-1.1,0.2h0c-0.2,0-0.4,0-0.6,0.1
		c-0.2,0-0.4,0-0.6,0c-0.4,0-0.7,0-0.8-0.1c-0.1-0.1-0.1-0.2-0.2-0.3s-0.1-0.3-0.1-0.6c0-0.2,0-0.4,0-0.6c0-0.2,0-0.4,0-0.6
		s0-0.4,0-0.6c0-0.2,0-0.4,0-0.6c0,0,0-0.1,0-0.2s0-0.1,0-0.2c0,0,0-0.1,0-0.1s0-0.1,0-0.1c0,0,0-0.1,0-0.1c0,0,0-0.1,0-0.1
		c0-0.1,0-0.2,0-0.2c0-0.1,0-0.2,0-0.2c0,0,0-0.1,0-0.2c0,0,0-0.1,0-0.1s0-0.1,0-0.1v0h0.1c0,0,0-0.1-0.1-0.3c0-0.2,0-0.4,0-0.7
		c0-0.1,0-0.2,0-0.3c0,0,0,0,0-0.1c0,0,0,0,0,0l0,0c0,0,0,0,0,0s0,0,0,0c0,0,0,0,0,0c0,0,0-0.1,0-0.1s-0.1,0-0.1,0
		c0,0-0.1,0.1-0.4,0.2c-0.3,0.1-0.4,0.2-0.5,0.2c-0.2,0-0.3-0.1-0.3-0.2c0-0.2,0.4-0.5,1.1-0.8c0.3-0.1,0.6-0.2,0.8-0.2
		c0.2-0.1,0.4-0.1,0.5-0.1c0.3,0,0.4,0.1,0.4,0.3v0.1c0,0,0,0.1,0,0.1s0,0.1,0,0.1c0,0.1,0,0.1,0,0.2s0,0.1,0,0.1l0,0.5
		c0,0.1,0,0.1,0,0.1c0,0,0.1,0,0.2-0.1c0.1-0.1,0.3-0.2,0.4-0.3c0.2-0.2,0.4-0.3,0.6-0.5c0.2-0.1,0.3-0.2,0.4-0.3
		c0.2-0.1,0.4-0.2,0.7-0.2c0.3,0,0.6,0.1,0.9,0.3c0.2,0.2,0.4,0.5,0.6,0.9c0,0,0,0.1,0,0.2c0,0.1,0,0.2,0,0.3c0,0.2,0,0.3,0,0.4
		c0,0.1-0.1,0.2-0.2,0.3c-0.1,0.1-0.2,0.2-0.3,0.3v0c0,0-0.1,0.1-0.1,0.2c-0.1,0.1-0.1,0.1-0.2,0.2c0,0,0,0-0.1,0.1c0,0,0,0,0,0l0,0
		c0,0,0,0,0.1,0c0.3,0.1,0.6,0.4,0.9,0.8v0c0.1,0.2,0.2,0.3,0.2,0.4c0,0.1,0,0.2,0.1,0.3C135,25.3,135,25.4,135,25.5z M133.4,22.8
		c0,0,0-0.1,0-0.1c0-0.1,0-0.1,0-0.2c-0.2-0.5-0.5-0.8-0.9-0.8c-0.1,0-0.1,0-0.2,0.1c-0.2,0.1-0.3,0.1-0.3,0.1
		c-0.1,0-0.1,0.1-0.2,0.1s-0.2,0.2-0.4,0.3c-0.3,0.3-0.5,0.4-0.5,0.6v0.8c0,0,0,0,0,0.1s0,0.1,0,0.1c0,0,0,0,0,0.1c0,0,0,0,0,0.1
		c0,0,0,0.1,0,0.1c0,0,0,0.1,0,0.1c0,0,0.1,0,0.2,0c0,0,0,0,0,0c0,0,0,0,0,0c0,0,0,0,0.1,0c0,0,0.1,0,0.1,0c0,0,0.1,0,0.1,0
		c0,0,0,0,0,0c0,0,0,0,0,0c0.1,0,0.3,0,0.6-0.1c0.1,0,0.1-0.1,0.2-0.1c0,0,0.1,0,0.1,0c0,0,0.1,0,0.1,0c0.4-0.1,0.7-0.3,0.9-0.6
		C133.4,23.1,133.4,23,133.4,22.8z M133.7,26.2c0-0.4-0.1-0.8-0.4-1.1c-0.3-0.3-0.6-0.5-1-0.5c0,0,0,0,0,0s0,0-0.1,0
		c0,0-0.1,0-0.1,0c0,0-0.1,0-0.1,0c0,0-0.1,0-0.1,0c0,0-0.1,0-0.1,0h0c0,0-0.1,0-0.1,0c0,0-0.1,0-0.1,0c-0.1,0-0.3,0-0.4,0.1
		c-0.1,0-0.1,0-0.1,0c0,0-0.1,0-0.1,0c-0.1,0-0.1,0.1-0.1,0.1c0,0.1,0,0.3,0,0.6c0,0,0,0,0,0.1s0,0.1,0,0.2c0,0.1,0,0.1,0,0.2
		s0,0.1,0,0.1v0l0,0.9c0,0,0,0.1,0.1,0.1c0,0,0.1,0,0.2,0.1c0.1,0,0.2,0,0.3,0c0,0,0,0,0.1,0c0.1,0,0.2,0,0.3,0c0,0,0,0,0,0
		c0,0,0,0,0,0c0,0,0.1,0,0.2,0c0.1,0,0.1,0,0.2,0c0.1,0,0.3-0.1,0.4-0.1c0.1,0,0.3-0.1,0.4-0.2c0.2-0.1,0.4-0.2,0.5-0.3
		C133.7,26.4,133.7,26.3,133.7,26.2z"/>
	<path class="st0" d="M142.8,25.5c0,0.8-0.5,1.4-1.5,2c-0.3,0.2-0.6,0.3-1,0.4c-0.3,0.1-0.7,0.2-1.1,0.2h0c-0.2,0-0.4,0-0.6,0.1
		c-0.2,0-0.4,0-0.6,0c-0.4,0-0.7,0-0.8-0.1c-0.1-0.1-0.1-0.2-0.2-0.3s-0.1-0.3-0.1-0.6c0-0.2,0-0.4,0-0.6c0-0.2,0-0.4,0-0.6
		s0-0.4,0-0.6c0-0.2,0-0.4,0-0.6c0,0,0-0.1,0-0.2s0-0.1,0-0.2c0,0,0-0.1,0-0.1s0-0.1,0-0.1c0,0,0-0.1,0-0.1c0,0,0-0.1,0-0.1
		c0-0.1,0-0.2,0-0.2c0-0.1,0-0.2,0-0.2c0,0,0-0.1,0-0.2c0,0,0-0.1,0-0.1s0-0.1,0-0.1v0h0.1c0,0,0-0.1-0.1-0.3c0-0.2,0-0.4,0-0.7
		c0-0.1,0-0.2,0-0.3c0,0,0,0,0-0.1c0,0,0,0,0,0l0,0c0,0,0,0,0,0s0,0,0,0c0,0,0,0,0,0c0,0,0-0.1,0-0.1s-0.1,0-0.1,0
		c0,0-0.1,0.1-0.4,0.2c-0.3,0.1-0.4,0.2-0.5,0.2c-0.2,0-0.3-0.1-0.3-0.2c0-0.2,0.4-0.5,1.1-0.8c0.3-0.1,0.6-0.2,0.8-0.2
		c0.2-0.1,0.4-0.1,0.5-0.1c0.3,0,0.4,0.1,0.4,0.3v0.1c0,0,0,0.1,0,0.1s0,0.1,0,0.1c0,0.1,0,0.1,0,0.2s0,0.1,0,0.1l0,0.5
		c0,0.1,0,0.1,0,0.1c0,0,0.1,0,0.2-0.1c0.1-0.1,0.3-0.2,0.4-0.3c0.2-0.2,0.4-0.3,0.6-0.5c0.2-0.1,0.3-0.2,0.4-0.3
		c0.2-0.1,0.4-0.2,0.7-0.2c0.3,0,0.6,0.1,0.9,0.3c0.2,0.2,0.4,0.5,0.6,0.9c0,0,0,0.1,0,0.2c0,0.1,0,0.2,0,0.3c0,0.2,0,0.3,0,0.4
		c0,0.1-0.1,0.2-0.2,0.3c-0.1,0.1-0.2,0.2-0.3,0.3v0c0,0-0.1,0.1-0.1,0.2c-0.1,0.1-0.1,0.1-0.2,0.2c0,0,0,0-0.1,0.1c0,0,0,0,0,0l0,0
		c0,0,0,0,0.1,0c0.3,0.1,0.6,0.4,0.9,0.8v0c0.1,0.2,0.2,0.3,0.2,0.4c0,0.1,0,0.2,0.1,0.3C142.8,25.3,142.8,25.4,142.8,25.5z
		 M141.2,22.8c0,0,0-0.1,0-0.1c0-0.1,0-0.1,0-0.2c-0.2-0.5-0.5-0.8-0.9-0.8c-0.1,0-0.1,0-0.2,0.1c-0.2,0.1-0.3,0.1-0.3,0.1
		c-0.1,0-0.1,0.1-0.2,0.1s-0.2,0.2-0.4,0.3c-0.3,0.3-0.5,0.4-0.5,0.6v0.8c0,0,0,0,0,0.1s0,0.1,0,0.1c0,0,0,0,0,0.1c0,0,0,0,0,0.1
		c0,0,0,0.1,0,0.1c0,0,0,0.1,0,0.1c0,0,0.1,0,0.2,0c0,0,0,0,0,0c0,0,0,0,0,0c0,0,0,0,0.1,0c0,0,0.1,0,0.1,0c0,0,0.1,0,0.1,0
		c0,0,0,0,0,0c0,0,0,0,0,0c0.1,0,0.3,0,0.6-0.1c0.1,0,0.1-0.1,0.2-0.1c0,0,0.1,0,0.1,0c0,0,0.1,0,0.1,0c0.4-0.1,0.7-0.3,0.9-0.6
		C141.1,23.1,141.2,23,141.2,22.8z M141.5,26.2c0-0.4-0.1-0.8-0.4-1.1c-0.3-0.3-0.6-0.5-1-0.5c0,0,0,0,0,0s0,0-0.1,0
		c0,0-0.1,0-0.1,0c0,0-0.1,0-0.1,0c0,0-0.1,0-0.1,0c0,0-0.1,0-0.1,0h0c0,0-0.1,0-0.1,0c0,0-0.1,0-0.1,0c-0.1,0-0.3,0-0.4,0.1
		c-0.1,0-0.1,0-0.1,0c0,0-0.1,0-0.1,0c-0.1,0-0.1,0.1-0.1,0.1c0,0.1,0,0.3,0,0.6c0,0,0,0,0,0.1s0,0.1,0,0.2c0,0.1,0,0.1,0,0.2
		s0,0.1,0,0.1v0l0,0.9c0,0,0,0.1,0.1,0.1c0,0,0.1,0,0.2,0.1c0.1,0,0.2,0,0.3,0c0,0,0,0,0.1,0c0.1,0,0.2,0,0.3,0c0,0,0,0,0,0
		c0,0,0,0,0,0c0,0,0.1,0,0.2,0c0.1,0,0.1,0,0.2,0c0.1,0,0.3-0.1,0.4-0.1c0.1,0,0.3-0.1,0.4-0.2c0.2-0.1,0.4-0.2,0.5-0.3
		C141.4,26.4,141.5,26.3,141.5,26.2z"/>
	<path class="st0" d="M150.7,21.5c0,0.2-0.1,0.3-0.3,0.5v0c-0.2,0.2-0.3,0.2-0.5,0.2s-0.2-0.1-0.3-0.2c-0.1-0.2-0.1-0.3-0.2-0.3
		c-0.1,0-0.1-0.1-0.2-0.1s-0.2-0.1-0.4-0.1c-0.3-0.1-0.5-0.1-0.7-0.1c-0.4,0-0.8,0.1-1.2,0.4h0c-0.4,0.3-0.8,0.7-1,1.1
		c-0.1,0.2-0.2,0.4-0.2,0.4c0,0.1,0,0.2,0.1,0.3h0c0,0,0.1,0,0.2,0h1.2c0,0,0,0,0.1,0c0.1,0,0.1,0,0.2,0c0.1,0,0.2,0,0.3,0h1.8
		c0.1,0,0.3,0,0.4,0.1c0.2,0.1,0.3,0.2,0.3,0.3c0,0.1-0.1,0.3-0.4,0.4c-0.1,0.1-0.2,0.1-0.2,0.2c-0.1,0-0.1,0.1-0.2,0.1h0
		c-0.1,0-0.1,0-0.2,0c-0.1,0-0.2-0.1-0.4-0.2c-0.1,0-0.2-0.1-0.2-0.1c-0.1,0-0.1,0-0.2,0c-0.1,0-0.3,0-0.4,0c-0.2,0-0.3,0-0.5,0
		c-0.2,0-0.3,0-0.5,0c-0.2,0-0.3,0-0.4,0h0c0,0-0.1,0-0.2,0c-0.1,0-0.2,0-0.4,0c-0.2,0-0.4,0-0.4,0.1c0,0.1,0,0.2,0,0.3
		c0,0,0,0.1,0,0.2c0,0.1,0,0.2,0,0.3c0,0,0,0,0,0c0,0,0,0,0,0.1c0.1,0.5,0.4,1,0.9,1.3c0.5,0.3,0.9,0.5,1.4,0.5c0.2,0,0.4,0,0.6-0.1
		h0l0.6-0.2c0,0,0.1,0,0.2-0.1c0.1,0,0.2-0.1,0.3-0.1c0.1,0,0.2-0.1,0.3-0.1c0.1,0,0.1,0,0.2,0c0.1,0,0.2,0.1,0.2,0.2
		c0,0.1-0.1,0.3-0.3,0.4c-0.1,0.1-0.1,0.1-0.2,0.2c-0.1,0-0.1,0.1-0.2,0.1c-0.2,0.1-0.3,0.1-0.4,0.2c-0.1,0.1-0.2,0.1-0.2,0.1
		c-0.2,0.1-0.4,0.2-0.7,0.2c-0.2,0.1-0.4,0.1-0.7,0.1c-0.2,0-0.4,0-0.6,0c-0.2,0-0.4,0-0.5-0.1c-0.1,0-0.4-0.2-0.9-0.4
		c-0.3-0.2-0.6-0.4-0.8-0.6c-0.2-0.2-0.4-0.5-0.6-0.9c-0.3-0.5-0.4-1.1-0.4-1.7c0-0.2,0-0.4,0-0.5c0-0.2,0.1-0.4,0.2-0.7
		c0.1-0.3,0.2-0.6,0.4-0.9c0.2-0.3,0.4-0.5,0.6-0.7c0.3-0.3,0.7-0.5,1-0.7c0.1,0,0.2-0.1,0.3-0.1s0.3-0.1,0.5-0.2
		c0.4-0.1,0.9-0.2,1.3-0.2c0.4,0,0.8,0.1,1.3,0.2C150.4,20.8,150.7,21.1,150.7,21.5z"/>
	<path class="st0" d="M159.4,27.3c0,0.1-0.3,0.2-0.8,0.4c-0.5,0.2-0.8,0.2-1,0.2c-0.1,0-0.3-0.1-0.5-0.2c-0.2-0.1-0.4-0.3-0.7-0.5
		c-0.2-0.2-0.4-0.4-0.6-0.6c-0.2-0.2-0.4-0.4-0.7-0.7c-0.4-0.5-0.6-0.7-0.6-0.8c0-0.1,0.2-0.3,0.7-0.7c0.3-0.2,0.6-0.4,0.8-0.6
		s0.4-0.3,0.5-0.4c0.2-0.2,0.4-0.4,0.5-0.5c0.1-0.2,0.2-0.3,0.2-0.5c0-0.1,0-0.2-0.1-0.4c0-0.1-0.1-0.2-0.2-0.4
		c-0.2-0.3-0.4-0.4-0.7-0.4c-0.4,0-0.8,0.2-1.2,0.5c-0.4,0.3-0.8,0.6-1.1,1c-0.3,0.4-0.4,0.7-0.4,1v2.4c0,0,0,0.1,0,0.1
		c0,0,0,0.1,0,0.1c0,0,0,0,0,0.1v0.9c0,0.3-0.4,0.5-1.2,0.5c-0.4,0-0.7-0.1-0.8-0.2c0-0.1,0-0.2,0.1-0.3c0,0,0,0,0,0l0,0
		c0-0.1,0.1-0.1,0.1-0.2c0.1-0.2,0.1-0.4,0.1-0.7c0-0.2,0-0.3,0-0.4c0-0.1,0-0.2,0-0.2v0l0-4.7c0-0.1-0.1-0.2-0.2-0.3
		c0,0-0.1,0-0.1,0c-0.1,0-0.1,0-0.2-0.1c-0.2,0-0.3-0.1-0.4-0.2c0.1-0.2,0.3-0.3,0.8-0.3c0,0,0,0,0.1,0s0.1,0,0.2,0
		c0.1,0,0.1,0,0.2,0s0.1,0,0.1,0c0,0,0,0,0,0c0,0,0,0,0.1,0c0,0,0.1,0,0.1,0c0.2,0,0.4,0,0.5,0.1c0,0,0,0,0.1,0.1
		c0,0,0.1,0.1,0.1,0.1c0,0,0.1,0.1,0.1,0.1c0,0,0,0.1,0.1,0.1c0,0,0,0.1,0,0.1c0,0,0,0.1,0,0.1c0,0,0,0.1,0,0.1c0,0,0,0,0,0.1l0,0
		c0,0,0,0.1,0,0.1s0,0.2,0,0.3c0,0.2,0.1,0.4,0.1,0.6c0,0,0,0,0,0.1c0,0,0,0,0,0c0-0.1,0.1-0.1,0.2-0.2c0.1-0.1,0.2-0.2,0.3-0.3
		c0.2-0.2,0.4-0.4,0.6-0.5c0.2-0.2,0.4-0.3,0.6-0.4c0.3-0.2,0.6-0.3,0.9-0.4c0.3-0.1,0.6-0.1,0.9-0.1c0.4,0,0.8,0.2,1,0.6
		c0.2,0.3,0.3,0.7,0.3,1c0,0.4-0.2,0.9-0.6,1.4c-0.3,0.3-0.6,0.6-1.1,1c-0.2,0.1-0.3,0.2-0.4,0.3s-0.1,0.1-0.1,0.1
		c0,0.1,0.3,0.4,1,1c0.3,0.3,0.6,0.5,0.8,0.7c0.2,0.2,0.4,0.3,0.6,0.5c0,0,0.1,0,0.1,0c0.1,0,0.1,0,0.2,0
		C159.1,27.1,159.3,27.1,159.4,27.3L159.4,27.3z"/>
	<path class="st0" d="M164.1,27.5c0,0.1-0.1,0.2-0.2,0.2c0,0-0.1,0-0.1,0.1c0,0-0.1,0-0.1,0c-0.1,0-0.2,0-0.3,0c-0.1,0-0.3,0-0.5,0
		c0,0,0,0-0.1,0s-0.1,0-0.3,0c-0.1,0-0.2,0-0.2,0c-0.1,0-0.1,0-0.1,0c-0.1,0-0.2,0-0.3-0.1h0c-0.1-0.1-0.2-0.1-0.2-0.2
		c-0.1-0.2-0.1-0.3-0.1-0.4v-1.5c0,0,0,0,0-0.1c0,0,0,0,0-0.1c0-0.1,0-0.2,0-0.2V25h0.1c0,0,0,0-0.1-0.1c0,0-0.1-0.1-0.1-0.1
		c0-0.1,0-0.1,0-0.2c0-0.1,0-0.1,0-0.1c0-0.1,0-0.1,0-0.2c0-0.1,0-0.2,0-0.2c0-0.2,0-0.3,0-0.3v-0.6l0-0.9c0-0.1,0-0.2,0-0.3
		s0-0.2,0-0.3c0-0.4-0.1-0.6-0.2-0.7l0,0c0,0-0.1,0-0.2,0c-0.1,0-0.3,0-0.4-0.1c-0.3,0-0.5-0.1-0.5-0.2c0-0.1,0.1-0.2,0.3-0.2v0
		c0.1,0,0.1,0,0.1,0c0,0,0.1,0,0.1,0c0.5,0,0.8-0.1,1.1-0.1c0.3,0,0.4,0,0.5,0c0.1,0,0.3,0,0.5,0.1c0.2,0.1,0.4,0.2,0.4,0.3V23
		c0,0,0,0,0,0.1s0,0.1,0,0.3c0,0.1,0,0.2,0,0.3s0,0.2,0,0.2c0,0,0,0,0,0.1s0,0,0,0.1c0,0,0,0,0,0c0,0,0,0,0,0c0,0,0,0.1,0,0.1
		s0,0,0,0V26v0c0,0,0,0,0,0c0,0,0,0,0,0.1s0,0,0,0c0,0,0,0.1,0,0.1v0c0,0,0,0,0,0v0.5c0,0,0,0.1,0,0.1s0,0.1,0,0.2
		c0,0.1,0.1,0.2,0.1,0.2c0.1,0,0.1,0,0.2,0c0.1,0,0.2,0,0.3,0C164.1,27.4,164.1,27.5,164.1,27.5z"/>
	<path class="st0" d="M171.8,24.9c0,0.3-0.3,0.8-1,1.4c-0.1,0.1-0.2,0.2-0.4,0.3c-0.2,0.1-0.4,0.3-0.5,0.4c-0.2,0.1-0.4,0.3-0.6,0.4
		c-0.2,0.1-0.3,0.2-0.4,0.3h0c0,0-0.1,0-0.2,0.1c-0.1,0-0.2,0.1-0.3,0.1c-0.4,0.1-0.8,0.1-1.3,0.1c-0.1,0-0.3,0-0.6-0.1
		c0,0-0.1,0-0.2-0.1s-0.2-0.1-0.3-0.1l-0.2-0.1c-0.1,0-0.1-0.1-0.2-0.1c-0.1,0-0.1-0.1-0.2-0.1c-0.3-0.2-0.5-0.3-0.5-0.5
		c0-0.1,0.1-0.3,0.3-0.6c0.2-0.3,0.4-0.5,0.5-0.5c0.1,0,0.2,0.1,0.3,0.2c0.1,0,0.1,0.1,0.2,0.1c0.1,0,0.1,0.1,0.2,0.1
		c0.1,0.1,0.2,0.1,0.4,0.2c0.1,0.1,0.3,0.1,0.4,0.2c0.2,0.1,0.4,0.1,0.5,0.1c0.2,0,0.3,0.1,0.4,0.1c0,0,0,0,0.1,0c0.1,0,0.1,0,0.1,0
		c0,0,0,0,0.1,0s0,0,0,0c0,0,0,0,0,0c0.3,0,0.6-0.1,0.9-0.2c0.2-0.1,0.3-0.2,0.4-0.3c0.1-0.1,0.2-0.2,0.3-0.3
		c0.1-0.1,0.1-0.2,0.1-0.4c0-0.3-0.2-0.6-0.6-0.8c-0.1-0.1-0.3-0.1-0.5-0.2c-0.2-0.1-0.4-0.1-0.6-0.1c-0.1,0-0.3,0-0.4-0.1
		c-0.1,0-0.3,0-0.4,0c-0.1,0-0.1,0-0.2,0c-0.1,0-0.2,0-0.3,0c-0.1,0-0.3,0-0.4-0.1c-0.1,0-0.3,0-0.5-0.1c-0.1,0-0.3-0.1-0.4-0.1
		c-0.1,0-0.3-0.1-0.4-0.2h0c-0.3-0.2-0.5-0.5-0.5-0.8c0-0.1,0-0.2,0.1-0.4c0.1-0.2,0.2-0.4,0.3-0.6c0.6-0.6,1.2-1.1,1.9-1.4
		c0.5-0.2,1.1-0.3,1.9-0.3c0.2,0,0.4,0,0.6,0c0.2,0,0.3,0,0.4,0.1c0.4,0.1,0.7,0.3,0.8,0.7c0.1,0.1,0.1,0.2,0.1,0.3
		c0,0.1-0.1,0.4-0.3,0.7c-0.2,0.4-0.5,0.6-0.7,0.6c0,0-0.1,0-0.2-0.1c-0.1-0.1-0.1-0.1-0.1-0.1c0-0.1,0.1-0.1,0.2-0.3
		c0.1-0.1,0.1-0.2,0.1-0.3c0-0.2-0.1-0.3-0.3-0.4c-0.2-0.1-0.5-0.1-0.8-0.2c0,0-0.1,0-0.2,0c-0.1,0-0.2,0-0.3,0c-0.1,0-0.2,0-0.3,0
		c-0.1,0-0.1,0-0.1,0c-0.2,0-0.3,0-0.3,0c0,0-0.1,0-0.2,0.1c-0.1,0-0.2,0.1-0.4,0.1c-0.2,0.1-0.5,0.2-0.7,0.5
		c-0.1,0.1-0.1,0.2-0.2,0.3c-0.1,0.1-0.1,0.3-0.1,0.3c0,0.1,0,0.2,0.1,0.2s0.2,0.1,0.3,0.2c0.2,0.1,0.4,0.1,0.7,0.1h0.9
		c0.1,0,0.3,0,0.6,0c0.1,0,0.2,0,0.3,0c0.1,0,0.2,0,0.3,0c0.1,0,0.3,0,0.4,0.1c0.1,0,0.2,0.1,0.3,0.1h0
		C171.2,23.8,171.8,24.3,171.8,24.9z"/>
	<path class="st0" d="M181.8,23.8c0,0.2,0,0.4,0,0.6c0,0.2,0,0.3-0.1,0.5c0,0.1-0.2,0.5-0.4,1.2c0,0,0,0.1-0.1,0.1c0,0-0.1,0.1-0.1,0.2
		c-0.1,0.1-0.1,0.1-0.1,0.2c0,0-0.1,0.1-0.1,0.1c-0.4,0.7-0.9,1.3-1.6,1.8h0c-0.3,0.3-0.5,0.4-0.8,0.3c-0.1-0.1-0.1-0.1-0.1-0.2
		c0,0,0-0.1,0-0.1c0-0.1,0.1-0.1,0.1-0.2c0-0.1,0.1-0.1,0.1-0.2c0-0.1,0.1-0.1,0.1-0.2c0.4-0.5,0.8-1.1,1-1.6
		c0.2-0.5,0.3-1.1,0.3-1.6c0-0.3,0-0.5-0.1-0.8c-0.1-0.3-0.1-0.6-0.2-0.9c-0.3-0.8-0.7-1.3-1.3-1.3c-0.2,0-0.5,0.1-0.8,0.2
		c-0.3,0.1-0.7,0.4-1.1,0.6c-0.4,0.3-0.7,0.6-0.9,0.8c-0.2,0.3-0.4,0.5-0.4,0.7c0,0.4,0,0.7,0,0.9c0,0.2,0,0.3,0,0.3
		c0,0,0,0.1,0,0.2c0,0.1,0,0.3,0,0.4c0,0.1,0,0.3,0,0.4c0,0.1,0,0.2,0,0.2c0,0.3,0,0.5,0.1,0.6l0,0c0,0,0,0.1,0.1,0.1
		c0,0,0.1,0.1,0.1,0.1c0,0,0,0.1,0,0.1c0,0,0,0.1,0,0.1c-0.1,0.1-0.2,0.1-0.3,0.2c-0.2,0.1-0.4,0.2-0.6,0.3
		c-0.2,0.1-0.4,0.2-0.5,0.2c-0.1,0-0.2,0.1-0.3,0.1c-0.1,0-0.2,0-0.3-0.1c-0.1-0.1-0.2-0.2-0.2-0.3l0.1-3c0-0.1,0-0.2,0-0.4
		s0-0.3,0-0.4c0-0.1,0-0.3,0-0.4c0-0.1,0-0.2,0-0.3c0-0.3,0-0.6,0-0.9c0-0.4,0-0.8,0-1.1c0-0.4,0-0.8,0-1.1c0-0.4,0-0.7,0-0.9
		c0,0,0,0,0-0.1c0,0,0-0.1,0-0.2c0-0.1,0-0.1-0.1-0.1l-0.2,0.1c0,0,0,0,0,0c0,0,0,0,0,0h0c-0.2,0.1-0.4,0.2-0.5,0.2
		c-0.1,0-0.1,0-0.2,0c-0.1-0.1-0.2-0.1-0.2-0.2c0-0.2,0.3-0.4,0.8-0.6c0.2-0.1,0.3-0.2,0.6-0.3c0.2-0.1,0.5-0.2,0.8-0.4h0
		c0.3-0.2,0.5-0.3,0.6-0.3c0.1,0,0.2,0,0.3,0.1s0.1,0.2,0.1,0.3c0,0.7,0,1.5,0,2.2c0,0.7,0,1.5,0,2.2c0,0,0,0.1,0,0.1
		c0,0,0,0.1,0,0.1c0,0.1,0,0.1,0.1,0.1s0.3-0.2,0.7-0.5c0.3-0.2,0.5-0.4,0.8-0.5s0.5-0.3,0.7-0.4c0.7-0.3,1.3-0.5,2-0.5
		c0.9,0,1.5,0.4,1.9,1.2C181.6,22.3,181.8,23,181.8,23.8z"/>
	<path class="st0" d="M202.5,21.3c0,0.3-0.1,0.5-0.3,0.8c-0.2,0.2-0.5,0.3-0.8,0.3c-0.2,0-0.3-0.1-0.3-0.2c0,0,0-0.1,0.1-0.1
		c0,0,0.1-0.1,0.1-0.1c0,0,0,0,0,0s0,0,0,0c0,0,0.1-0.1,0.1-0.1c0,0,0.1-0.1,0.1-0.1c0,0,0-0.1,0-0.1c0-0.1-0.1-0.2-0.3-0.3
		c-0.2-0.1-0.3-0.1-0.4-0.1c0,0-0.2,0-0.6,0.1c-0.5,0.1-0.9,0.3-1.2,0.5c-0.4,0.3-0.8,0.7-1,1.1v0c0,0.1-0.1,0.1-0.1,0.2
		c0,0.1-0.1,0.1-0.1,0.2c0,0,0,0.1-0.1,0.2s0,0.1-0.1,0.2h0c-0.1,0.3-0.2,0.6-0.2,0.8c0,0.4,0.1,0.8,0.3,1.2c0.2,0.4,0.6,0.8,1.1,1
		c0.1,0.1,0.3,0.1,0.4,0.1c0.1,0,0.2,0,0.3,0c0,0,0.1,0,0.2,0l0.1,0h0c0.1,0,0.3,0,0.6-0.1c0.1,0,0.2,0,0.2,0s0.1,0,0.2,0h0
		c0.1,0,0.1-0.1,0.2-0.1s0.2-0.1,0.2-0.1c0.3-0.1,0.5-0.2,0.5-0.2c0.2,0,0.3,0.1,0.3,0.3c0,0.1-0.1,0.2-0.3,0.4c0,0-0.1,0-0.1,0.1
		c-0.1,0-0.1,0.1-0.1,0.1c-0.3,0.2-0.6,0.3-0.8,0.4c-0.3,0.1-0.5,0.2-0.8,0.2h0c-0.5,0.1-0.9,0.1-1.1,0.1c-0.1,0-0.2,0-0.4,0
		s-0.3,0-0.5-0.1c-0.4-0.1-0.7-0.2-1-0.4c-0.3-0.2-0.5-0.4-0.7-0.6c-0.1-0.1-0.2-0.4-0.3-0.7c-0.1-0.3-0.1-0.5-0.1-0.8
		c0-0.2,0-0.4,0.1-0.6s0.1-0.5,0.2-0.7c0.2-0.6,0.5-1.1,0.8-1.6c0.4-0.5,0.8-0.9,1.4-1.2v0c0.9-0.6,1.9-0.9,2.9-0.9
		C202.1,20.5,202.5,20.8,202.5,21.3z"/>
	<path class="st0" d="M212.2,24.2c0,0.1,0,0.2,0,0.4c0,0.1,0,0.3-0.1,0.4c0,0.2-0.1,0.3-0.1,0.4c0,0.1-0.1,0.2-0.1,0.3c-0.9,1.5-2.3,2.3-4.2,2.3
		c-0.9,0-1.6-0.2-2.2-0.6c-0.3-0.2-0.6-0.4-0.8-0.7c-0.2-0.3-0.4-0.6-0.6-1c-0.1-0.1-0.2-0.4-0.3-0.7c0-0.1-0.1-0.2-0.1-0.4
		c0-0.1,0-0.3,0-0.4c0-0.2,0-0.4,0.1-0.6s0.1-0.4,0.1-0.7c0.1-0.2,0.1-0.4,0.2-0.6c0.1-0.2,0.2-0.4,0.3-0.5c0.4-0.6,1-1,1.8-1.3h0
		c0.1,0,0.3-0.1,0.4-0.1c0.2,0,0.4-0.1,0.6-0.1c0.5-0.1,0.9-0.1,1.1-0.1c1.1,0,2,0.4,2.8,1.2C211.8,22.3,212.2,23.2,212.2,24.2z
		 M210.5,24.8c0-0.4,0-0.6,0-0.6c-0.2-0.7-0.4-1.3-0.7-1.7c-0.3-0.6-0.8-1.1-1.4-1.3c-0.3-0.1-0.5-0.2-0.8-0.2
		c-0.5,0-0.9,0.1-1.3,0.4c-0.5,0.3-0.8,0.8-0.9,1.4c0,0,0,0.1-0.1,0.1c0,0.1,0,0.1-0.1,0.2c0,0,0,0.1,0,0.1s0,0.1,0,0.2
		c0,0,0,0,0,0.1c0,0,0,0,0,0.1c0,0.1,0,0.1,0,0.2c0,0.1,0,0.1,0,0.2c0,0.2,0,0.4,0.1,0.6l0,0c0,0,0,0,0,0.1c0,0,0,0.1,0,0.1v0
		c0,0,0,0.1,0,0.1c0,0,0,0.1,0,0.1c0.1,0.4,0.2,0.7,0.4,1c0.2,0.3,0.4,0.6,0.7,0.8c0.3,0.2,0.5,0.4,0.8,0.5c0.3,0.1,0.6,0.2,0.9,0.2
		c0.4,0,0.8-0.1,1.1-0.3c0.2-0.1,0.3-0.2,0.5-0.4s0.3-0.4,0.4-0.6c0.1-0.2,0.2-0.4,0.2-0.5c0,0,0-0.1,0-0.2
		C210.5,25.1,210.5,25,210.5,24.8z"/>
	<path class="st0" d="M223.4,27.6c0,0.1-0.1,0.2-0.3,0.3c-0.1,0-0.1,0-0.2,0c-0.1,0-0.1,0-0.2,0h-0.5c-0.1,0-0.2,0-0.2,0c-0.1,0-0.2,0-0.2-0.1
		c-0.2-0.1-0.3-0.2-0.4-0.4c0,0,0-0.1,0-0.1c0-0.1,0-0.1,0-0.2c0-0.1,0-0.2,0-0.3c0,0-0.1-0.1-0.2-0.1c-0.1,0-0.2-0.1-0.2-0.1
		c0,0-0.1,0-0.1,0c-0.1,0-0.1,0-0.2-0.1v0c-0.1,0-0.2-0.1-0.3-0.1c-0.1,0-0.3-0.1-0.5-0.2s-0.4-0.2-0.7-0.3
		c-0.3-0.1-0.5-0.2-0.7-0.3c-0.2-0.1-0.4-0.2-0.5-0.3c-0.3-0.1-0.5-0.3-0.7-0.4c-0.2-0.1-0.4-0.2-0.6-0.3l0,0c0,0-0.1-0.1-0.1-0.1v0
		c0,0-0.1-0.1-0.1-0.1c0,0-0.1-0.1-0.1-0.1c-0.2-0.1-0.3-0.2-0.3-0.2c-0.1,0-0.1,0.1-0.1,0.2v2.6c0,0.4-0.2,0.7-0.6,0.9
		c-0.3,0.1-0.6,0.2-1.1,0.2c-0.2,0-0.4-0.1-0.4-0.2v-1.6l0.2-3.4c0,0,0-0.1,0-0.1c0,0,0-0.1,0-0.1c0-0.1,0-0.1,0-0.2s0-0.1,0-0.1
		c0-0.6-0.2-0.9-0.6-1v-0.3c0.8-0.3,1.3-0.4,1.6-0.4c0.2,0,0.4,0.1,0.6,0.3c0,0,0.1,0.1,0.1,0.2c0,0.1,0.1,0.1,0.1,0.2
		c0.2,0.2,0.4,0.5,0.6,0.9c0.2,0.3,0.5,0.7,0.8,1.1c0.1,0.1,0.2,0.2,0.4,0.4c0.1,0.1,0.3,0.3,0.5,0.4c0.2,0.1,0.4,0.3,0.6,0.5
		c0.2,0.2,0.4,0.3,0.7,0.5c0.5,0.3,0.9,0.5,1.2,0.7c0.3,0.2,0.6,0.3,0.8,0.3c0.1,0,0.2,0,0.2-0.2c0,0,0-0.1,0-0.1c0,0,0-0.1,0-0.2
		c0-0.1,0-0.4,0-0.7s-0.1-0.7-0.1-1.2c0-0.5-0.1-0.9-0.1-1.3c0-0.4-0.1-0.7-0.1-1c0,0,0-0.1-0.1-0.2s-0.2-0.2-0.3-0.4
		c0.2-0.1,0.4-0.2,0.6-0.2c0.3,0,0.6,0,0.8,0.1c0.3,0.1,0.4,0.2,0.4,0.3c0.2,0.4,0.3,0.9,0.4,1.5c0.1,0.6,0.2,1.3,0.2,2v0.4
		c0,0.5,0,1,0,1.8c0,0.3,0.1,0.5,0.1,0.7v0c0,0,0,0.1,0.1,0.1c0,0,0,0.1,0.1,0.1v0C223.4,27.4,223.4,27.5,223.4,27.6z"/>
	<path class="st0" d="M231.2,21.2c0,0,0,0.1-0.1,0.1c0,0.1-0.1,0.1-0.1,0.2c0,0-0.1,0-0.1,0.1c-0.1,0-0.1,0.1-0.2,0.1c-0.1,0-0.2,0.1-0.3,0.1
		c-0.1,0-0.2,0-0.3,0c-0.1,0-0.2-0.1-0.4-0.2c-0.1-0.1-0.2-0.1-0.2-0.1s-0.1,0-0.1-0.1c-0.1,0-0.3,0-0.4-0.1s-0.3,0-0.4,0
		c-0.3,0-0.6,0.1-1,0.4c-0.2,0.1-0.3,0.2-0.5,0.4c-0.2,0.1-0.3,0.3-0.5,0.5v0c0,0,0,0.1-0.1,0.1c0,0,0,0.1,0,0.1s0,0.1,0,0.2v0.1
		c0,0.1,0,0.2,0,0.3c0,0.1,0,0.3,0,0.4c0,0,0,0.1,0.1,0.1c0,0,0.1,0,0.2,0c0,0,0,0,0,0c0,0,0,0,0.1,0c0.1,0,0.1,0,0.3,0
		c0.1,0,0.2,0,0.4,0c0.1,0,0.3,0,0.4,0c0.1,0,0.2,0,0.3,0c0,0,0.1,0,0.1,0s0,0,0,0c0.1,0,0.2,0,0.3,0s0.2,0,0.4,0
		c0.1,0,0.2,0.1,0.2,0.2c0,0.1,0,0.1-0.1,0.2c0,0-0.1,0-0.1,0.1s-0.1,0-0.1,0.1c-0.2,0.1-0.4,0.2-0.7,0.2c-0.2,0-0.4,0-0.7,0
		c-0.1,0-0.2,0-0.3,0s-0.2,0-0.3,0c-0.2,0-0.3,0.1-0.4,0.1c0,0,0,0.1,0,0.2c0,0,0,0.1,0,0.1s0,0.1,0,0.1c0,0,0,0.1,0,0.1
		c0,0,0,0,0,0.1v2.1c0,0.1,0,0.2,0,0.3c0,0.1,0,0.1,0,0.1l0,2.2c0,0.3-0.1,0.6-0.4,0.9c-0.1,0.2-0.3,0.3-0.4,0.4
		c-0.2,0.1-0.3,0.2-0.5,0.3h0l-0.2,0.1c-0.1,0-0.2,0.1-0.2,0.1c-0.2,0-0.3-0.1-0.3-0.2c0-0.1,0.1-0.2,0.2-0.3
		c0.1-0.1,0.1-0.1,0.1-0.2c0-0.1,0.1-0.1,0.1-0.2c0.1-0.2,0.1-0.4,0.1-0.6c0,0,0,0,0-0.1s0-0.1,0-0.1c0,0,0,0,0-0.1c0,0,0-0.1,0-0.1
		v0c0,0,0-0.1,0-0.2c0-0.1,0-0.1,0-0.1c0-0.1,0-0.2,0-0.3s0-0.2,0-0.2c0-0.1,0-0.2,0-0.3c0-0.1,0-0.3,0-0.5v-0.8c0,0,0-0.1,0-0.1
		c0-0.1,0-0.1,0-0.2c0-0.1,0-0.1,0-0.2c0-0.1,0-0.1,0-0.2v0c0,0,0,0,0,0l0,0c0,0,0,0,0-0.1c0,0,0,0,0,0c0-0.1,0-0.3,0-0.7
		c0-0.3,0-0.8,0-1.3l0-3.3c0-0.1,0-0.1,0-0.3c0-0.1-0.1-0.1-0.2-0.2h0c-0.1,0-0.2,0-0.3-0.1c-0.1,0-0.1-0.1-0.2-0.1v-0.2
		c0.1-0.1,0.3-0.1,0.4-0.1c0.1,0,0.3,0,0.5,0c0.1,0,0.2,0,0.2,0c0.1,0,0.1,0,0.1,0c0.4,0,0.7,0.1,0.7,0.3c0,0.1,0,0.3,0,0.6
		c0,0,0,0,0.1,0c0,0,0.1-0.1,0.4-0.2h0c0.3-0.2,0.5-0.3,0.6-0.4c0.2-0.1,0.5-0.2,0.8-0.3c0.3-0.1,0.6-0.1,0.9-0.1
		C230.1,20.5,230.8,20.7,231.2,21.2L231.2,21.2z"/>
	<path class="st0" d="M235.5,27.5c0,0.1-0.1,0.2-0.2,0.2c0,0-0.1,0-0.1,0.1c0,0-0.1,0-0.1,0c-0.1,0-0.2,0-0.3,0c-0.1,0-0.3,0-0.5,0
		c0,0,0,0-0.1,0s-0.1,0-0.3,0c-0.1,0-0.2,0-0.2,0c-0.1,0-0.1,0-0.1,0c-0.1,0-0.2,0-0.3-0.1h0c-0.1-0.1-0.2-0.1-0.2-0.2
		c-0.1-0.2-0.1-0.3-0.1-0.4v-1.5c0,0,0,0,0-0.1c0,0,0,0,0-0.1c0-0.1,0-0.2,0-0.2V25h0.1c0,0,0,0-0.1-0.1c0,0-0.1-0.1-0.1-0.1
		c0-0.1,0-0.1,0-0.2c0-0.1,0-0.1,0-0.1c0-0.1,0-0.1,0-0.2c0-0.1,0-0.2,0-0.2c0-0.2,0-0.3,0-0.3v-0.6l0-0.9c0-0.1,0-0.2,0-0.3
		s0-0.2,0-0.3c0-0.4-0.1-0.6-0.2-0.7l0,0c0,0-0.1,0-0.2,0c-0.1,0-0.3,0-0.4-0.1c-0.3,0-0.5-0.1-0.5-0.2c0-0.1,0.1-0.2,0.3-0.2v0
		c0.1,0,0.1,0,0.1,0c0,0,0.1,0,0.1,0c0.5,0,0.8-0.1,1.1-0.1c0.3,0,0.4,0,0.5,0c0.1,0,0.3,0,0.5,0.1c0.2,0.1,0.4,0.2,0.4,0.3V23
		c0,0,0,0,0,0.1s0,0.1,0,0.3c0,0.1,0,0.2,0,0.3s0,0.2,0,0.2c0,0,0,0,0,0.1s0,0,0,0.1c0,0,0,0,0,0c0,0,0,0,0,0c0,0,0,0.1,0,0.1
		s0,0,0,0V26v0c0,0,0,0,0,0c0,0,0,0,0,0.1s0,0,0,0c0,0,0,0.1,0,0.1v0c0,0,0,0,0,0v0.5c0,0,0,0.1,0,0.1s0,0.1,0,0.2
		c0,0.1,0.1,0.2,0.1,0.2c0.1,0,0.1,0,0.2,0c0.1,0,0.2,0,0.3,0C235.5,27.4,235.5,27.5,235.5,27.5z"/>
	<path class="st0" d="M244.5,27.2C244.5,27.2,244.5,27.2,244.5,27.2c0,0.1,0,0.1,0,0.1c0,0.1,0,0.2-0.1,0.3c-0.1,0.1-0.2,0.2-0.4,0.2
		c-0.1,0-0.2,0.1-0.3,0.1s-0.2,0-0.3,0c-0.4,0-0.7-0.2-0.7-0.5c0,0,0,0,0-0.1c0,0,0-0.1,0-0.1c0,0,0-0.1,0-0.1c0,0,0,0,0-0.1
		c0-0.1-0.1-0.2-0.2-0.2c0,0-0.1,0.1-0.2,0.1c-0.1,0-0.2,0.1-0.2,0.1c-0.2,0.1-0.3,0.2-0.5,0.3c-0.2,0.1-0.4,0.2-0.5,0.2
		c-0.2,0.1-0.5,0.2-0.7,0.2s-0.5,0.1-0.7,0.1c-0.9,0-1.7-0.3-2.4-1c-0.6-0.6-1-1.4-1-2.4c0-1,0.4-1.9,1.2-2.6c0.7-0.6,1.5-1,2.6-1.4
		c0.9-0.3,1.7-0.4,2.4-0.4c0.4,0,0.8,0.1,1.2,0.3h0c0.5,0.2,0.7,0.6,0.7,1c0,0.4-0.2,0.7-0.5,1c-0.2,0.1-0.3,0.2-0.5,0.3
		c-0.2,0.1-0.4,0.1-0.6,0.1c-0.1-0.1-0.1-0.2-0.1-0.2c0,0,0-0.1,0-0.1c0,0,0-0.1,0-0.1s0,0,0-0.1c0,0,0-0.1,0-0.1c0,0,0-0.1,0-0.1
		c0-0.1,0-0.2-0.1-0.3c-0.1-0.1-0.2-0.2-0.4-0.3c-0.1-0.1-0.3-0.2-0.4-0.2c-0.2-0.1-0.4-0.1-0.7-0.1c-0.4,0-0.8,0.1-1.1,0.2
		c-0.4,0.1-0.7,0.3-1.1,0.5c-0.4,0.3-0.7,0.6-0.9,0.9c-0.2,0.3-0.3,0.7-0.3,1.2c0,0.7,0.3,1.3,0.8,2v0c0.6,0.7,1.2,1,1.9,1
		c0.3,0,0.8-0.1,1.3-0.4c0.5-0.2,0.8-0.5,0.8-0.6c0-0.1,0.1-0.3,0.1-0.7c0,0,0,0,0,0s0,0,0-0.1c0,0,0-0.1,0-0.1c0,0,0-0.1,0-0.1
		c0-0.3-0.1-0.4-0.3-0.4c0,0-0.3,0.1-0.7,0.2c-0.2,0-0.4,0.1-0.5,0.1c-0.1,0-0.2,0-0.2,0c0,0-0.1,0-0.1,0c-0.1,0-0.1,0-0.1-0.1
		c0,0-0.1-0.1-0.1-0.1c0,0,0-0.1,0-0.1c0-0.1,0.1-0.2,0.2-0.4c0.1-0.1,0.3-0.2,0.4-0.2c0.2,0,0.4-0.1,0.7-0.1c0.3,0,0.5-0.1,0.9-0.1
		c0.3,0,0.5-0.1,0.7-0.1c0.2,0,0.3,0,0.3,0c0.6,0,0.8,0.2,0.8,0.5L244.5,27.2z"/>
	<path class="st0" d="M252.6,24.9c0,0.3-0.3,0.8-1,1.4c-0.1,0.1-0.2,0.2-0.4,0.3c-0.2,0.1-0.4,0.3-0.5,0.4c-0.2,0.1-0.4,0.3-0.6,0.4
		c-0.2,0.1-0.3,0.2-0.4,0.3h0c0,0-0.1,0-0.2,0.1c-0.1,0-0.2,0.1-0.3,0.1c-0.4,0.1-0.8,0.1-1.3,0.1c-0.1,0-0.3,0-0.6-0.1
		c0,0-0.1,0-0.2-0.1s-0.2-0.1-0.3-0.1l-0.2-0.1c-0.1,0-0.1-0.1-0.2-0.1c-0.1,0-0.1-0.1-0.2-0.1c-0.3-0.2-0.5-0.3-0.5-0.5
		c0-0.1,0.1-0.3,0.3-0.6c0.2-0.3,0.4-0.5,0.5-0.5c0.1,0,0.2,0.1,0.3,0.2c0.1,0,0.1,0.1,0.2,0.1c0.1,0,0.1,0.1,0.2,0.1
		c0.1,0.1,0.2,0.1,0.4,0.2c0.1,0.1,0.3,0.1,0.4,0.2c0.2,0.1,0.4,0.1,0.5,0.1c0.2,0,0.3,0.1,0.4,0.1c0,0,0,0,0.1,0c0.1,0,0.1,0,0.1,0
		c0,0,0,0,0.1,0s0,0,0,0c0,0,0,0,0,0c0.3,0,0.6-0.1,0.9-0.2c0.2-0.1,0.3-0.2,0.4-0.3c0.1-0.1,0.2-0.2,0.3-0.3
		c0.1-0.1,0.1-0.2,0.1-0.4c0-0.3-0.2-0.6-0.6-0.8c-0.1-0.1-0.3-0.1-0.5-0.2c-0.2-0.1-0.4-0.1-0.6-0.1c-0.1,0-0.3,0-0.4-0.1
		c-0.1,0-0.3,0-0.4,0c-0.1,0-0.1,0-0.2,0c-0.1,0-0.2,0-0.3,0c-0.1,0-0.3,0-0.4-0.1c-0.1,0-0.3,0-0.5-0.1c-0.1,0-0.3-0.1-0.4-0.1
		c-0.1,0-0.3-0.1-0.4-0.2h0c-0.3-0.2-0.5-0.5-0.5-0.8c0-0.1,0-0.2,0.1-0.4c0.1-0.2,0.2-0.4,0.3-0.6c0.6-0.6,1.2-1.1,1.9-1.4
		c0.5-0.2,1.1-0.3,1.9-0.3c0.2,0,0.4,0,0.6,0c0.2,0,0.3,0,0.4,0.1c0.4,0.1,0.7,0.3,0.8,0.7c0.1,0.1,0.1,0.2,0.1,0.3
		c0,0.1-0.1,0.4-0.3,0.7c-0.2,0.4-0.5,0.6-0.7,0.6c0,0-0.1,0-0.2-0.1c-0.1-0.1-0.1-0.1-0.1-0.1c0-0.1,0.1-0.1,0.2-0.3
		c0.1-0.1,0.1-0.2,0.1-0.3c0-0.2-0.1-0.3-0.3-0.4c-0.2-0.1-0.5-0.1-0.8-0.2c0,0-0.1,0-0.2,0c-0.1,0-0.2,0-0.3,0c-0.1,0-0.2,0-0.3,0
		c-0.1,0-0.1,0-0.1,0c-0.2,0-0.3,0-0.3,0c0,0-0.1,0-0.2,0.1c-0.1,0-0.2,0.1-0.4,0.1c-0.2,0.1-0.5,0.2-0.7,0.5
		c-0.1,0.1-0.1,0.2-0.2,0.3c-0.1,0.1-0.1,0.3-0.1,0.3c0,0.1,0,0.2,0.1,0.2s0.2,0.1,0.3,0.2c0.2,0.1,0.4,0.1,0.7,0.1h0.9
		c0.1,0,0.3,0,0.6,0c0.1,0,0.2,0,0.3,0c0.1,0,0.2,0,0.3,0c0.1,0,0.3,0,0.4,0.1c0.1,0,0.2,0.1,0.3,0.1h0
		C252.1,23.8,252.6,24.3,252.6,24.9z"/>
</g>
<g>
</g>
<g>
</g>
<g>
</g>
<g>
</g>
<g>
</g>
<g>
</g>
<g>
</g>
<g>
</g>
<g>
</g>
<g>
</g>
<g>
</g>
<g>
</g>
<g>
</g>
<g>
</g>
<g>
</g>
</svg>
